<svg width="203" height="191" viewBox="0 0 203 191" fill="none" xmlns="http://www.w3.org/2000/svg">
<path d="M163.888 93.7201L126.94 72.8704C123.998 71.2102 120.49 70.8735 117.286 71.9441L29.2 101.373C22.9013 103.478 19.5284 110.317 21.6935 116.595L43.1333 178.765C45.2866 185.009 52.0987 188.32 58.3387 186.155L145.774 155.822C149.045 154.688 151.663 152.188 152.949 148.973L169.109 108.555C171.329 103.001 169.099 96.66 163.888 93.7201ZM152.733 109.595C152.427 115.026 147.776 119.182 142.344 118.875C136.913 118.569 132.757 113.918 133.064 108.487C133.37 103.055 138.021 98.9001 143.452 99.206C148.884 99.5118 153.039 104.163 152.733 109.595Z" fill="#E8505B"/>
<g opacity="0.4">
<path d="M163.888 93.7201L126.94 72.8704C123.998 71.2102 120.49 70.8735 117.286 71.9441L29.2 101.373C22.9013 103.478 19.5284 110.317 21.6935 116.595L43.1333 178.765C45.2866 185.009 52.0987 188.32 58.3387 186.155L145.774 155.822C149.045 154.688 151.663 152.188 152.949 148.973L169.109 108.555C171.329 103.001 169.099 96.66 163.888 93.7201ZM152.733 109.595C152.427 115.026 147.776 119.182 142.344 118.875C136.913 118.569 132.757 113.918 133.064 108.487C133.37 103.055 138.021 98.9001 143.452 99.206C148.884 99.5118 153.039 104.163 152.733 109.595Z" fill="black"/>
</g>
<path d="M168.514 92.1373L131.566 71.2877C128.624 69.6275 125.116 69.2908 121.912 70.3613L33.8256 99.7907C27.5268 101.895 24.154 108.734 26.3195 115.012L47.7593 177.182C49.9126 183.426 56.7247 186.737 62.9647 184.572L150.4 154.239C153.671 153.105 156.289 150.605 157.575 147.39L173.735 106.973C175.955 101.418 173.724 95.0774 168.514 92.1373ZM157.359 108.012C157.052 113.443 152.401 117.599 146.97 117.293C141.538 116.986 137.383 112.335 137.689 106.904C137.995 101.472 142.647 97.3174 148.078 97.6232C153.509 97.929 157.664 102.58 157.359 108.012Z" fill="#E8505B"/>
<path d="M62.7297 126.008C60.2195 118.443 63.2395 112.102 69.7791 109.932C76.3191 107.761 82.4454 110.995 84.977 118.625C87.5088 126.254 84.5319 132.509 77.9919 134.68C71.4523 136.85 65.2404 133.573 62.7297 126.008ZM78.5655 120.752C76.9696 115.944 74.3446 114.253 71.5234 115.19C68.7672 116.104 67.6307 119.115 69.205 123.859C70.7798 128.603 73.4902 130.337 76.2464 129.422C79.0682 128.486 80.1615 125.561 78.5655 120.752ZM96.6843 101.573L104.314 99.0408L88.5611 154.091L80.9319 156.623L96.6843 101.573ZM100.269 137.038C97.7587 129.473 100.779 123.132 107.254 120.983C113.794 118.813 120.006 122.089 122.517 129.655C125.027 137.22 122.006 143.561 115.467 145.731C108.992 147.879 102.78 144.603 100.269 137.038ZM116.041 131.804C114.467 127.059 111.82 125.305 108.999 126.241C106.242 127.156 105.085 130.102 106.681 134.91C108.276 139.719 110.966 141.389 113.722 140.474C116.543 139.537 117.616 136.548 116.041 131.804Z" fill="white"/>
<path d="M171.928 111.648C171.942 111.612 172.317 111.726 173.016 111.976C173.714 112.227 174.74 112.61 176.05 113.131C177.362 113.65 178.959 114.304 180.791 115.123C182.622 115.943 184.689 116.927 186.903 118.161C189.111 119.4 191.482 120.873 193.812 122.758C194.102 122.994 194.395 123.232 194.69 123.472C194.975 123.725 195.263 123.98 195.553 124.236C196.138 124.74 196.707 125.299 197.255 125.891C198.342 127.08 199.368 128.452 199.991 130.11C200.299 130.936 200.482 131.837 200.484 132.757C200.491 133.677 200.307 134.615 199.943 135.476C199.225 137.211 197.892 138.667 196.258 139.663C194.617 140.658 192.719 141.183 190.806 141.386C188.885 141.59 186.941 141.503 184.999 141.255C181.104 140.749 177.466 139.433 174.192 137.786C172.553 136.96 171.001 136.036 169.539 135.056C168.083 134.084 166.678 133.101 165.329 132.112C159.937 128.15 155.43 124.094 152.139 120.221C151.317 119.257 150.566 118.312 149.885 117.392C149.548 116.929 149.223 116.478 148.928 116.022C148.637 115.56 148.344 115.136 148.132 114.641C147.662 113.692 147.569 112.608 147.871 111.731C148.162 110.848 148.741 110.204 149.318 109.759C149.605 109.526 149.913 109.367 150.197 109.211C150.497 109.091 150.77 108.959 151.046 108.9C151.584 108.737 152.067 108.727 152.446 108.74C152.826 108.781 153.113 108.839 153.289 108.93C153.469 109.007 153.554 109.054 153.546 109.071C153.539 109.088 153.438 109.076 153.256 109.038C153.078 108.985 152.798 108.966 152.441 108.962C152.083 108.985 151.636 109.028 151.143 109.213C150.89 109.282 150.642 109.423 150.369 109.548C150.114 109.708 149.838 109.868 149.585 110.093C149.076 110.524 148.591 111.123 148.372 111.885C148.146 112.642 148.246 113.54 148.685 114.37C148.876 114.793 149.184 115.221 149.474 115.653C149.772 116.087 150.102 116.523 150.443 116.969C151.134 117.856 151.896 118.773 152.727 119.71C156.036 123.452 160.553 127.412 165.926 131.29C167.27 132.259 168.67 133.223 170.12 134.178C171.56 135.13 173.077 136.023 174.678 136.822C177.873 138.412 181.401 139.677 185.144 140.162C187.009 140.401 188.885 140.484 190.688 140.295C192.488 140.108 194.23 139.622 195.699 138.738C197.157 137.861 198.348 136.562 198.971 135.07C199.617 133.583 199.577 131.924 199.037 130.456C198.499 128.98 197.563 127.683 196.539 126.543C196.022 125.972 195.487 125.433 194.918 124.931C194.639 124.677 194.361 124.425 194.086 124.175C193.801 123.936 193.517 123.7 193.236 123.465C190.983 121.591 188.673 120.103 186.517 118.836C184.355 117.574 182.328 116.549 180.532 115.68C178.735 114.812 177.167 114.103 175.883 113.524C174.606 112.942 173.613 112.49 172.931 112.179C172.26 111.865 171.913 111.682 171.928 111.648Z" fill="#263238"/>
<path d="M108.96 63.7798C108.906 63.8074 105.103 56.357 100.466 47.1414C95.8281 37.9227 92.1136 30.4295 92.1683 30.4023C92.2224 30.3748 96.0254 37.8235 100.663 47.0423C105.299 56.258 109.015 63.7523 108.96 63.7798Z" fill="#263238"/>
<path d="M127.305 9.63787C127.309 9.63797 127.311 9.68345 127.31 9.77191C127.307 9.87241 127.304 10.0016 127.3 10.1643C127.286 10.5237 127.266 11.0291 127.241 11.6718C127.185 12.996 127.105 14.8864 127.006 17.2157C126.813 21.8969 126.583 28.3649 126.429 35.5118C126.276 42.6608 126.229 49.1334 126.22 53.8189C126.219 56.1504 126.218 58.0424 126.217 59.3674C126.214 60.0108 126.212 60.5164 126.211 60.8761C126.208 61.0385 126.205 61.1681 126.204 61.2684C126.201 61.357 126.197 61.402 126.194 61.4025C126.19 61.4024 126.186 61.3573 126.181 61.269C126.177 61.1688 126.172 61.0395 126.166 60.877C126.158 60.5172 126.146 60.0119 126.131 59.3686C126.103 58.0587 126.08 56.1626 126.064 53.8195C126.033 49.1333 126.056 42.6584 126.208 35.5077C126.363 28.3589 126.618 21.8897 126.85 17.2096C126.966 14.8694 127.071 12.9758 127.155 11.6682C127.198 11.0258 127.231 10.5214 127.255 10.1627C127.268 10.0004 127.278 9.87158 127.287 9.77129C127.295 9.68291 127.301 9.6379 127.305 9.63787Z" fill="#263238"/>
<path d="M161.5 32.3531C161.55 32.3867 157.356 38.8358 152.132 46.7561C146.906 54.6787 142.63 61.0726 142.579 61.039C142.528 61.0054 146.722 54.5579 151.948 46.6347C157.172 38.7144 161.449 32.3194 161.5 32.3531Z" fill="#263238"/>
<path d="M95.5631 69.9979C95.5294 70.0483 92.3472 67.9827 88.4569 65.3844C84.5649 62.7853 81.4384 60.6381 81.4725 60.5875C81.5066 60.5369 84.6877 62.602 88.5793 65.2012C92.4697 67.7995 95.5968 69.9475 95.5631 69.9979Z" fill="#263238"/>
<path d="M170.966 68.8452C170.969 68.906 167.124 69.1328 162.379 69.3512C157.633 69.5698 153.785 69.6977 153.782 69.6369C153.779 69.5761 157.623 69.3496 162.369 69.131C167.114 68.9126 170.963 68.7845 170.966 68.8452Z" fill="#263238"/>
<path d="M120.475 85.9812L122.564 83.5923L123.035 80.4537L125.424 82.5431L128.562 83.0137L126.473 85.4026L126.002 88.5411L123.613 86.4518L120.475 85.9812Z" fill="white"/>
<path d="M104.993 86.6625L105.724 85.8264L105.889 84.7277L106.725 85.4592L107.824 85.6239L107.093 86.4601L106.928 87.5589L106.092 86.8276L104.993 86.6625Z" fill="white"/>
<path d="M120.269 101.976L121.683 100.359L122.002 98.2349L123.618 99.6489L125.743 99.9676L124.329 101.584L124.01 103.708L122.393 102.294L120.269 101.976Z" fill="white"/>
</svg>
