<svg width="79" height="79" viewBox="0 0 79 79" fill="none" xmlns="http://www.w3.org/2000/svg">
<path d="M0.90624 64.4246C3.21739 70.0442 8.61883 72.7022 12.0712 74.401C25.6792 81.0973 46.3523 80.3116 61.2349 68.0964C64.7177 65.2379 81.8835 50.2626 77.8886 29.9848C74.357 12.0589 56.5867 1.65997 41.6209 0.278089C29.2223 -0.866772 13.03 3.65832 7.30681 14.5941C3.70794 21.4708 8.03133 23.6547 5.08755 39.2363C2.53955 52.7227 -1.92066 57.5509 0.90624 64.4246Z" fill="#CADDFF"/>
<path d="M0.90624 64.4246C3.21739 70.0442 8.61883 72.7022 12.0712 74.401C25.6792 81.0973 46.3523 80.3116 61.2349 68.0964C64.7177 65.2379 81.8835 50.2626 77.8886 29.9848C74.357 12.0589 56.5867 1.65997 41.6209 0.278089C29.2223 -0.866772 13.03 3.65832 7.30681 14.5941C3.70794 21.4708 8.03133 23.6547 5.08755 39.2363C2.53955 52.7227 -1.92066 57.5509 0.90624 64.4246Z" fill="#EBF0FC"/>
<path d="M18.7688 7.76592C18.6545 7.76592 18.5401 7.74458 18.4303 7.70193C18.1916 7.60922 18.0037 7.42702 17.901 7.18901C17.6916 6.70366 17.9091 6.13459 18.3858 5.92046C18.6158 5.81712 18.8717 5.81065 19.1064 5.90181C19.345 5.99452 19.533 6.17672 19.6357 6.41469C19.8451 6.90005 19.6276 7.4692 19.1509 7.68333C19.0285 7.73832 18.8988 7.76592 18.7688 7.76592ZM18.5021 6.17925C18.1659 6.33025 18.0132 6.73289 18.1615 7.07676C18.2339 7.24439 18.3658 7.37255 18.5331 7.43757C18.6965 7.50117 18.8748 7.49637 19.0348 7.42462C19.3709 7.27362 19.5237 6.87099 19.3753 6.52703C19.303 6.3594 19.171 6.23124 19.0037 6.16622C18.8403 6.10279 18.6621 6.10729 18.5021 6.17925Z" fill="black"/>
<path d="M22.5502 4.79342C22.539 4.79342 22.5277 4.79213 22.5163 4.78935C22.4403 4.7707 22.3937 4.69385 22.4123 4.61778L22.587 3.90534C22.6057 3.82935 22.6825 3.78306 22.7586 3.80136C22.8346 3.82 22.8812 3.89685 22.8626 3.97293L22.6878 4.68541C22.672 4.75009 22.614 4.79342 22.5502 4.79342Z" fill="black"/>
<path d="M22.143 6.4527C22.1318 6.4527 22.1204 6.45141 22.1091 6.44863C22.033 6.42998 21.9864 6.35313 22.0051 6.27705L22.1797 5.56457C22.1984 5.48858 22.2751 5.44212 22.3513 5.46059C22.4274 5.47924 22.4739 5.55609 22.4553 5.63217L22.2806 6.3446C22.2648 6.40936 22.2068 6.4527 22.143 6.4527Z" fill="black"/>
<path d="M21.961 5.15085C21.9498 5.15085 21.9384 5.14956 21.9271 5.14678L21.2145 4.97208C21.1385 4.95343 21.0919 4.87658 21.1106 4.8005C21.1292 4.72438 21.2059 4.67779 21.2821 4.69652L21.9946 4.87122C22.0707 4.88987 22.1173 4.96672 22.0986 5.0428C22.0828 5.10756 22.0248 5.15085 21.961 5.15085Z" fill="black"/>
<path d="M23.6201 5.55793C23.609 5.55793 23.5976 5.55665 23.5863 5.55386L22.8738 5.37924C22.7977 5.3606 22.7511 5.28375 22.7697 5.20767C22.7884 5.13159 22.8652 5.08513 22.9413 5.10369L23.6538 5.27831C23.7299 5.29695 23.7765 5.3738 23.7578 5.44988C23.7419 5.51464 23.684 5.55793 23.6201 5.55793Z" fill="black"/>
<path d="M41.3443 73.8678L46.5932 27.4125C46.6638 26.7883 47.2209 26.2799 47.8376 26.2771L77.3186 26.1441C77.9353 26.1413 78.3781 26.6451 78.3076 27.2693L73.0586 73.7246C72.9881 74.3489 72.431 74.8572 71.8143 74.86L42.3332 74.993C41.7165 74.9959 41.2738 74.4921 41.3443 73.8678Z" fill="#99B9FF"/>
<path d="M39.1099 72.0826L43.9276 29.4438C43.9982 28.8195 44.5553 28.3112 45.172 28.3084L74.653 28.1753C75.2697 28.1725 75.7125 28.6763 75.6419 29.3006L70.8242 71.9394C70.7537 72.5637 70.1966 73.072 69.5799 73.0747L40.0988 73.2078C39.4821 73.2107 39.0394 72.7068 39.1099 72.0826Z" fill="white"/>
<path d="M37.8804 71.8921L42.6981 29.2533C42.7687 28.629 43.3258 28.1207 43.9425 28.118L73.4236 27.9849C74.0402 27.9821 74.483 28.4859 74.4125 29.1102L69.5948 71.749C69.5242 72.3732 68.9671 72.8816 68.3504 72.8843L38.8694 73.0174C38.2526 73.0202 37.8099 72.5164 37.8804 71.8921Z" fill="#CADDFF"/>
<path d="M35.9214 74.7898L41.3733 26.5385C41.4439 25.9142 42.001 25.4059 42.6177 25.4031L72.0987 25.27C72.7154 25.2672 73.1582 25.771 73.0877 26.3953L67.6358 74.6466C67.5653 75.2708 67.0082 75.7792 66.3915 75.7819L36.9104 75.915C36.2937 75.9178 35.8509 75.414 35.9214 74.7898Z" fill="#5479F7"/>
<path d="M55.124 10.7964H16.6062C15.3911 10.7964 14.2597 11.8691 14.0791 13.1923L6.32915 69.9764C6.14858 71.2996 6.9872 72.3723 8.20222 72.3723H46.7201C47.9351 72.3723 49.0665 71.2996 49.2471 69.9764L56.9971 13.1923C57.1777 11.8691 56.3391 10.7964 55.124 10.7964Z" fill="black"/>
<path d="M46.7189 72.5139H8.20105C7.61069 72.5139 7.07728 72.2752 6.69916 71.8421C6.27655 71.3579 6.08997 70.6707 6.18744 69.9569L13.9374 13.1728C14.1269 11.7841 15.3236 10.6543 16.605 10.6543H55.1229C55.7133 10.6543 56.2467 10.8929 56.6248 11.3261C57.0474 11.8103 57.2339 12.4974 57.1365 13.2112L49.3865 69.9953C49.197 71.384 48.0003 72.5139 46.7189 72.5139ZM16.605 10.938C15.4601 10.938 14.3895 11.9578 14.2185 13.2112L6.46852 69.9953C6.38216 70.6279 6.54413 71.233 6.91291 71.6555C7.23634 72.0261 7.69384 72.2302 8.20105 72.2302H46.7189C47.8637 72.2302 48.9343 71.2104 49.1054 69.9569L56.8554 13.1728C56.9417 12.5402 56.7798 11.935 56.411 11.5126C56.0876 11.1421 55.6301 10.938 55.1229 10.938L16.605 10.938Z" fill="black"/>
<path d="M53.882 10.5239H15.3641C14.1491 10.5239 13.0178 11.6045 12.8374 12.9375L5.09473 70.1405C4.91433 71.4735 5.75307 72.5541 6.9681 72.5541H45.486C46.701 72.5541 47.8323 71.4735 48.0127 70.1405L55.7553 12.9375C55.9358 11.6045 55.097 10.5239 53.882 10.5239Z" fill="#99B9FF"/>
<path d="M43.8815 66.3633H10.2471L17.2867 14.354H50.9212L43.8815 66.3633Z" fill="white"/>
<path d="M16.3069 34.0371C16.2656 34.0371 16.2263 34.0191 16.1994 33.9878C16.1723 33.9563 16.1604 33.9147 16.1667 33.8737L17.4901 25.2663C17.5007 25.1976 17.5595 25.1466 17.6289 25.146L47.8674 24.8512C47.9101 24.849 47.9489 24.8688 47.9762 24.9004C48.0035 24.932 48.0154 24.9739 48.009 25.0151L46.6297 33.7993C46.6189 33.8681 46.5597 33.9189 46.4901 33.9192L16.3074 34.0371C16.3072 34.0371 16.3071 34.0371 16.3069 34.0371ZM17.7522 25.4285L16.4723 33.7528L46.3682 33.636L47.7027 25.1366L17.7522 25.4285Z" fill="#99B9FF"/>
<path d="M17.3645 27.0216C17.2865 27.0216 17.2231 26.9586 17.2227 26.8806C17.2222 26.8023 17.2853 26.7384 17.3637 26.7379L47.5454 26.561C47.5457 26.561 47.5459 26.561 47.5462 26.561C47.6242 26.561 47.6876 26.624 47.688 26.702C47.6885 26.7804 47.6254 26.8443 47.547 26.8447L17.3653 27.0216C17.3651 27.0216 17.3648 27.0216 17.3645 27.0216Z" fill="#99B9FF"/>
<path d="M37.3979 32.4189H17.6445L17.917 30.876H37.6704L37.3979 32.4189Z" fill="#CADDFF"/>
<path d="M37.7573 30.0737H18.0039L18.2763 28.5308H38.0298L37.7573 30.0737Z" fill="#CADDFF"/>
<path d="M45.7432 30.0737H39.1992L39.4716 28.5308H46.0156L45.7432 30.0737Z" fill="#CADDFF"/>
<path d="M45.2295 32.4809H38.6855L38.958 30.938H45.502L45.2295 32.4809Z" fill="#CADDFF"/>
<path d="M42.4361 63.3484C42.436 63.3484 42.4359 63.3484 42.4358 63.3484L11.9736 63.2878C11.9319 63.2877 11.8925 63.2693 11.8656 63.2376C11.8387 63.2058 11.8272 63.1639 11.8339 63.1228L13.6053 52.4261C13.6166 52.3582 13.6751 52.3081 13.7439 52.3074L43.9825 52.0127C43.983 52.0127 43.9834 52.0127 43.9839 52.0127C44.0246 52.0127 44.0635 52.0302 44.0904 52.0609C44.1177 52.0919 44.13 52.1333 44.1243 52.1742L42.5765 63.2263C42.5668 63.2963 42.5068 63.3484 42.4361 63.3484ZM12.1411 63.0045L42.3127 63.0644L43.8206 52.2979L13.8658 52.5899L12.1411 63.0045Z" fill="#99B9FF"/>
<path d="M13.4778 54.1832C13.3998 54.1832 13.3364 54.1202 13.3359 54.0422C13.3355 53.9639 13.3986 53.9 13.477 53.8995L43.6586 53.7227C43.6588 53.7227 43.6591 53.7227 43.6594 53.7227C43.7374 53.7227 43.8008 53.7856 43.8013 53.8637C43.8017 53.942 43.7386 54.0059 43.6603 54.0064L13.4786 54.1832C13.4783 54.1832 13.4781 54.1832 13.4778 54.1832Z" fill="#99B9FF"/>
<path d="M33.5132 59.5801H13.7598L14.0322 58.0371H33.7856L33.5132 59.5801Z" fill="#CADDFF"/>
<path d="M33.8716 57.2344H14.1182L14.3906 55.6914H34.144L33.8716 57.2344Z" fill="#CADDFF"/>
<path d="M41.8564 57.2344H35.3125L35.5849 55.6914H42.1289L41.8564 57.2344Z" fill="#CADDFF"/>
<path d="M41.3428 59.6421H34.7988L35.0713 58.0991H41.6152L41.3428 59.6421Z" fill="#CADDFF"/>
<path d="M33.0992 61.9414H13.3457L13.6181 60.3984H33.3715L33.0992 61.9414Z" fill="#CADDFF"/>
<path d="M40.9307 62.0029H34.3867L34.6591 60.46H41.2031L40.9307 62.0029Z" fill="#CADDFF"/>
<path d="M44.5004 49.7824H13.9182C13.8764 49.7824 13.8367 49.7639 13.8097 49.732C13.7828 49.6999 13.7713 49.6576 13.7784 49.6165L16.0514 36.4369C16.0631 36.3694 16.1213 36.3198 16.1898 36.3192L46.4284 36.0244C46.4704 36.0235 46.5092 36.0417 46.5365 36.0728C46.5638 36.104 46.5761 36.1454 46.5702 36.1864L44.6408 49.6607C44.6308 49.7305 44.571 49.7824 44.5004 49.7824ZM14.0866 49.4987H44.3775L46.266 36.3097L16.3109 36.6017L14.0866 49.4987Z" fill="#99B9FF"/>
<path d="M15.9251 38.195C15.8471 38.195 15.7837 38.132 15.7832 38.054C15.7827 37.9757 15.8459 37.9118 15.9242 37.9113L46.1059 37.7344C46.1062 37.7344 46.1065 37.7344 46.1067 37.7344C46.1847 37.7344 46.2481 37.7973 46.2485 37.8754C46.249 37.9537 46.1859 38.0176 46.1075 38.0181L15.9258 38.195C15.9256 38.195 15.9253 38.195 15.9251 38.195Z" fill="#99B9FF"/>
<path d="M35.9595 43.5923H16.2061L16.4785 42.0493H36.2319L35.9595 43.5923Z" fill="#CADDFF"/>
<path d="M36.3179 41.2466H16.5645L16.8369 39.7036H36.5903L36.3179 41.2466Z" fill="#CADDFF"/>
<path d="M44.3027 41.2466H37.7588L38.0312 39.7036H44.5752L44.3027 41.2466Z" fill="#CADDFF"/>
<path d="M43.7891 43.6533H37.2451L37.5175 42.1104H44.0615L43.7891 43.6533Z" fill="#CADDFF"/>
<path d="M35.5474 45.9531H15.7939L16.0664 44.4102H35.8198L35.5474 45.9531Z" fill="#CADDFF"/>
<path d="M43.376 46.0151H36.832L37.1044 44.4722H43.6484L43.376 46.0151Z" fill="#CADDFF"/>
<path d="M35.0435 48.3755H15.29L15.5625 46.8325H35.3159L35.0435 48.3755Z" fill="#CADDFF"/>
<path d="M42.8731 48.4365H36.3291L36.6015 46.8936H43.1455L42.8731 48.4365Z" fill="#CADDFF"/>
<path d="M43.581 20.6318H23.29L23.5699 19.0469H43.8608L43.581 20.6318Z" fill="#CADDFF"/>
<path d="M43.2626 23.1748H22.9717L23.2515 21.5898H43.5425L43.2626 23.1748Z" fill="#CADDFF"/>
<path d="M34.05 66.6153C33.9724 66.6153 33.9091 66.5529 33.9082 66.475C33.9073 66.3967 33.9701 66.3326 34.0485 66.3316L43.8794 66.2207C43.8799 66.2207 43.8805 66.2207 43.881 66.2207C43.9586 66.2207 44.022 66.2831 44.0228 66.361C44.0237 66.4393 43.9609 66.5035 43.8826 66.5044L34.0517 66.6153C34.0511 66.6153 34.0506 66.6153 34.05 66.6153Z" fill="black"/>
<path d="M43.8813 66.5038C43.875 66.5038 43.8686 66.5035 43.8621 66.5026C43.7845 66.492 43.73 66.4207 43.7406 66.343L47.253 40.3925C47.2635 40.3148 47.3348 40.2599 47.4126 40.271C47.4902 40.2815 47.5447 40.3529 47.5342 40.4305L44.0217 66.3811C44.012 66.4522 43.9511 66.5038 43.8813 66.5038Z" fill="black"/>
<path d="M15.059 31.303C15.0528 31.303 15.0465 31.3026 15.0402 31.3018C14.9625 31.2915 14.908 31.2201 14.9182 31.1425L17.1467 14.3346C17.156 14.2641 17.2161 14.2114 17.2873 14.2114H50.9217C50.9627 14.2114 51.0016 14.2292 51.0285 14.2599C51.0555 14.2907 51.0678 14.3317 51.0622 14.3723L50.5623 18.0662C50.5518 18.1438 50.4804 18.1986 50.4027 18.1877C50.3251 18.1771 50.2706 18.1058 50.2812 18.0281L50.7593 14.4951H17.4116L15.1995 31.1798C15.19 31.2511 15.1291 31.303 15.059 31.303Z" fill="black"/>
<path d="M28.187 72.7305C28.1088 72.7305 28.0453 72.6671 28.0452 72.5889C28.045 72.5106 28.1084 72.447 28.1867 72.4468L45.4843 72.4114C46.6293 72.4114 47.6998 71.3839 47.8707 70.1208L55.6134 12.9178C55.7001 12.2769 55.5362 11.6648 55.1638 11.2385C54.8407 10.8687 54.3849 10.665 53.8806 10.665H15.3627C14.2179 10.665 13.1475 11.6927 12.9765 12.9558L10.0921 35.151C10.082 35.2286 10.0104 35.283 9.93314 35.2733C9.85548 35.2633 9.80066 35.1921 9.81077 35.1144L12.6953 12.9185C12.8847 11.5192 14.0812 10.3813 15.3627 10.3813H53.8805C54.468 10.3813 54.9996 10.6194 55.3773 11.0519C55.8037 11.5398 55.9922 12.2337 55.8944 12.9558L48.1518 70.1588C47.9625 71.5574 46.766 72.6951 45.4845 72.6951L28.1872 72.7305C28.1871 72.7305 28.1871 72.7305 28.187 72.7305Z" fill="black"/>
<path d="M45.1662 17.3775H23.3107C22.4196 17.3775 21.8045 16.5851 21.9369 15.6075L22.284 13.043C22.5854 10.8166 24.4749 9.01172 26.5044 9.01172H44.2373C46.2668 9.01172 47.6677 10.8166 47.3664 13.043L47.0193 15.6075C46.8869 16.5851 46.0573 17.3775 45.1662 17.3775Z" fill="black"/>
<path d="M45.1661 17.5196H23.3107C22.8687 17.5196 22.4688 17.3404 22.1844 17.0149C21.8646 16.6489 21.7231 16.129 21.7962 15.5887L22.1433 13.0243C22.4534 10.7337 24.4097 8.87012 26.5042 8.87012H44.2372C45.1906 8.87012 46.0531 9.25634 46.6658 9.9575C47.3599 10.7519 47.6664 11.8835 47.5068 13.0623L47.1597 15.6268C47.0184 16.6704 46.1242 17.5196 45.1661 17.5196ZM26.5042 9.15377C24.5463 9.15377 22.7162 10.9071 22.4244 13.0623L22.0773 15.6267C22.0151 16.086 22.1321 16.5239 22.398 16.8283C22.6277 17.0911 22.9518 17.2359 23.3106 17.2359H45.1661C45.9874 17.2359 46.7556 16.4969 46.8786 15.5887L47.2257 13.0242C47.3743 11.9266 47.0923 10.8768 46.4521 10.1442C45.8941 9.50553 45.1074 9.15377 44.2372 9.15377H26.5042Z" fill="black"/>
<path d="M44.6233 17.3775H22.7678C21.8767 17.3775 21.2616 16.5851 21.3939 15.6075L21.741 13.043C22.0424 10.8166 23.9319 9.01172 25.9614 9.01172H43.6944C45.7238 9.01172 47.1247 10.8166 46.8234 13.043L46.4763 15.6075C46.3439 16.5851 45.5143 17.3775 44.6233 17.3775Z" fill="#99B9FF"/>
<path d="M44.6223 17.5196H22.7667C22.3248 17.5196 21.9248 17.3404 21.6405 17.0149C21.3207 16.6489 21.1791 16.129 21.2523 15.5887L21.5994 13.0243C21.9095 10.7337 23.8657 8.87012 25.9603 8.87012H43.6933C44.6467 8.87012 45.5091 9.25634 46.1219 9.9575C46.8159 10.7519 47.1225 11.8835 46.9629 13.0623L46.6158 15.6268C46.4745 16.6704 45.5802 17.5196 44.6223 17.5196ZM25.9603 9.15377C24.0024 9.15377 22.1723 10.9071 21.8806 13.0623L21.5334 15.6267C21.4713 16.086 21.5882 16.5239 21.8542 16.8283C22.0839 17.0911 22.408 17.2359 22.7668 17.2359H44.6223C45.4436 17.2359 46.2118 16.4969 46.3347 15.5887L46.6818 13.0242C46.8304 11.9266 46.5485 10.8768 45.9083 10.1442C45.3502 9.50553 44.5636 9.15377 43.6933 9.15377H25.9603Z" fill="black"/>
<path d="M36.3795 0.14209C34.096 0.14209 31.9701 2.1728 31.6311 4.67777L30.6738 11.7505C30.5658 12.5482 31.0677 13.1948 31.7948 13.1948H37.4307C38.1578 13.1948 38.8348 12.5482 38.9427 11.7505L39.9001 4.67777C40.2391 2.1728 38.6629 0.14209 36.3795 0.14209ZM35.711 5.08097C35.0006 5.08097 34.5102 4.4492 34.6157 3.66985C34.7212 2.89051 35.3826 2.25874 36.0929 2.25874C36.8033 2.25874 37.2937 2.89051 37.1882 3.66985C37.0828 4.4492 36.4214 5.08097 35.711 5.08097Z" fill="black"/>
<path d="M37.4306 13.3363H31.7947C31.4265 13.3363 31.0932 13.1869 30.8561 12.9156C30.5902 12.6114 30.4725 12.1796 30.5332 11.7313L31.4905 4.65853C31.8382 2.08982 34.0314 0 36.3795 0C37.4469 0 38.4126 0.432383 39.0985 1.21743C39.876 2.10731 40.2194 3.37539 40.0406 4.69659L39.0832 11.7693C38.9662 12.6334 38.2249 13.3363 37.4306 13.3363ZM36.3794 0.283655C34.168 0.283655 32.1009 2.26332 31.7716 4.69654L30.8143 11.7693C30.7646 12.1365 30.8577 12.4863 31.0698 12.729C31.2522 12.9377 31.5096 13.0526 31.7947 13.0526H37.4306C38.0882 13.0526 38.7035 12.4599 38.8021 11.7312L39.7594 4.65848C39.9272 3.41834 39.6085 2.23216 38.8848 1.404C38.2536 0.681577 37.3638 0.283655 36.3794 0.283655ZM35.7109 5.22258C35.3502 5.22258 35.0237 5.07621 34.7914 4.81042C34.531 4.51233 34.4157 4.08954 34.4751 3.65056C34.5896 2.80474 35.3154 2.11669 36.0929 2.11669C36.4537 2.11669 36.7802 2.26306 37.0125 2.52893C37.2729 2.82694 37.3882 3.24968 37.3288 3.68862C37.2143 4.5344 36.4885 5.22258 35.7109 5.22258ZM36.0929 2.40035C35.452 2.40035 34.8524 2.97824 34.7562 3.68858C34.7078 4.04651 34.7985 4.38734 35.0051 4.62377C35.1827 4.82693 35.4333 4.93888 35.7109 4.93888C36.3518 4.93888 36.9514 4.36098 37.0476 3.65052C37.0961 3.29267 37.0054 2.95193 36.7988 2.71551C36.6213 2.51226 36.3705 2.40035 36.0929 2.40035Z" fill="black"/>
<path d="M36.0289 0.14209C33.7454 0.14209 31.6195 2.1728 31.2805 4.67777L30.3232 11.7505C30.2152 12.5482 30.7171 13.1948 31.4442 13.1948H37.0801C37.8072 13.1948 38.4842 12.5482 38.5921 11.7505L39.5495 4.67777C39.8885 2.1728 38.3123 0.14209 36.0289 0.14209ZM35.3604 5.08097C34.65 5.08097 34.1597 4.4492 34.2651 3.66985C34.3706 2.89051 35.032 2.25874 35.7424 2.25874C36.4528 2.25874 36.9432 2.89051 36.8377 3.66985C36.7322 4.4492 36.0708 5.08097 35.3604 5.08097Z" fill="#99B9FF"/>
<path d="M37.0781 13.3363H31.4422C31.074 13.3363 30.7406 13.1869 30.5036 12.9156C30.2377 12.6112 30.12 12.1796 30.1807 11.7313L31.138 4.65853C31.4857 2.08982 33.6788 0 36.0269 0C37.0944 0 38.0601 0.432383 38.746 1.21743C39.5235 2.10731 39.8669 3.37539 39.688 4.69659L38.7307 11.7693C38.6137 12.6334 37.8724 13.3363 37.0781 13.3363ZM36.0269 0.283655C33.8155 0.283655 31.7485 2.26332 31.4191 4.69654L30.4618 11.7693C30.4121 12.1365 30.5052 12.4863 30.7172 12.729C30.8996 12.9377 31.1571 13.0526 31.4422 13.0526H37.0782C37.7358 13.0526 38.351 12.4599 38.4496 11.7312L39.4069 4.65848C39.5747 3.41843 39.256 2.23216 38.5323 1.404C37.9011 0.681577 37.0113 0.283655 36.0269 0.283655ZM35.3584 5.22258C34.9977 5.22258 34.6712 5.07621 34.4389 4.81042C34.1785 4.51233 34.0632 4.08954 34.1226 3.65056C34.2372 2.80474 34.9629 2.11669 35.7405 2.11669C36.1012 2.11669 36.4277 2.26306 36.66 2.52885C36.9204 2.82694 37.0357 3.2496 36.9763 3.68862C36.8617 4.5344 36.136 5.22258 35.3584 5.22258ZM35.7404 2.40035C35.0995 2.40035 34.4999 2.97824 34.4037 3.68858C34.3553 4.04643 34.446 4.38726 34.6526 4.62368C34.8301 4.82693 35.0808 4.93888 35.3584 4.93888C35.9993 4.93888 36.599 4.36098 36.6952 3.65052C36.7436 3.29267 36.6529 2.95184 36.4463 2.71542C36.2687 2.51226 36.0181 2.40035 35.7404 2.40035Z" fill="black"/>
<path d="M10.2835 72.6675C10.2818 72.6675 10.2801 72.6675 10.2784 72.6674L6.51011 72.5344C6.06269 72.5186 5.63913 72.3144 5.34806 71.9743C5.05704 71.6342 4.92078 71.1842 4.97432 70.7397L5.83942 62.9174C5.848 62.8395 5.91782 62.7829 5.99599 62.792C6.07383 62.8007 6.12998 62.8707 6.12136 62.9486L5.25613 70.7723C5.21125 71.1449 5.3205 71.5058 5.56357 71.7899C5.80668 72.0739 6.14639 72.2377 6.52006 72.2508L10.2884 72.3838C10.3667 72.3866 10.4279 72.4523 10.4251 72.5306C10.4224 72.6072 10.3595 72.6675 10.2835 72.6675Z" fill="black"/>
<path d="M63.4787 37.2121H32.5042C32.1491 37.2121 31.8957 36.9262 31.9383 36.5735L33.9614 19.7846C34.0039 19.4319 34.3262 19.146 34.6813 19.146H65.6558C66.0108 19.146 66.2642 19.4319 66.2217 19.7846L64.1985 36.5735C64.156 36.9262 63.8337 37.2121 63.4787 37.2121Z" fill="white"/>
<path d="M63.478 37.3547H32.5035C32.2907 37.3547 32.0996 37.2714 31.9655 37.1201C31.8312 36.9687 31.7713 36.7688 31.7967 36.5573L33.8199 19.7684C33.8706 19.3474 34.2567 19.0049 34.6806 19.0049H65.655C65.8679 19.0049 66.059 19.0882 66.1932 19.2395C66.3274 19.391 66.3873 19.5908 66.3618 19.8024L64.3387 36.5913C64.2879 37.0122 63.9018 37.3547 63.478 37.3547ZM34.6806 19.2886C34.3954 19.2886 34.1357 19.5191 34.1016 19.8024L32.0784 36.5913C32.0627 36.721 32.098 36.842 32.1777 36.9319C32.2572 37.0216 32.373 37.071 32.5035 37.071H63.478C63.7631 37.071 64.0228 36.8405 64.057 36.5573L66.0801 19.7684C66.0957 19.6386 66.0605 19.5176 65.9808 19.4278C65.9012 19.338 65.7855 19.2886 65.655 19.2886H34.6806Z" fill="black"/>
<path d="M39.9282 36.2508H37.0254L37.7421 30.3037H40.6448L39.9282 36.2508Z" fill="#CADDFF"/>
<path d="M36.2719 36.2507H33.3691L33.8988 31.855H36.8016L36.2719 36.2507Z" fill="#CADDFF"/>
<path d="M43.5961 36.2506H40.6934L41.7701 27.3159H44.6728L43.5961 36.2506Z" fill="#CADDFF"/>
<path d="M47.4262 36.2506H44.5234L45.3878 29.0781H48.2905L47.4262 36.2506Z" fill="#CADDFF"/>
<path d="M51.2563 36.2508H48.3535L49.5782 26.0879H52.481L51.2563 36.2508Z" fill="#CADDFF"/>
<path d="M55.1 36.1307H52.1973L53.0922 28.7046H55.9949L55.1 36.1307Z" fill="#CADDFF"/>
<path d="M59.0102 36.1301H56.1074L57.3498 25.8203H60.2526L59.0102 36.1301Z" fill="#CADDFF"/>
<path d="M62.7592 36.1308H59.8564L61.3884 23.418H64.2912L62.7592 36.1308Z" fill="#CADDFF"/>
<path d="M36.2485 28.9463C36.2011 28.9463 36.1547 28.9226 36.1278 28.8794C36.0865 28.8129 36.1069 28.7254 36.1734 28.684L43.292 24.2569C43.349 24.2213 43.4234 24.2309 43.4697 24.2796L45.9307 26.8688L51.4909 23.4074C51.5488 23.3713 51.6242 23.3816 51.6704 23.432L54.3357 26.337L63.5806 20.598C63.6472 20.5567 63.7346 20.5771 63.7759 20.6437C63.8172 20.7103 63.7968 20.7977 63.7302 20.839L54.3855 26.64C54.3276 26.6759 54.2522 26.6656 54.2061 26.6153L51.541 23.7104L45.9825 27.1707C45.9254 27.2063 45.8512 27.1968 45.8047 27.148L43.3437 24.5587L36.3232 28.9248C36.2999 28.9394 36.2741 28.9463 36.2485 28.9463Z" fill="black"/>
<path d="M44.2409 24.3566C44.1839 24.8297 43.7491 25.2335 43.2698 25.2585C42.7906 25.2835 42.4482 24.9202 42.5052 24.4471C42.5622 23.974 42.997 23.5701 43.4763 23.5452C43.9556 23.5202 44.2979 23.8835 44.2409 24.3566Z" fill="#99B9FF"/>
<path d="M52.4255 23.4728C52.3684 23.9459 51.9337 24.3497 51.4544 24.3747C50.9751 24.3997 50.6328 24.0364 50.6898 23.5633C50.7468 23.0902 51.1816 22.6864 51.6609 22.6614C52.1402 22.6364 52.4825 22.9996 52.4255 23.4728Z" fill="#5479F7"/>
<path d="M46.8581 26.9635C46.8011 27.4366 46.3663 27.8404 45.887 27.8654C45.4077 27.8904 45.0654 27.5272 45.1224 27.054C45.1794 26.5809 45.6142 26.1771 46.0935 26.1521C46.5728 26.1271 46.9151 26.4904 46.8581 26.9635Z" fill="#99B9FF"/>
<path d="M37.1393 28.775C37.0823 29.2481 36.6475 29.652 36.1683 29.6769C35.689 29.7019 35.3466 29.3387 35.4037 28.8655C35.4607 28.3924 35.8955 27.9886 36.3747 27.9636C36.854 27.9386 37.1964 28.3019 37.1393 28.775Z" fill="#99B9FF"/>
<path d="M55.2009 26.4073C55.1438 26.8804 54.7091 27.2843 54.2298 27.3093C53.7505 27.3343 53.4081 26.971 53.4652 26.4979C53.5222 26.0247 53.957 25.6209 54.4363 25.5959C54.9156 25.571 55.2579 25.9342 55.2009 26.4073Z" fill="#99B9FF"/>
<path d="M64.5241 20.6735C64.4671 21.1466 64.0323 21.5504 63.553 21.5754C63.0738 21.6004 62.7314 21.2371 62.7884 20.764C62.8454 20.2908 63.2802 19.887 63.7595 19.8621C64.2388 19.8371 64.5811 20.2003 64.5241 20.6735Z" fill="#5479F7"/>
<path d="M63.5052 21.7182C63.2517 21.7182 63.0254 21.6244 62.8634 21.451C62.6913 21.2669 62.6144 21.0167 62.647 20.7468C62.7118 20.2091 63.2072 19.7486 63.7515 19.7202C64.0264 19.7059 64.2744 19.8002 64.4479 19.986C64.62 20.1701 64.6968 20.4203 64.6643 20.6903C64.5995 21.228 64.104 21.6885 63.5598 21.7168C63.5414 21.7177 63.5233 21.7182 63.5052 21.7182ZM63.8052 20.0025C63.7923 20.0025 63.7794 20.0029 63.7663 20.0035C63.3535 20.025 62.9777 20.3737 62.9286 20.7808C62.9063 20.9661 62.9568 21.1354 63.0707 21.2574C63.1862 21.381 63.3539 21.4449 63.545 21.4335C63.9579 21.4121 64.3336 21.0634 64.3827 20.6563C64.405 20.471 64.3546 20.3017 64.2406 20.1797C64.1331 20.0646 63.9796 20.0025 63.8052 20.0025Z" fill="black"/>
<path d="M56.1521 73.8575C55.6578 73.543 57.0465 71.8452 56.4699 69.338C56.1662 68.018 55.6371 67.8612 55.5944 66.6329C55.5337 64.8861 56.5482 63.5992 56.6958 63.4174C57.4371 62.5043 57.7759 62.7994 59.0008 61.7452C59.6632 61.175 61.1729 59.8756 61.3947 58.0392C61.5059 57.1182 61.1668 56.9918 61.3947 56.2314C61.8103 54.8442 63.3215 53.6129 64.1968 53.9716C64.7783 54.2099 65.04 55.1373 65.0103 55.8698C64.9452 57.4682 63.3556 57.7395 63.0217 59.395C62.706 60.9601 63.9879 61.4066 63.6544 62.7395C63.2028 64.5449 60.711 64.2848 59.858 66.3551C59.2936 67.7249 60.2125 68.2559 59.7676 70.0611C59.1607 72.5244 56.7061 74.21 56.1521 73.8575Z" fill="#CADDFF"/>
<path d="M62.8816 56.1569C62.8484 56.9107 62.7613 57.6641 62.5931 58.4016C62.4259 59.1387 62.1799 59.8601 61.8453 60.5405C61.5098 61.2202 61.0845 61.8563 60.5841 62.4272C60.334 62.7127 60.0653 62.9816 59.7846 63.2365C59.504 63.4914 59.2106 63.731 58.9169 63.9675C58.6235 64.2041 58.3278 64.4367 58.0551 64.6893C57.7839 64.9419 57.5337 65.2184 57.3711 65.5417C57.2894 65.7024 57.2282 65.8726 57.1918 66.0489C57.1567 66.2255 57.1444 66.4068 57.1511 66.5878C57.1621 66.9503 57.2574 67.3064 57.3895 67.6531C57.5199 68.0009 57.6779 68.3455 57.7986 68.7115C57.9204 69.0759 57.9988 69.4664 57.9883 69.86C57.9918 69.9586 57.9774 70.0559 57.9669 70.1535C57.9608 70.2022 57.9574 70.2515 57.9489 70.2996L57.9176 70.443C57.881 70.6357 57.8224 70.8226 57.7499 71.0039C57.6063 71.3673 57.4029 71.7053 57.1605 72.0089C57.1138 72.0674 57.0285 72.077 56.97 72.0303C56.9114 71.9836 56.9019 71.8983 56.9486 71.8398C56.9487 71.8395 56.9495 71.8386 56.9496 71.8384C57.1807 71.5563 57.3739 71.2437 57.5116 70.9074C57.5812 70.7398 57.6379 70.5664 57.6735 70.389L57.7044 70.2567C57.7129 70.2124 57.7162 70.1673 57.7224 70.1227C57.7331 70.0331 57.7481 69.9438 57.7455 69.8534C57.7596 69.4928 57.6931 69.1324 57.581 68.7818C57.4701 68.4302 57.3179 68.0863 57.188 67.727C57.0567 67.3693 56.9576 66.9858 56.9507 66.5934C56.9459 66.3976 56.9617 66.2015 57.0026 66.0086C57.0448 65.8162 57.1144 65.6297 57.2057 65.4559C57.3878 65.1058 57.6571 64.8183 57.9387 64.5624C58.2222 64.3062 58.5226 64.0763 58.8186 63.8436C59.1146 63.6113 59.4082 63.3775 59.6886 63.1291C59.9689 62.8808 60.237 62.6191 60.487 62.3409C60.9869 61.7847 61.4144 61.1626 61.7544 60.4949C62.0936 59.8266 62.3464 59.1149 62.5216 58.3848C62.6978 57.6546 62.794 56.9057 62.8365 56.1548C62.8371 56.1423 62.8477 56.1327 62.8601 56.1333C62.8725 56.134 62.882 56.1446 62.8816 56.1569Z" fill="white"/>
<path d="M57.6904 44.9319C58.4772 44.7752 59.5251 46.9365 60.1309 48.186C61.1973 50.3852 61.9359 51.9085 61.5772 53.6094C61.0716 56.0065 59.0152 55.7752 58.1423 58.3097C57.2099 61.017 59.3499 61.8803 58.4135 64.9082C57.7597 67.0225 56.1983 68.2763 56.7865 69.8797C57.0053 70.4761 57.3236 70.5814 57.4192 71.2355C57.6325 72.6953 56.3748 74.4174 55.521 74.3088C55.2078 74.269 55.0137 73.991 54.2555 72.501C53.3355 70.6927 52.8754 69.7886 52.8093 69.5181C52.1928 66.9984 54.7336 66.0175 54.7978 63.1004C54.859 60.3268 52.5874 60.0598 52.6285 57.4058C52.6694 54.7619 54.9318 54.5064 56.3345 50.5361C57.4451 47.3925 56.8967 45.09 57.6904 44.9319Z" fill="#99B9FF"/>
<path d="M57.335 53.4011C56.8161 54.0714 56.3673 54.799 56.0447 55.5819C55.7224 56.3629 55.5167 57.1965 55.4871 58.0402C55.4836 58.1455 55.4748 58.2508 55.4757 58.356L55.4875 58.6717C55.49 58.7243 55.49 58.777 55.4946 58.8294L55.5132 58.9861C55.5266 59.0905 55.5355 59.1954 55.5526 59.2992C55.6229 59.7144 55.7372 60.1206 55.8749 60.52C56.0137 60.9191 56.177 61.312 56.3164 61.7167C56.4544 62.1209 56.5782 62.5378 56.621 62.9698C56.6406 63.0765 56.6371 63.1855 56.6446 63.2934L56.652 63.4557C56.6551 63.5099 56.6482 63.5638 56.6468 63.6179L56.63 63.9423L56.5823 64.263C56.5132 64.6889 56.3985 65.11 56.2225 65.506C56.0512 65.9037 55.8293 66.2765 55.5947 66.6332C55.3611 66.9907 55.1174 67.3367 54.9278 67.7062C54.5331 68.4387 54.4581 69.2987 54.6195 70.1107C54.7784 70.9254 55.1728 71.6807 55.6748 72.3455C55.72 72.4053 55.7081 72.4903 55.6484 72.5354C55.5886 72.5806 55.5036 72.5687 55.4584 72.5089L55.4576 72.5078C54.9451 71.8139 54.5385 71.0187 54.3798 70.1566C54.3432 69.9416 54.3125 69.7248 54.3073 69.5062C54.2984 69.3974 54.3088 69.2875 54.3098 69.1783L54.3147 69.0143L54.3358 68.8509C54.3869 68.4148 54.5303 67.9896 54.7352 67.6062C54.9385 67.2207 55.1904 66.8725 55.425 66.521C55.661 66.1703 55.8791 65.8118 56.0485 65.4299C56.2223 65.0503 56.3372 64.6449 56.4085 64.2338L56.458 63.9243L56.4773 63.612C56.4793 63.5599 56.4867 63.5079 56.4842 63.4558L56.4785 63.2996C56.4724 63.1956 56.4773 63.0907 56.4592 62.9875C56.379 62.1514 56.02 61.3716 55.7466 60.5639C55.6115 60.1582 55.4992 59.7427 55.432 59.3182C55.4157 59.2122 55.4077 59.1049 55.3952 58.9983L55.378 58.8382C55.3739 58.7847 55.3744 58.731 55.3724 58.6774L55.3639 58.3557C55.3641 58.2486 55.3741 58.1416 55.3788 58.0346C55.4182 57.1778 55.6358 56.3357 55.9698 55.5504C56.304 54.7631 56.7639 54.0354 57.2924 53.3677C57.3017 53.356 57.3187 53.354 57.3304 53.3633C57.3421 53.3725 57.3441 53.3894 57.335 53.4011Z" fill="white"/>
<path d="M55.7899 78.4679C54.2922 78.4679 53.0781 77.2538 53.0781 75.7562V73.0444H58.5015V75.7562C58.5016 77.2538 57.2875 78.4679 55.7899 78.4679Z" fill="white"/>
<path d="M55.791 78.6095C54.2175 78.6095 52.9375 77.3293 52.9375 75.7559V73.0442C52.9375 72.9659 53.001 72.9023 53.0793 72.9023H58.5028C58.5811 72.9023 58.6446 72.9659 58.6446 73.0442V75.7559C58.6446 77.3294 57.3644 78.6095 55.791 78.6095ZM53.2212 73.186V75.7559C53.2212 77.1729 54.3739 78.3258 55.791 78.3258C57.208 78.3258 58.3608 77.1729 58.3608 75.7559V73.186H53.2212Z" fill="black"/>
<path d="M15.2171 72.1108L14.9043 75.3883H13.7417L13.6855 72.1649L15.2171 72.1108Z" fill="white"/>
<path d="M14.9046 75.5294H13.742C13.6646 75.5294 13.6015 75.4675 13.6002 75.3901L13.544 72.1667C13.5426 72.0894 13.6035 72.0252 13.6808 72.0225L15.2124 71.9685C15.2537 71.9662 15.2927 71.9832 15.3206 72.013C15.3487 72.0427 15.3625 72.0831 15.3586 72.1237L15.0457 75.4011C15.0389 75.4738 14.9777 75.5294 14.9046 75.5294ZM13.8814 75.2457H14.7756L15.0609 72.2577L13.8301 72.3011L13.8814 75.2457Z" fill="black"/>
<path d="M14.9495 78.5207C14.4665 78.5725 13.5952 78.6061 12.6738 78.4471C12.3726 78.3951 12.1818 78.094 12.2645 77.7997C12.4753 77.0492 12.8414 75.685 13.3803 74.9135C13.4501 74.8135 13.6011 74.8231 13.6592 74.9303L13.7567 75.1099L14.002 74.6996C14.032 74.6495 14.084 74.6168 14.142 74.6113L14.5703 74.6138C14.6653 74.6049 14.7511 74.6705 14.7677 74.7646L14.8284 75.1099L15.0882 74.8793C15.1437 74.8299 15.2314 74.8709 15.2292 74.9451L15.1907 76.2785C15.182 76.5792 15.2053 76.88 15.2602 77.1758L15.4053 77.9571C15.433 78.2384 15.2301 78.4906 14.9495 78.5207Z" fill="black"/>
<path d="M13.7205 78.1469C13.3601 78.1469 12.9567 78.1119 12.5569 78.0066C12.4812 77.9868 12.4359 77.9091 12.4559 77.8334C12.4758 77.7576 12.5534 77.7121 12.6292 77.7323C13.7326 78.0224 14.907 77.7347 14.9188 77.7319C14.9949 77.7129 15.0717 77.7591 15.0908 77.835C15.1099 77.9109 15.0638 77.9881 14.9877 78.0071C14.9543 78.0155 14.4181 78.1469 13.7205 78.1469Z" fill="#CADDFF"/>
<path d="M14.3959 76.8648H13.3137C13.2354 76.8648 13.1719 76.8012 13.1719 76.7229C13.1719 76.6446 13.2354 76.5811 13.3137 76.5811H14.3959C14.4742 76.5811 14.5377 76.6446 14.5377 76.7229C14.5377 76.8012 14.4742 76.8648 14.3959 76.8648Z" fill="#CADDFF"/>
<path d="M23.8555 72.5566L24.2753 76.3765L25.8799 76.7129L25.7822 72.2339L23.8555 72.5566Z" fill="white"/>
<path d="M25.8792 76.8544C25.8695 76.8544 25.8598 76.8533 25.8501 76.8513L24.2454 76.5148C24.1854 76.5023 24.1403 76.4525 24.1335 76.3916L23.7138 72.5717C23.7055 72.4969 23.7572 72.4287 23.8314 72.4163L25.7581 72.0936C25.7984 72.0871 25.8403 72.0981 25.872 72.1243C25.9037 72.1505 25.9224 72.1893 25.9233 72.2305L26.021 76.7094C26.022 76.7527 26.0031 76.794 25.9698 76.8217C25.9442 76.843 25.912 76.8544 25.8792 76.8544ZM24.4043 76.2583L25.7335 76.5371L25.6433 72.4005L24.0104 72.6739L24.4043 76.2583Z" fill="black"/>
<path d="M23.5678 77.9467C23.5445 77.3509 23.5672 76.2851 23.9669 75.7018L25.2506 76.1595V75.8849C25.2506 75.7965 25.3137 75.7236 25.3941 75.7189L26.11 75.6778C26.3772 75.6625 26.6434 75.7178 26.8875 75.838C27.6092 76.1933 29.1214 77.0201 29.5451 77.8951C29.663 78.1384 29.5055 78.4262 29.2375 78.4594C28.5506 78.5447 26.9576 78.6529 24.018 78.4148C23.7717 78.3948 23.5775 78.1939 23.5678 77.9467Z" fill="black"/>
<path d="M26.3189 78.207C25.6381 78.207 24.8625 78.1732 24.0337 78.077C23.9559 78.068 23.9001 77.9975 23.9092 77.9197C23.9182 77.8419 23.9892 77.787 24.0664 77.7952C26.7881 78.1117 28.9264 77.7444 28.9476 77.7405C29.0247 77.7267 29.0983 77.7785 29.1119 77.8557C29.1255 77.9328 29.074 78.0063 28.9968 78.02C28.9817 78.0226 27.9095 78.207 26.3189 78.207Z" fill="#CADDFF"/>
<path d="M27.3102 77.1661C27.2815 77.1661 27.2525 77.1574 27.2274 77.1393L25.9916 76.2492C25.928 76.2035 25.9136 76.1148 25.9594 76.0512C26.0051 75.9878 26.0937 75.973 26.1574 76.0191L27.3932 76.9091C27.4568 76.9548 27.4712 77.0435 27.4254 77.1071C27.3977 77.1456 27.3543 77.1661 27.3102 77.1661Z" fill="#CADDFF"/>
<path d="M25.1366 50.7618L23.7653 49.8887L21.3037 51.2191C21.3037 51.2191 22.4081 51.9266 23.6873 52.2779C25.8417 52.8695 25.1366 50.7618 25.1366 50.7618Z" fill="black"/>
<path d="M24.3569 47.6184C24.3569 47.6184 26.681 63.496 26.1908 74.0416L23.7079 74.108C23.7079 74.108 20.8641 58.011 19.4945 55.3507C19.4945 55.3507 15.7322 70.0261 15.5888 73.8856C15.5888 73.8856 13.933 74.0522 13.2731 73.8144C12.9187 70.0898 12.8535 65.8048 12.8358 63.3844C12.7851 56.4572 13.4461 53.3107 13.8086 51.818C14.1414 50.4473 14.4986 49.3334 14.7594 48.5799L15.6303 46.0923L24.3569 47.6184Z" fill="#5479F7"/>
<path d="M23.7071 74.2496C23.6385 74.2496 23.5795 74.2004 23.5675 74.1324C23.5402 73.9779 20.9278 59.2442 19.5312 55.7793C18.933 58.144 15.858 70.4434 15.7298 73.8906C15.7272 73.9615 15.6727 74.0194 15.6023 74.0264C15.5334 74.0335 13.9067 74.1935 13.2243 73.9476C13.1727 73.929 13.1364 73.8822 13.1312 73.8276C12.8676 71.0576 12.7244 67.6418 12.6932 63.3852C12.6449 56.7918 13.2276 53.6066 13.6701 51.7843C13.936 50.6889 14.2572 49.5951 14.6246 48.5333L15.4958 46.0452C15.5187 45.9798 15.5859 45.9401 15.654 45.9524L24.3806 47.4785C24.4409 47.489 24.4877 47.5371 24.4965 47.5977C24.5198 47.7565 26.817 63.6095 26.3318 74.048C26.3283 74.1223 26.2682 74.1813 26.1939 74.1832L23.7109 74.2495C23.7097 74.2496 23.7084 74.2496 23.7071 74.2496ZM19.4939 55.2086C19.5465 55.2086 19.5955 55.2379 19.6199 55.2855C20.9365 57.8428 23.5422 72.3683 23.8255 73.9627L26.0544 73.9032C26.4937 63.9301 24.4262 49.1127 24.2304 47.7402L15.7237 46.2526L14.8925 48.6266C14.5282 49.6793 14.2096 50.7645 13.9457 51.8511C13.5069 53.6589 12.9289 56.8212 12.977 63.3832C13.0077 67.5837 13.1477 70.9621 13.4048 73.7072C13.9636 73.8606 15.0821 73.7856 15.4521 73.755C15.6672 69.7431 19.3192 55.4605 19.3565 55.3152C19.3711 55.2581 19.4195 55.216 19.478 55.2094C19.4833 55.2088 19.4886 55.2086 19.4939 55.2086Z" fill="black"/>
<path d="M19.4798 55.5424C19.4654 55.5424 19.4508 55.5403 19.4364 55.5356C19.3618 55.5117 19.3208 55.4318 19.3447 55.3572C19.7119 54.2149 20.7428 53.933 20.7865 53.9216C20.8624 53.902 20.9398 53.9471 20.9596 54.0229C20.9795 54.0986 20.9342 54.1761 20.8585 54.196C20.818 54.2068 19.9326 54.4554 19.6148 55.444C19.5955 55.5041 19.5397 55.5424 19.4798 55.5424Z" fill="black"/>
<path d="M21.3588 30.6738L21.3963 32.9403C21.4306 33.2224 21.6336 33.4549 21.9083 33.5265L22.0234 33.5923C22.2108 33.6401 22.3085 33.6799 22.4249 34.108L18.2917 33.6279C18.2357 33.5054 18.2539 33.3626 18.4362 33.3474L18.633 33.3001C18.9046 33.2394 19.1133 33.0215 19.1627 32.7472L19.4129 29.8511L21.3588 30.6738Z" fill="white"/>
<path d="M22.4261 34.2511C22.4206 34.2511 22.4152 34.2509 22.4097 34.2502L18.2765 33.77C18.2273 33.7643 18.1846 33.7332 18.164 33.6881C18.1096 33.5695 18.1094 33.4485 18.1633 33.3563C18.1918 33.3077 18.2618 33.2248 18.4139 33.2084L18.6011 33.1634C18.8177 33.1149 18.982 32.9451 19.0233 32.7293L19.2729 29.8401C19.2768 29.7948 19.3021 29.7542 19.341 29.7308C19.3799 29.7074 19.4277 29.704 19.4694 29.7216L21.4152 30.5443C21.467 30.5662 21.5009 30.6166 21.5019 30.6727L21.5392 32.9313C21.5691 33.154 21.7278 33.3338 21.9453 33.3906C21.9574 33.3937 21.969 33.3984 21.9799 33.4046L22.0788 33.4611C22.3317 33.5292 22.4451 33.638 22.563 34.0721C22.5754 34.1175 22.5644 34.1661 22.5337 34.2018C22.5065 34.2333 22.4671 34.2511 22.4261 34.2511ZM18.4086 33.4997L22.2246 33.9431C22.1581 33.7739 22.0982 33.7587 21.9896 33.731C21.9772 33.7278 21.9654 33.723 21.9543 33.7167L21.8547 33.6599C21.5313 33.5675 21.2975 33.2944 21.2566 32.9586C21.2561 32.9537 21.2557 32.9488 21.2556 32.9438L21.2196 30.7697L19.5386 30.0589L19.3052 32.7606C19.3048 32.7649 19.3042 32.7693 19.3034 32.7735C19.2438 33.1047 18.9932 33.3663 18.6651 33.4397L18.4705 33.4864C18.4635 33.4882 18.4563 33.4893 18.4492 33.4899C18.4235 33.4921 18.4121 33.4976 18.4086 33.4997Z" fill="black"/>
<path d="M22.4891 26.294C21.9259 26.2325 22.3689 26.9047 20.3825 26.1764C19.5681 25.8777 19.9342 26.8795 19.7214 26.8063C18.9357 26.536 18.6304 26.7863 18.4384 26.9146C18.2166 27.0629 17.9851 27.4329 18.0154 27.7885C18.0554 28.258 18.6673 28.4313 18.9592 29.434C19.1641 30.1382 19.0835 30.5556 19.3571 30.6709C19.6336 30.7874 19.8612 30.4219 20.1729 30.5265C20.5763 30.6618 20.4592 31.3626 20.8426 31.6755C21.0843 31.8728 21.6645 31.9884 22.6247 31.5831C22.7803 31.5175 22.8672 31.3499 22.8306 31.185C22.7838 30.9737 22.7232 30.707 22.6439 30.4571C22.2662 29.2659 21.8616 28.9801 22.0287 28.6852C22.2847 28.2333 23.1531 28.5447 23.3188 28.1712C23.4908 27.7833 23.2602 26.3782 22.4891 26.294Z" fill="black"/>
<path d="M20.5016 28.9225C20.5706 29.0681 20.6293 29.2182 20.6776 29.3719C20.768 29.6597 20.9268 30.1524 21.0368 30.4218C21.1732 30.7556 22.1456 30.4979 22.448 30.4087C22.4966 30.3943 22.5229 30.3417 22.5053 30.294L22.4165 30.0069L22.6538 29.9596C22.6822 29.9497 22.7089 29.934 22.7287 29.9112C22.7779 29.8543 22.7822 29.7758 22.7458 29.7158C22.5568 29.4048 22.2185 28.8912 22.0702 28.2704C22.055 28.2071 22.0044 28.1582 21.9404 28.1462C21.7204 28.1051 21.1962 28.0573 20.6671 28.3781C20.4807 28.4911 20.4082 28.7256 20.5016 28.9225Z" fill="white"/>
<path d="M21.4689 30.7294C21.1969 30.7294 20.9821 30.6618 20.906 30.4757C20.7929 30.1987 20.6299 29.692 20.5428 29.4146C20.4966 29.2674 20.4398 29.1223 20.3739 28.9835C20.2495 28.7208 20.3441 28.4086 20.594 28.257C21.1705 27.9075 21.7461 27.9656 21.9669 28.0069C22.0855 28.029 22.1804 28.1195 22.2086 28.2376C22.3385 28.7814 22.6244 29.2466 22.8137 29.5544L22.8675 29.6423C22.9371 29.7569 22.9247 29.9023 22.8364 30.0043C22.8017 30.0442 22.7548 30.075 22.7008 30.0938L22.6819 30.0989L22.599 30.1154L22.6414 30.2523C22.6609 30.3046 22.6571 30.3712 22.6287 30.4278C22.6003 30.4844 22.5493 30.527 22.4887 30.5449C22.1536 30.6438 21.775 30.7294 21.4689 30.7294ZM20.6302 28.862C20.7017 29.0126 20.7633 29.17 20.8134 29.3296C20.8992 29.6028 21.0594 30.101 21.1686 30.3683C21.2086 30.4662 21.6028 30.5033 22.3556 30.2881L22.235 29.8987L22.6144 29.8231C22.619 29.8209 22.6215 29.8191 22.6222 29.8183C22.6309 29.8082 22.6294 29.7968 22.6251 29.7897L22.572 29.703C22.3734 29.3798 22.0732 28.8915 21.9327 28.3036C21.9305 28.2945 21.9236 28.2874 21.9149 28.2858C21.7261 28.2507 21.234 28.2009 20.741 28.4996C20.616 28.5755 20.5683 28.7312 20.6302 28.862ZM22.3711 30.338C22.3716 30.3397 22.3721 30.3415 22.3727 30.3433L22.3711 30.338Z" fill="black"/>
<path d="M20.3224 29.9891C19.7319 30.1948 19.5316 29.6441 19.6623 29.3165C19.7172 29.1787 19.9077 29.1648 19.9864 29.2905L20.3595 29.8861C20.3835 29.9243 20.365 29.9743 20.3224 29.9891Z" fill="white"/>
<path d="M37.8464 25.9233L35.8778 26.6322C35.8778 26.6322 34.8067 26.9403 34.2942 27.9686C33.7817 28.9969 31.0574 34.505 23.8467 34.0128L25.2118 38.0377C25.2118 38.0377 33.0525 37.6095 34.7492 29.5914C34.8394 29.1653 35.2259 28.8592 35.6113 28.6564C35.9746 28.4653 36.3689 28.1183 36.4189 27.5045C36.4822 26.7281 37.0452 26.8628 37.2903 26.7266C37.5354 26.5905 37.9259 26.4407 37.8464 25.9233Z" fill="white"/>
<path d="M25.212 38.1794C25.1516 38.1794 25.0973 38.1409 25.0777 38.0831L23.7126 34.0582C23.6974 34.0133 23.7056 33.9637 23.7346 33.9261C23.7634 33.8886 23.8084 33.8664 23.8566 33.8712C30.0311 34.2909 32.9643 30.3196 34.1632 27.9138L34.1675 27.9052C34.7017 26.8334 35.7927 26.5091 35.8389 26.4958L37.7986 25.7897C37.8384 25.7752 37.8827 25.7795 37.9192 25.8012C37.9556 25.8228 37.9805 25.8597 37.9868 25.9016C38.0742 26.4703 37.6703 26.6848 37.429 26.813C37.405 26.8257 37.3816 26.8382 37.3595 26.8505C37.2796 26.8948 37.1874 26.9143 37.0898 26.9349C36.8268 26.9905 36.5995 27.0386 36.5606 27.5159C36.5159 28.0636 36.2106 28.5013 35.6776 28.7817C35.3635 28.9471 34.9716 29.2267 34.8882 29.6206C34.0002 33.8171 31.4184 35.9213 29.409 36.9474C27.235 38.0576 25.301 38.1747 25.2198 38.1792C25.2172 38.1793 25.2146 38.1794 25.212 38.1794ZM24.0491 34.1671L25.3109 37.8872C25.7462 37.8458 27.4515 37.6309 29.2898 36.6898C31.2404 35.6913 33.7469 33.6441 34.6108 29.5619C34.6948 29.1648 35.018 28.8083 35.5456 28.5308C35.9947 28.2945 36.241 27.9453 36.2779 27.4929C36.334 26.8048 36.7536 26.7161 37.0312 26.6575C37.1074 26.6413 37.1793 26.6262 37.2218 26.6025C37.2454 26.5894 37.2703 26.5762 37.2961 26.5625C37.5233 26.4418 37.685 26.3379 37.7118 26.1226L35.9262 26.7656C35.9074 26.7713 34.8987 27.0744 34.4215 28.0318L34.4173 28.0403C33.2006 30.4816 30.2442 34.4942 24.0491 34.1671Z" fill="black"/>
<path d="M35.3212 28.6791C35.2692 28.6791 35.2191 28.6504 35.1942 28.6007C35.1592 28.5306 35.1876 28.4454 35.2577 28.4104C35.6699 28.2043 35.6948 27.9538 35.7168 27.7326C35.7294 27.6066 35.7423 27.4763 35.8381 27.3868C35.8606 27.3658 35.8824 27.3389 35.9033 27.3081L34.9783 27.8817C34.9118 27.9231 34.8243 27.9024 34.783 27.8361C34.7418 27.7694 34.7622 27.682 34.8288 27.6407L36.1461 26.8237C36.1959 26.7925 36.2598 26.7956 36.3067 26.8313C36.3535 26.8667 36.3735 26.9274 36.3571 26.9838C36.3446 27.027 36.2289 27.4102 36.0317 27.5941C36.0141 27.6106 36.0051 27.7009 35.9992 27.7607C35.9759 27.9953 35.9368 28.3881 35.3846 28.6641C35.3642 28.6743 35.3425 28.6791 35.3212 28.6791Z" fill="black"/>
<path d="M16.2754 33.8205C16.2754 33.8205 19.1184 32.5723 23.4616 33.8809C27.8049 35.1894 23.3813 42.405 23.3813 42.405H16.9093L16.2754 33.8205Z" fill="white"/>
<path d="M20.8789 35.6192L21.8563 40.3093L19.3711 40.2677L20.2319 35.6321L19.6439 34.4823L20.3162 33.7039L20.808 33.6909L21.4007 34.5159L20.8789 35.6192Z" fill="#5479F7"/>
<path d="M24.885 34.1301C24.4064 33.4406 23.1764 33.4465 22.218 33.2509C22.193 33.2458 22.191 33.2824 22.2037 33.3477C22.3154 33.9234 22.3059 34.516 22.1428 35.0792L21.9914 35.6018L20.6523 39.7366L18.8652 35.5675L18.7227 35.2508C18.4212 34.5805 18.3265 33.8392 18.4244 33.1108C18.4308 33.0626 18.4308 33.034 18.4214 33.0347C17.701 33.0887 17.0393 33.1941 16.4964 33.3382C11.8612 34.5689 14.3191 41.3461 14.3191 41.3461C14.3191 41.3461 12.5908 51.1372 13.2624 51.8056C13.9597 52.4996 16.3263 53.2167 19.7865 51.7108C20.1155 51.5676 20.8768 49.8462 20.8768 49.8462L20.897 49.9076C21.0209 50.2834 21.2126 50.6334 21.4626 50.9402L21.5793 51.0833C21.5793 51.0833 25.2546 50.1869 25.2716 51.5619L24.9038 49.0056C24.5541 46.5758 24.4433 44.1174 24.5731 41.6659C24.5731 41.6659 25.8827 35.5676 24.885 34.1301Z" fill="#17268F"/>
<path d="M18.7954 35.5676C18.3285 34.741 17.9464 33.6742 18.4633 33.0012L19.1707 32.2373C19.1707 32.2373 19.5548 33.3961 20.4894 33.6968L18.7954 35.5676Z" fill="white"/>
<path d="M18.796 35.7091C18.7907 35.7091 18.7855 35.7088 18.7803 35.7082C18.735 35.7031 18.6949 35.6766 18.6725 35.637C18.2061 34.8115 17.7718 33.6691 18.3514 32.9144C18.354 32.911 18.3568 32.9077 18.3598 32.9044L19.0671 32.1406C19.1011 32.1038 19.1522 32.0879 19.2011 32.0984C19.2501 32.109 19.2899 32.1446 19.3058 32.1922C19.3094 32.2031 19.6801 33.2869 20.5334 33.5614C20.5792 33.5762 20.6145 33.6131 20.6269 33.6597C20.6394 33.7062 20.6275 33.7559 20.5951 33.7916L18.9012 35.6624C18.874 35.6923 18.8357 35.7091 18.796 35.7091ZM18.5725 33.0923C18.1127 33.6991 18.4918 34.6892 18.8249 35.3239L20.2474 33.7528C19.6266 33.4599 19.2736 32.8308 19.1232 32.4975L18.5725 33.0923Z" fill="black"/>
<path d="M20.6592 33.6801C21.2985 33.3489 21.4101 32.3208 21.4101 32.3208C21.4101 32.3208 22.1483 32.8699 22.3096 33.6804C22.5468 34.8715 22.0648 35.673 22.0648 35.673L20.6592 33.6801Z" fill="white"/>
<path d="M22.0632 35.8146C22.0172 35.8146 21.9739 35.7923 21.9473 35.7545L20.5416 33.7615C20.5179 33.7281 20.5099 33.686 20.5197 33.6462C20.5294 33.6064 20.5558 33.5727 20.5922 33.5538C21.1554 33.2621 21.2664 32.3146 21.2674 32.3051C21.273 32.2546 21.3052 32.2108 21.3518 32.1905C21.3984 32.1703 21.4523 32.1762 21.4931 32.2067C21.525 32.2305 22.2769 32.7982 22.447 33.6524C22.6921 34.8831 22.2055 35.7111 22.1847 35.7458C22.16 35.7869 22.1162 35.8127 22.0683 35.8145C22.0666 35.8146 22.0649 35.8146 22.0632 35.8146ZM20.86 33.7209L22.0379 35.3909C22.1562 35.0897 22.3233 34.4833 22.1688 33.7079C22.0681 33.202 21.7206 32.8005 21.5039 32.5918C21.4319 32.9064 21.2571 33.4325 20.86 33.7209Z" fill="black"/>
<path d="M15.9331 52.746C15.0251 52.746 14.1058 52.6343 13.3915 52.2083C13.3242 52.1683 13.3022 52.0812 13.3423 52.0138C13.3824 51.9465 13.4695 51.9244 13.5368 51.9647C14.4311 52.4981 15.7092 52.4995 16.8419 52.4313C17.4624 52.3938 18.3216 52.065 19.012 51.8008C19.2816 51.6976 19.5145 51.6085 19.7056 51.5469C19.8529 51.4724 20.3733 50.5947 20.7685 49.8252C20.7944 49.7749 20.8479 49.7435 20.9042 49.7486C20.9606 49.7524 21.0095 49.7893 21.0284 49.8427C21.2448 50.4537 21.5776 51.0018 21.712 50.9659C23.1966 50.5953 25.0524 50.35 25.4626 51.2872C25.494 51.3589 25.4613 51.4426 25.3896 51.474C25.3177 51.5055 25.2342 51.4728 25.2027 51.401C24.9483 50.8199 23.7009 50.7616 21.7807 51.2411C21.4065 51.335 21.0704 50.7063 20.8749 50.2346C20.5294 50.8869 20.0389 51.7374 19.7927 51.8169C19.6088 51.8762 19.3792 51.964 19.1134 52.0658C18.4048 52.337 17.5229 52.6744 16.8589 52.7146C16.5577 52.7328 16.246 52.746 15.9331 52.746Z" fill="#CADDFF"/>
<path d="M5.89287 51.0621L5.32316 50.9453C5.16925 50.9138 5.01889 51.0129 4.9873 51.1668L6.11438 51.398C6.14597 51.244 6.04679 51.0936 5.89287 51.0621Z" fill="#5479F7"/>
<path d="M10.4592 51.9981L9.88957 51.8813C9.73566 51.8498 9.5853 51.949 9.55371 52.1029L10.6808 52.334C10.7124 52.18 10.6132 52.0297 10.4592 51.9981Z" fill="#5479F7"/>
<path d="M10.3138 51.9524L10.5174 51.426C10.6618 51.0526 10.4654 50.6856 10.0787 50.6063L6.66238 49.9058C6.27564 49.8266 5.84506 50.0649 5.70066 50.4384L5.49707 50.9648L5.75852 51.0184L5.91698 50.6087C6.02936 50.3181 6.36445 50.1325 6.66546 50.1943L9.86933 50.8512C10.1703 50.9129 10.3232 51.1985 10.2108 51.4891L10.0523 51.8989L10.3138 51.9524Z" fill="black"/>
<path d="M9.95536 50.3462L6.95444 49.7308C6.83353 49.706 6.69886 49.7806 6.65373 49.8974L6.55583 50.1505C6.5107 50.2672 6.57212 50.3819 6.69308 50.4068L9.69399 51.0221C9.8149 51.0468 9.94957 50.9723 9.9947 50.8556L10.0926 50.6025C10.1377 50.4857 10.0763 50.3709 9.95536 50.3462Z" fill="#5479F7"/>
<path d="M9.4877 60.8635L0.713182 59.0643C0.18642 58.9563 -0.108549 58.3921 0.103399 57.8979L2.76147 51.6997C2.98499 51.1784 3.54411 50.8861 4.09972 51.0001L11.6261 52.5433L9.4877 60.8635Z" fill="#5479F7"/>
<path d="M10.6103 61.0933L8.9075 60.7441C8.38078 60.6361 8.08581 60.0719 8.29771 59.5777L11.2254 52.7508C11.2919 52.5956 11.4585 52.5085 11.6239 52.5424L12.0618 52.6322C12.2433 52.6695 12.3659 52.8398 12.3436 53.0237L11.4358 60.4991C11.3871 60.9003 11.0062 61.1744 10.6103 61.0933Z" fill="#5479F7"/>
<path d="M10.7486 61.2502C10.693 61.2502 10.6372 61.2446 10.582 61.2334L8.87921 60.8842C8.58625 60.8241 8.33869 60.6376 8.20012 60.3726C8.06151 60.1076 8.04963 59.7978 8.16754 59.523L11.0952 52.696C11.1879 52.4798 11.4222 52.3575 11.6526 52.4045L12.0905 52.4944C12.3425 52.5461 12.5156 52.7866 12.4846 53.0419L11.5769 60.5172C11.5489 60.7477 11.4248 60.9576 11.2364 61.0933C11.0936 61.1959 10.9222 61.2502 10.7486 61.2502ZM10.639 60.9554C10.7913 60.9868 10.9446 60.9538 11.0706 60.863C11.1967 60.7723 11.2766 60.6372 11.2952 60.483L12.203 53.0077C12.2163 52.8979 12.1419 52.7945 12.0335 52.7723L11.5956 52.6825C11.4964 52.662 11.3958 52.7149 11.3559 52.8078L8.42827 59.6348C8.34413 59.831 8.35266 60.052 8.45154 60.2412C8.55042 60.4304 8.72705 60.5634 8.93617 60.6063L10.639 60.9554Z" fill="black"/>
<path d="M9.25193 55.6702C9.21233 55.6702 9.17221 55.6662 9.13201 55.6581L2.26181 54.2493C2.18509 54.2335 2.13562 54.1585 2.15135 54.0818C2.16704 54.0051 2.24196 53.9561 2.31877 53.9713L9.18897 55.3801C9.32904 55.4093 9.46851 55.3384 9.52868 55.2088L10.6585 52.7764C10.6914 52.7054 10.7758 52.6746 10.8468 52.7075C10.9179 52.7405 10.9488 52.8249 10.9157 52.8959L9.78594 55.3283C9.6874 55.5405 9.47802 55.6702 9.25193 55.6702Z" fill="black"/>
<path d="M6.66583 55.0669L6.31424 55.8038C6.25621 55.9287 6.11991 55.9974 5.98494 55.9697L4.62428 55.6907C4.4761 55.6603 4.39776 55.4971 4.46672 55.3625L4.81291 54.687L6.66583 55.0669Z" fill="white"/>
<path d="M6.04632 56.117C6.01679 56.117 5.98683 56.1141 5.95687 56.108L4.59625 55.829C4.48177 55.8056 4.38717 55.7317 4.33664 55.6264C4.28606 55.5211 4.28765 55.4011 4.34092 55.2972L4.68707 54.6216C4.71613 54.5649 4.77982 54.5346 4.8418 54.5473L6.69477 54.9272C6.73754 54.936 6.7738 54.964 6.79326 55.0031C6.81272 55.0421 6.81306 55.0879 6.79433 55.1274L6.4427 55.8642C6.37001 56.0207 6.21442 56.117 6.04632 56.117ZM4.8904 54.8469L4.59342 55.4265C4.57632 55.4599 4.58545 55.4892 4.59239 55.5037C4.59933 55.5181 4.61648 55.5436 4.65321 55.551L6.01388 55.83C6.08468 55.8447 6.15558 55.8089 6.18605 55.7433L6.46019 55.1687L4.8904 54.8469Z" fill="black"/>
<path d="M7.79802 59.9813C7.78859 59.9813 7.77899 59.9804 7.76939 59.9784L0.470792 58.4819C0.39407 58.4661 0.344609 58.3913 0.360339 58.3145C0.376026 58.2379 0.450989 58.1886 0.527753 58.204L7.82635 59.7005C7.90307 59.7163 7.95253 59.7912 7.9368 59.868C7.92304 59.935 7.86398 59.9813 7.79802 59.9813Z" fill="black"/>
<path d="M8.4441 47.873L7.36863 49.1981C7.36863 49.1981 7.08592 50.1035 7.15557 50.4682C7.22522 50.8329 8.21981 51.2142 8.94896 50.8698C8.94896 50.8698 8.5564 50.3514 8.68005 50.0851L9.37706 49.8914L9.09718 48.8471L9.37706 48.1747L8.4441 47.873Z" fill="white"/>
<path d="M8.30923 51.1467C7.98674 51.1468 7.67596 51.0654 7.44455 50.9478C7.20029 50.8236 7.04813 50.6629 7.01615 50.4951C6.94192 50.1067 7.20307 49.2523 7.23312 49.1561L7.24122 49.1302L8.39512 47.7085L9.56699 48.0873L9.24652 48.8573L9.55023 49.9907L8.79673 50.2001C8.79107 50.3512 8.94122 50.6246 9.06195 50.7846L9.16701 50.9238L9.00936 50.9984C8.78764 51.1031 8.54527 51.1467 8.30923 51.1467ZM7.49598 49.2665C7.41609 49.5288 7.2449 50.1808 7.29475 50.4419C7.30564 50.4988 7.38506 50.5993 7.57313 50.6949C7.8627 50.8422 8.3265 50.9265 8.73077 50.8025C8.60549 50.6021 8.43978 50.2659 8.55127 50.0257L8.57883 49.9663L9.20353 49.7927L8.94752 48.8375L9.18681 48.2626L8.4928 48.0382L7.49598 49.2665Z" fill="black"/>
<path d="M7.79785 47.8729L9.83752 48.5981C9.83752 48.5981 12.0531 41.54 16.4541 40.0897L16.0388 33.4873C16.0388 33.4873 8.98733 35.5679 7.79785 47.8729Z" fill="#17268F"/>
<path d="M33.2172 28.9878L34.9037 30.5882C34.9037 30.5882 33.3672 38.4957 24.2903 38.6457L23.2754 33.487C23.2754 33.487 28.4912 34.8581 33.2172 28.9878Z" fill="#17268F"/>
</svg>
