<svg width="110" height="62" viewBox="0 0 110 62" fill="none" xmlns="http://www.w3.org/2000/svg">
<path d="M97.9854 48.126C97.9854 50.7357 97.7562 53.2908 97.3176 55.7751C97.2755 56.0147 97.2321 56.253 97.1838 56.4914H11.7479C11.6997 56.253 11.6562 56.0147 11.6141 55.7751C11.1755 53.2908 10.9463 50.7357 10.9463 48.126C10.9463 24.0428 30.4313 4.51855 54.4659 4.51855C78.5005 4.51855 97.9854 24.0428 97.9854 48.126Z" fill="#EBF0FC"/>
<path d="M55.2103 59.4186C83.8371 59.4186 107.044 58.1417 107.044 56.5665C107.044 54.9913 83.8371 53.7144 55.2103 53.7144C26.5835 53.7144 3.37695 54.9913 3.37695 56.5665C3.37695 58.1417 26.5835 59.4186 55.2103 59.4186Z" fill="#95B3F9"/>
<path d="M65.4689 42.2347C62.6736 43.8188 63.0792 44.9847 62.218 47.9566C59.1024 58.709 76.2246 59.8701 82.6661 57.8675C85.3678 57.0275 88.1769 56.1258 90.1466 54.2139C92.415 52.0121 93.2123 48.7958 93.3768 45.7043C93.5482 42.482 93.0627 39.0575 91.0126 36.4187C88.9623 33.7799 85.0213 32.2345 81.9238 33.5734C80.8672 34.0301 79.987 34.7703 79.1524 35.527C77.6382 36.8996 75.9064 39.7387 73.8438 40.3827C72.6449 40.757 71.1422 40.4761 69.8821 40.6876C68.323 40.9492 66.8173 41.4706 65.4689 42.2347Z" fill="#C4D4F8"/>
<path d="M77.2808 48.596C81.7949 48.596 85.4542 47.1208 85.4542 45.3012C85.4542 43.4815 81.7949 42.0063 77.2808 42.0063C72.7668 42.0063 69.1074 43.4815 69.1074 45.3012C69.1074 47.1208 72.7668 48.596 77.2808 48.596Z" fill="#748DE8"/>
<path d="M53.3194 35.0815H52.6006V56.676H53.3194V35.0815Z" fill="#8198FF"/>
<path d="M48.2911 56.6759H47.5723L50.1043 35.0815H50.8232L48.2911 56.6759Z" fill="#8198FF"/>
<path d="M57.9246 56.6759H58.6436L56.1116 35.0815H55.3926L57.9246 56.6759Z" fill="#8198FF"/>
<path d="M52.9628 48.1705L48.9551 45.1282L49.1946 44.4009L53.2023 47.443L52.9628 48.1705Z" fill="#8198FF"/>
<path d="M53.1985 48.1705L57.2064 45.1282L56.9668 44.4009L52.959 47.443L53.1985 48.1705Z" fill="#8198FF"/>
<path d="M65.8302 9.85107H40.7471V37.5233H65.8302V9.85107Z" fill="white"/>
<path d="M66.7033 37.5244H39.873V38.8622H66.7033V37.5244Z" fill="#4F52C7"/>
<path d="M66.7033 8.88916H39.873V10.227H66.7033V8.88916Z" fill="#4F52C7"/>
<path d="M48.6929 32.5284C46.7988 31.1701 45.5645 28.947 45.5645 26.4352C45.5645 22.2997 48.9101 18.9473 53.0373 18.9473" stroke="#748DE8" stroke-width="2.5075" stroke-miterlimit="10"/>
<path d="M60.4725 24.5449C60.6803 25.2326 60.7919 25.962 60.7919 26.7177C60.7919 30.8531 57.4463 34.2056 53.3191 34.2056C51.6988 34.2056 50.1989 33.689 48.9746 32.8109" stroke="#95B3F9" stroke-width="2.655" stroke-miterlimit="10"/>
<path d="M53.3184 18.9473C56.6914 18.9473 59.5424 21.1866 60.4718 24.2625" stroke="#C4D4F8" stroke-width="2.655" stroke-miterlimit="10"/>
<path d="M52.4092 12.8931H42.7354V13.4427H52.4092V12.8931Z" fill="#C4D4F8"/>
<path d="M52.4092 14.2769H42.7354V14.8265H52.4092V14.2769Z" fill="#C4D4F8"/>
<path d="M46.2294 15.6606H42.7354V16.2102H46.2294V15.6606Z" fill="#C4D4F8"/>
<path d="M65.2508 11.9272H61.7568V12.4768H65.2508V11.9272Z" fill="#C4D4F8"/>
<path d="M65.2508 12.8931H61.7568V13.4427H65.2508V12.8931Z" fill="#C4D4F8"/>
<path d="M85.0765 36.5111C85.4061 35.9328 85.2054 35.1962 84.6282 34.866C84.0511 34.5357 83.316 34.7368 82.9864 35.3152C82.6568 35.8935 82.8575 36.63 83.4347 36.9603C84.0118 37.2905 84.7469 37.0894 85.0765 36.5111Z" fill="#FDD2D0"/>
<path d="M80.2615 31.0824C80.4643 31.8265 81.2308 32.265 81.9734 32.0619C82.716 31.8586 83.1536 31.0907 82.9509 30.3465C82.7481 29.6024 81.9816 29.1638 81.239 29.3671C80.4962 29.5703 80.0587 30.3383 80.2615 31.0824Z" fill="#FDD2D0"/>
<path d="M82.9519 30.3462L85.1895 35.5933L82.8676 36.2286L80.2627 31.0821L82.9519 30.3462Z" fill="#FDD2D0"/>
<path d="M73.3922 38.8783C74.0313 39.061 74.6972 38.6899 74.8795 38.0495C75.0618 37.4091 74.6914 36.7418 74.0523 36.5593C73.4132 36.3766 72.7473 36.7477 72.565 37.3881C72.3828 38.0285 72.7531 38.6956 73.3922 38.8783Z" fill="#FDD2D0"/>
<path d="M70.952 43.8789C71.3247 43.9854 71.7132 43.7689 71.8194 43.3954C71.9257 43.0219 71.7097 42.6327 71.337 42.5262C70.9642 42.4197 70.5758 42.6361 70.4695 43.0096C70.3632 43.3831 70.5792 43.7724 70.952 43.8789Z" fill="#FDD2D0"/>
<path d="M72.5651 37.3882L70.4707 43.0095L71.8207 43.3953L74.8796 38.0495L72.5651 37.3882Z" fill="#FDD2D0"/>
<path d="M72.5601 37.3327C72.3742 37.9722 72.7407 38.6415 73.3789 38.8276C74.017 39.0139 74.6849 38.6466 74.8708 38.0071C75.0567 37.3677 74.6901 36.6984 74.0519 36.5123C73.4138 36.3261 72.746 36.6933 72.5601 37.3327Z" fill="#FDD2D0"/>
<path d="M73.0247 31.5811C72.8094 32.3216 73.234 33.0969 73.9731 33.3127C74.7121 33.5284 75.4859 33.103 75.7012 32.3624C75.9165 31.6219 75.4919 30.8466 74.7528 30.6308C74.0136 30.4151 73.2399 30.8405 73.0247 31.5811Z" fill="#FDD2D0"/>
<path d="M75.701 32.3619L74.8712 38.0071L72.5605 37.3325L73.0246 31.5806L75.701 32.3619Z" fill="#FDD2D0"/>
<path d="M73.0405 29.8026C72.9786 29.9884 72.9576 30.1782 72.9735 30.362L72.6875 32.7632L75.1184 33.7301L75.6856 30.6864C75.9292 29.9543 75.5348 29.1636 74.8042 28.9193C74.0734 28.6753 73.2841 29.0704 73.0405 29.8026Z" fill="#FF9E66"/>
<path d="M75.3309 33.4235L75.2342 34.0192L72.5117 32.8593L72.6084 32.2637L75.3309 33.4235Z" fill="#F9844F"/>
<path d="M75.7549 53.1085C75.7549 53.1085 76.688 52.23 77.6826 51.9492C77.6826 51.9492 77.5988 52.2388 76.8593 52.7379C76.1198 53.237 75.7549 53.1085 75.7549 53.1085Z" fill="#683B1C"/>
<path d="M78.0322 52.5174L76.2357 49.7544L74.2285 51.1089L76.2646 53.8204L78.0322 52.5174Z" fill="#FDD2D0"/>
<path d="M74.2229 57.2343L77.5068 55.0183C77.7121 54.8797 77.694 54.5303 78.0086 54.318C78.1129 54.2476 78.3283 54.464 78.3283 54.464L79.2507 53.8415C79.205 53.7735 79.1376 53.6839 79.0596 53.5822C78.5972 52.9873 77.6815 51.9507 77.6815 51.9507C77.6815 51.9507 77.6401 52.0896 76.9511 52.5546C76.2638 53.0183 75.7543 53.109 75.7543 53.109C75.7543 53.109 75.778 53.2232 75.6586 53.7115C75.4717 54.4792 74.7802 55.1194 74.2041 55.6482C73.8203 56.0012 73.9542 56.5839 74.09 56.936C74.1553 57.1158 74.2229 57.2343 74.2229 57.2343Z" fill="#FFD800"/>
<path d="M74.0078 56.6815C74.0078 56.6815 74.9556 56.042 75.4546 55.7052C75.9948 55.3407 76.2346 55.5851 76.2346 55.5851" stroke="#A9693C" stroke-width="0.0221398" stroke-miterlimit="10"/>
<path d="M78.2387 52.5913C78.2387 52.5913 77.8071 53.2858 78.4334 54.1025" stroke="#A9693C" stroke-width="0.0221398" stroke-miterlimit="10"/>
<path d="M75.8608 53.2661C75.8608 53.2661 75.763 54.284 75.2715 54.8449C75.2715 54.8449 75.4175 55.1719 75.6121 55.3979C75.6121 55.3979 76.4892 54.7665 76.9744 54.5034C77.3271 54.312 77.6813 54.6097 77.6813 54.6097" stroke="#A9693C" stroke-width="0.0221398" stroke-miterlimit="10"/>
<path d="M75.7172 53.3247C75.7172 53.3247 75.6394 53.5578 75.8499 53.7801" stroke="#3F220E" stroke-width="0.0664193" stroke-miterlimit="10" stroke-linecap="round"/>
<path d="M75.6533 53.6411C75.6533 53.6411 75.6602 53.396 75.9355 53.3765" stroke="#3F220E" stroke-width="0.0664193" stroke-miterlimit="10" stroke-linecap="round"/>
<path d="M75.5971 53.8291C75.5971 53.8291 75.5192 54.0622 75.7298 54.2845" stroke="#3F220E" stroke-width="0.0664193" stroke-miterlimit="10" stroke-linecap="round"/>
<path d="M75.4824 54.1246C75.4824 54.1246 75.5748 53.8 75.8501 53.7803" stroke="#3F220E" stroke-width="0.0664193" stroke-miterlimit="10" stroke-linecap="round"/>
<path d="M75.4075 54.2554C75.4075 54.2554 75.2634 54.4208 75.4738 54.6431" stroke="#3F220E" stroke-width="0.0664193" stroke-miterlimit="10" stroke-linecap="round"/>
<path d="M75.2646 54.4955C75.2646 54.4955 75.4544 54.3039 75.7298 54.2842" stroke="#3F220E" stroke-width="0.0664193" stroke-miterlimit="10" stroke-linecap="round"/>
<path d="M75.4336 54.7037C75.4336 54.7037 75.306 54.6092 75.2041 54.6084" stroke="#3F220E" stroke-width="0.0664193" stroke-miterlimit="10" stroke-linecap="round"/>
<path d="M74.0361 56.9728L74.2157 57.2399L77.7143 54.8791C77.7143 54.8791 77.7664 54.5542 77.9761 54.4127C78.1342 54.306 78.321 54.4696 78.321 54.4696L79.26 53.836L79.0805 53.5688L74.0361 56.9728Z" fill="#FFC42A"/>
<path d="M77.8102 52.0967C77.8102 52.0967 77.3967 52.6175 76.6484 52.9695" stroke="#A9693C" stroke-width="0.0221398" stroke-miterlimit="10"/>
<path d="M67.2676 54.5028C67.2676 54.5028 68.5312 54.2964 69.5127 54.6203C69.5127 54.6203 69.2817 54.8136 68.3901 54.8136C67.4986 54.8136 67.2676 54.5028 67.2676 54.5028Z" fill="#683B1C"/>
<path d="M69.486 55.2875L69.5364 51.9902H67.1162L67.2936 55.3789L69.486 55.2875Z" fill="#FDD2D0"/>
<path d="M63.6982 57.0673H67.6576C67.9052 57.0673 68.0848 56.7672 68.4641 56.7672C68.5899 56.7672 68.6478 57.0673 68.6478 57.0673H69.7599C69.7599 56.9853 69.754 56.8732 69.7459 56.7452C69.6941 55.9929 69.5123 54.6205 69.5123 54.6205C69.5123 54.6205 69.4005 54.7126 68.5699 54.7126C67.7413 54.7126 67.2682 54.5024 67.2682 54.5024C67.2682 54.5024 67.2243 54.6105 66.8529 54.9486C66.2699 55.4807 65.3394 55.6248 64.5668 55.7408C64.0518 55.8188 63.8381 56.3769 63.7542 56.7451C63.7083 56.9313 63.6982 57.0673 63.6982 57.0673Z" fill="#FFD800"/>
<path d="M63.8271 56.4893C63.8271 56.4893 64.9699 56.4893 65.5715 56.4893C66.2227 56.4893 66.2854 56.8261 66.2854 56.8261" stroke="#A9693C" stroke-width="0.0221398" stroke-miterlimit="10"/>
<path d="M69.6165 55.4639C69.6165 55.4639 68.8712 55.7983 68.9356 56.8262" stroke="#A9693C" stroke-width="0.0221398" stroke-miterlimit="10"/>
<path d="M67.267 54.6929C67.267 54.6929 66.6184 55.4823 65.898 55.6725C65.898 55.6725 65.837 56.0253 65.8723 56.3218C65.8723 56.3218 66.9518 56.289 67.501 56.3422C67.9002 56.3809 68.0281 56.8261 68.0281 56.8261" stroke="#A9693C" stroke-width="0.0221398" stroke-miterlimit="10"/>
<path d="M67.1161 54.6616C67.1161 54.6616 66.9217 54.8115 66.9723 55.1135" stroke="#3F220E" stroke-width="0.0664193" stroke-miterlimit="10" stroke-linecap="round"/>
<path d="M66.8857 54.8875C66.8857 54.8875 67.0281 54.6881 67.2673 54.8259" stroke="#3F220E" stroke-width="0.0664193" stroke-miterlimit="10" stroke-linecap="round"/>
<path d="M66.7352 55.0117C66.7352 55.0117 66.5408 55.1616 66.5914 55.4636" stroke="#3F220E" stroke-width="0.0664193" stroke-miterlimit="10" stroke-linecap="round"/>
<path d="M66.4756 55.1934C66.4756 55.1934 66.7331 54.9758 66.9725 55.1136" stroke="#3F220E" stroke-width="0.0664193" stroke-miterlimit="10" stroke-linecap="round"/>
<path d="M66.3399 55.2598C66.3399 55.2598 66.1281 55.3164 66.1787 55.6185" stroke="#3F220E" stroke-width="0.0664193" stroke-miterlimit="10" stroke-linecap="round"/>
<path d="M66.0869 55.3785C66.0869 55.3785 66.3512 55.3259 66.5904 55.4635" stroke="#3F220E" stroke-width="0.0664193" stroke-miterlimit="10" stroke-linecap="round"/>
<path d="M66.1118 55.6466C66.1118 55.6466 66.0588 55.4967 65.9746 55.439" stroke="#3F220E" stroke-width="0.0664193" stroke-miterlimit="10" stroke-linecap="round"/>
<path d="M63.6875 56.7456V57.0677H67.9054C67.9054 57.0677 68.1297 56.8274 68.3826 56.8274C68.5733 56.8274 68.637 57.0677 68.637 57.0677H69.769V56.7456H63.6875Z" fill="#FFC42A"/>
<path d="M69.537 54.8135C69.537 54.8135 68.9037 55.0141 68.0869 54.8872" stroke="#A9693C" stroke-width="0.0221398" stroke-miterlimit="10"/>
<path d="M81.8861 38.7741L74.4258 38.4842L74.6187 28.9194L81.4966 29.2738L81.8861 38.7741Z" fill="#FF9E66"/>
<path d="M68.5516 45.5772L67.7354 41.7243L77.1087 39.3984L77.9759 44.3258L68.5516 45.5772Z" fill="#17268F"/>
<path d="M78.0264 44.32C79.381 44.0534 80.2635 42.737 79.9975 41.3796C79.7315 40.0223 78.4177 39.138 77.0631 39.4046C75.7085 39.6711 74.826 40.9875 75.092 42.3449C75.358 43.7022 76.6718 44.5865 78.0264 44.32Z" fill="#17268F"/>
<path d="M66.6792 42.5112C66.0714 43.4178 66.3123 44.6464 67.2171 45.2554C67.6255 45.5302 68.0993 45.6319 68.5522 45.5774C69.1028 45.5111 69.6224 45.2139 69.9557 44.7165C70.5634 43.8099 70.3225 42.5814 69.4178 41.9724C68.5129 41.3634 67.2868 41.6047 66.6792 42.5112Z" fill="#17268F"/>
<path d="M77.1762 50.7693L74.6835 52.3372L69.1582 45.2162L72.4171 42.9858L77.1762 50.7693Z" fill="#17268F"/>
<path d="M70.9999 46.0549C72.0827 45.9311 72.8603 44.9511 72.7367 43.8662C72.6131 42.7812 71.6352 42.002 70.5524 42.1259C69.4696 42.2497 68.692 43.2297 68.8156 44.3146C68.9392 45.3996 69.9171 46.1788 70.9999 46.0549Z" fill="#17268F"/>
<path d="M74.1163 41.5705L74.4253 38.4844L81.8856 38.7743L82.521 42.3507C82.5346 42.6079 81.8956 42.0594 81.6573 42.1559L78.7162 43.3448C78.1068 43.5911 77.4225 43.572 76.8277 43.2919L74.4591 42.1763C74.2282 42.0676 74.0909 41.8248 74.1163 41.5705Z" fill="#17268F"/>
<path d="M76.4949 29.3067C76.6018 29.9858 77.2379 30.4494 77.9157 30.3424C78.5934 30.2352 79.0561 29.5978 78.9492 28.9187C78.8423 28.2396 78.2062 27.776 77.5285 27.883C76.8506 27.9901 76.3879 28.6276 76.4949 29.3067Z" fill="#F6CACA"/>
<path d="M78.9484 28.9188L78.6806 27.2178L76.3057 27.577L76.4942 29.3069L78.9484 28.9188Z" fill="#F6CACA"/>
<path d="M79.1471 26.3596C79.1471 26.3596 79.8863 26.2066 79.806 27.0198C79.7257 27.833 78.7793 27.6003 78.7793 27.6003L79.1471 26.3596Z" fill="#FDD2D0"/>
<path d="M79.2822 26.6814C79.4112 26.6638 79.5223 26.7102 79.5648 26.7954C79.5779 26.8214 79.5873 26.8487 79.5938 26.8767C79.6082 26.9402 79.6056 27.0069 79.5879 27.0698C79.5703 27.1318 79.537 27.1918 79.4838 27.2342C79.4306 27.2766 79.3559 27.2994 79.2869 27.2846" stroke="#FC9EAA" stroke-width="0.07375" stroke-miterlimit="10" stroke-linecap="round"/>
<path d="M79.2597 27.0251C79.2128 26.9303 79.4173 26.771 79.5952 26.9354" stroke="#FC9EAA" stroke-width="0.07375" stroke-miterlimit="10" stroke-linecap="round"/>
<path opacity="0.4" d="M76.4558 28.9578L76.4297 28.7231C76.4297 28.7231 77.6765 29.3902 78.5534 28.1885C78.5534 28.2964 77.9832 29.5865 76.4558 28.9578Z" fill="#DCA7A7"/>
<path d="M78.9764 27.3649C78.9764 27.3649 78.4782 28.7014 77.739 28.9108C76.9998 29.1201 76.0518 28.8624 76.0518 27.9608V26.0177C76.0518 25.5147 76.3303 25.0457 76.7833 24.8287C77.1677 24.6445 77.7108 24.5529 78.4301 24.8047C80.0852 25.3844 78.9764 27.3649 78.9764 27.3649Z" fill="#FDD2D0"/>
<path d="M77.6027 26.8153C77.654 26.8153 77.6957 26.7561 77.6957 26.683C77.6957 26.61 77.654 26.5508 77.6027 26.5508C77.5514 26.5508 77.5098 26.61 77.5098 26.683C77.5098 26.7561 77.5514 26.8153 77.6027 26.8153Z" fill="#2E1124"/>
<path d="M76.6174 26.8153C76.6687 26.8153 76.7103 26.7561 76.7103 26.683C76.7103 26.61 76.6687 26.5508 76.6174 26.5508C76.566 26.5508 76.5244 26.61 76.5244 26.683C76.5244 26.7561 76.566 26.8153 76.6174 26.8153Z" fill="#2E1124"/>
<path d="M76.8389 26.3102C76.7438 26.215 76.5247 26.1983 76.4131 26.3102" stroke="#474DBD" stroke-width="0.07375" stroke-miterlimit="10" stroke-linecap="round"/>
<path d="M77.8155 26.3102C77.7203 26.215 77.5013 26.1983 77.3896 26.3102" stroke="#474DBD" stroke-width="0.07375" stroke-miterlimit="10" stroke-linecap="round"/>
<path d="M76.7598 28.0774C76.7598 28.0774 77.106 28.2999 77.3886 28.0283" stroke="#FC9EAA" stroke-width="0.07375" stroke-miterlimit="10" stroke-linecap="round"/>
<path d="M77.0277 26.8374C77.0277 26.8374 76.6943 27.4574 76.7384 27.5419C76.7825 27.6265 76.9594 27.5821 76.9594 27.5821" stroke="#FC9EAA" stroke-width="0.07375" stroke-miterlimit="10" stroke-linecap="round"/>
<path d="M77.626 31.439L77.7203 38.0086" stroke="#F9844F" stroke-width="0.1475" stroke-miterlimit="10" stroke-linecap="round"/>
<path d="M77.5322 27.3851C77.5322 27.5416 77.6589 27.6687 77.8152 27.6687C77.9714 27.6687 78.0982 27.5418 78.0982 27.3851C78.0982 27.2286 77.9715 27.1016 77.8152 27.1016C77.6589 27.1016 77.5322 27.2285 77.5322 27.3851Z" fill="#FFC6C6"/>
<path d="M76.0811 27.3851C76.0811 27.5416 76.2077 27.6687 76.364 27.6687C76.5204 27.6687 76.647 27.5418 76.647 27.3851C76.647 27.2286 76.5204 27.1016 76.364 27.1016C76.2078 27.1016 76.0811 27.2285 76.0811 27.3851Z" fill="#FFC6C6"/>
<path d="M79.8067 26.924C79.8067 26.924 79.8455 26.6679 79.7239 26.5571C79.3057 26.176 78.9703 26.537 78.9204 27.2525C78.9204 27.2525 78.843 27.3243 78.8401 27.2092C78.8365 27.0749 78.9042 26.7244 78.8521 26.2989C78.8129 25.979 78.9238 25.7219 78.9229 25.7285C78.9229 25.7285 77.1223 26.1297 76.2578 25.4313C75.9534 25.6618 76.0822 26.5383 76.0519 26.8485C75.825 26.4509 75.2577 25.8011 75.6686 25.413C75.259 25.0675 74.6785 23.5736 75.4279 22.9092C75.9287 22.4651 76.4693 22.4735 77.5992 23.5875C78.2011 24.181 78.6976 23.2706 79.1693 24.3711C79.5954 23.971 80.3254 24.565 80.2581 25.3962C80.1707 26.4729 79.8067 26.924 79.8067 26.924Z" fill="#17268F"/>
<path d="M78.8538 24.8844C78.9174 24.7392 78.8698 24.5535 78.7441 24.4569C78.6234 24.3642 78.4578 24.358 78.3066 24.3738C78.1552 24.3897 78.0022 24.4233 77.8524 24.3956C77.6575 24.3596 77.4952 24.2241 77.3657 24.0735C77.2363 23.923 77.1296 23.7529 76.9896 23.6121C76.7574 23.3784 76.4362 23.2356 76.1074 23.2202" stroke="#B2B2B2" stroke-width="0.022656" stroke-miterlimit="10" stroke-linecap="round" stroke-linejoin="round"/>
<path d="M78.6519 25.3063C78.6965 25.2101 78.6407 25.0893 78.5502 25.0343C78.4597 24.9793 78.3461 24.978 78.2421 24.9975C78.1381 25.0171 78.0384 25.0555 77.9345 25.0752C77.6949 25.1207 77.4442 25.0633 77.2264 24.9533C77.0086 24.8434 76.82 24.6835 76.6431 24.5153C76.5413 24.4187 76.4408 24.3175 76.3171 24.2513C76.1933 24.1853 76.0396 24.159 75.9131 24.2195" stroke="#B2B2B2" stroke-width="0.022656" stroke-miterlimit="10" stroke-linecap="round" stroke-linejoin="round"/>
<path d="M78.9697 25.3345C79.076 25.2078 79.2698 25.1642 79.4199 25.2335C79.5699 25.3028 79.663 25.4786 79.6359 25.6419C79.6185 25.7477 79.5578 25.8404 79.4986 25.9298C79.433 26.0288 79.3674 26.1278 79.3017 26.2268" stroke="#B2B2B2" stroke-width="0.022656" stroke-miterlimit="10" stroke-linecap="round" stroke-linejoin="round"/>
<path d="M79.167 24.8921C79.3071 24.8448 79.464 24.8498 79.6008 24.9057C79.6584 24.9293 79.7137 24.9626 79.753 25.0111C79.7923 25.0596 79.8139 25.1248 79.8005 25.1858" stroke="#B2B2B2" stroke-width="0.022656" stroke-miterlimit="10" stroke-linecap="round" stroke-linejoin="round"/>
<path d="M79.3259 24.4658C79.2668 24.3135 79.207 24.1594 79.1141 24.0249C79.0215 23.8903 78.8914 23.775 78.7341 23.7322C78.5889 23.6926 78.4352 23.7171 78.2848 23.7217C78.1343 23.7262 77.9695 23.7041 77.8652 23.5952" stroke="#17268F" stroke-width="0.07375" stroke-miterlimit="10" stroke-linecap="round"/>
<path d="M79.1855 24.4922C79.2049 24.3573 79.2836 24.2322 79.3966 24.1563C79.5096 24.0805 79.6551 24.0553 79.787 24.0886" stroke="#17268F" stroke-width="0.07375" stroke-miterlimit="10" stroke-linecap="round"/>
<path d="M76.036 25.2864C75.7542 25.2207 75.495 25.0616 75.3084 24.8399C75.122 24.6182 75.0092 24.3354 74.9922 24.0459" stroke="#17268F" stroke-width="0.07375" stroke-miterlimit="10" stroke-linecap="round"/>
<path d="M76.8498 26.7801C76.7867 27.0732 76.4983 27.2594 76.2059 27.1962C75.9134 27.1329 75.7275 26.844 75.7906 26.551C75.8537 26.2579 76.1421 26.0716 76.4345 26.1349C76.7271 26.1983 76.913 26.487 76.8498 26.7801Z" stroke="white" stroke-width="0.07375" stroke-miterlimit="10" stroke-linecap="round"/>
<path d="M78.2629 26.8392C78.2025 27.1191 77.9271 27.2971 77.6477 27.2366C77.3683 27.1762 77.1907 26.9002 77.251 26.6202C77.3114 26.3403 77.5868 26.1623 77.8662 26.2227C78.1456 26.2832 78.3233 26.5592 78.2629 26.8392Z" stroke="white" stroke-width="0.07375" stroke-miterlimit="10" stroke-linecap="round"/>
<path d="M76.8643 26.7155C76.8643 26.7155 76.998 26.5774 77.2395 26.7414" stroke="white" stroke-width="0.07375" stroke-miterlimit="10" stroke-linecap="round"/>
<path d="M71.0212 46.4609L70.5176 42.5546L80.0476 40.9932L80.5158 45.9745L71.0212 46.4609Z" fill="#17268F"/>
<path d="M81.5247 45.6484C82.722 44.9601 83.1359 43.4295 82.449 42.2297C81.7621 41.0299 80.2346 40.6153 79.0372 41.3036C77.8398 41.9918 77.426 43.5224 78.1129 44.7222C78.7998 45.922 80.3273 46.3367 81.5247 45.6484Z" fill="#17268F"/>
<path d="M69.401 43.254C68.7223 44.1086 68.8636 45.3526 69.7165 46.0326C70.1013 46.3395 70.5655 46.4791 71.0213 46.4612C71.5753 46.4396 72.1172 46.1854 72.4896 45.7165C73.1683 44.8619 73.0271 43.6179 72.1741 42.9379C71.3211 42.258 70.0796 42.3995 69.401 43.254Z" fill="#17268F"/>
<path d="M66.9339 52.9579L69.8718 52.783L70.2406 43.7705L66.2949 43.8522L66.9339 52.9579Z" fill="#17268F"/>
<path d="M69.6738 45.1856C68.9092 45.9639 67.6597 45.9737 66.883 45.2075C66.1062 44.4413 66.0965 43.1893 66.8611 42.411C67.6257 41.6327 68.8752 41.6229 69.6519 42.3891C70.4287 43.1553 70.4384 44.4073 69.6738 45.1856Z" fill="#17268F"/>
<path d="M76.9837 50.2559L74.2363 51.9483L74.5761 52.4046L77.2736 50.7513L76.9837 50.2559Z" fill="#030B48"/>
<path d="M70.0003 52.3042L66.7773 52.4217L66.8488 52.9865L70.0091 52.8785L70.0003 52.3042Z" fill="#030B48"/>
<path d="M81.9369 38.7759L74.3813 38.4771L74.2871 39.1767L81.9648 39.3862L81.9369 38.7759Z" fill="#030B48"/>
<path d="M81.0879 39.855C81.0879 39.855 80.9111 41.8034 81.8271 42.3508" stroke="#030B48" stroke-width="0.1475" stroke-miterlimit="10" stroke-linecap="round"/>
<path d="M76.6141 31.757C76.0986 31.8701 75.5548 31.8504 75.0488 31.7002" stroke="#F9844F" stroke-width="0.1475" stroke-miterlimit="10" stroke-linecap="round"/>
<path d="M77.2477 32.6414C77.3246 32.6414 77.387 32.579 77.387 32.5019C77.387 32.4248 77.3246 32.3623 77.2477 32.3623C77.1708 32.3623 77.1084 32.4248 77.1084 32.5019C77.1084 32.579 77.1708 32.6414 77.2477 32.6414Z" fill="#F9844F"/>
<path d="M77.1084 33.2817C77.1084 33.3587 77.1707 33.4212 77.2477 33.4212C77.3245 33.4212 77.387 33.3588 77.387 33.2817C77.387 33.2045 77.3247 33.1421 77.2477 33.1421C77.1707 33.1421 77.1084 33.2046 77.1084 33.2817Z" fill="#F9844F"/>
<path d="M77.2477 34.2015C77.3246 34.2015 77.387 34.139 77.387 34.0619C77.387 33.9849 77.3246 33.9224 77.2477 33.9224C77.1708 33.9224 77.1084 33.9849 77.1084 34.0619C77.1084 34.139 77.1708 34.2015 77.2477 34.2015Z" fill="#F9844F"/>
<path d="M80.7156 32.7876L80.5186 31.8291" stroke="#F9844F" stroke-width="0.1475" stroke-miterlimit="10" stroke-linecap="round"/>
<path d="M74.5244 32.5559L74.5537 31.5776" stroke="#F9844F" stroke-width="0.1475" stroke-miterlimit="10" stroke-linecap="round"/>
<path d="M83.1235 36.0051C83.2464 35.3506 83.8755 34.9199 84.5286 35.043C85.1818 35.1661 85.6116 35.7965 85.4888 36.4509C85.3659 37.1053 84.7368 37.536 84.0837 37.413C83.4305 37.2898 83.0006 36.6595 83.1235 36.0051Z" fill="#FDD2D0"/>
<path d="M78.2576 36.7876C78.6453 36.7876 78.9595 36.4727 78.9595 36.0842C78.9595 35.6958 78.6453 35.3809 78.2576 35.3809C77.8699 35.3809 77.5557 35.6958 77.5557 36.0842C77.5557 36.4727 77.8699 36.7876 78.2576 36.7876Z" fill="#FDD2D0"/>
<path d="M84.0833 37.4125L78.1289 36.7748L78.3885 35.3924L84.5283 35.0425L84.0833 37.4125Z" fill="#FDD2D0"/>
<path d="M80.2719 31.0778C80.3284 31.2653 80.4205 31.4324 80.5395 31.5732L81.6893 33.6994L84.2312 33.0829L82.9409 30.2696C82.7182 29.5308 81.9405 29.1132 81.2032 29.3365C80.4659 29.5597 80.0492 30.339 80.2719 31.0778Z" fill="#FF9E66"/>
<path d="M84.2281 32.7095L84.4924 33.2518L81.6012 33.8795L81.3369 33.3372L84.2281 32.7095Z" fill="#F9844F"/>
<path d="M75.9348 41.6675L70.5166 42.5553" stroke="#030B48" stroke-width="0.1475" stroke-miterlimit="10" stroke-linecap="round"/>
<path d="M77.9315 35.6313C77.9315 35.6313 77.2034 34.8089 77.0091 34.6661C76.8148 34.5232 76.6006 35.0065 76.6006 35.0065L77.9315 35.6313Z" fill="#FFD5CE"/>
<path d="M76.7325 34.8825C76.7325 34.8825 77.9446 35.5599 78.6761 35.9687C79.4076 36.3774 78.0967 36.813 77.7198 36.7025C77.7198 36.7025 76.7974 36.5876 76.4219 36.2776C76.0464 35.9676 76.1966 34.5163 76.7325 34.8825Z" fill="#FFD5CE"/>
<path d="M76.5938 34.8153C76.5938 34.8153 74.8474 34.6394 74.6326 34.6296C74.4178 34.6199 74.5292 35.0131 74.9355 35.0746C75.3417 35.136 76.3617 35.4302 76.7772 35.5246C77.1924 35.6188 77.2518 35.0176 76.5938 34.8153Z" fill="#FFD5CE"/>
<path d="M77.1639 35.4023C77.1639 35.4023 75.9179 35.4243 75.5715 35.5478C75.3847 35.6145 75.0849 36.3113 75.0137 36.4394C74.9425 36.5675 75.1816 36.8525 75.4558 36.4765C75.5862 36.2975 75.8531 35.8917 75.8531 35.8917L77.2085 36.0429C77.2085 36.0429 77.7176 35.5159 77.1639 35.4023Z" fill="#FFD5CE"/>
<path d="M77.7782 35.833C77.7782 35.833 76.5321 35.8549 76.1858 35.9785C75.9989 36.0452 75.6992 36.7419 75.6279 36.8701C75.5567 36.9982 75.7958 37.2833 76.0699 36.9073C76.2004 36.7283 76.4672 36.3225 76.4672 36.3225L77.8226 36.4737C77.8226 36.4734 78.3319 35.9465 77.7782 35.833Z" fill="#FFD5CE"/>
<path d="M78.0883 36.1162C78.0883 36.1162 76.932 36.1366 76.6105 36.2512C76.437 36.3131 76.159 36.9597 76.0929 37.0786C76.0267 37.1975 76.2486 37.462 76.503 37.113C76.624 36.947 76.8718 36.5705 76.8718 36.5705L78.0388 36.6006C78.0388 36.6006 78.6021 36.2216 78.0883 36.1162Z" fill="#FFD5CE"/>
<path d="M76.5029 34.9645C76.5091 34.9272 76.5812 34.85 76.6396 34.8609" stroke="#E38C72" stroke-width="0.07375" stroke-miterlimit="10" stroke-linecap="round"/>
<path d="M76.3552 35.7298C76.328 35.7035 76.3054 35.6003 76.3476 35.5581" stroke="#E38C72" stroke-width="0.07375" stroke-miterlimit="10" stroke-linecap="round"/>
<path d="M76.5044 36.1708C76.4674 36.1634 76.3929 36.0884 76.4058 36.0303" stroke="#E38C72" stroke-width="0.07375" stroke-miterlimit="10" stroke-linecap="round"/>
<path d="M76.8539 36.4149C76.8176 36.4252 76.7171 36.3927 76.7021 36.335" stroke="#E38C72" stroke-width="0.07375" stroke-miterlimit="10" stroke-linecap="round"/>
<path d="M42.4192 41.5403C44.9701 43.1245 44.5999 44.2904 45.3858 47.2622C48.229 58.0148 32.604 59.1758 26.7259 57.1732C24.2605 56.3331 21.697 55.4315 19.8996 53.5196C17.8297 51.3177 17.102 48.1015 16.9519 45.01C16.7954 41.7876 17.2384 38.363 19.1094 35.7243C20.9803 33.0856 24.5768 31.5402 27.4034 32.8791C28.3677 33.3358 29.1708 34.076 29.9325 34.8326C31.3143 36.2053 32.8947 39.0444 34.7769 39.6883C35.8709 40.0627 37.2423 39.7817 38.3921 39.9932C39.8148 40.2549 41.1888 40.7762 42.4192 41.5403Z" fill="#C4D4F8"/>
<path d="M31.6413 47.9021C35.7606 47.9021 39.1 46.427 39.1 44.6073C39.1 42.7876 35.7606 41.3125 31.6413 41.3125C27.522 41.3125 24.1826 42.7876 24.1826 44.6073C24.1826 46.427 27.522 47.9021 31.6413 47.9021Z" fill="#748DE8"/>
<path d="M34.0921 25.8704C34.4529 24.3393 33.5067 22.805 31.9787 22.4434C30.4506 22.0819 28.9194 23.03 28.5586 24.5611C28.1978 26.0923 29.144 27.6266 30.672 27.9881C32.2001 28.3497 33.7313 27.4015 34.0921 25.8704Z" fill="#17268F"/>
<path d="M41.5085 55.9856L41.2422 52.0348L43.5553 51.8711L43.6575 55.8508L41.5085 55.9856Z" fill="#C4804B"/>
<path d="M42.3832 55.0306C42.3211 54.9748 42.2872 54.8892 42.2938 54.8061C42.3004 54.7229 42.3475 54.6438 42.4175 54.5986" stroke="#6E3B09" stroke-width="0.07375" stroke-miterlimit="10" stroke-linecap="round"/>
<path d="M35.813 34.5987C36.3158 34.9902 36.4065 35.7162 36.0158 36.22C35.625 36.7239 34.9005 36.8148 34.3977 36.4232C33.8948 36.0317 33.8041 35.3057 34.1948 34.8019C34.5856 34.298 35.3101 34.2071 35.813 34.5987Z" fill="#C4804B"/>
<path d="M38.2884 29.8776C38.5817 30.106 38.6346 30.5294 38.4068 30.8233C38.1788 31.1172 37.7563 31.1702 37.463 30.9419C37.1697 30.7135 37.1167 30.2901 37.3447 29.9962C37.5726 29.7024 37.9951 29.6493 38.2884 29.8776Z" fill="#C4804B"/>
<path d="M34.1943 34.8016L37.3446 29.9961L38.4068 30.8233L36.0152 36.2198L34.1943 34.8016Z" fill="#C4804B"/>
<path d="M36.2167 35.2024C36.3869 35.8173 36.0273 36.4541 35.4137 36.6245C34.8 36.7951 34.1645 36.4348 33.9944 35.8199C33.8242 35.205 34.1837 34.5683 34.7974 34.3977C35.4109 34.2273 36.0464 34.5875 36.2167 35.2024Z" fill="#C4804B"/>
<path d="M35.8427 29.6851C36.0398 30.3974 35.6234 31.1349 34.9126 31.3323C34.2017 31.5299 33.4657 31.1126 33.2687 30.4004C33.0715 29.6881 33.4878 28.9506 34.1987 28.7531C34.9095 28.5556 35.6455 28.9728 35.8427 29.6851Z" fill="#C4804B"/>
<path d="M33.2686 30.4004L33.9937 35.8195L36.2161 35.2018L35.8426 29.6851L33.2686 30.4004Z" fill="#C4804B"/>
<path d="M35.8513 29.3409C35.9069 29.5202 35.9233 29.7023 35.9043 29.8781L36.1303 32.1842L33.7822 33.0619L33.2998 30.1348C33.0809 29.4286 33.4747 28.6789 34.1795 28.4596C34.8843 28.2402 35.6324 28.6347 35.8513 29.3409Z" fill="#FF9E66"/>
<path d="M33.585 32.7635L33.6657 33.3363L36.2969 32.2796L36.2163 31.707L33.585 32.7635Z" fill="#F9844F"/>
<path d="M27.6846 37.8325H34.8354L34.6484 28.3896L28.0579 28.7291L27.6846 37.8325Z" fill="#FF9E66"/>
<path d="M42.0752 41.7269L41.5571 45.4653L32.3545 44.499L33.1761 39.7759L42.0752 41.7269Z" fill="#17268F"/>
<path d="M33.2819 44.4827C34.5732 44.1954 35.3875 42.9135 35.1008 41.6196C34.814 40.3257 33.5347 39.5097 32.2434 39.7971C30.9521 40.0844 30.1378 41.3663 30.4245 42.6602C30.7113 43.9541 31.9906 44.7701 33.2819 44.4827Z" fill="#17268F"/>
<path d="M42.7653 45.1008C43.6078 44.4825 43.7905 43.2968 43.1734 42.4526C42.8949 42.0715 42.5011 41.8252 42.0752 41.7264C41.5577 41.6062 40.9928 41.7043 40.5305 42.0435C39.6879 42.6619 39.5053 43.8476 40.1224 44.6918C40.7394 45.5361 41.9227 45.7192 42.7653 45.1008Z" fill="#17268F"/>
<path d="M41.2049 53.5692L43.6632 53.3953L43.6079 44.0239L39.834 44.2659L41.2049 53.5692Z" fill="#17268F"/>
<path d="M43.1238 45.4023C42.4241 46.1791 41.2282 46.2405 40.453 45.5392C39.6778 44.838 39.6166 43.6398 40.3165 42.863C41.0162 42.0862 42.2121 42.0249 42.9873 42.7262C43.7625 43.4273 43.8237 44.6256 43.1238 45.4023Z" fill="#17268F"/>
<path d="M43.6607 52.9229L43.6633 53.3952L41.2055 53.569L41.1367 53.1014L43.6607 52.9229Z" fill="#030B48"/>
<path d="M35.1298 40.5119L34.836 37.8325H27.6853L27.544 40.5066C27.5309 40.7531 26.5607 42.4705 26.726 42.5485L30.7221 42.2122C31.3061 42.4482 31.9618 42.4299 32.5318 42.1615L34.8013 41.0925C35.0226 40.9882 35.1542 40.7556 35.1298 40.5119Z" fill="#17268F"/>
<path d="M33.1033 28.8003C32.9923 29.5079 32.392 30.0227 31.6782 30.0227C31.6018 30.0227 31.5266 30.0163 31.4513 30.0048C30.7528 29.8936 30.2507 29.2985 30.2314 28.6164L33.1173 28.4683C33.125 28.5768 33.1211 28.6879 33.1033 28.8003Z" fill="white"/>
<path d="M32.8518 28.7604C32.7493 29.4111 32.1398 29.8554 31.4904 29.7526C30.841 29.65 30.3975 29.0392 30.5001 28.3885C30.6025 27.7378 31.2121 27.2934 31.8615 27.3961C32.5108 27.4989 32.9542 28.1096 32.8518 28.7604Z" fill="#C4804B"/>
<path d="M30.5 28.3887L30.7566 26.7588L33.0323 27.103L32.8518 28.7606L30.5 28.3887Z" fill="#C4804B"/>
<path d="M30.3101 25.9358C30.3101 25.9358 29.6017 25.7892 29.6787 26.5684C29.7557 27.3476 30.6625 27.1246 30.6625 27.1246L30.3101 25.9358Z" fill="#C4804B"/>
<path d="M30.1785 26.2443C30.055 26.2273 29.9485 26.2719 29.9078 26.3534C29.8953 26.3784 29.8861 26.4045 29.88 26.4313C29.8663 26.492 29.8686 26.5561 29.8858 26.6163C29.9027 26.6758 29.9346 26.7331 29.9855 26.7738C30.0363 26.8144 30.108 26.8362 30.1741 26.8221" stroke="#FC9EAA" stroke-width="0.07375" stroke-miterlimit="10" stroke-linecap="round"/>
<path d="M30.2014 26.573C30.2463 26.4822 30.0504 26.3297 29.8799 26.487" stroke="#FC9EAA" stroke-width="0.07375" stroke-miterlimit="10" stroke-linecap="round"/>
<path opacity="0.1" d="M32.8887 28.4261L32.9138 28.2011C32.9138 28.2011 31.719 28.8402 30.8789 27.689C30.8789 27.7922 31.4252 29.0286 32.8887 28.4261Z" fill="black"/>
<path d="M30.4734 26.9C30.4734 26.9 30.9508 28.1806 31.659 28.3812C32.3674 28.5818 33.2759 28.3349 33.2759 27.4709V25.609C33.2759 25.1269 33.009 24.6776 32.5749 24.4697C32.2065 24.2932 31.6861 24.2053 30.997 24.4467C29.4109 25.0022 30.4734 26.9 30.4734 26.9Z" fill="#C4804B"/>
<path d="M31.7903 26.3731C31.8395 26.3731 31.8794 26.3164 31.8794 26.2464C31.8794 26.1764 31.8395 26.1196 31.7903 26.1196C31.7411 26.1196 31.7012 26.1764 31.7012 26.2464C31.7012 26.3164 31.7411 26.3731 31.7903 26.3731Z" fill="#2E1124"/>
<path d="M32.8218 26.2464C32.8218 26.3164 32.7819 26.3731 32.7327 26.3731C32.6834 26.3731 32.6436 26.3164 32.6436 26.2464C32.6436 26.1764 32.6834 26.1196 32.7327 26.1196C32.7819 26.1196 32.8218 26.1764 32.8218 26.2464Z" fill="#2E1124"/>
<path d="M32.5215 25.8895C32.6126 25.7982 32.8226 25.7823 32.9296 25.8895" stroke="#6E3B09" stroke-width="0.110625" stroke-miterlimit="10" stroke-linecap="round"/>
<path d="M31.5859 25.8895C31.6771 25.7982 31.8871 25.7823 31.994 25.8895" stroke="#6E3B09" stroke-width="0.110625" stroke-miterlimit="10" stroke-linecap="round"/>
<path d="M32.5967 27.5826C32.5967 27.5826 32.265 27.7959 31.9941 27.5356" stroke="#6E3B09" stroke-width="0.1475" stroke-miterlimit="10" stroke-linecap="round"/>
<path d="M32.3408 26.3945C32.3408 26.3945 32.6604 26.9886 32.618 27.0696C32.5757 27.1507 32.4063 27.1082 32.4063 27.1082" stroke="#6E3B09" stroke-width="0.07375" stroke-miterlimit="10" stroke-linecap="round"/>
<path d="M31.8577 26.9187C31.8577 27.0687 31.7363 27.1904 31.5866 27.1904C31.4368 27.1904 31.3154 27.0687 31.3154 26.9187C31.3154 26.7686 31.4368 26.647 31.5866 26.647C31.7363 26.647 31.8577 26.7686 31.8577 26.9187Z" fill="#B66A45"/>
<path d="M32.9762 27.1904C33.126 27.1904 33.2474 27.0687 33.2474 26.9187C33.2474 26.7686 33.126 26.647 32.9762 26.647C32.8265 26.647 32.7051 26.7686 32.7051 26.9187C32.7051 27.0687 32.8265 27.1904 32.9762 27.1904Z" fill="#B66A45"/>
<path d="M29.678 26.4776C29.678 26.4776 29.6408 26.2322 29.7573 26.1259C30.1581 25.7608 30.4794 26.1067 30.5272 26.7922C30.5272 26.7922 30.6013 26.8611 30.6042 26.7509C30.6075 26.6221 30.5428 26.2863 30.5927 25.8786C30.6303 25.5721 30.524 25.3257 30.5248 25.3321C30.5248 25.3321 32.2502 25.7165 33.0785 25.0473C33.3701 25.2681 33.2468 26.1079 33.2758 26.4054C33.4932 26.0243 34.0368 25.4016 33.6429 25.0298C34.0353 24.6987 33.9645 24.1886 33.2466 23.5521C32.7668 23.1267 32.8757 22.2132 31.7931 23.2806C31.2163 23.8493 30.7406 22.9769 30.2887 24.0314C29.8804 23.648 29.1809 24.2172 29.2454 25.0137C29.3293 26.0453 29.678 26.4776 29.678 26.4776Z" fill="#17268F"/>
<path d="M34.3458 38.6963C34.3458 38.6963 34.3308 40.3686 34.7154 41.0311" stroke="#030B48" stroke-width="0.1475" stroke-miterlimit="10" stroke-linecap="round"/>
<path d="M28.8066 32.0962L28.9954 31.1777" stroke="#E87262" stroke-width="0.1475" stroke-miterlimit="10" stroke-linecap="round"/>
<path d="M34.739 31.8738L34.7109 30.9365" stroke="#E87262" stroke-width="0.1475" stroke-miterlimit="10" stroke-linecap="round"/>
<path d="M41.3513 56.7956L47.2471 56.6538L47.2406 56.3854L41.3449 56.5272L41.3513 56.7956Z" fill="#F2B108"/>
<path d="M43.6791 54.2441C43.6791 54.2441 44.6669 54.7403 45.6083 54.9303C46.5495 55.1204 47.2119 55.142 47.2365 56.1677C46.1672 56.1934 41.3408 56.3094 41.3408 56.3094L41.3839 54.5548C41.3839 54.5548 41.5542 54.3672 41.6017 54.608C41.6491 54.8489 41.6895 55.1482 41.6895 55.1482L42.9531 55.282C42.953 55.282 43.4281 54.3628 43.6791 54.2441Z" fill="#F8F8F8"/>
<mask id="mask0_2392_17494" style="mask-type:luminance" maskUnits="userSpaceOnUse" x="41" y="54" width="7" height="3">
<path d="M43.6791 54.2441C43.6791 54.2441 44.6669 54.7403 45.6083 54.9303C46.5495 55.1204 47.2119 55.142 47.2365 56.1677C46.1672 56.1934 41.3408 56.3094 41.3408 56.3094L41.3839 54.5548C41.3839 54.5548 41.5542 54.3672 41.6017 54.608C41.6491 54.8489 41.6895 55.1482 41.6895 55.1482L42.9531 55.282C42.953 55.282 43.4281 54.3628 43.6791 54.2441Z" fill="white"/>
</mask>
<g mask="url(#mask0_2392_17494)">
<path d="M45.5566 55.4774L44.9083 55.493C44.8329 55.4948 44.7704 55.4351 44.7686 55.3596L44.7393 54.1365C44.7375 54.061 44.797 53.9984 44.8724 53.9966L45.5207 53.981C45.5961 53.9792 45.6586 54.0389 45.6604 54.1144L45.6897 55.3374C45.6915 55.4129 45.6319 55.4756 45.5566 55.4774Z" stroke="#F2B108" stroke-width="0.1475" stroke-miterlimit="10"/>
</g>
<path d="M41.3464 56.5276L47.2422 56.3857L47.237 56.1692L41.3413 56.311L41.3464 56.5276Z" fill="white"/>
<path d="M35.585 55.516L36.2487 51.6123L38.5358 51.9957L37.7058 55.8888L35.585 55.516Z" fill="#C4804B"/>
<path d="M36.6569 54.7918C36.6098 54.7231 36.5965 54.632 36.6224 54.5527C36.6482 54.4733 36.7125 54.4076 36.7911 54.3799" stroke="#6E3B09" stroke-width="0.07375" stroke-miterlimit="10" stroke-linecap="round"/>
<path d="M37.973 42.1293L37.871 45.9022L28.6182 45.9625L28.9131 41.1772L37.973 42.1293Z" fill="#17268F"/>
<path d="M30.2095 45.4871C31.2654 44.6887 31.4753 43.1837 30.6785 42.1257C29.8816 41.0678 28.3797 40.8574 27.3239 41.6558C26.268 42.4543 26.0581 43.9592 26.8549 45.0172C27.6518 46.0752 29.1537 46.2856 30.2095 45.4871Z" fill="#17268F"/>
<path d="M39.0315 45.4068C39.8006 44.6988 39.8513 43.5001 39.1447 42.7295C38.8258 42.3818 38.4071 42.1805 37.9731 42.1296C37.4453 42.0678 36.8948 42.2277 36.4729 42.6161C35.7039 43.3242 35.6533 44.5228 36.3598 45.2934C37.0662 46.0641 38.2625 46.1148 39.0315 45.4068Z" fill="#17268F"/>
<path d="M35.8525 53.0939L38.2831 53.5012L40.4178 44.3772L36.6921 43.7275L35.8525 53.0939Z" fill="#17268F"/>
<path d="M40.4485 44.0655C40.4618 43.0191 39.6261 42.1599 38.5818 42.1465C37.5376 42.1331 36.6802 42.9706 36.6668 44.017C36.6534 45.0634 37.4891 45.9225 38.5334 45.9359C39.5777 45.9493 40.4351 45.1119 40.4485 44.0655Z" fill="#17268F"/>
<path d="M35.4414 56.8869L41.3389 56.855L41.3374 56.5865L35.4399 56.6184L35.4414 56.8869Z" fill="#F2B108"/>
<path d="M37.8178 54.3799C37.8178 54.3799 38.7963 54.8943 39.7337 55.102C40.6714 55.3096 41.3333 55.3436 41.3388 56.3695C40.2692 56.3753 35.4414 56.4012 35.4414 56.4012L35.517 54.6477C35.517 54.6477 35.6908 54.4632 35.7337 54.7049C35.7766 54.9466 35.8116 55.2466 35.8116 55.2466L37.0726 55.404C37.0724 55.404 37.5644 54.4938 37.8178 54.3799Z" fill="#F8F8F8"/>
<mask id="mask1_2392_17494" style="mask-type:luminance" maskUnits="userSpaceOnUse" x="35" y="54" width="7" height="3">
<path d="M37.8178 54.3799C37.8178 54.3799 38.7963 54.8943 39.7337 55.102C40.6714 55.3096 41.3333 55.3436 41.3388 56.3695C40.2692 56.3753 35.4414 56.4012 35.4414 56.4012L35.517 54.6477C35.517 54.6477 35.6908 54.4632 35.7337 54.7049C35.7766 54.9466 35.8116 55.2466 35.8116 55.2466L37.0726 55.404C37.0724 55.404 37.5644 54.4938 37.8178 54.3799Z" fill="white"/>
</mask>
<g mask="url(#mask1_2392_17494)">
<path d="M39.6722 55.6477L39.0237 55.6511C38.9484 55.6516 38.8869 55.5907 38.8865 55.5152L38.8799 54.2918C38.8795 54.2163 38.9402 54.1547 39.0156 54.1543L39.664 54.1509C39.7394 54.1505 39.8009 54.2114 39.8013 54.2869L39.8079 55.5102C39.8083 55.5857 39.7475 55.6473 39.6722 55.6477Z" stroke="#F2B108" stroke-width="0.1475" stroke-miterlimit="10"/>
</g>
<path d="M35.4394 56.6178L41.3369 56.5859L41.3357 56.3694L35.4382 56.4013L35.4394 56.6178Z" fill="white"/>
<path d="M28.4495 38.8677C28.4495 38.8677 28.6189 40.7347 27.7412 41.2592" stroke="#030B48" stroke-width="0.1475" stroke-miterlimit="10" stroke-linecap="round"/>
<path d="M31.6572 39.665C31.6572 39.665 31.6469 42.2661 31.4085 42.5137C31.1701 42.7613 31.0566 42.8455 31.0566 42.8455" stroke="#030B48" stroke-width="0.1475" stroke-miterlimit="10" stroke-linecap="round"/>
<path d="M38.3279 53.3197L38.2202 53.7794L35.79 53.3722L35.8324 52.9014L38.3279 53.3197Z" fill="#030B48"/>
<path d="M24.3972 35.1638C25.034 35.1638 25.5503 34.6465 25.5503 34.0084C25.5503 33.3703 25.034 32.853 24.3972 32.853C23.7604 32.853 23.2441 33.3703 23.2441 34.0084C23.2441 34.6465 23.7604 35.1638 24.3972 35.1638Z" fill="#C4804B"/>
<path d="M27.9461 39.4182C27.6094 39.5754 27.2092 39.4294 27.0524 39.0921C26.8955 38.7547 27.0412 38.3537 27.3778 38.1965C27.7146 38.0393 28.1147 38.1854 28.2716 38.5226C28.4285 38.8599 28.2827 39.261 27.9461 39.4182Z" fill="#C4804B"/>
<path d="M25.442 33.5205L28.2712 38.5227L27.052 39.0921L23.3516 34.4967L25.442 33.5205Z" fill="#C4804B"/>
<path d="M25.4349 34.564C25.0967 35.1047 24.3851 35.2683 23.8456 34.9295C23.306 34.5906 23.1427 33.8776 23.4808 33.3369C23.8189 32.7963 24.5306 32.6326 25.0702 32.9714C25.6098 33.3102 25.7732 34.0232 25.4349 34.564Z" fill="#C4804B"/>
<path d="M29.2478 30.5658C28.8561 31.1921 28.0319 31.3816 27.4068 30.9892C26.7817 30.5966 26.5927 29.7708 26.9843 29.1445C27.376 28.5181 28.2002 28.3285 28.8253 28.7211C29.4503 29.1136 29.6395 29.9396 29.2478 30.5658Z" fill="#C4804B"/>
<path d="M26.9834 29.145L23.4805 33.3372L25.4346 34.5644L29.2469 30.5663L26.9834 29.145Z" fill="#C4804B"/>
<path d="M29.2567 30.5716C29.1571 30.7307 29.0299 30.8619 28.8846 30.9619L27.2864 32.6368L25.0918 31.4245L26.9927 29.15C27.3846 28.5234 28.2086 28.3339 28.834 28.7266C29.4595 29.1192 29.6485 29.9449 29.2567 30.5716Z" fill="#FF9E66"/>
<path d="M25.1893 31.0801L24.8086 31.5148L27.3233 32.8256L27.7041 32.391L25.1893 31.0801Z" fill="#F9844F"/>
<path d="M28.8871 38.1018C29.1758 38.1887 29.1307 38.4917 29.513 39.6952C29.5272 39.7397 28.0939 39.9302 27.5933 39.4826C27.0415 38.9895 27.6708 37.7353 28.8871 38.1018Z" fill="#C4804B"/>
<path d="M28.1131 38.0876C28.6735 37.8812 28.9501 37.9077 29.37 37.8382C29.5797 37.8035 29.5889 37.9319 29.7603 38.1072C29.9318 38.2824 30.4252 38.8142 30.1297 38.9324C29.6803 39.1122 29.2851 38.453 29.1687 38.5388C28.4769 39.0489 27.5526 38.2941 28.1131 38.0876Z" fill="#C4804B"/>
<path d="M28.7981 39.2137L29.53 39.6239C29.6513 39.6918 29.8061 39.648 29.8739 39.5265C29.9417 39.405 29.898 39.2498 29.7767 39.1819L29.0448 38.7717C28.9235 38.7038 28.7688 38.7476 28.7009 38.8692C28.6331 38.9907 28.6768 39.1458 28.7981 39.2137Z" fill="#C4804B"/>
<path d="M29.0373 38.7836L29.7693 39.1937C29.8905 39.2616 30.0454 39.2178 30.1131 39.0963C30.1809 38.9748 30.1372 38.8197 30.0159 38.7517L29.284 38.3416C29.1627 38.2736 29.0079 38.3175 28.9401 38.439C28.8723 38.5605 28.9161 38.7156 29.0373 38.7836Z" fill="#C4804B"/>
<path d="M28.468 39.5282L29.1999 39.9384C29.3212 40.0063 29.4759 39.9625 29.5438 39.8409C29.6116 39.7194 29.5679 39.5643 29.4466 39.4964L28.7147 39.0862C28.5934 39.0183 28.4386 39.0621 28.3708 39.1836C28.303 39.3051 28.3467 39.4601 28.468 39.5282Z" fill="#C4804B"/>
<path d="M28.2395 39.7668L28.7973 40.1609C28.8897 40.2262 29.0109 40.1984 29.0663 40.0989C29.1217 39.9995 29.0915 39.8648 28.9991 39.7995L28.4412 39.4054C28.3488 39.3401 28.2277 39.368 28.1723 39.4674C28.1169 39.5668 28.1471 39.7015 28.2395 39.7668Z" fill="#C4804B"/>
<path d="M29.1384 38.4619C29.1384 38.4619 29.0638 38.4826 29.0547 38.5433" stroke="#6E312A" stroke-width="0.110625" stroke-miterlimit="10" stroke-linecap="round"/>
<path d="M29.4919 37.9594C29.4919 37.9594 29.3871 37.9164 29.3477 38.1172" stroke="#6E312A" stroke-width="0.110625" stroke-miterlimit="10" stroke-linecap="round"/>
<path d="M28.6391 39.2524C28.6391 39.2524 28.5738 39.2942 28.5829 39.3549" stroke="#6E312A" stroke-width="0.110625" stroke-miterlimit="10" stroke-linecap="round"/>
<path d="M28.5036 39.6265C28.5036 39.6265 28.4502 39.6827 28.4738 39.7394" stroke="#6E312A" stroke-width="0.110625" stroke-miterlimit="10" stroke-linecap="round"/>
<path d="M28.8557 38.8511C28.8557 38.8511 28.7877 38.8879 28.7922 38.9492" stroke="#6E312A" stroke-width="0.110625" stroke-miterlimit="10" stroke-linecap="round"/>
<path d="M38.5673 28.4802C38.8703 28.3638 38.9807 28.5654 39.8669 29.4495C39.9025 29.485 38.8126 30.586 38.0919 30.535C37.2979 30.4788 37.2903 28.9706 38.5673 28.4802Z" fill="#C4804B"/>
<path d="M38.9401 29.5122L39.755 29.3787C39.9029 29.3565 40.006 29.2171 39.9839 29.0688C39.9618 28.9206 39.8226 28.8172 39.6747 28.8394L38.8598 28.9729C38.7119 28.9951 38.6089 29.1345 38.6309 29.2828C38.653 29.4312 38.7922 29.5344 38.9401 29.5122Z" fill="#C4804B"/>
<path d="M38.863 28.9873L39.6778 28.8538C39.8258 28.8316 39.9289 28.6921 39.9067 28.5439C39.8846 28.3956 39.7455 28.2924 39.5975 28.3145L38.7827 28.448C38.6347 28.4702 38.5317 28.6096 38.5537 28.7579C38.5759 28.9062 38.715 29.0094 38.863 28.9873Z" fill="#C4804B"/>
<path d="M38.8669 29.9975L39.6817 29.864C39.8297 29.8418 39.9328 29.7024 39.9106 29.5541C39.8885 29.4059 39.7494 29.3027 39.6014 29.3247L38.7866 29.4583C38.6386 29.4804 38.5356 29.6199 38.5576 29.7681C38.5796 29.9164 38.7189 30.0197 38.8669 29.9975Z" fill="#C4804B"/>
<path d="M38.8594 30.3273L39.5194 30.2889C39.6416 30.2839 39.7376 30.1796 39.7327 30.0571C39.7277 29.9347 39.6236 29.8385 39.5014 29.8434L38.8414 29.8819C38.7191 29.8868 38.6232 29.9911 38.6281 30.1136C38.6331 30.2361 38.7372 30.3323 38.8594 30.3273Z" fill="#C4804B"/>
<path d="M38.0875 27.3062C38.0622 27.2784 38.0351 27.2522 38.0068 27.2281C37.962 27.1901 37.9129 27.1563 37.8648 27.1424C37.8166 27.1285 37.7703 27.1375 37.7517 27.1753C37.7322 27.2154 37.7458 27.2765 37.7578 27.3327C37.8943 27.8853 37.5342 29.5089 37.6184 29.6401C37.6972 29.763 38.0889 29.7623 38.1909 29.6671C38.3431 29.5331 38.5938 28.9465 38.4185 28.5666C38.3712 28.4605 38.3116 28.3557 38.2972 28.24C38.2866 28.1114 38.2958 27.7834 38.2693 27.6569C38.2492 27.5325 38.1803 27.4082 38.0875 27.3062Z" fill="#C4804B"/>
<path d="M37.7686 27.2144C37.7686 27.2144 37.9307 27.351 37.8876 27.4555C37.8445 27.5599 37.8148 27.6572 37.8148 27.6572" stroke="#6E312A" stroke-width="0.110625" stroke-miterlimit="10" stroke-linecap="round"/>
<path d="M42.4212 22.2075H37.0926C36.8473 22.2075 36.6484 22.0082 36.6484 21.7624V19.8156C36.6484 19.5698 36.8473 19.3706 37.0926 19.3706H42.4212C42.6665 19.3706 42.8654 19.5698 42.8654 19.8156V21.7624C42.8655 22.0082 42.6665 22.2075 42.4212 22.2075Z" fill="#8198FF"/>
<path d="M41.6647 20.5665H38.0304C37.9505 20.5665 37.8857 20.5016 37.8857 20.4216V20.4169C37.8857 20.3369 37.9505 20.272 38.0304 20.272H41.6647C41.7445 20.272 41.8093 20.3369 41.8093 20.4169V20.4216C41.8093 20.5016 41.7445 20.5665 41.6647 20.5665Z" fill="white"/>
<path d="M40.175 21.2042H38.0304C37.9505 21.2042 37.8857 21.1393 37.8857 21.0593V21.0546C37.8857 20.9746 37.9505 20.9097 38.0304 20.9097H40.175C40.2549 20.9097 40.3196 20.9746 40.3196 21.0546V21.0593C40.3196 21.1393 40.2549 21.2042 40.175 21.2042Z" fill="white"/>
<path d="M70.3998 26.1645H65.0711C64.8258 26.1645 64.627 25.9653 64.627 25.7195V23.7727C64.627 23.5269 64.8258 23.3276 65.0711 23.3276H70.3998C70.6451 23.3276 70.8439 23.5269 70.8439 23.7727V25.7195C70.8439 25.9653 70.6451 26.1645 70.3998 26.1645Z" fill="#8198FF"/>
<path d="M69.6441 24.5226H66.0099C65.93 24.5226 65.8652 24.4577 65.8652 24.3777V24.373C65.8652 24.2929 65.93 24.228 66.0099 24.228H69.6441C69.724 24.228 69.7888 24.2929 69.7888 24.373V24.3777C69.7888 24.4577 69.724 24.5226 69.6441 24.5226Z" fill="white"/>
<path d="M68.1545 25.1603H66.0099C65.93 25.1603 65.8652 25.0954 65.8652 25.0153V25.0107C65.8652 24.9306 65.93 24.8657 66.0099 24.8657H68.1545C68.2344 24.8657 68.2991 24.9306 68.2991 25.0107V25.0153C68.2991 25.0954 68.2344 25.1603 68.1545 25.1603Z" fill="white"/>
</svg>
