<svg width="54" height="52" viewBox="0 0 54 52" fill="none" xmlns="http://www.w3.org/2000/svg">
<path d="M36.9102 37.4336C36.9102 33.7384 39.9063 30.7422 43.6038 30.7422C47.2991 30.7422 50.2953 33.7384 50.2953 37.4336C50.2953 41.1289 47.2991 44.1273 43.6038 44.1273C39.9063 44.1273 36.9102 41.1311 36.9102 37.4336Z" fill="#FFD345"/>
<path d="M38.853 37.4342C38.853 34.8154 40.977 32.6914 43.5958 32.6914C46.2147 32.6914 48.3387 34.8154 48.3387 37.4342C48.3387 40.0531 46.2147 42.1771 43.5958 42.1771C40.9748 42.1771 38.853 40.0531 38.853 37.4342Z" fill="#E1B21B"/>
<path d="M38.8696 37.4318C38.8696 34.8129 40.9936 32.689 43.6125 32.689C46.2313 32.689 48.3553 34.8129 48.3553 37.4318C48.3553 40.0507 46.2313 42.1746 43.6125 42.1746C40.9936 42.1746 38.8696 40.0507 38.8696 37.4318Z" fill="#E1AC00"/>
<path d="M40.6054 32.0768C40.6054 32.0768 40.146 32.2366 39.5779 32.2366C39.0097 32.2366 38.5503 32.0768 38.5503 32.0768C38.5503 32.0768 39.0097 31.917 39.5779 31.917C40.146 31.917 40.6054 32.0768 40.6054 32.0768Z" fill="white"/>
<path d="M39.5783 31.0493C39.5783 31.0493 39.738 31.5087 39.738 32.0769C39.738 32.6428 39.5783 33.1045 39.5783 33.1045C39.5783 33.1045 39.4185 32.6451 39.4185 32.0769C39.4185 31.5087 39.5783 31.0493 39.5783 31.0493Z" fill="white"/>
<path d="M44.2899 35.2744H45.9323L46.385 34.5687V34.3667L41.1761 35.0725V35.2744H42.9428C43.3356 35.4653 43.6374 35.7072 43.815 35.9802H41.6289L41.1761 36.4818V36.6837H43.9836C43.846 37.4627 42.5189 37.8489 40.8232 37.971V38.1729L44.1213 41.2357H45.4396V41.0337L42.5655 38.568C43.9659 38.2329 44.9557 37.5204 45.0556 36.6837H45.9345L46.3872 35.978V35.776L44.9247 35.978C44.7915 35.725 44.5762 35.4853 44.2899 35.2744Z" fill="#AE8500"/>
<path d="M44.2899 35.0725H45.9323L46.385 34.3667H41.6289L41.1761 35.0725H42.9428C43.3356 35.2633 43.6374 35.5052 43.815 35.7782H41.6289L41.1761 36.484H43.9836C43.846 37.263 42.5322 37.8489 40.8343 37.971C40.8343 37.971 40.8366 37.9732 40.8388 37.9732H40.8232L44.1213 41.036H45.4396L42.5655 38.3682C43.9659 38.0331 44.9557 37.3207 45.0556 36.484H45.9345L46.3872 35.7782H44.9247C44.7915 35.5208 44.5762 35.2833 44.2899 35.0725Z" fill="#FFD345"/>
<path d="M43.6129 33.0958C46.163 33.0958 48.2448 35.111 48.3513 37.6367C48.3535 37.5701 48.3558 37.5013 48.3558 37.4347C48.3558 34.8158 46.2318 32.6919 43.6129 32.6919C40.9941 32.6919 38.8701 34.8158 38.8701 37.4347C38.8701 37.5035 38.8723 37.5701 38.8746 37.6367C38.9811 35.111 41.0629 33.0958 43.6129 33.0958Z" fill="#AE8500"/>
<path d="M47.4856 25.8092H45.7479C42.5786 25.8092 40.0107 22.3847 40.0107 18.159C40.0107 13.9333 42.5786 10.5088 45.7479 10.5088H47.4856V25.8092Z" fill="#CF9E00"/>
<path d="M41.1182 13.6403C42.1613 11.7428 43.8458 10.5088 45.7478 10.5088H47.4856V13.6403H41.1182Z" fill="#CF9E00"/>
<path d="M40.0459 17.2893C40.1613 15.9332 40.5408 14.686 41.1179 13.6406H47.4853V17.2893H40.0459Z" fill="#E3B726"/>
<path d="M41.7476 18.1585C41.7476 13.9328 44.3154 10.5083 47.4847 10.5083C50.6539 10.5083 53.2218 13.9328 53.2218 18.1585C53.2218 22.3842 50.6539 25.8087 47.4847 25.8087C44.3154 25.8087 41.7476 22.3842 41.7476 18.1585Z" fill="#FFD345"/>
<path d="M43.4092 18.1588C43.4092 15.1648 45.2291 12.7368 47.4751 12.7368C49.7211 12.7368 51.541 15.1648 51.541 18.1588C51.541 21.1527 49.7211 23.5807 47.4751 23.5807C45.2291 23.5807 43.4092 21.1527 43.4092 18.1588Z" fill="#E1B21B"/>
<path d="M43.4277 18.1544C43.4277 15.1604 45.2476 12.7324 47.4936 12.7324C49.7397 12.7324 51.5596 15.1604 51.5596 18.1544C51.5596 21.1483 49.7397 23.5763 47.4936 23.5763C45.2476 23.5763 43.4277 21.1505 43.4277 18.1544Z" fill="#E1AC00"/>
<path d="M44.914 12.0333C44.914 12.0333 44.519 12.2175 44.033 12.2175C43.5469 12.2175 43.1519 12.0333 43.1519 12.0333C43.1519 12.0333 43.5469 11.8491 44.033 11.8491C44.519 11.8491 44.914 12.0333 44.914 12.0333Z" fill="white"/>
<path d="M44.0336 10.8594C44.0336 10.8594 44.1712 11.3854 44.1712 12.0334C44.1712 12.6815 44.0336 13.2075 44.0336 13.2075C44.0336 13.2075 43.896 12.6815 43.896 12.0334C43.896 11.3854 44.0336 10.8594 44.0336 10.8594Z" fill="white"/>
<path d="M48.0736 15.6907H49.4807L49.8691 14.8851V14.6543L45.4037 15.4599V15.6907H46.9173C47.2546 15.9082 47.5121 16.1857 47.6674 16.4964H45.7921L45.4037 17.0712V17.302H47.8095C47.6896 18.1942 46.5533 18.6337 45.0996 18.7735V19.0043L47.9271 22.5043H49.0568V22.2734L46.5933 19.4548C47.7939 19.0709 48.644 18.2586 48.7283 17.302H49.4807L49.8691 16.4964V16.2634L48.6151 16.4964C48.5041 16.2034 48.3177 15.9304 48.0736 15.6907Z" fill="#AE8500"/>
<path d="M48.0736 15.4575H49.4807L49.8691 14.6519H45.7921L45.4037 15.4575H46.9173C47.2546 15.675 47.5121 15.9524 47.6674 16.2631H45.7921L45.4037 17.0688H47.8095C47.6896 17.961 46.5644 18.629 45.1107 18.7688C45.1107 18.7688 45.1129 18.771 45.1129 18.7733H45.0996L47.9271 22.2732H49.0568L46.5933 19.2238C47.7939 18.8398 48.644 18.0275 48.7283 17.071H49.4807L49.8691 16.2653H48.6151C48.5041 15.9724 48.3177 15.6994 48.0736 15.4575Z" fill="#FFD345"/>
<path d="M23.6123 22.744C23.6123 20.1695 25.7007 18.0811 28.2752 18.0811C30.8497 18.0811 32.9382 20.1695 32.9382 22.744C32.9382 25.3185 30.8497 27.4069 28.2752 27.4069C25.6985 27.4069 23.6123 25.3185 23.6123 22.744Z" fill="#FFD345"/>
<path d="M24.9634 22.7427C24.9634 20.9183 26.4437 19.438 28.268 19.438C30.0924 19.438 31.5727 20.9183 31.5727 22.7427C31.5727 24.567 30.0924 26.0473 28.268 26.0473C26.4415 26.0473 24.9634 24.5692 24.9634 22.7427Z" fill="#E1B21B"/>
<path d="M24.9775 22.7427C24.9775 20.9183 26.4579 19.438 28.2822 19.438C30.1065 19.438 31.5869 20.9183 31.5869 22.7427C31.5869 24.567 30.1065 26.0473 28.2822 26.0473C26.4557 26.0451 24.9775 24.567 24.9775 22.7427Z" fill="#E1AC00"/>
<path d="M26.1856 19.0089C26.1856 19.0089 25.866 19.1199 25.471 19.1199C25.0759 19.1199 24.7563 19.0089 24.7563 19.0089C24.7563 19.0089 25.0759 18.8979 25.471 18.8979C25.866 18.8979 26.1856 19.0089 26.1856 19.0089Z" fill="white"/>
<path d="M25.4694 18.2944C25.4694 18.2944 25.5803 18.614 25.5803 19.0091C25.5803 19.4041 25.4694 19.7237 25.4694 19.7237C25.4694 19.7237 25.3584 19.4041 25.3584 19.0091C25.3584 18.614 25.4694 18.2944 25.4694 18.2944Z" fill="white"/>
<path d="M28.7536 21.2395H29.8988L30.2139 20.749V20.6069L26.5852 21.0974V21.2395H27.8148C28.0877 21.3726 28.2986 21.5413 28.4229 21.7299H26.9004L26.5852 22.0806V22.2226H28.5405C28.4451 22.7664 27.5196 23.0349 26.3389 23.1193V23.2613L28.6359 25.3941H29.5548V25.2521L27.5529 23.5343C28.5294 23.299 29.2196 22.8041 29.2862 22.2226H29.8988L30.2139 21.7322V21.5901L29.1952 21.7322C29.102 21.5524 28.9533 21.3859 28.7536 21.2395Z" fill="#AE8500"/>
<path d="M28.7536 21.0974H29.8988L30.2139 20.6069H26.9004L26.5852 21.0974H27.8148C28.0877 21.2306 28.2986 21.3993 28.4229 21.5879H26.9004L26.5852 22.0784H28.5405C28.4451 22.6221 27.5285 23.0283 26.3477 23.1148L26.35 23.1171H26.3389L28.6359 25.2499H29.5548L27.5529 23.39C28.5294 23.1548 29.2196 22.6599 29.2862 22.0784H29.8988L30.2139 21.5879H29.1952C29.102 21.4104 28.9533 21.2439 28.7536 21.0974Z" fill="#FFD345"/>
<path d="M28.2832 19.7196C30.0609 19.7196 31.5102 21.1223 31.5834 22.8822C31.5856 22.8356 31.5878 22.789 31.5878 22.7402C31.5878 20.9159 30.1075 19.4355 28.2832 19.4355C26.4588 19.4355 24.9785 20.9159 24.9785 22.7402C24.9785 22.7868 24.9807 22.8356 24.983 22.8822C25.0562 21.1223 26.5055 19.7196 28.2832 19.7196Z" fill="#AE8500"/>
<path d="M25.4009 5.8243C25.4009 2.60827 28.0091 0 31.2252 0C34.4427 0 37.0495 2.60827 37.0495 5.8243C37.0495 9.0418 34.4427 11.6486 31.2252 11.6486C28.0091 11.6486 25.4009 9.04034 25.4009 5.8243Z" fill="#FFD345"/>
<path d="M27.0898 5.82275C27.0898 3.54253 28.938 1.6958 31.2183 1.6958C33.4985 1.6958 35.3452 3.544 35.3452 5.82275C35.3452 8.10297 33.497 9.9497 31.2183 9.9497C28.938 9.95117 27.0898 8.10297 27.0898 5.82275Z" fill="#E1B21B"/>
<path d="M27.1069 5.82129C27.1069 3.54107 28.9551 1.69434 31.2353 1.69434C33.5156 1.69434 35.3623 3.54253 35.3623 5.82129C35.3623 8.10151 33.5141 9.94824 31.2353 9.94824C28.9551 9.94824 27.1069 8.10004 27.1069 5.82129Z" fill="#E1AC00"/>
<path d="M28.6172 1.15964C28.6172 1.15964 28.2174 1.29876 27.7239 1.29876C27.2304 1.29876 26.8306 1.15964 26.8306 1.15964C26.8306 1.15964 27.2304 1.02051 27.7239 1.02051C28.216 1.02051 28.6172 1.15964 28.6172 1.15964Z" fill="white"/>
<path d="M27.7241 0.266602C27.7241 0.266602 27.8632 0.666409 27.8632 1.15994C27.8632 1.65348 27.7241 2.05329 27.7241 2.05329C27.7241 2.05329 27.585 1.65348 27.585 1.15994C27.5835 0.666409 27.7241 0.266602 27.7241 0.266602Z" fill="white"/>
<path d="M31.822 3.94415H33.2514L33.6453 3.33052V3.15332L29.1113 3.76694V3.94268H30.649C30.9902 4.10964 31.2538 4.31906 31.4091 4.55631H29.5067L29.1113 4.99566V5.17286H31.554C31.4339 5.85092 30.2799 6.18629 28.8037 6.2932V6.4704L31.6741 9.13579H32.8208V8.95858L30.3195 6.8131C31.5379 6.5202 32.4005 5.90218 32.4855 5.17432H33.2499L33.6439 4.5607V4.38496L32.3698 4.5607C32.2585 4.33517 32.071 4.12867 31.822 3.94415Z" fill="#AE8500"/>
<path d="M31.822 3.76694H33.2514L33.6453 3.15332H29.5067L29.1113 3.76694H30.649C30.9902 3.9339 31.2538 4.14332 31.4091 4.38057H29.5067L29.1113 4.99566H31.554C31.4339 5.67372 30.2902 6.18336 28.814 6.28881C28.814 6.28881 28.8154 6.29027 28.8169 6.29174H28.8037L31.6741 8.95712H32.8208L30.3195 6.63443C31.5379 6.34153 32.4005 5.72351 32.4855 4.99419H33.2499L33.6439 4.38057H32.3698C32.2585 4.15796 32.071 3.95147 31.822 3.76694Z" fill="#FFD345"/>
<path d="M31.2339 2.04581C33.4541 2.04581 35.2642 3.79882 35.3564 5.99703C35.3594 5.93845 35.3608 5.87987 35.3608 5.81982C35.3608 3.5396 33.5126 1.69287 31.2339 1.69287C28.9537 1.69287 27.1055 3.54107 27.1055 5.81982C27.1055 5.8784 27.1069 5.93845 27.1099 5.99703C27.2036 3.79882 29.0137 2.04581 31.2339 2.04581Z" fill="#AE8500"/>
<path d="M16.2084 28.4283H15.5514C14.3529 28.4283 13.3809 27.1322 13.3809 25.5342C13.3809 23.9363 14.3529 22.6401 15.5514 22.6401H16.2084V28.4283Z" fill="#CF9E00"/>
<path d="M13.7998 23.8228C14.1949 23.1038 14.8318 22.6377 15.5509 22.6377H16.2078V23.8228H13.7998Z" fill="#CF9E00"/>
<path d="M13.3936 25.2032C13.4379 24.6905 13.58 24.2178 13.7997 23.8228H16.21V25.2032H13.3936Z" fill="#E3B726"/>
<path d="M14.0381 25.5313C14.0381 23.9333 15.0102 22.6372 16.2086 22.6372C17.4071 22.6372 18.3792 23.9333 18.3792 25.5313C18.3792 27.1292 17.4071 28.4254 16.2086 28.4254C15.0102 28.4276 14.0381 27.1315 14.0381 25.5313Z" fill="#FFD345"/>
<path d="M14.668 25.5312C14.668 24.3993 15.356 23.4805 16.206 23.4805C17.056 23.4805 17.744 24.3993 17.744 25.5312C17.744 26.6631 17.056 27.5819 16.206 27.5819C15.356 27.5819 14.668 26.6653 14.668 25.5312Z" fill="#E1B21B"/>
<path d="M14.6753 25.5312C14.6753 24.3993 15.3633 23.4805 16.2133 23.4805C17.0634 23.4805 17.7514 24.3993 17.7514 25.5312C17.7514 26.6631 17.0634 27.5819 16.2133 27.5819C15.3633 27.5819 14.6753 26.6631 14.6753 25.5312Z" fill="#E1AC00"/>
<path d="M15.2366 23.2143C15.2366 23.2143 15.0879 23.2831 14.9037 23.2831C14.7195 23.2831 14.5708 23.2143 14.5708 23.2143C14.5708 23.2143 14.7195 23.1455 14.9037 23.1455C15.0879 23.1455 15.2366 23.2143 15.2366 23.2143Z" fill="white"/>
<path d="M14.9036 22.7705C14.9036 22.7705 14.9546 22.9703 14.9546 23.2144C14.9546 23.4585 14.9036 23.6583 14.9036 23.6583C14.9036 23.6583 14.8525 23.4585 14.8525 23.2144C14.8525 22.9703 14.9036 22.7705 14.9036 22.7705Z" fill="white"/>
<path d="M16.4333 24.5994H16.966L17.1125 24.2953V24.2065L15.4235 24.5106V24.5994H15.9961C16.1226 24.6815 16.2203 24.7858 16.2802 24.9034H15.57L15.4235 25.1209V25.2097H16.3335C16.2891 25.5471 15.8585 25.7135 15.3081 25.7668V25.8555L16.3779 27.1805H16.8062V27.0917L15.8741 26.0264C16.329 25.8822 16.6486 25.5737 16.6819 25.2119H16.966L17.1125 24.9079V24.8191L16.6375 24.9079C16.5954 24.7925 16.5243 24.6904 16.4333 24.5994Z" fill="#AE8500"/>
<path d="M16.4336 24.5106H16.9662L17.1127 24.2065H15.5702L15.4237 24.5106H15.9963C16.1228 24.5927 16.2205 24.697 16.2804 24.8147H15.5702L15.4237 25.1187H16.3337C16.2893 25.4561 15.8632 25.7091 15.3128 25.7623C15.3128 25.7623 15.3128 25.7623 15.315 25.7646H15.3105L16.3803 27.0895H16.8086L15.8765 25.9354C16.3315 25.789 16.6511 25.4827 16.6843 25.1209H16.9684L17.1149 24.8169H16.64C16.5956 24.7059 16.5245 24.6016 16.4336 24.5106Z" fill="#FFD345"/>
<path d="M16.1434 17.8161H14.9413C12.7515 17.8161 10.9761 15.4495 10.9761 12.5292C10.9761 9.6106 12.7515 7.24219 14.9413 7.24219H16.1434V17.8161Z" fill="#CF9E00"/>
<path d="M11.7412 9.40715C12.4628 8.09613 13.6274 7.24414 14.9402 7.24414H16.1423V9.40715H11.7412Z" fill="#CF9E00"/>
<path d="M11.002 11.9293C11.0805 10.9933 11.3449 10.1306 11.7414 9.40723H16.1425V11.9293H11.002Z" fill="#E3B726"/>
<path d="M12.1777 12.5316C12.1777 9.61126 13.9532 7.24463 16.143 7.24463C18.3328 7.24463 20.1082 9.61126 20.1082 12.5316C20.1082 15.4519 18.3328 17.8186 16.143 17.8186C13.9532 17.8186 12.1777 15.4501 12.1777 12.5316Z" fill="#FFD345"/>
<path d="M13.3291 12.5312C13.3291 10.4628 14.5865 8.78564 16.1387 8.78564C17.6908 8.78564 18.9483 10.4628 18.9483 12.5312C18.9483 14.5995 17.6908 16.2767 16.1387 16.2767C14.5865 16.2767 13.3291 14.5995 13.3291 12.5312Z" fill="#E1B21B"/>
<path d="M13.3389 12.5278C13.3389 10.4594 14.5963 8.78223 16.1485 8.78223C17.7006 8.78223 18.9581 10.4594 18.9581 12.5278C18.9581 14.5961 17.7006 16.2733 16.1485 16.2733C14.5963 16.2751 13.3389 14.5979 13.3389 12.5278Z" fill="#E1AC00"/>
<path d="M14.3661 8.2982C14.3661 8.2982 14.0946 8.42502 13.757 8.42502C13.4212 8.42502 13.1479 8.2982 13.1479 8.2982C13.1479 8.2982 13.4212 8.17139 13.757 8.17139C14.0946 8.17139 14.3661 8.2982 14.3661 8.2982Z" fill="white"/>
<path d="M13.7587 7.4873C13.7587 7.4873 13.8534 7.84989 13.8534 8.29821C13.8534 8.74653 13.7587 9.10912 13.7587 9.10912C13.7587 9.10912 13.6641 8.74653 13.6641 8.29821C13.6641 7.84989 13.7587 7.4873 13.7587 7.4873Z" fill="white"/>
<path d="M16.5484 10.8259H17.5218L17.7897 10.2687V10.1079L14.7033 10.6652V10.8259H15.75C15.9822 10.976 16.1608 11.1671 16.2679 11.3832H14.973L14.7051 11.7797V11.9405H16.368C16.2858 12.5567 15.4999 12.8603 14.4961 12.9568V13.1176L16.4501 15.536H17.2307V15.3752L15.5285 13.4283C16.359 13.1622 16.9449 12.6014 17.0038 11.9405H17.5236L17.7915 11.3832V11.2225L16.9252 11.3832C16.8467 11.1796 16.718 10.992 16.5484 10.8259Z" fill="#AE8500"/>
<path d="M16.5484 10.6652H17.5218L17.7897 10.1079H14.9712L14.7033 10.6652H15.75C15.9822 10.8152 16.1608 11.0063 16.2679 11.2225H14.973L14.7051 11.7797H16.368C16.2858 12.396 15.507 12.8586 14.5032 12.9532L14.505 12.955H14.4961L16.4501 15.3734H17.2307L15.5285 13.2658C16.359 12.9997 16.9449 12.4388 17.0038 11.7779H17.5236L17.7915 11.2207H16.9252C16.8467 11.0206 16.718 10.8313 16.5484 10.6652Z" fill="#FFD345"/>
<path d="M1.04102 18.7203C1.43514 17.4465 2.07102 16.6187 2.78917 16.6187H3.44537V18.7203H1.04102Z" fill="#CF9E00"/>
<path d="M3.44553 26.8897H2.16666C0.970072 26.8897 0 24.59 0 21.754C0 18.9179 0.970072 16.6182 2.16666 16.6182H3.44553V26.8897Z" fill="#CF9E00"/>
<path d="M0.0136719 21.1693C0.0573504 20.2592 0.200574 19.4211 0.417951 18.7192H3.44498V21.1693H0.0136719Z" fill="#E3B726"/>
<path d="M1.2793 21.7549C1.2793 18.9189 2.24937 16.6191 3.44596 16.6191C4.64255 16.6191 5.61262 18.9189 5.61262 21.7549C5.61262 24.591 4.64255 26.8907 3.44596 26.8907C2.24937 26.8907 1.2793 24.591 1.2793 21.7549Z" fill="#FFD345"/>
<path d="M1.90674 21.7553C1.90674 19.745 2.59442 18.1157 3.4426 18.1157C4.29078 18.1157 4.97846 19.745 4.97846 21.7553C4.97846 23.7655 4.29078 25.3948 3.4426 25.3948C2.59442 25.3948 1.90674 23.7645 1.90674 21.7553Z" fill="#E1B21B"/>
<path d="M1.91455 21.7518C1.91455 19.7416 2.60223 18.1123 3.45041 18.1123C4.29859 18.1123 4.98627 19.7416 4.98627 21.7518C4.98627 23.7621 4.29859 25.3914 3.45041 25.3914C2.60122 25.3914 1.91455 23.7621 1.91455 21.7518Z" fill="#E1AC00"/>
<path d="M2.47584 17.642C2.47584 17.642 2.32652 17.7649 2.14368 17.7649C1.95983 17.7649 1.81152 17.642 1.81152 17.642C1.81152 17.642 1.96084 17.519 2.14368 17.519C2.32652 17.519 2.47584 17.642 2.47584 17.642Z" fill="white"/>
<path d="M2.14262 16.854C2.14262 16.854 2.19443 17.2065 2.19443 17.6422C2.19443 18.078 2.14262 18.4305 2.14262 18.4305C2.14262 18.4305 2.09082 18.078 2.09082 17.6422C2.09082 17.2065 2.14262 16.854 2.14262 16.854Z" fill="white"/>
<path d="M3.66927 20.0972H4.20053L4.34781 19.5558V19.4004L2.6606 19.9418V20.0972H3.23249C3.35946 20.2435 3.45698 20.4294 3.51589 20.6386H2.80789L2.66162 21.0246V21.18H3.57074C3.52605 21.7783 3.09637 22.0739 2.54785 22.1674V22.3228L3.61544 24.6733H4.04206V24.5179L3.11161 22.6255C3.56465 22.3675 3.88564 21.822 3.91712 21.18H4.20154L4.34883 20.6386V20.4832L3.87446 20.6386C3.8318 20.4416 3.76171 20.2587 3.66927 20.0972Z" fill="#AE8500"/>
<path d="M3.66826 19.9418H4.19951L4.3468 19.4004H2.80687L2.6606 19.9418H3.23249C3.35946 20.0881 3.45698 20.274 3.51589 20.4832H2.80789L2.66162 21.0246H3.57074C3.52605 21.6229 3.10043 22.0719 2.55191 22.1653L2.55293 22.1674H2.54785L3.61543 24.5179H4.04206L3.11161 22.4701C3.56465 22.2121 3.88563 21.6666 3.91712 21.0246H4.20154L4.34883 20.4832H3.87446C3.83078 20.2862 3.76069 20.1033 3.66826 19.9418Z" fill="#FFD345"/>
<path d="M50.7197 45.4618C50.9927 44.5763 51.4366 44.0015 51.9337 44.0015H52.3909V45.4618H50.7197Z" fill="#CF9E00"/>
<path d="M52.3925 51.1375H51.5047C50.6725 51.1375 50 49.5396 50 47.5688C50 45.598 50.6747 44 51.5047 44H52.3925V51.1375Z" fill="#CF9E00"/>
<path d="M50.0078 47.1647C50.0367 46.5321 50.1365 45.9507 50.2875 45.4624H52.3914V47.1647H50.0078Z" fill="#E3B726"/>
<path d="M50.8862 47.5707C50.8862 45.5999 51.5609 44.002 52.391 44.002C53.221 44.002 53.8957 45.5999 53.8957 47.5707C53.8957 49.5415 53.221 51.1395 52.391 51.1395C51.5609 51.1395 50.8862 49.5393 50.8862 47.5707Z" fill="#FFD345"/>
<path d="M51.3232 47.5704C51.3232 46.1744 51.8004 45.0425 52.3908 45.0425C52.9811 45.0425 53.4583 46.1744 53.4583 47.5704C53.4583 48.9664 52.9811 50.0982 52.3908 50.0982C51.8004 50.0982 51.3232 48.9664 51.3232 47.5704Z" fill="#E1B21B"/>
<path d="M51.3267 47.5684C51.3267 46.1724 51.8038 45.0405 52.3942 45.0405C52.9845 45.0405 53.4617 46.1724 53.4617 47.5684C53.4617 48.9644 52.9845 50.0963 52.3942 50.0963C51.8038 50.0963 51.3267 48.9644 51.3267 47.5684Z" fill="#E1AC00"/>
<path d="M51.717 44.7113C51.717 44.7113 51.6127 44.7956 51.4862 44.7956C51.3597 44.7956 51.2554 44.7113 51.2554 44.7113C51.2554 44.7113 51.3597 44.627 51.4862 44.627C51.6127 44.627 51.717 44.7113 51.717 44.7113Z" fill="white"/>
<path d="M51.4872 44.1655C51.4872 44.1655 51.5227 44.4097 51.5227 44.7137C51.5227 45.0155 51.4872 45.2619 51.4872 45.2619C51.4872 45.2619 51.4517 45.0178 51.4517 44.7137C51.4517 44.4097 51.4872 44.1655 51.4872 44.1655Z" fill="white"/>
<path d="M52.5447 46.4189H52.9131L53.0152 46.0438V45.9351L51.8433 46.3101V46.4189H52.2406C52.3294 46.521 52.396 46.6497 52.4359 46.794H51.9432L51.8411 47.0625V47.1713H52.4714C52.4404 47.5863 52.143 47.7927 51.7612 47.857V47.9658L52.5025 49.5993H52.7999V49.4905L52.1541 48.1766C52.4692 47.9969 52.6911 47.6174 52.7133 47.1713H52.9109L53.013 46.7962V46.6874L52.6845 46.7962C52.6579 46.6586 52.609 46.5299 52.5447 46.4189Z" fill="#AE8500"/>
<path d="M52.5445 46.3101H52.9129L53.015 45.9351H51.9452L51.8431 46.3101H52.2404C52.3292 46.4122 52.3957 46.541 52.4357 46.6852H51.943L51.8409 47.0603H52.4712C52.4401 47.4753 52.145 47.7882 51.7632 47.8526C51.7632 47.8526 51.7632 47.8526 51.7632 47.8548H51.7588L52.5001 49.4883H52.7975L52.1516 48.0657C52.4668 47.8859 52.6887 47.5064 52.7109 47.0603H52.9084L53.0105 46.6852H52.6821C52.6576 46.5498 52.6088 46.4233 52.5445 46.3101Z" fill="#FFD345"/>
</svg>
