<svg width="50" height="40" viewBox="0 0 50 40" fill="none" xmlns="http://www.w3.org/2000/svg">
<path d="M14.9137 10.4183C14.9137 10.4183 12.3084 17.1754 17.8638 12.1057C20.4279 14.0058 22.5988 14.4626 20.7381 10.7878C23.9285 9.55758 24.834 7.75824 20.0982 7.57541C19.3452 4.23808 17.5114 1.80302 16.1694 7.2586C13.4671 6.939 11.2763 7.1295 14.9137 10.4183Z" fill="#F7E369"/>
<path d="M23.5346 6.85873C23.4009 6.85873 23.2673 6.80814 23.1654 6.70626C22.9609 6.5025 22.9596 6.17208 23.163 5.96692C23.3385 5.79037 27.5477 1.63867 35.2981 1.63867C35.5874 1.63867 35.8215 1.87279 35.8215 2.16204C35.8215 2.45129 35.5874 2.68541 35.2981 2.68541C28.0041 2.68541 23.9452 6.66474 23.9051 6.70486C23.8029 6.80744 23.6685 6.85873 23.5346 6.85873Z" fill="#FFC026"/>
<path d="M24.7885 3.05139C24.6189 3.05139 24.4525 2.96904 24.3516 2.81692C24.1922 2.57617 24.2581 2.25098 24.4989 2.09153C24.6224 2.00989 27.556 0.0894786 30.6397 0.000157272C30.9314 -0.00682095 31.1697 0.219274 31.1781 0.508173C31.1865 0.797071 30.959 1.03817 30.6701 1.04654C27.8816 1.12679 25.1046 2.94567 25.0767 2.96416C24.988 3.02312 24.8876 3.05139 24.7885 3.05139Z" fill="#FFC026"/>
<path d="M2.76772 33.8542C2.76772 33.8542 -1.00007 43.6262 7.03406 36.2945C10.7423 39.0425 13.8819 39.703 11.1909 34.3886C15.8049 32.6094 17.1143 30.0072 10.2655 29.7428C9.17656 24.9164 6.52442 21.3948 4.58376 29.2846C0.675179 28.8224 -2.49266 29.0979 2.76772 33.8542Z" fill="#F7E369"/>
<path d="M15.0667 28.5824C14.874 28.5824 14.6812 28.5093 14.5334 28.3624C14.2367 28.0683 14.2346 27.5889 14.5293 27.2922C14.7826 27.0364 20.8705 21.0327 32.0791 21.0327C32.4974 21.0327 32.836 21.3718 32.836 21.7896C32.836 22.2074 32.4974 22.5465 32.0791 22.5465C21.4942 22.5465 15.6611 28.3004 15.6036 28.3589C15.4563 28.5077 15.2615 28.5824 15.0667 28.5824Z" fill="#FFC026"/>
<path d="M16.8861 23.076C16.6409 23.076 16.4002 22.9569 16.2543 22.7369C16.0237 22.3888 16.1186 21.919 16.4673 21.6879C16.6459 21.5703 20.8885 18.7925 25.3486 18.6644C25.7584 18.6346 26.1151 18.9813 26.1267 19.3991C26.1388 19.8169 25.8098 20.165 25.392 20.1771C21.3598 20.2932 17.3433 22.9236 17.3034 22.9504C17.1747 23.0352 17.0294 23.076 16.8861 23.076Z" fill="#FFC026"/>
<path d="M19.3282 30.0326C19.083 30.0326 18.8423 29.9135 18.6965 29.6935C18.4654 29.3453 18.5607 28.8756 18.9094 28.6445C19.088 28.5269 23.3311 25.7491 27.7907 25.6209C28.201 25.5957 28.5572 25.9378 28.5688 26.3556C28.5809 26.7734 28.2519 27.1221 27.8336 27.1337C23.8014 27.2498 19.7849 29.8802 19.745 29.907C19.6168 29.9917 19.4715 30.0326 19.3282 30.0326Z" fill="#FFC026"/>
<path d="M31.7225 36.2104C31.7225 36.2104 29.3774 42.2923 34.3777 37.7289C36.6854 39.4393 38.6396 39.8503 36.9649 36.5429C39.8364 35.4355 40.6515 33.8162 36.3888 33.6515C35.7112 30.6477 34.0605 28.4559 32.8526 33.3665C30.4203 33.0786 28.4486 33.2503 31.7225 36.2104Z" fill="#F7E369"/>
<path d="M37.993 32.6981C37.8726 32.6981 37.7526 32.6524 37.6608 32.561C37.4766 32.3774 37.4755 32.0802 37.6587 31.8956C37.8164 31.7365 41.6052 28 48.5814 28C48.8417 28 49.0524 28.2107 49.0524 28.471C49.0524 28.7313 48.8417 28.9421 48.5814 28.9421C42.0163 28.9421 38.3632 32.5236 38.3269 32.5596C38.2348 32.652 38.114 32.6981 37.993 32.6981Z" fill="#FFC026"/>
<path d="M40.6431 33.6009C40.4902 33.6009 40.3406 33.5269 40.2498 33.3898C40.1061 33.1731 40.1654 32.8804 40.3824 32.737C40.4934 32.6634 43.1343 30.9348 45.9099 30.8549C46.1698 30.8434 46.3868 31.0524 46.3942 31.3124C46.4015 31.5723 46.1967 31.7893 45.9367 31.7967C43.4274 31.8689 40.9274 33.506 40.9027 33.5224C40.8228 33.5754 40.7324 33.6009 40.6431 33.6009Z" fill="#FFC026"/>
</svg>
