<svg width="500" height="350" viewBox="0 0 500 350" fill="none" xmlns="http://www.w3.org/2000/svg">
<rect width="500" height="350" rx="8.92375" fill="url(#paint0_linear_4654_12614)"/>
<mask id="mask0_4654_12614" style="mask-type:alpha" maskUnits="userSpaceOnUse" x="0" y="0" width="500" height="350">
<rect width="500" height="350" rx="8.92375" fill="url(#paint1_radial_4654_12614)"/>
</mask>
<g mask="url(#mask0_4654_12614)">
<mask id="mask1_4654_12614" style="mask-type:luminance" maskUnits="userSpaceOnUse" x="-26" y="-47" width="526" height="622">
<path d="M500 -46.3235H-25.0544V574.295H500V-46.3235Z" fill="white"/>
</mask>
<g mask="url(#mask1_4654_12614)">
<path opacity="0.2" d="M235.125 281.091C235.125 367.412 175.929 437.384 102.903 437.384C29.8776 437.384 -29.3223 367.412 -29.3223 281.091C-29.3223 194.778 29.8776 124.805 102.903 124.805C175.929 124.806 235.125 194.779 235.125 281.091Z" fill="#7FD2FF"/>
<path opacity="0.2" d="M605.912 209.966C605.912 296.285 546.716 366.257 473.691 366.257C400.665 366.257 341.465 296.285 341.465 209.966C341.465 123.652 400.665 53.6788 473.691 53.6788C546.716 53.6788 605.912 123.651 605.912 209.966Z" fill="#7FD2FF"/>
<path opacity="0.1" d="M128.235 55.9195C128.235 142.239 69.0389 212.212 -3.98677 212.212C-77.0124 212.212 -136.212 142.24 -136.212 55.9195C-136.212 -30.3937 -77.0124 -100.367 -3.98677 -100.367C69.0389 -100.367 128.235 -30.3937 128.235 55.9195Z" fill="#686DE0"/>
<path opacity="0.1" d="M520.247 67.4997C520.247 153.819 461.051 223.791 388.025 223.791C315 223.791 255.8 153.819 255.8 67.4997C255.8 -18.8134 315 -88.787 388.025 -88.787C461.051 -88.787 520.247 -18.8134 520.247 67.4997Z" fill="#686DE0"/>
</g>
</g>
<g opacity="0.4">
<g opacity="0.5">
<path d="M204.802 121.006C204.802 123.071 203.386 124.747 201.64 124.747C199.896 124.747 198.48 123.071 198.48 121.006C198.48 118.939 199.896 117.263 201.64 117.263C203.386 117.263 204.802 118.939 204.802 121.006Z" fill="#F3D591"/>
<path d="M194.614 2.44976C194.614 3.44465 193.932 4.25268 193.09 4.25268C192.247 4.25268 191.565 3.44465 191.565 2.44976C191.565 1.45268 192.246 0.644654 193.09 0.644654C193.932 0.643924 194.614 1.45268 194.614 2.44976Z" fill="#F3D591"/>
<path d="M170.579 32.0264C170.579 32.5462 170.224 32.9651 169.786 32.9651C169.347 32.9651 168.991 32.5462 168.991 32.0264C168.991 31.5082 169.347 31.0863 169.786 31.0863C170.224 31.0863 170.579 31.5075 170.579 32.0264Z" fill="#F3D591"/>
<path d="M182 52.3763C182 52.8945 181.645 53.3157 181.207 53.3157C180.768 53.3157 180.413 52.8945 180.413 52.3763C180.413 51.8566 180.768 51.4354 181.207 51.4354C181.645 51.4354 182 51.8566 182 52.3763Z" fill="#F3D591"/>
<path d="M259.307 56.1159C259.307 56.6342 258.95 57.0553 258.513 57.0553C258.073 57.0553 257.719 56.6342 257.719 56.1159C257.719 55.5969 258.073 55.175 258.513 55.175C258.95 55.175 259.307 55.5969 259.307 56.1159Z" fill="#F3D591"/>
<path d="M251.297 24.9193C251.297 25.4376 250.94 25.8587 250.502 25.8587C250.064 25.8587 249.708 25.4376 249.708 24.9193C249.708 24.4011 250.064 23.9792 250.502 23.9792C250.94 23.9792 251.297 24.4011 251.297 24.9193Z" fill="#F3D591"/>
<path d="M140.589 164.548C140.589 165.067 140.234 165.488 139.795 165.488C139.357 165.488 139.002 165.067 139.002 164.548C139.002 164.03 139.357 163.609 139.795 163.609C140.234 163.609 140.589 164.029 140.589 164.548Z" fill="#F3D591"/>
<path d="M192.47 166.819C192.47 167.592 191.939 168.222 191.284 168.222C190.631 168.222 190.1 167.592 190.1 166.819C190.1 166.046 190.631 165.417 191.284 165.417C191.939 165.417 192.47 166.046 192.47 166.819Z" fill="#F3D591"/>
<path d="M202.877 43.0288C202.877 43.5485 202.522 43.9697 202.083 43.9697C201.644 43.9697 201.29 43.5485 201.29 43.0288C201.29 42.5106 201.644 42.0894 202.083 42.0894C202.522 42.0894 202.877 42.5099 202.877 43.0288Z" fill="#F3D591"/>
<path d="M247.539 139.063C247.539 139.581 247.185 140.002 246.746 140.002C246.307 140.002 245.952 139.581 245.952 139.063C245.952 138.544 246.307 138.122 246.746 138.122C247.185 138.122 247.539 138.544 247.539 139.063Z" fill="#F3D591"/>
<path d="M144.088 6.99679C144.088 7.51723 143.733 7.9384 143.295 7.9384C142.856 7.9384 142.501 7.51723 142.501 6.99679C142.501 6.47854 142.856 6.05811 143.295 6.05811C143.733 6.05811 144.088 6.47854 144.088 6.99679Z" fill="#F3D591"/>
<path d="M172.539 33.9056C172.539 34.2319 172.317 34.4932 172.042 34.4932C171.767 34.4932 171.544 34.2319 171.544 33.9056C171.544 33.58 171.767 33.3158 172.042 33.3158C172.317 33.3165 172.539 33.5808 172.539 33.9056Z" fill="#F3D591"/>
<path d="M198.43 82.4638C198.43 83.5207 197.706 84.3777 196.814 84.3777C195.918 84.3777 195.194 83.5207 195.194 82.4638C195.194 81.4032 195.918 80.5485 196.814 80.5485C197.706 80.5485 198.43 81.4039 198.43 82.4638Z" fill="#F3D591"/>
<path d="M255.692 62.304C255.692 62.8237 255.337 63.2435 254.897 63.2435C254.458 63.2435 254.103 62.8237 254.103 62.304C254.103 61.7858 254.458 61.3639 254.897 61.3639C255.336 61.3632 255.692 61.7851 255.692 62.304Z" fill="#F3D591"/>
<path d="M202.427 86.2957C202.427 86.9592 201.972 87.4972 201.412 87.4972C200.852 87.4972 200.398 86.9592 200.398 86.2957C200.398 85.6307 200.852 85.0942 201.412 85.0942C201.973 85.0942 202.427 85.6315 202.427 86.2957Z" fill="#F3D591"/>
<path d="M137.043 141.946C137.043 142.464 136.688 142.884 136.249 142.884C135.811 142.884 135.456 142.464 135.456 141.946C135.456 141.426 135.811 141.006 136.249 141.006C136.688 141.006 137.043 141.425 137.043 141.946Z" fill="#F3D591"/>
<path d="M139.003 143.825C139.003 144.148 138.781 144.414 138.506 144.414C138.231 144.414 138.008 144.148 138.008 143.825C138.008 143.499 138.231 143.236 138.506 143.236C138.781 143.236 139.003 143.498 139.003 143.825Z" fill="#F3D591"/>
<path d="M244.784 163.609C244.784 164.128 244.43 164.549 243.99 164.549C243.552 164.549 243.198 164.128 243.198 163.609C243.198 163.09 243.552 162.671 243.99 162.671C244.43 162.671 244.784 163.09 244.784 163.609Z" fill="#F3D591"/>
<path d="M246.747 165.488C246.747 165.813 246.524 166.078 246.248 166.078C245.975 166.078 245.75 165.813 245.75 165.488C245.75 165.163 245.974 164.899 246.248 164.899C246.523 164.899 246.747 165.163 246.747 165.488Z" fill="#F3D591"/>
<path d="M142.997 12.7323C142.997 13.0578 142.776 13.3214 142.5 13.3214C142.225 13.3214 142.002 13.0578 142.002 12.7323C142.002 12.4068 142.225 12.1432 142.5 12.1432C142.776 12.144 142.997 12.4068 142.997 12.7323Z" fill="#F3D591"/>
<path d="M127.518 110.169C127.518 110.78 126.835 111.277 125.993 111.277C125.151 111.277 124.468 110.78 124.468 110.169C124.468 109.558 125.15 109.062 125.993 109.062C126.834 109.062 127.518 109.558 127.518 110.169Z" fill="#F3D591"/>
<path d="M134.296 35.7733C134.296 36.3835 133.614 36.8813 132.771 36.8813C131.931 36.8813 131.247 36.3835 131.247 35.7733C131.247 35.1616 131.93 34.666 132.771 34.666C133.614 34.666 134.296 35.1624 134.296 35.7733Z" fill="#F3D591"/>
<path d="M285.827 117.019C285.827 117.629 285.144 118.127 284.302 118.127C283.46 118.127 282.777 117.629 282.777 117.019C282.777 116.407 283.46 115.912 284.302 115.912C285.144 115.912 285.827 116.407 285.827 117.019Z" fill="#F3D591"/>
<path d="M286.473 154.575C286.473 155.185 285.791 155.683 284.948 155.683C284.108 155.683 283.424 155.185 283.424 154.575C283.424 153.964 284.107 153.467 284.948 153.467C285.79 153.467 286.473 153.963 286.473 154.575Z" fill="#F3D591"/>
<path d="M294.244 29.6417C294.244 30.2512 293.561 30.749 292.719 30.749C291.877 30.749 291.194 30.2512 291.194 29.6417C291.194 29.03 291.876 28.5344 292.719 28.5344C293.561 28.5344 294.244 29.03 294.244 29.6417Z" fill="#F3D591"/>
<path d="M110.411 36.6401C110.411 37.1583 110.057 37.5795 109.619 37.5795C109.18 37.5795 108.825 37.1583 108.825 36.6401C108.825 36.1219 109.18 35.7014 109.619 35.7014C110.056 35.7014 110.411 36.1211 110.411 36.6401Z" fill="#F3D591"/>
<path d="M112.371 38.5199C112.371 38.8447 112.149 39.109 111.874 39.109C111.599 39.109 111.375 38.8447 111.375 38.5199C111.375 38.1944 111.599 37.9308 111.874 37.9308C112.149 37.9308 112.371 38.1944 112.371 38.5199Z" fill="#F3D591"/>
<path d="M170.635 1.3829C170.635 1.90115 170.281 2.32231 169.843 2.32231C169.404 2.32231 169.049 1.90115 169.049 1.3829C169.049 0.863922 169.404 0.444214 169.843 0.444214C170.281 0.444214 170.635 0.863922 170.635 1.3829Z" fill="#F3D591"/>
<path d="M172.594 3.26251C172.594 3.58733 172.371 3.85229 172.096 3.85229C171.822 3.85229 171.597 3.58806 171.597 3.26251C171.597 2.93696 171.821 2.67346 172.096 2.67346C172.37 2.67419 172.594 2.93769 172.594 3.26251Z" fill="#F3D591"/>
<path d="M237.333 5.21493C237.333 5.73318 236.979 6.15508 236.54 6.15508C236.101 6.15508 235.747 5.73318 235.747 5.21493C235.747 4.69668 236.101 4.27625 236.54 4.27625C236.979 4.27625 237.333 4.69668 237.333 5.21493Z" fill="#F3D591"/>
<path d="M239.294 7.09375C239.294 7.4193 239.07 7.68353 238.796 7.68353C238.522 7.68353 238.297 7.42003 238.297 7.09375C238.297 6.76894 238.521 6.50543 238.796 6.50543C239.07 6.50543 239.294 6.76894 239.294 7.09375Z" fill="#F3D591"/>
<path d="M248.065 110.721C248.065 111.239 247.711 111.66 247.271 111.66C246.834 111.66 246.479 111.24 246.479 110.721C246.479 110.203 246.834 109.782 247.271 109.782C247.71 109.781 248.065 110.203 248.065 110.721Z" fill="#F3D591"/>
<path d="M250.024 112.6C250.024 112.925 249.801 113.189 249.526 113.189C249.252 113.189 249.029 112.925 249.029 112.6C249.029 112.275 249.251 112.011 249.526 112.011C249.801 112.011 250.024 112.275 250.024 112.6Z" fill="#F3D591"/>
<path d="M250.576 88.1761C250.576 88.6944 250.222 89.1155 249.784 89.1155C249.346 89.1155 248.99 88.6944 248.99 88.1761C248.99 87.6571 249.346 87.2374 249.784 87.2374C250.222 87.2374 250.576 87.6579 250.576 88.1761Z" fill="#F3D591"/>
<path d="M252.537 90.0556C252.537 90.3804 252.314 90.6447 252.039 90.6447C251.765 90.6447 251.541 90.3804 251.541 90.0556C251.541 89.7301 251.764 89.4666 252.039 89.4666C252.314 89.4666 252.537 89.7301 252.537 90.0556Z" fill="#F3D591"/>
<path d="M103.27 93.0102C103.27 93.5285 102.916 93.9496 102.477 93.9496C102.039 93.9496 101.684 93.5285 101.684 93.0102C101.684 92.492 102.039 92.0715 102.477 92.0715C102.916 92.0723 103.27 92.492 103.27 93.0102Z" fill="#F3D591"/>
<path d="M105.233 94.8911C105.233 95.2159 105.009 95.4801 104.734 95.4801C104.461 95.4801 104.236 95.2159 104.236 94.8911C104.236 94.5655 104.46 94.302 104.734 94.302C105.009 94.302 105.233 94.5648 105.233 94.8911Z" fill="#F3D591"/>
<path d="M104.416 139.587C104.416 140.106 104.062 140.527 103.623 140.527C103.184 140.527 102.829 140.105 102.829 139.587C102.829 139.069 103.184 138.649 103.623 138.649C104.062 138.649 104.416 139.069 104.416 139.587Z" fill="#F3D591"/>
<path d="M106.376 141.468C106.376 141.793 106.154 142.057 105.879 142.057C105.604 142.057 105.381 141.793 105.381 141.468C105.381 141.142 105.603 140.879 105.879 140.879C106.153 140.879 106.376 141.142 106.376 141.468Z" fill="#F3D591"/>
<path d="M208.194 152.276C208.194 152.793 207.84 153.215 207.4 153.215C206.962 153.215 206.607 152.793 206.607 152.276C206.607 151.757 206.962 151.337 207.4 151.337C207.84 151.337 208.194 151.757 208.194 152.276Z" fill="#F3D591"/>
<path d="M210.154 154.154C210.154 154.479 209.932 154.744 209.656 154.744C209.382 154.744 209.159 154.479 209.159 154.154C209.159 153.829 209.381 153.565 209.656 153.565C209.932 153.566 210.154 153.83 210.154 154.154Z" fill="#F3D591"/>
<path d="M288.968 80.5711C288.968 81.0894 288.614 81.5105 288.175 81.5105C287.736 81.5105 287.382 81.0894 287.382 80.5711C287.382 80.0529 287.736 79.6324 288.175 79.6324C288.614 79.6317 288.968 80.0522 288.968 80.5711Z" fill="#F3D591"/>
<path d="M290.931 82.4495C290.931 82.7743 290.708 83.0386 290.432 83.0386C290.159 83.0386 289.935 82.7743 289.935 82.4495C289.935 82.124 290.159 81.8605 290.432 81.8605C290.708 81.8605 290.931 82.124 290.931 82.4495Z" fill="#F3D591"/>
<path d="M97.2932 9.28988C97.2932 9.80813 96.9392 10.2293 96.4995 10.2293C96.061 10.2293 95.707 9.80813 95.707 9.28988C95.707 8.77163 96.061 8.3512 96.4995 8.3512C96.9392 8.3512 97.2932 8.77163 97.2932 9.28988Z" fill="#F3D591"/>
<path d="M99.2537 11.1683C99.2537 11.4939 99.031 11.7581 98.7548 11.7581C98.4816 11.7581 98.2571 11.4939 98.2571 11.1683C98.2571 10.8435 98.4809 10.58 98.7548 10.58C99.031 10.58 99.2537 10.8435 99.2537 11.1683Z" fill="#F3D591"/>
<path d="M286.381 3.92379C286.381 4.44204 286.027 4.86394 285.588 4.86394C285.149 4.86394 284.794 4.44277 284.794 3.92379C284.794 3.40554 285.149 2.98511 285.588 2.98511C286.027 2.98511 286.381 3.40554 286.381 3.92379Z" fill="#F3D591"/>
<path d="M288.342 5.80396C288.342 6.12877 288.119 6.39301 287.844 6.39301C287.569 6.39301 287.346 6.12877 287.346 5.80396C287.346 5.47841 287.569 5.2149 287.844 5.2149C288.119 5.2149 288.342 5.47841 288.342 5.80396Z" fill="#F3D591"/>
<path d="M271.905 55.5079C271.905 56.1189 271.222 56.616 270.38 56.616C269.538 56.616 268.856 56.1189 268.856 55.5079C268.856 54.8963 269.538 54.4006 270.38 54.4006C271.222 54.4006 271.905 54.8955 271.905 55.5079Z" fill="#F3D591"/>
<path d="M192.579 102.261C192.579 102.872 191.896 103.369 191.053 103.369C190.212 103.369 189.529 102.872 189.529 102.261C189.529 101.65 190.211 101.154 191.053 101.154C191.896 101.154 192.579 101.65 192.579 102.261Z" fill="#F3D591"/>
<path d="M217.183 11.4367C217.183 12.0469 216.5 12.544 215.658 12.544C214.817 12.544 214.134 12.0469 214.134 11.4367C214.134 10.825 214.816 10.3287 215.658 10.3287C216.5 10.3287 217.183 10.8243 217.183 11.4367Z" fill="#F3D591"/>
<path d="M282.588 31.3637C282.588 31.9739 281.906 32.4717 281.064 32.4717C280.221 32.4717 279.539 31.9747 279.539 31.3637C279.539 30.752 280.222 30.2564 281.064 30.2564C281.906 30.2564 282.588 30.7528 282.588 31.3637Z" fill="#F3D591"/>
<path d="M187.575 229.439C187.575 227.373 188.99 225.698 190.737 225.698C192.481 225.698 193.896 227.373 193.896 229.439C193.896 231.506 192.481 233.181 190.737 233.181C188.99 233.181 187.575 231.506 187.575 229.439Z" fill="#F3D591"/>
<path d="M197.765 347.995C197.765 347 198.446 346.192 199.289 346.192C200.132 346.192 200.814 347 200.814 347.995C200.814 348.992 200.132 349.801 199.289 349.801C198.447 349.8 197.765 348.992 197.765 347.995Z" fill="#F3D591"/>
<path d="M221.799 318.418C221.799 317.898 222.154 317.479 222.592 317.479C223.031 317.479 223.386 317.898 223.386 318.418C223.386 318.936 223.031 319.358 222.592 319.358C222.154 319.358 221.799 318.936 221.799 318.418Z" fill="#F3D591"/>
<path d="M210.375 298.067C210.375 297.549 210.73 297.128 211.169 297.128C211.607 297.128 211.963 297.549 211.963 298.067C211.963 298.587 211.607 299.008 211.169 299.008C210.73 299.008 210.375 298.587 210.375 298.067Z" fill="#F3D591"/>
<path d="M133.073 294.329C133.073 293.81 133.43 293.39 133.867 293.39C134.307 293.39 134.661 293.81 134.661 294.329C134.661 294.847 134.307 295.269 133.867 295.269C133.43 295.269 133.073 294.847 133.073 294.329Z" fill="#F3D591"/>
<path d="M141.081 325.524C141.081 325.005 141.437 324.584 141.875 324.584C142.313 324.584 142.669 325.005 142.669 325.524C142.669 326.042 142.313 326.464 141.875 326.464C141.437 326.464 141.081 326.042 141.081 325.524Z" fill="#F3D591"/>
<path d="M251.787 185.895C251.787 185.377 252.142 184.955 252.581 184.955C253.019 184.955 253.374 185.377 253.374 185.895C253.374 186.413 253.019 186.834 252.581 186.834C252.142 186.834 251.787 186.413 251.787 185.895Z" fill="#F3D591"/>
<path d="M199.908 183.625C199.908 182.851 200.439 182.222 201.094 182.222C201.747 182.222 202.278 182.851 202.278 183.625C202.278 184.398 201.747 185.027 201.094 185.027C200.439 185.027 199.908 184.398 199.908 183.625Z" fill="#F3D591"/>
<path d="M189.501 307.415C189.501 306.895 189.856 306.474 190.295 306.474C190.734 306.474 191.088 306.895 191.088 307.415C191.088 307.934 190.734 308.354 190.295 308.354C189.856 308.354 189.501 307.934 189.501 307.415Z" fill="#F3D591"/>
<path d="M144.837 211.381C144.837 210.863 145.191 210.442 145.63 210.442C146.069 210.442 146.424 210.863 146.424 211.381C146.424 211.9 146.069 212.321 145.63 212.321C145.191 212.322 144.837 211.9 144.837 211.381Z" fill="#F3D591"/>
<path d="M248.288 343.448C248.288 342.928 248.643 342.507 249.081 342.507C249.52 342.507 249.875 342.928 249.875 343.448C249.875 343.967 249.52 344.387 249.081 344.387C248.643 344.387 248.288 343.967 248.288 343.448Z" fill="#F3D591"/>
<path d="M219.837 316.539C219.837 316.213 220.06 315.95 220.335 315.95C220.609 315.95 220.832 316.212 220.832 316.539C220.832 316.864 220.61 317.128 220.335 317.128C220.06 317.128 219.837 316.864 219.837 316.539Z" fill="#F3D591"/>
<path d="M193.947 267.98C193.947 266.923 194.671 266.066 195.564 266.066C196.46 266.066 197.184 266.923 197.184 267.98C197.184 269.04 196.46 269.895 195.564 269.895C194.671 269.895 193.947 269.041 193.947 267.98Z" fill="#F3D591"/>
<path d="M136.683 288.141C136.683 287.621 137.038 287.202 137.478 287.202C137.916 287.202 138.272 287.621 138.272 288.141C138.272 288.659 137.916 289.081 137.478 289.081C137.038 289.081 136.683 288.658 136.683 288.141Z" fill="#F3D591"/>
<path d="M189.949 264.148C189.949 263.485 190.404 262.947 190.965 262.947C191.525 262.947 191.979 263.485 191.979 264.148C191.979 264.812 191.525 265.349 190.965 265.349C190.404 265.349 189.949 264.813 189.949 264.148Z" fill="#F3D591"/>
<path d="M255.335 208.498C255.335 207.98 255.69 207.56 256.129 207.56C256.567 207.56 256.922 207.98 256.922 208.498C256.922 209.018 256.567 209.437 256.129 209.437C255.69 209.437 255.335 209.018 255.335 208.498Z" fill="#F3D591"/>
<path d="M253.375 206.619C253.375 206.296 253.598 206.029 253.873 206.029C254.147 206.029 254.37 206.295 254.37 206.619C254.37 206.945 254.148 207.208 253.873 207.208C253.598 207.208 253.375 206.945 253.375 206.619Z" fill="#F3D591"/>
<path d="M147.591 186.834C147.591 186.316 147.945 185.895 148.384 185.895C148.823 185.895 149.177 186.316 149.177 186.834C149.177 187.353 148.823 187.773 148.384 187.773C147.945 187.774 147.591 187.354 147.591 186.834Z" fill="#F3D591"/>
<path d="M145.631 184.955C145.631 184.631 145.853 184.366 146.13 184.366C146.403 184.366 146.627 184.63 146.627 184.955C146.627 185.281 146.403 185.544 146.13 185.544C145.853 185.544 145.631 185.282 145.631 184.955Z" fill="#F3D591"/>
<path d="M249.377 337.711C249.377 337.386 249.598 337.122 249.875 337.122C250.149 337.122 250.372 337.386 250.372 337.711C250.372 338.037 250.15 338.3 249.875 338.3C249.598 338.3 249.377 338.037 249.377 337.711Z" fill="#F3D591"/>
<path d="M264.858 240.274C264.858 239.663 265.541 239.166 266.383 239.166C267.225 239.166 267.908 239.663 267.908 240.274C267.908 240.886 267.225 241.381 266.383 241.381C265.541 241.381 264.858 240.886 264.858 240.274Z" fill="#F3D591"/>
<path d="M258.078 314.67C258.078 314.06 258.761 313.562 259.603 313.562C260.444 313.562 261.127 314.06 261.127 314.67C261.127 315.282 260.444 315.778 259.603 315.778C258.761 315.778 258.078 315.282 258.078 314.67Z" fill="#F3D591"/>
<path d="M106.549 233.426C106.549 232.816 107.232 232.318 108.074 232.318C108.916 232.318 109.599 232.816 109.599 233.426C109.599 234.038 108.916 234.533 108.074 234.533C107.232 234.533 106.549 234.038 106.549 233.426Z" fill="#F3D591"/>
<path d="M105.903 195.869C105.903 195.259 106.586 194.761 107.428 194.761C108.269 194.761 108.952 195.259 108.952 195.869C108.952 196.48 108.27 196.977 107.428 196.977C106.587 196.977 105.903 196.48 105.903 195.869Z" fill="#F3D591"/>
<path d="M98.132 320.802C98.132 320.192 98.8146 319.694 99.657 319.694C100.499 319.694 101.182 320.192 101.182 320.802C101.182 321.414 100.499 321.91 99.657 321.91C98.8146 321.909 98.132 321.414 98.132 320.802Z" fill="#F3D591"/>
<path d="M281.966 313.805C281.966 313.286 282.32 312.865 282.758 312.865C283.197 312.865 283.552 313.286 283.552 313.805C283.552 314.323 283.197 314.742 282.758 314.742C282.32 314.742 281.966 314.323 281.966 313.805Z" fill="#F3D591"/>
<path d="M280.004 311.925C280.004 311.6 280.226 311.335 280.501 311.335C280.776 311.335 281 311.6 281 311.925C281 312.251 280.777 312.515 280.501 312.515C280.226 312.514 280.004 312.251 280.004 311.925Z" fill="#F3D591"/>
<path d="M221.742 349.061C221.742 348.543 222.096 348.123 222.534 348.123C222.973 348.123 223.328 348.543 223.328 349.061C223.328 349.58 222.973 350 222.534 350C222.096 350.001 221.742 349.58 221.742 349.061Z" fill="#F3D591"/>
<path d="M219.784 347.181C219.784 346.856 220.007 346.592 220.282 346.592C220.556 346.592 220.781 346.855 220.781 347.181C220.781 347.507 220.557 347.77 220.282 347.77C220.007 347.77 219.784 347.507 219.784 347.181Z" fill="#F3D591"/>
<path d="M155.046 345.229C155.046 344.711 155.4 344.289 155.839 344.289C156.278 344.289 156.632 344.711 156.632 345.229C156.632 345.748 156.278 346.168 155.839 346.168C155.4 346.169 155.046 345.748 155.046 345.229Z" fill="#F3D591"/>
<path d="M153.086 343.35C153.086 343.025 153.31 342.761 153.584 342.761C153.858 342.761 154.083 343.024 154.083 343.35C154.083 343.674 153.859 343.939 153.584 343.939C153.31 343.939 153.086 343.675 153.086 343.35Z" fill="#F3D591"/>
<path d="M144.312 239.723C144.312 239.204 144.666 238.784 145.106 238.784C145.543 238.784 145.898 239.204 145.898 239.723C145.898 240.241 145.543 240.661 145.106 240.661C144.667 240.662 144.312 240.242 144.312 239.723Z" fill="#F3D591"/>
<path d="M142.352 237.843C142.352 237.518 142.575 237.253 142.85 237.253C143.125 237.253 143.348 237.518 143.348 237.843C143.348 238.169 143.125 238.432 142.85 238.432C142.575 238.432 142.352 238.169 142.352 237.843Z" fill="#F3D591"/>
<path d="M141.8 262.268C141.8 261.75 142.154 261.329 142.593 261.329C143.031 261.329 143.387 261.75 143.387 262.268C143.387 262.787 143.031 263.207 142.593 263.207C142.154 263.207 141.8 262.787 141.8 262.268Z" fill="#F3D591"/>
<path d="M139.838 260.389C139.838 260.064 140.061 259.8 140.336 259.8C140.611 259.8 140.835 260.063 140.835 260.389C140.835 260.714 140.611 260.978 140.336 260.978C140.061 260.978 139.838 260.714 139.838 260.389Z" fill="#F3D591"/>
<path d="M289.106 257.433C289.106 256.914 289.46 256.493 289.9 256.493C290.337 256.493 290.693 256.914 290.693 257.433C290.693 257.951 290.337 258.371 289.9 258.371C289.461 258.371 289.106 257.951 289.106 257.433Z" fill="#F3D591"/>
<path d="M287.147 255.553C287.147 255.229 287.371 254.964 287.646 254.964C287.919 254.964 288.144 255.228 288.144 255.553C288.144 255.879 287.92 256.143 287.646 256.143C287.371 256.143 287.147 255.879 287.147 255.553Z" fill="#F3D591"/>
<path d="M287.96 210.857C287.96 210.34 288.314 209.918 288.754 209.918C289.192 209.918 289.547 210.34 289.547 210.857C289.547 211.376 289.192 211.795 288.754 211.795C288.314 211.795 287.96 211.376 287.96 210.857Z" fill="#F3D591"/>
<path d="M286 208.977C286 208.653 286.223 208.388 286.498 208.388C286.773 208.388 286.995 208.652 286.995 208.977C286.995 209.303 286.773 209.567 286.498 209.567C286.223 209.567 286 209.303 286 208.977Z" fill="#F3D591"/>
<path d="M184.184 198.168C184.184 197.651 184.538 197.229 184.978 197.229C185.416 197.229 185.772 197.651 185.772 198.168C185.772 198.687 185.416 199.107 184.978 199.107C184.538 199.107 184.184 198.687 184.184 198.168Z" fill="#F3D591"/>
<path d="M182.224 196.29C182.224 195.965 182.447 195.701 182.722 195.701C182.996 195.701 183.22 195.964 183.22 196.29C183.22 196.614 182.997 196.879 182.722 196.879C182.447 196.878 182.224 196.614 182.224 196.29Z" fill="#F3D591"/>
<path d="M103.408 269.874C103.408 269.356 103.762 268.935 104.202 268.935C104.641 268.935 104.995 269.356 104.995 269.874C104.995 270.393 104.641 270.813 104.202 270.813C103.763 270.813 103.408 270.393 103.408 269.874Z" fill="#F3D591"/>
<path d="M101.446 267.995C101.446 267.67 101.67 267.406 101.945 267.406C102.218 267.406 102.443 267.669 102.443 267.995C102.443 268.32 102.219 268.584 101.945 268.584C101.67 268.584 101.446 268.319 101.446 267.995Z" fill="#F3D591"/>
<path d="M295.084 341.154C295.084 340.636 295.438 340.215 295.877 340.215C296.316 340.215 296.67 340.636 296.67 341.154C296.67 341.672 296.316 342.093 295.877 342.093C295.438 342.094 295.084 341.672 295.084 341.154Z" fill="#F3D591"/>
<path d="M293.122 339.275C293.122 338.95 293.344 338.686 293.621 338.686C293.894 338.686 294.118 338.95 294.118 339.275C294.118 339.6 293.894 339.864 293.621 339.864C293.344 339.864 293.122 339.601 293.122 339.275Z" fill="#F3D591"/>
<path d="M105.997 346.52C105.997 346.001 106.351 345.581 106.79 345.581C107.229 345.581 107.584 346.001 107.584 346.52C107.584 347.039 107.229 347.458 106.79 347.458C106.351 347.458 105.997 347.039 105.997 346.52Z" fill="#F3D591"/>
<path d="M104.035 344.64C104.035 344.315 104.257 344.051 104.532 344.051C104.807 344.051 105.03 344.314 105.03 344.64C105.03 344.966 104.808 345.229 104.532 345.229C104.257 345.229 104.035 344.966 104.035 344.64Z" fill="#F3D591"/>
<path d="M120.474 294.936C120.474 294.325 121.156 293.828 121.999 293.828C122.841 293.828 123.523 294.325 123.523 294.936C123.523 295.548 122.841 296.044 121.999 296.044C121.156 296.044 120.474 295.548 120.474 294.936Z" fill="#F3D591"/>
<path d="M199.797 248.182C199.797 247.571 200.48 247.074 201.323 247.074C202.164 247.074 202.847 247.571 202.847 248.182C202.847 248.793 202.165 249.289 201.323 249.289C200.48 249.289 199.797 248.793 199.797 248.182Z" fill="#F3D591"/>
<path d="M175.194 339.007C175.194 338.396 175.877 337.899 176.719 337.899C177.56 337.899 178.243 338.396 178.243 339.007C178.243 339.619 177.56 340.115 176.719 340.115C175.877 340.115 175.194 339.619 175.194 339.007Z" fill="#F3D591"/>
<path d="M109.791 319.079C109.791 318.469 110.473 317.971 111.315 317.971C112.157 317.971 112.84 318.469 112.84 319.079C112.84 319.691 112.157 320.187 111.315 320.187C110.473 320.187 109.791 319.691 109.791 319.079Z" fill="#F3D591"/>
<path d="M58.776 177.533C60.5213 177.533 61.9378 179.209 61.9378 181.276C61.9378 183.341 60.5213 185.016 58.776 185.016C57.0308 185.016 55.6143 183.341 55.6143 181.276C55.6143 179.209 57.0308 177.533 58.776 177.533Z" fill="#F3D591"/>
<path d="M13.8407 225.067C14.6812 225.067 15.3645 225.874 15.3645 226.871C15.3645 227.868 14.6819 228.676 13.8407 228.676C12.9989 228.676 12.3156 227.868 12.3156 226.871C12.3156 225.875 12.9989 225.067 13.8407 225.067Z" fill="#F3D591"/>
<path d="M38.828 253.515C39.2665 253.515 39.6204 253.935 39.6204 254.453C39.6204 254.973 39.2665 255.393 38.828 255.393C38.3895 255.393 38.0331 254.973 38.0331 254.453C38.0325 253.935 38.3895 253.515 38.828 253.515Z" fill="#F3D591"/>
<path d="M0.794916 204.523C1.23215 204.523 1.5886 204.943 1.5886 205.462C1.5886 205.981 1.23215 206.401 0.794916 206.401C0.355215 206.401 0 205.981 0 205.462C0 204.943 0.355215 204.523 0.794916 204.523Z" fill="#F3D591"/>
<path d="M3.95233 113.022C4.38956 113.022 4.74477 113.444 4.74477 113.962C4.74477 114.482 4.38956 114.901 3.95233 114.901C3.51386 114.901 3.15741 114.482 3.15741 113.962C3.15741 113.445 3.51386 113.022 3.95233 113.022Z" fill="#F3D591"/>
<path d="M16.4977 44.939C16.4773 45.4573 16.1036 45.8573 15.6664 45.8332C15.2291 45.8091 14.8906 45.3689 14.9109 44.8507C14.9313 44.3332 15.3037 43.9324 15.741 43.9565C16.1782 43.9806 16.518 44.4215 16.4977 44.939Z" fill="#F3D591"/>
<path d="M95.5665 253.535C96.0037 253.535 96.3602 253.956 96.3602 254.475C96.3602 254.995 96.0037 255.415 95.5665 255.415C95.128 255.415 94.7728 254.995 94.7728 254.475C94.7728 253.957 95.1287 253.535 95.5665 253.535Z" fill="#F3D591"/>
<path d="M97.4835 192.129C98.1378 192.129 98.67 192.757 98.67 193.532C98.67 194.306 98.1378 194.935 97.4835 194.935C96.8304 194.935 96.2994 194.306 96.2994 193.532C96.2994 192.757 96.8304 192.129 97.4835 192.129Z" fill="#F3D591"/>
<path d="M5.23143 179.813C5.67113 179.813 6.02634 180.233 6.02634 180.752C6.02634 181.272 5.67113 181.692 5.23143 181.692C4.79296 181.692 4.43774 181.272 4.43774 180.752C4.43774 180.234 4.79296 179.813 5.23143 179.813Z" fill="#F3D591"/>
<path d="M74.0329 126.949C74.4714 126.949 74.8266 127.368 74.8266 127.888C74.8266 128.406 74.4714 128.827 74.0329 128.827C73.5957 128.827 73.238 128.406 73.238 127.888C73.238 127.368 73.5957 126.949 74.0329 126.949Z" fill="#F3D591"/>
<path d="M17.6793 284.866C18.119 284.866 18.4742 285.287 18.4742 285.806C18.4742 286.325 18.119 286.746 17.6793 286.746C17.2421 286.746 16.8868 286.325 16.8868 285.806C16.8862 285.287 17.2421 284.866 17.6793 284.866Z" fill="#F3D591"/>
<path d="M40.4154 251.195C40.6911 251.195 40.9118 251.458 40.9118 251.783C40.9118 252.109 40.6917 252.372 40.4154 252.372C40.141 252.372 39.9165 252.11 39.9165 251.783C39.9165 251.458 40.1404 251.195 40.4154 251.195Z" fill="#F3D591"/>
<path d="M26.2155 185.075C27.1078 185.075 27.8318 185.932 27.8318 186.989C27.8318 188.049 27.1078 188.906 26.2155 188.906C25.3194 188.906 24.5967 188.049 24.5967 186.989C24.5967 185.932 25.3194 185.075 26.2155 185.075Z" fill="#F3D591"/>
<path d="M9.18206 117.301C9.62053 117.301 9.97574 117.721 9.97574 118.241C9.97574 118.76 9.62053 119.181 9.18206 119.181C8.74359 119.181 8.38715 118.76 8.38715 118.241C8.38715 117.721 8.74359 117.301 9.18206 117.301Z" fill="#F3D591"/>
<path d="M29.4529 180.344C30.0128 180.344 30.4673 180.882 30.4673 181.545C30.4673 182.209 30.0135 182.747 29.4529 182.747C28.8905 182.747 28.4378 182.209 28.4378 181.545C28.4378 180.882 28.8905 180.344 29.4529 180.344Z" fill="#F3D591"/>
<path d="M76.4671 257.734C76.9056 257.734 77.2608 258.155 77.2608 258.674C77.2608 259.193 76.9056 259.613 76.4671 259.613C76.0274 259.613 75.6735 259.193 75.6735 258.674C75.6735 258.155 76.0274 257.734 76.4671 257.734Z" fill="#F3D591"/>
<path d="M78.0579 255.415C78.3298 255.415 78.5555 255.679 78.5555 256.004C78.5555 256.329 78.3304 256.593 78.0579 256.593C77.7822 256.593 77.559 256.33 77.559 256.004C77.559 255.679 77.7822 255.415 78.0579 255.415Z" fill="#F3D591"/>
<path d="M94.7711 130.208C95.2083 130.208 95.5648 130.627 95.5648 131.147C95.5648 131.666 95.2083 132.086 94.7711 132.086C94.3326 132.086 93.9786 131.666 93.9786 131.147C93.9786 130.628 94.3326 130.208 94.7711 130.208Z" fill="#F3D591"/>
<path d="M96.3597 127.888C96.6342 127.888 96.8586 128.151 96.8586 128.478C96.8586 128.802 96.6348 129.067 96.3597 129.067C96.0847 129.067 95.8621 128.803 95.8621 128.478C95.8621 128.151 96.0847 127.888 96.3597 127.888Z" fill="#F3D591"/>
<path d="M22.5293 286.157C22.805 286.157 23.0283 286.42 23.0283 286.747C23.0283 287.071 22.8056 287.335 22.5293 287.335C22.2549 287.335 22.0317 287.072 22.0317 286.747C22.0317 286.42 22.2549 286.157 22.5293 286.157Z" fill="#F3D591"/>
<path d="M49.6229 269.009C50.1397 269.009 50.559 269.817 50.559 270.814C50.559 271.81 50.1397 272.619 49.6229 272.619C49.1061 272.619 48.688 271.811 48.688 270.814C48.6886 269.817 49.1067 269.009 49.6229 269.009Z" fill="#F3D591"/>
<path d="M41.9923 296.455C42.5078 296.455 42.9284 297.263 42.9284 298.261C42.9284 299.256 42.5078 300.065 41.9923 300.065C41.4755 300.065 41.0568 299.257 41.0568 298.261C41.0568 297.264 41.4755 296.455 41.9923 296.455Z" fill="#F3D591"/>
<path d="M55.4068 81.6316C55.9224 81.6316 56.343 82.4389 56.343 83.4367C56.343 84.4331 55.9224 85.2418 55.4068 85.2418C54.89 85.2418 54.4719 84.4338 54.4719 83.4367C54.4725 82.4389 54.89 81.6316 55.4068 81.6316Z" fill="#F3D591"/>
<path d="M87.1391 80.8645C87.6547 80.8645 88.0753 81.6725 88.0753 82.6696C88.0753 83.6652 87.6547 84.474 87.1391 84.474C86.6223 84.474 86.203 83.666 86.203 82.6696C86.2036 81.6725 86.623 80.8645 87.1391 80.8645Z" fill="#F3D591"/>
<path d="M59.2086 52.0475C59.1846 52.657 58.4834 53.1162 57.6416 53.0694C56.8023 53.0227 56.1381 52.4877 56.1628 51.8782C56.1868 51.2673 56.8905 50.8096 57.7298 50.8563C58.5716 50.903 59.2339 51.4366 59.2086 52.0475Z" fill="#F3D591"/>
<path d="M42.7274 324.73C43.1646 324.73 43.5198 325.149 43.5198 325.668C43.5198 326.187 43.1646 326.606 42.7274 326.606C42.2889 326.606 41.9337 326.187 41.9337 325.668C41.9337 325.149 42.2889 324.73 42.7274 324.73Z" fill="#F3D591"/>
<path d="M1.42345 286.935C1.69788 286.935 1.92112 287.199 1.92112 287.524C1.92112 287.85 1.6985 288.114 1.42345 288.114C1.14841 288.114 0.925781 287.85 0.925781 287.524C0.925781 287.199 1.14902 286.935 1.42345 286.935Z" fill="#F3D591"/>
<path d="M12.9391 253.448C13.3764 253.448 13.7328 253.867 13.7328 254.387C13.7328 254.906 13.3764 255.325 12.9391 255.325C12.5007 255.325 12.1454 254.906 12.1454 254.387C12.1454 253.868 12.5007 253.448 12.9391 253.448Z" fill="#F3D591"/>
<path d="M14.5265 251.128C14.801 251.128 15.0254 251.391 15.0254 251.717C15.0254 252.041 14.8016 252.307 14.5265 252.307C14.2521 252.307 14.0289 252.042 14.0289 251.717C14.0295 251.392 14.2521 251.128 14.5265 251.128Z" fill="#F3D591"/>
<path d="M3.33389 24.4789C3.31354 24.9957 2.94229 25.3971 2.50382 25.373C2.06535 25.349 1.72802 24.9073 1.74837 24.3906C1.76872 23.8723 2.13997 23.473 2.57844 23.4971C3.01691 23.5212 3.35424 23.9606 3.33389 24.4789Z" fill="#F3D591"/>
<path d="M5.21699 26.4652C5.20404 26.79 4.97032 27.0418 4.69651 27.0265C4.42208 27.0112 4.20994 26.7352 4.22165 26.4097C4.2346 26.0849 4.46833 25.8338 4.74338 25.8491C5.01657 25.8644 5.22995 26.1404 5.21699 26.4652Z" fill="#F3D591"/>
<path d="M50.0869 126.327C50.5254 126.327 50.8806 126.746 50.8806 127.266C50.8806 127.784 50.5254 128.205 50.0869 128.205C49.6484 128.205 49.2932 127.784 49.2932 127.266C49.2932 126.746 49.6484 126.327 50.0869 126.327Z" fill="#F3D591"/>
<path d="M51.6742 124.007C51.9498 124.007 52.1731 124.27 52.1731 124.596C52.1731 124.92 51.9505 125.185 51.6742 125.185C51.3998 125.185 51.1765 124.921 51.1765 124.596C51.1765 124.271 51.3991 124.007 51.6742 124.007Z" fill="#F3D591"/>
<path d="M31.0415 123.354C31.4787 123.354 31.8352 123.772 31.8352 124.292C31.8352 124.811 31.4787 125.232 31.0415 125.232C30.603 125.232 30.249 124.811 30.249 124.292C30.2484 123.772 30.603 123.354 31.0415 123.354Z" fill="#F3D591"/>
<path d="M32.6256 121.032C32.9 121.032 33.1245 121.297 33.1245 121.622C33.1245 121.946 32.9006 122.212 32.6256 122.212C32.3512 122.212 32.1279 121.947 32.1279 121.622C32.1279 121.297 32.3512 121.032 32.6256 121.032Z" fill="#F3D591"/>
<path d="M35.1258 297.708C35.5631 297.708 35.9195 298.127 35.9195 298.648C35.9195 299.165 35.5631 299.586 35.1258 299.586C34.6874 299.586 34.3322 299.165 34.3322 298.648C34.3322 298.127 34.6874 297.708 35.1258 297.708Z" fill="#F3D591"/>
<path d="M36.7133 295.387C36.9877 295.387 37.2109 295.651 37.2109 295.976C37.2109 296.301 36.9883 296.566 36.7133 296.566C36.4388 296.566 36.2156 296.301 36.2156 295.976C36.2156 295.652 36.4388 295.387 36.7133 295.387Z" fill="#F3D591"/>
<path d="M74.4763 296.352C74.9148 296.352 75.27 296.771 75.27 297.292C75.27 297.811 74.9148 298.231 74.4763 298.231C74.0391 298.231 73.6838 297.811 73.6838 297.292C73.6838 296.771 74.0391 296.352 74.4763 296.352Z" fill="#F3D591"/>
<path d="M76.0649 294.032C76.3394 294.032 76.5626 294.296 76.5626 294.622C76.5626 294.946 76.34 295.211 76.0649 295.211C75.7893 295.211 75.5673 294.947 75.5673 294.622C75.5679 294.296 75.7893 294.032 76.0649 294.032Z" fill="#F3D591"/>
<path d="M85.197 173.519C85.6342 173.519 85.9907 173.938 85.9907 174.458C85.9907 174.977 85.6342 175.397 85.197 175.397C84.7585 175.397 84.4045 174.977 84.4045 174.458C84.4045 173.939 84.7585 173.519 85.197 173.519Z" fill="#F3D591"/>
<path d="M86.7856 171.201C87.0601 171.201 87.2845 171.464 87.2845 171.79C87.2845 172.115 87.0607 172.379 86.7856 172.379C86.5112 172.379 86.288 172.115 86.288 171.79C86.288 171.464 86.5112 171.201 86.7856 171.201Z" fill="#F3D591"/>
<path d="M24.6141 77.9121C25.0526 77.9121 25.4078 78.3311 25.4078 78.8515C25.4078 79.3698 25.0526 79.7895 24.6141 79.7895C24.1756 79.7895 23.8217 79.3698 23.8217 78.8515C23.8217 78.3311 24.1756 77.9121 24.6141 77.9121Z" fill="#F3D591"/>
<path d="M26.2028 75.5905C26.4772 75.5905 26.7017 75.8547 26.7017 76.1802C26.7017 76.5043 26.4778 76.7693 26.2028 76.7693C25.9283 76.7693 25.7051 76.5051 25.7051 76.1802C25.7051 75.8554 25.9283 75.5905 26.2028 75.5905Z" fill="#F3D591"/>
<path d="M19.617 340.256C20.0543 340.256 20.4107 340.675 20.4107 341.195C20.4107 341.713 20.0543 342.133 19.617 342.133C19.1786 342.133 18.8234 341.713 18.8234 341.195C18.8234 340.675 19.1786 340.256 19.617 340.256Z" fill="#F3D591"/>
<path d="M21.2065 337.935C21.481 337.935 21.7054 338.198 21.7054 338.525C21.7054 338.848 21.4816 339.114 21.2065 339.114C20.9321 339.114 20.7089 338.849 20.7089 338.525C20.7095 338.199 20.9321 337.935 21.2065 337.935Z" fill="#F3D591"/>
<path d="M52.3762 25.9196C52.3558 26.4386 51.9846 26.8393 51.5461 26.8152C51.1076 26.7904 50.7703 26.3503 50.7907 25.8313C50.811 25.3145 51.1823 24.9145 51.6207 24.9386C52.0598 24.9634 52.3965 25.4028 52.3762 25.9196Z" fill="#F3D591"/>
<path d="M54.2584 27.9077C54.246 28.2326 54.0129 28.4829 53.7379 28.4683C53.4647 28.453 53.2525 28.1771 53.2643 27.8523C53.2772 27.5267 53.5097 27.2764 53.7847 27.2917C54.0598 27.307 54.2713 27.5822 54.2584 27.9077Z" fill="#F3D591"/>
<path d="M3.44169 98.1121C3.95725 98.1121 4.37783 98.9194 4.37783 99.9172C4.37783 100.914 3.95725 101.721 3.44169 101.721C2.92367 101.721 2.50555 100.914 2.50555 99.9172C2.50555 98.9194 2.92367 98.1121 3.44169 98.1121Z" fill="#F3D591"/>
<path d="M42.9405 192.003C43.4573 192.003 43.8779 192.811 43.8779 193.809C43.8779 194.804 43.4573 195.613 42.9405 195.613C42.425 195.613 42.0056 194.805 42.0056 193.809C42.0062 192.811 42.4256 192.003 42.9405 192.003Z" fill="#F3D591"/>
<path d="M21.4327 198.35C21.9482 198.35 22.3688 199.158 22.3688 200.155C22.3688 201.151 21.9482 201.96 21.4327 201.96C20.9159 201.96 20.4965 201.152 20.4965 200.155C20.4965 199.158 20.9159 198.35 21.4327 198.35Z" fill="#F3D591"/>
<path d="M47.4984 53.1193C47.4744 53.7288 46.7719 54.1879 45.9314 54.1412C45.0908 54.0945 44.4279 53.5595 44.4526 52.95C44.4766 52.339 45.179 51.8814 46.0196 51.9281C46.8601 51.9748 47.5225 52.5084 47.4984 53.1193Z" fill="#F3D591"/>
</g>
<g opacity="0.5">
<path d="M356.921 93.3982C356.921 94.9643 355.89 96.2348 354.617 96.2348C353.346 96.2348 352.315 94.9643 352.315 93.3982C352.315 91.8317 353.346 90.5612 354.617 90.5612C355.89 90.5612 356.921 91.8317 356.921 93.3982Z" fill="#F3D591"/>
<path d="M349.498 3.52044C349.498 4.27467 349.002 4.88724 348.388 4.88724C347.774 4.88724 347.277 4.27467 347.277 3.52044C347.277 2.76455 347.773 2.15198 348.388 2.15198C349.001 2.15142 349.498 2.76455 349.498 3.52044Z" fill="#F3D591"/>
<path d="M331.987 25.9426C331.987 26.3366 331.728 26.6543 331.409 26.6543C331.089 26.6543 330.83 26.3366 330.83 25.9426C330.83 25.5498 331.089 25.2299 331.409 25.2299C331.728 25.2299 331.987 25.5492 331.987 25.9426Z" fill="#F3D591"/>
<path d="M340.308 41.37C340.308 41.7628 340.049 42.0821 339.73 42.0821C339.41 42.0821 339.152 41.7628 339.152 41.37C339.152 40.976 339.41 40.6567 339.73 40.6567C340.049 40.6567 340.308 40.976 340.308 41.37Z" fill="#F3D591"/>
<path d="M396.632 44.205C396.632 44.5979 396.373 44.9172 396.054 44.9172C395.734 44.9172 395.476 44.5979 395.476 44.205C395.476 43.8116 395.734 43.4918 396.054 43.4918C396.373 43.4918 396.632 43.8116 396.632 44.205Z" fill="#F3D591"/>
<path d="M390.796 20.5547C390.796 20.9476 390.537 21.2669 390.217 21.2669C389.899 21.2669 389.639 20.9476 389.639 20.5547C389.639 20.1618 389.899 19.842 390.217 19.842C390.537 19.842 390.796 20.1618 390.796 20.5547Z" fill="#F3D591"/>
<path d="M310.137 126.408C310.137 126.801 309.878 127.121 309.558 127.121C309.239 127.121 308.98 126.801 308.98 126.408C308.98 126.015 309.239 125.696 309.558 125.696C309.878 125.696 310.137 126.015 310.137 126.408Z" fill="#F3D591"/>
<path d="M347.936 128.129C347.936 128.716 347.549 129.193 347.072 129.193C346.596 129.193 346.209 128.716 346.209 128.129C346.209 127.543 346.596 127.066 347.072 127.066C347.549 127.066 347.936 127.543 347.936 128.129Z" fill="#F3D591"/>
<path d="M355.518 34.2836C355.518 34.6776 355.26 34.9969 354.94 34.9969C354.62 34.9969 354.362 34.6776 354.362 34.2836C354.362 33.8908 354.62 33.5715 354.94 33.5715C355.26 33.5715 355.518 33.8902 355.518 34.2836Z" fill="#F3D591"/>
<path d="M388.059 107.087C388.059 107.48 387.801 107.799 387.48 107.799C387.161 107.799 386.902 107.48 386.902 107.087C386.902 106.694 387.161 106.375 387.48 106.375C387.801 106.375 388.059 106.694 388.059 107.087Z" fill="#F3D591"/>
<path d="M312.686 6.96754C312.686 7.36209 312.427 7.68138 312.108 7.68138C311.788 7.68138 311.53 7.36209 311.53 6.96754C311.53 6.57466 311.788 6.25592 312.108 6.25592C312.427 6.25592 312.686 6.57466 312.686 6.96754Z" fill="#F3D591"/>
<path d="M333.415 27.3672C333.415 27.6146 333.253 27.8127 333.052 27.8127C332.852 27.8127 332.69 27.6146 332.69 27.3672C332.69 27.1204 332.852 26.9201 333.052 26.9201C333.253 26.9207 333.415 27.121 333.415 27.3672Z" fill="#F3D591"/>
<path d="M352.278 64.1794C352.278 64.9807 351.751 65.6304 351.101 65.6304C350.448 65.6304 349.92 64.9807 349.92 64.1794C349.92 63.3754 350.448 62.7274 351.101 62.7274C351.751 62.7274 352.278 63.376 352.278 64.1794Z" fill="#F3D591"/>
<path d="M393.999 48.8962C393.999 49.2902 393.74 49.6084 393.419 49.6084C393.1 49.6084 392.841 49.2902 392.841 48.8962C392.841 48.5033 393.1 48.1835 393.419 48.1835C393.739 48.1829 393.999 48.5028 393.999 48.8962Z" fill="#F3D591"/>
<path d="M355.191 67.0844C355.191 67.5874 354.859 67.9953 354.451 67.9953C354.043 67.9953 353.712 67.5874 353.712 67.0844C353.712 66.5803 354.043 66.1736 354.451 66.1736C354.86 66.1736 355.191 66.5809 355.191 67.0844Z" fill="#F3D591"/>
<path d="M307.553 109.273C307.553 109.666 307.294 109.985 306.975 109.985C306.655 109.985 306.396 109.666 306.396 109.273C306.396 108.879 306.655 108.561 306.975 108.561C307.294 108.561 307.553 108.879 307.553 109.273Z" fill="#F3D591"/>
<path d="M308.981 110.698C308.981 110.943 308.819 111.144 308.619 111.144C308.418 111.144 308.256 110.943 308.256 110.698C308.256 110.451 308.418 110.251 308.619 110.251C308.819 110.251 308.981 110.45 308.981 110.698Z" fill="#F3D591"/>
<path d="M386.051 125.696C386.051 126.089 385.793 126.409 385.473 126.409C385.154 126.409 384.896 126.089 384.896 125.696C384.896 125.303 385.154 124.985 385.473 124.985C385.793 124.985 386.051 125.303 386.051 125.696Z" fill="#F3D591"/>
<path d="M387.481 127.121C387.481 127.367 387.319 127.567 387.118 127.567C386.919 127.567 386.755 127.367 386.755 127.121C386.755 126.874 386.918 126.674 387.118 126.674C387.319 126.674 387.481 126.874 387.481 127.121Z" fill="#F3D591"/>
<path d="M311.891 11.3156C311.891 11.5624 311.73 11.7622 311.529 11.7622C311.329 11.7622 311.166 11.5624 311.166 11.3156C311.166 11.0688 311.328 10.8691 311.529 10.8691C311.73 10.8696 311.891 11.0688 311.891 11.3156Z" fill="#F3D591"/>
<path d="M300.613 85.1833C300.613 85.6465 300.116 86.0233 299.502 86.0233C298.888 86.0233 298.391 85.6465 298.391 85.1833C298.391 84.7196 298.888 84.3439 299.502 84.3439C300.115 84.3439 300.613 84.7196 300.613 85.1833Z" fill="#F3D591"/>
<path d="M305.552 28.7832C305.552 29.2458 305.054 29.6232 304.441 29.6232C303.828 29.6232 303.33 29.2458 303.33 28.7832C303.33 28.3195 303.828 27.9437 304.441 27.9437C305.054 27.9437 305.552 28.32 305.552 28.7832Z" fill="#F3D591"/>
<path d="M415.954 90.3761C415.954 90.8381 415.457 91.2161 414.843 91.2161C414.23 91.2161 413.732 90.8387 413.732 90.3761C413.732 89.9124 414.23 89.5366 414.843 89.5366C415.457 89.5366 415.954 89.9124 415.954 90.3761Z" fill="#F3D591"/>
<path d="M416.425 118.847C416.425 119.31 415.928 119.687 415.314 119.687C414.702 119.687 414.204 119.31 414.204 118.847C414.204 118.384 414.701 118.008 415.314 118.008C415.928 118.007 416.425 118.383 416.425 118.847Z" fill="#F3D591"/>
<path d="M422.087 24.1347C422.087 24.5968 421.59 24.9742 420.976 24.9742C420.362 24.9742 419.865 24.5968 419.865 24.1347C419.865 23.671 420.362 23.2953 420.976 23.2953C421.59 23.2953 422.087 23.671 422.087 24.1347Z" fill="#F3D591"/>
<path d="M288.149 29.4403C288.149 29.8332 287.891 30.1525 287.572 30.1525C287.252 30.1525 286.994 29.8332 286.994 29.4403C286.994 29.0474 287.252 28.7287 287.572 28.7287C287.891 28.7287 288.149 29.0469 288.149 29.4403Z" fill="#F3D591"/>
<path d="M289.578 30.8653C289.578 31.1116 289.415 31.3119 289.215 31.3119C289.015 31.3119 288.851 31.1116 288.851 30.8653C288.851 30.6185 289.015 30.4188 289.215 30.4188C289.415 30.4188 289.578 30.6185 289.578 30.8653Z" fill="#F3D591"/>
<path d="M332.028 2.71162C332.028 3.10451 331.77 3.4238 331.45 3.4238C331.131 3.4238 330.872 3.10451 330.872 2.71162C330.872 2.31818 331.131 2 331.45 2C331.77 2 332.028 2.31818 332.028 2.71162Z" fill="#F3D591"/>
<path d="M333.454 4.13656C333.454 4.38281 333.292 4.58368 333.092 4.58368C332.892 4.58368 332.728 4.38336 332.728 4.13656C332.728 3.88977 332.892 3.69 333.092 3.69C333.292 3.69056 333.454 3.89032 333.454 4.13656Z" fill="#F3D591"/>
<path d="M380.623 5.61665C380.623 6.00954 380.365 6.32938 380.045 6.32938C379.725 6.32938 379.467 6.00954 379.467 5.61665C379.467 5.22377 379.725 4.90503 380.045 4.90503C380.365 4.90503 380.623 5.22377 380.623 5.61665Z" fill="#F3D591"/>
<path d="M382.051 7.0411C382.051 7.2879 381.888 7.48822 381.689 7.48822C381.489 7.48822 381.325 7.28845 381.325 7.0411C381.325 6.79486 381.488 6.59509 381.689 6.59509C381.888 6.59509 382.051 6.79486 382.051 7.0411Z" fill="#F3D591"/>
<path d="M388.441 85.6013C388.441 85.9942 388.183 86.3134 387.863 86.3134C387.545 86.3134 387.286 85.9947 387.286 85.6013C387.286 85.2084 387.545 84.8896 387.863 84.8896C388.183 84.8891 388.441 85.2084 388.441 85.6013Z" fill="#F3D591"/>
<path d="M389.869 87.0256C389.869 87.2724 389.707 87.4727 389.506 87.4727C389.306 87.4727 389.144 87.2724 389.144 87.0256C389.144 86.7794 389.306 86.5796 389.506 86.5796C389.707 86.5796 389.869 86.7794 389.869 87.0256Z" fill="#F3D591"/>
<path d="M390.272 68.5101C390.272 68.903 390.014 69.2223 389.694 69.2223C389.375 69.2223 389.116 68.903 389.116 68.5101C389.116 68.1166 389.375 67.7985 389.694 67.7985C390.014 67.7985 390.272 68.1172 390.272 68.5101Z" fill="#F3D591"/>
<path d="M391.7 69.9348C391.7 70.1811 391.538 70.3814 391.337 70.3814C391.137 70.3814 390.974 70.1811 390.974 69.9348C390.974 69.688 391.137 69.4883 391.337 69.4883C391.538 69.4883 391.7 69.688 391.7 69.9348Z" fill="#F3D591"/>
<path d="M282.947 72.1748C282.947 72.5676 282.689 72.8869 282.369 72.8869C282.05 72.8869 281.791 72.5676 281.791 72.1748C281.791 71.7819 282.05 71.4631 282.369 71.4631C282.688 71.4637 282.947 71.7819 282.947 72.1748Z" fill="#F3D591"/>
<path d="M284.377 73.6006C284.377 73.8469 284.213 74.0472 284.013 74.0472C283.814 74.0472 283.651 73.8469 283.651 73.6006C283.651 73.3538 283.814 73.1541 284.013 73.1541C284.213 73.1541 284.377 73.3533 284.377 73.6006Z" fill="#F3D591"/>
<path d="M283.782 107.485C283.782 107.878 283.524 108.197 283.203 108.197C282.884 108.197 282.625 107.878 282.625 107.485C282.625 107.092 282.884 106.774 283.203 106.774C283.524 106.774 283.782 107.092 283.782 107.485Z" fill="#F3D591"/>
<path d="M285.21 108.911C285.21 109.157 285.047 109.357 284.847 109.357C284.647 109.357 284.484 109.157 284.484 108.911C284.484 108.664 284.647 108.464 284.847 108.464C285.047 108.464 285.21 108.663 285.21 108.911Z" fill="#F3D591"/>
<path d="M359.392 117.104C359.392 117.496 359.134 117.816 358.814 117.816C358.495 117.816 358.236 117.496 358.236 117.104C358.236 116.711 358.495 116.392 358.814 116.392C359.134 116.392 359.392 116.711 359.392 117.104Z" fill="#F3D591"/>
<path d="M360.821 118.528C360.821 118.775 360.658 118.975 360.458 118.975C360.258 118.975 360.095 118.775 360.095 118.528C360.095 118.282 360.258 118.082 360.458 118.082C360.658 118.082 360.821 118.282 360.821 118.528Z" fill="#F3D591"/>
<path d="M418.243 62.7446C418.243 63.1375 417.985 63.4568 417.665 63.4568C417.346 63.4568 417.088 63.1375 417.088 62.7446C417.088 62.3517 417.346 62.033 417.665 62.033C417.985 62.0324 418.243 62.3511 418.243 62.7446Z" fill="#F3D591"/>
<path d="M419.674 64.1686C419.674 64.4149 419.511 64.6152 419.31 64.6152C419.111 64.6152 418.948 64.4149 418.948 64.1686C418.948 63.9218 419.111 63.722 419.31 63.722C419.511 63.722 419.674 63.9218 419.674 64.1686Z" fill="#F3D591"/>
<path d="M278.592 8.70595C278.592 9.09883 278.334 9.41812 278.014 9.41812C277.694 9.41812 277.436 9.09883 277.436 8.70595C277.436 8.31306 277.694 7.99432 278.014 7.99432C278.334 7.99432 278.592 8.31306 278.592 8.70595Z" fill="#F3D591"/>
<path d="M280.02 10.13C280.02 10.3768 279.858 10.5771 279.657 10.5771C279.458 10.5771 279.294 10.3768 279.294 10.13C279.294 9.88372 279.457 9.68396 279.657 9.68396C279.858 9.68396 280.02 9.88372 280.02 10.13Z" fill="#F3D591"/>
<path d="M416.358 4.63789C416.358 5.03078 416.101 5.35062 415.78 5.35062C415.461 5.35062 415.202 5.03133 415.202 4.63789C415.202 4.24501 415.461 3.92627 415.78 3.92627C416.101 3.92627 416.358 4.24501 416.358 4.63789Z" fill="#F3D591"/>
<path d="M417.787 6.0632C417.787 6.30945 417.624 6.50976 417.424 6.50976C417.224 6.50976 417.061 6.30945 417.061 6.0632C417.061 5.8164 417.224 5.61664 417.424 5.61664C417.624 5.61664 417.787 5.8164 417.787 6.0632Z" fill="#F3D591"/>
<path d="M405.811 43.7441C405.811 44.2072 405.314 44.5841 404.7 44.5841C404.087 44.5841 403.59 44.2072 403.59 43.7441C403.59 43.2803 404.086 42.9046 404.7 42.9046C405.313 42.9046 405.811 43.2798 405.811 43.7441Z" fill="#F3D591"/>
<path d="M348.015 79.188C348.015 79.6511 347.518 80.028 346.903 80.028C346.291 80.028 345.793 79.6511 345.793 79.188C345.793 78.7248 346.29 78.3485 346.903 78.3485C347.518 78.3485 348.015 78.7243 348.015 79.188Z" fill="#F3D591"/>
<path d="M365.941 10.3335C365.941 10.7961 365.444 11.1729 364.83 11.1729C364.218 11.1729 363.72 10.7961 363.72 10.3335C363.72 9.86975 364.217 9.49347 364.83 9.49347C365.444 9.49347 365.941 9.8692 365.941 10.3335Z" fill="#F3D591"/>
<path d="M413.594 25.4402C413.594 25.9028 413.098 26.2802 412.484 26.2802C411.87 26.2802 411.373 25.9034 411.373 25.4402C411.373 24.9765 411.871 24.6008 412.484 24.6008C413.098 24.6008 413.594 24.9771 413.594 25.4402Z" fill="#F3D591"/>
<path d="M344.37 175.602C344.37 174.036 345.401 172.766 346.673 172.766C347.944 172.766 348.975 174.036 348.975 175.602C348.975 177.169 347.944 178.439 346.673 178.439C345.401 178.439 344.37 177.169 344.37 175.602Z" fill="#F3D591"/>
<path d="M351.794 265.48C351.794 264.725 352.29 264.113 352.904 264.113C353.518 264.113 354.015 264.725 354.015 265.48C354.015 266.236 353.519 266.849 352.904 266.849C352.291 266.848 351.794 266.236 351.794 265.48Z" fill="#F3D591"/>
<path d="M369.305 243.058C369.305 242.663 369.564 242.346 369.882 242.346C370.203 242.346 370.461 242.663 370.461 243.058C370.461 243.451 370.203 243.77 369.882 243.77C369.564 243.77 369.305 243.451 369.305 243.058Z" fill="#F3D591"/>
<path d="M360.982 227.63C360.982 227.237 361.24 226.918 361.56 226.918C361.879 226.918 362.138 227.237 362.138 227.63C362.138 228.024 361.879 228.343 361.56 228.343C361.24 228.343 360.982 228.024 360.982 227.63Z" fill="#F3D591"/>
<path d="M304.661 224.796C304.661 224.402 304.92 224.083 305.239 224.083C305.559 224.083 305.817 224.402 305.817 224.796C305.817 225.189 305.559 225.508 305.239 225.508C304.92 225.508 304.661 225.189 304.661 224.796Z" fill="#F3D591"/>
<path d="M310.495 248.444C310.495 248.051 310.754 247.732 311.074 247.732C311.392 247.732 311.652 248.051 311.652 248.444C311.652 248.837 311.392 249.157 311.074 249.157C310.754 249.157 310.495 248.837 310.495 248.444Z" fill="#F3D591"/>
<path d="M391.153 142.591C391.153 142.198 391.412 141.878 391.732 141.878C392.051 141.878 392.31 142.198 392.31 142.591C392.31 142.984 392.051 143.303 391.732 143.303C391.412 143.303 391.153 142.984 391.153 142.591Z" fill="#F3D591"/>
<path d="M353.355 140.87C353.355 140.284 353.742 139.806 354.219 139.806C354.695 139.806 355.082 140.283 355.082 140.87C355.082 141.456 354.695 141.933 354.219 141.933C353.742 141.933 353.355 141.456 353.355 140.87Z" fill="#F3D591"/>
<path d="M345.773 234.716C345.773 234.322 346.032 234.003 346.351 234.003C346.672 234.003 346.929 234.322 346.929 234.716C346.929 235.109 346.672 235.428 346.351 235.428C346.032 235.428 345.773 235.109 345.773 234.716Z" fill="#F3D591"/>
<path d="M313.231 161.912C313.231 161.52 313.489 161.2 313.809 161.2C314.129 161.2 314.388 161.52 314.388 161.912C314.388 162.305 314.129 162.625 313.809 162.625C313.489 162.626 313.231 162.305 313.231 161.912Z" fill="#F3D591"/>
<path d="M388.604 262.033C388.604 261.638 388.863 261.32 389.182 261.32C389.502 261.32 389.76 261.638 389.76 262.033C389.76 262.426 389.502 262.745 389.182 262.745C388.863 262.745 388.604 262.426 388.604 262.033Z" fill="#F3D591"/>
<path d="M367.875 241.633C367.875 241.386 368.037 241.187 368.238 241.187C368.438 241.187 368.6 241.385 368.6 241.633C368.6 241.88 368.438 242.08 368.238 242.08C368.037 242.079 367.875 241.88 367.875 241.633Z" fill="#F3D591"/>
<path d="M349.012 204.82C349.012 204.019 349.54 203.369 350.19 203.369C350.843 203.369 351.37 204.019 351.37 204.82C351.37 205.624 350.843 206.272 350.19 206.272C349.54 206.272 349.012 205.624 349.012 204.82Z" fill="#F3D591"/>
<path d="M307.291 220.104C307.291 219.71 307.549 219.393 307.87 219.393C308.189 219.393 308.448 219.71 308.448 220.104C308.448 220.497 308.189 220.817 307.87 220.817C307.549 220.817 307.291 220.497 307.291 220.104Z" fill="#F3D591"/>
<path d="M346.099 201.915C346.099 201.412 346.431 201.004 346.839 201.004C347.248 201.004 347.578 201.412 347.578 201.915C347.578 202.419 347.248 202.825 346.839 202.825C346.431 202.825 346.099 202.419 346.099 201.915Z" fill="#F3D591"/>
<path d="M393.739 159.726C393.739 159.334 393.997 159.015 394.317 159.015C394.636 159.015 394.895 159.334 394.895 159.726C394.895 160.121 394.636 160.439 394.317 160.439C393.997 160.439 393.739 160.121 393.739 159.726Z" fill="#F3D591"/>
<path d="M392.311 158.302C392.311 158.057 392.473 157.855 392.673 157.855C392.873 157.855 393.036 158.057 393.036 158.302C393.036 158.55 392.874 158.749 392.673 158.749C392.473 158.749 392.311 158.55 392.311 158.302Z" fill="#F3D591"/>
<path d="M315.238 143.303C315.238 142.911 315.496 142.591 315.816 142.591C316.135 142.591 316.393 142.911 316.393 143.303C316.393 143.696 316.135 144.015 315.816 144.015C315.496 144.016 315.238 143.697 315.238 143.303Z" fill="#F3D591"/>
<path d="M313.81 141.879C313.81 141.633 313.972 141.432 314.173 141.432C314.372 141.432 314.536 141.632 314.536 141.879C314.536 142.126 314.373 142.325 314.173 142.325C313.972 142.325 313.81 142.126 313.81 141.879Z" fill="#F3D591"/>
<path d="M389.397 257.684C389.397 257.438 389.559 257.237 389.76 257.237C389.96 257.237 390.123 257.437 390.123 257.684C390.123 257.931 389.96 258.13 389.76 258.13C389.559 258.13 389.397 257.931 389.397 257.684Z" fill="#F3D591"/>
<path d="M400.677 183.816C400.677 183.353 401.175 182.976 401.788 182.976C402.401 182.976 402.899 183.353 402.899 183.816C402.899 184.28 402.401 184.656 401.788 184.656C401.174 184.656 400.677 184.28 400.677 183.816Z" fill="#F3D591"/>
<path d="M395.737 240.216C395.737 239.754 396.235 239.376 396.848 239.376C397.461 239.376 397.959 239.754 397.959 240.216C397.959 240.68 397.461 241.056 396.848 241.056C396.235 241.056 395.737 240.68 395.737 240.216Z" fill="#F3D591"/>
<path d="M285.335 178.625C285.335 178.162 285.833 177.785 286.446 177.785C287.06 177.785 287.558 178.162 287.558 178.625C287.558 179.088 287.06 179.464 286.446 179.464C285.833 179.464 285.335 179.088 285.335 178.625Z" fill="#F3D591"/>
<path d="M284.865 150.153C284.865 149.69 285.362 149.312 285.976 149.312C286.588 149.312 287.086 149.69 287.086 150.153C287.086 150.616 286.589 150.993 285.976 150.993C285.363 150.993 284.865 150.616 284.865 150.153Z" fill="#F3D591"/>
<path d="M279.203 244.864C279.203 244.402 279.7 244.025 280.314 244.025C280.927 244.025 281.425 244.402 281.425 244.864C281.425 245.329 280.928 245.704 280.314 245.704C279.7 245.704 279.203 245.329 279.203 244.864Z" fill="#F3D591"/>
<path d="M413.141 239.56C413.141 239.167 413.399 238.848 413.718 238.848C414.038 238.848 414.297 239.167 414.297 239.56C414.297 239.953 414.038 240.271 413.718 240.271C413.399 240.271 413.141 239.953 413.141 239.56Z" fill="#F3D591"/>
<path d="M411.712 238.135C411.712 237.889 411.874 237.688 412.074 237.688C412.274 237.688 412.438 237.888 412.438 238.135C412.438 238.382 412.275 238.582 412.074 238.582C411.874 238.582 411.712 238.382 411.712 238.135Z" fill="#F3D591"/>
<path d="M369.263 266.288C369.263 265.895 369.521 265.577 369.84 265.577C370.16 265.577 370.419 265.895 370.419 266.288C370.419 266.681 370.16 267 369.84 267C369.521 267 369.263 266.682 369.263 266.288Z" fill="#F3D591"/>
<path d="M367.837 264.863C367.837 264.617 367.999 264.416 368.199 264.416C368.399 264.416 368.563 264.616 368.563 264.863C368.563 265.11 368.4 265.31 368.199 265.31C367.999 265.31 367.837 265.11 367.837 264.863Z" fill="#F3D591"/>
<path d="M320.669 263.383C320.669 262.99 320.927 262.671 321.248 262.671C321.567 262.671 321.825 262.99 321.825 263.383C321.825 263.776 321.567 264.095 321.248 264.095C320.927 264.096 320.669 263.777 320.669 263.383Z" fill="#F3D591"/>
<path d="M319.241 261.958C319.241 261.712 319.405 261.512 319.604 261.512C319.804 261.512 319.968 261.711 319.968 261.958C319.968 262.205 319.804 262.405 319.604 262.405C319.405 262.405 319.241 262.205 319.241 261.958Z" fill="#F3D591"/>
<path d="M312.849 183.398C312.849 183.005 313.107 182.687 313.427 182.687C313.746 182.687 314.005 183.005 314.005 183.398C314.005 183.791 313.746 184.11 313.427 184.11C313.107 184.11 312.849 183.792 312.849 183.398Z" fill="#F3D591"/>
<path d="M311.421 181.973C311.421 181.727 311.583 181.526 311.784 181.526C311.984 181.526 312.146 181.727 312.146 181.973C312.146 182.22 311.984 182.42 311.784 182.42C311.583 182.42 311.421 182.22 311.421 181.973Z" fill="#F3D591"/>
<path d="M311.019 200.49C311.019 200.098 311.277 199.778 311.596 199.778C311.916 199.778 312.175 200.098 312.175 200.49C312.175 200.883 311.916 201.202 311.596 201.202C311.277 201.202 311.019 200.883 311.019 200.49Z" fill="#F3D591"/>
<path d="M309.589 199.065C309.589 198.819 309.752 198.619 309.952 198.619C310.152 198.619 310.316 198.819 310.316 199.065C310.316 199.312 310.152 199.512 309.952 199.512C309.752 199.512 309.589 199.312 309.589 199.065Z" fill="#F3D591"/>
<path d="M418.344 196.824C418.344 196.431 418.602 196.112 418.922 196.112C419.241 196.112 419.499 196.431 419.499 196.824C419.499 197.217 419.241 197.536 418.922 197.536C418.602 197.536 418.344 197.217 418.344 196.824Z" fill="#F3D591"/>
<path d="M416.916 195.399C416.916 195.154 417.079 194.953 417.28 194.953C417.479 194.953 417.642 195.153 417.642 195.399C417.642 195.647 417.479 195.846 417.28 195.846C417.079 195.846 416.916 195.647 416.916 195.399Z" fill="#F3D591"/>
<path d="M417.509 161.515C417.509 161.123 417.766 160.803 418.087 160.803C418.406 160.803 418.665 161.123 418.665 161.515C418.665 161.909 418.406 162.226 418.087 162.226C417.766 162.226 417.509 161.909 417.509 161.515Z" fill="#F3D591"/>
<path d="M416.081 160.09C416.081 159.844 416.243 159.643 416.443 159.643C416.644 159.643 416.806 159.844 416.806 160.09C416.806 160.337 416.644 160.537 416.443 160.537C416.243 160.537 416.081 160.337 416.081 160.09Z" fill="#F3D591"/>
<path d="M341.899 151.895C341.899 151.503 342.157 151.183 342.477 151.183C342.797 151.183 343.056 151.503 343.056 151.895C343.056 152.289 342.797 152.608 342.477 152.608C342.157 152.608 341.899 152.289 341.899 151.895Z" fill="#F3D591"/>
<path d="M340.471 150.471C340.471 150.225 340.633 150.025 340.834 150.025C341.034 150.025 341.196 150.225 341.196 150.471C341.196 150.718 341.034 150.918 340.834 150.918C340.633 150.917 340.471 150.718 340.471 150.471Z" fill="#F3D591"/>
<path d="M283.047 206.256C283.047 205.863 283.305 205.544 283.625 205.544C283.945 205.544 284.203 205.863 284.203 206.256C284.203 206.649 283.945 206.968 283.625 206.968C283.306 206.968 283.047 206.649 283.047 206.256Z" fill="#F3D591"/>
<path d="M281.618 204.831C281.618 204.585 281.781 204.385 281.981 204.385C282.18 204.385 282.344 204.585 282.344 204.831C282.344 205.078 282.181 205.278 281.981 205.278C281.781 205.278 281.618 205.078 281.618 204.831Z" fill="#F3D591"/>
<path d="M422.699 260.294C422.699 259.901 422.957 259.582 423.277 259.582C423.596 259.582 423.854 259.901 423.854 260.294C423.854 260.687 423.596 261.006 423.277 261.006C422.957 261.006 422.699 260.687 422.699 260.294Z" fill="#F3D591"/>
<path d="M421.269 258.869C421.269 258.623 421.431 258.423 421.633 258.423C421.832 258.423 421.995 258.623 421.995 258.869C421.995 259.116 421.832 259.316 421.633 259.316C421.431 259.316 421.269 259.116 421.269 258.869Z" fill="#F3D591"/>
<path d="M284.933 264.362C284.933 263.969 285.191 263.65 285.511 263.65C285.831 263.65 286.09 263.969 286.09 264.362C286.09 264.755 285.831 265.073 285.511 265.073C285.191 265.073 284.933 264.755 284.933 264.362Z" fill="#F3D591"/>
<path d="M283.504 262.936C283.504 262.69 283.666 262.49 283.866 262.49C284.066 262.49 284.229 262.689 284.229 262.936C284.229 263.184 284.067 263.383 283.866 263.383C283.666 263.383 283.504 263.184 283.504 262.936Z" fill="#F3D591"/>
<path d="M295.481 225.256C295.481 224.793 295.978 224.416 296.592 224.416C297.205 224.416 297.702 224.793 297.702 225.256C297.702 225.72 297.205 226.095 296.592 226.095C295.978 226.095 295.481 225.72 295.481 225.256Z" fill="#F3D591"/>
<path d="M353.274 189.811C353.274 189.348 353.772 188.971 354.386 188.971C354.999 188.971 355.497 189.348 355.497 189.811C355.497 190.275 354.999 190.651 354.386 190.651C353.772 190.651 353.274 190.275 353.274 189.811Z" fill="#F3D591"/>
<path d="M335.349 258.666C335.349 258.203 335.846 257.827 336.46 257.827C337.073 257.827 337.57 258.203 337.57 258.666C337.57 259.13 337.073 259.506 336.46 259.506C335.846 259.506 335.349 259.13 335.349 258.666Z" fill="#F3D591"/>
<path d="M287.698 243.559C287.698 243.096 288.194 242.719 288.808 242.719C289.421 242.719 289.919 243.096 289.919 243.559C289.919 244.022 289.422 244.399 288.808 244.399C288.194 244.399 287.698 244.022 287.698 243.559Z" fill="#F3D591"/>
<path d="M250.529 136.252C251.8 136.252 252.832 137.523 252.832 139.089C252.832 140.655 251.8 141.925 250.529 141.925C249.257 141.925 248.225 140.655 248.225 139.089C248.225 137.523 249.257 136.252 250.529 136.252Z" fill="#F3D591"/>
<path d="M217.79 172.288C218.402 172.288 218.9 172.899 218.9 173.655C218.9 174.411 218.403 175.024 217.79 175.024C217.176 175.024 216.679 174.411 216.679 173.655C216.679 172.9 217.176 172.288 217.79 172.288Z" fill="#F3D591"/>
<path d="M235.995 193.854C236.315 193.854 236.572 194.173 236.572 194.565C236.572 194.959 236.315 195.278 235.995 195.278C235.676 195.278 235.416 194.959 235.416 194.565C235.415 194.173 235.676 193.854 235.995 193.854Z" fill="#F3D591"/>
<path d="M208.285 156.713C208.603 156.713 208.863 157.032 208.863 157.425C208.863 157.818 208.603 158.137 208.285 158.137C207.964 158.137 207.705 157.818 207.705 157.425C207.705 157.032 207.964 156.713 208.285 156.713Z" fill="#F3D591"/>
<path d="M210.585 87.3459C210.904 87.3459 211.163 87.6658 211.163 88.0581C211.163 88.4527 210.904 88.7703 210.585 88.7703C210.266 88.7703 210.006 88.4527 210.006 88.0581C210.006 87.6663 210.266 87.3459 210.585 87.3459Z" fill="#F3D591"/>
<path d="M219.725 35.7318C219.711 36.1246 219.438 36.4279 219.12 36.4096C218.801 36.3914 218.555 36.0577 218.569 35.6648C218.584 35.2725 218.856 34.9687 219.174 34.9869C219.493 35.0052 219.74 35.3394 219.725 35.7318Z" fill="#F3D591"/>
<path d="M277.334 193.87C277.652 193.87 277.912 194.188 277.912 194.582C277.912 194.976 277.652 195.294 277.334 195.294C277.014 195.294 276.755 194.976 276.755 194.582C276.755 194.189 277.015 193.87 277.334 193.87Z" fill="#F3D591"/>
<path d="M278.731 147.317C279.207 147.317 279.595 147.793 279.595 148.381C279.595 148.968 279.207 149.444 278.731 149.444C278.255 149.444 277.868 148.968 277.868 148.381C277.868 147.793 278.255 147.317 278.731 147.317Z" fill="#F3D591"/>
<path d="M211.517 137.98C211.837 137.98 212.096 138.299 212.096 138.692C212.096 139.086 211.837 139.405 211.517 139.405C211.198 139.405 210.939 139.086 210.939 138.692C210.939 138.3 211.198 137.98 211.517 137.98Z" fill="#F3D591"/>
<path d="M261.645 97.9036C261.964 97.9036 262.223 98.2212 262.223 98.6157C262.223 99.0086 261.964 99.3274 261.645 99.3274C261.326 99.3274 261.066 99.0086 261.066 98.6157C261.066 98.2212 261.326 97.9036 261.645 97.9036Z" fill="#F3D591"/>
<path d="M220.586 217.622C220.907 217.622 221.166 217.941 221.166 218.334C221.166 218.728 220.907 219.047 220.586 219.047C220.268 219.047 220.009 218.728 220.009 218.334C220.009 217.941 220.268 217.622 220.586 217.622Z" fill="#F3D591"/>
<path d="M237.151 192.095C237.352 192.095 237.513 192.295 237.513 192.541C237.513 192.788 237.353 192.988 237.151 192.988C236.952 192.988 236.788 192.789 236.788 192.541C236.788 192.295 236.951 192.095 237.151 192.095Z" fill="#F3D591"/>
<path d="M226.806 141.969C227.456 141.969 227.983 142.62 227.983 143.42C227.983 144.224 227.456 144.874 226.806 144.874C226.153 144.874 225.626 144.224 225.626 143.42C225.626 142.62 226.153 141.969 226.806 141.969Z" fill="#F3D591"/>
<path d="M214.396 90.5897C214.715 90.5897 214.974 90.9085 214.974 91.3025C214.974 91.6959 214.715 92.0152 214.396 92.0152C214.076 92.0152 213.816 91.6959 213.816 91.3025C213.816 90.9085 214.076 90.5897 214.396 90.5897Z" fill="#F3D591"/>
<path d="M229.164 138.383C229.572 138.383 229.904 138.791 229.904 139.294C229.904 139.797 229.573 140.204 229.164 140.204C228.755 140.204 228.425 139.797 228.425 139.294C228.425 138.791 228.755 138.383 229.164 138.383Z" fill="#F3D591"/>
<path d="M263.418 197.053C263.738 197.053 263.996 197.372 263.996 197.765C263.996 198.158 263.738 198.477 263.418 198.477C263.098 198.477 262.84 198.158 262.84 197.765C262.84 197.372 263.098 197.053 263.418 197.053Z" fill="#F3D591"/>
<path d="M264.577 195.295C264.775 195.295 264.94 195.495 264.94 195.741C264.94 195.988 264.776 196.187 264.577 196.187C264.376 196.187 264.214 195.988 264.214 195.741C264.214 195.495 264.376 195.295 264.577 195.295Z" fill="#F3D591"/>
<path d="M276.754 100.375C277.073 100.375 277.333 100.693 277.333 101.087C277.333 101.48 277.073 101.798 276.754 101.798C276.435 101.798 276.177 101.48 276.177 101.087C276.177 100.693 276.435 100.375 276.754 100.375Z" fill="#F3D591"/>
<path d="M277.912 98.6157C278.112 98.6157 278.275 98.8155 278.275 99.0628C278.275 99.3085 278.112 99.5094 277.912 99.5094C277.711 99.5094 277.549 99.3091 277.549 99.0628C277.549 98.8155 277.711 98.6157 277.912 98.6157Z" fill="#F3D591"/>
<path d="M224.12 218.6C224.321 218.6 224.484 218.799 224.484 219.047C224.484 219.293 224.321 219.493 224.12 219.493C223.92 219.493 223.757 219.294 223.757 219.047C223.757 218.799 223.92 218.6 224.12 218.6Z" fill="#F3D591"/>
<path d="M243.86 205.6C244.237 205.6 244.542 206.213 244.542 206.969C244.542 207.724 244.237 208.337 243.86 208.337C243.483 208.337 243.179 207.724 243.179 206.969C243.179 206.213 243.484 205.6 243.86 205.6Z" fill="#F3D591"/>
<path d="M238.301 226.407C238.676 226.407 238.983 227.02 238.983 227.776C238.983 228.531 238.676 229.144 238.301 229.144C237.924 229.144 237.619 228.531 237.619 227.776C237.619 227.021 237.924 226.407 238.301 226.407Z" fill="#F3D591"/>
<path d="M248.074 63.5486C248.45 63.5486 248.756 64.1606 248.756 64.917C248.756 65.6724 248.45 66.2855 248.074 66.2855C247.697 66.2855 247.393 65.6729 247.393 64.917C247.393 64.1606 247.697 63.5486 248.074 63.5486Z" fill="#F3D591"/>
<path d="M271.194 62.9669C271.569 62.9669 271.876 63.5795 271.876 64.3354C271.876 65.0902 271.569 65.7033 271.194 65.7033C270.817 65.7033 270.512 65.0907 270.512 64.3354C270.512 63.5795 270.818 62.9669 271.194 62.9669Z" fill="#F3D591"/>
<path d="M250.844 41.1207C250.826 41.5828 250.316 41.9308 249.702 41.8954C249.091 41.86 248.607 41.4544 248.625 40.9923C248.642 40.5292 249.155 40.1822 249.766 40.2176C250.38 40.2531 250.862 40.6576 250.844 41.1207Z" fill="#F3D591"/>
<path d="M238.836 247.842C239.155 247.842 239.413 248.16 239.413 248.553C239.413 248.947 239.155 249.265 238.836 249.265C238.517 249.265 238.258 248.947 238.258 248.553C238.258 248.16 238.517 247.842 238.836 247.842Z" fill="#F3D591"/>
<path d="M208.743 219.19C208.943 219.19 209.105 219.39 209.105 219.637C209.105 219.884 208.943 220.084 208.743 220.084C208.542 220.084 208.38 219.884 208.38 219.637C208.38 219.39 208.543 219.19 208.743 219.19Z" fill="#F3D591"/>
<path d="M217.133 193.803C217.451 193.803 217.711 194.121 217.711 194.515C217.711 194.908 217.451 195.227 217.133 195.227C216.813 195.227 216.555 194.908 216.555 194.515C216.555 194.122 216.813 193.803 217.133 193.803Z" fill="#F3D591"/>
<path d="M218.289 192.044C218.489 192.044 218.653 192.244 218.653 192.491C218.653 192.737 218.49 192.938 218.289 192.938C218.089 192.938 217.927 192.737 217.927 192.491C217.927 192.245 218.089 192.044 218.289 192.044Z" fill="#F3D591"/>
<path d="M210.135 20.2208C210.12 20.6126 209.849 20.917 209.53 20.8987C209.21 20.8804 208.965 20.5456 208.979 20.1539C208.994 19.761 209.265 19.4583 209.584 19.4766C209.904 19.4948 210.149 19.8279 210.135 20.2208Z" fill="#F3D591"/>
<path d="M211.507 21.7266C211.497 21.9728 211.327 22.1637 211.127 22.1521C210.927 22.1405 210.773 21.9313 210.781 21.6845C210.791 21.4383 210.961 21.2479 211.161 21.2595C211.361 21.2712 211.516 21.4803 211.507 21.7266Z" fill="#F3D591"/>
<path d="M244.198 97.432C244.517 97.432 244.776 97.7496 244.776 98.1442C244.776 98.5371 244.517 98.8558 244.198 98.8558C243.879 98.8558 243.62 98.5371 243.62 98.1442C243.62 97.7496 243.879 97.432 244.198 97.432Z" fill="#F3D591"/>
<path d="M245.355 95.6735C245.555 95.6735 245.718 95.8732 245.718 96.12C245.718 96.3657 245.556 96.5666 245.355 96.5666C245.155 96.5666 244.992 96.3663 244.992 96.12C244.992 95.8738 245.154 95.6735 245.355 95.6735Z" fill="#F3D591"/>
<path d="M230.322 95.1781C230.64 95.1781 230.9 95.4957 230.9 95.8897C230.9 96.2832 230.64 96.6019 230.322 96.6019C230.002 96.6019 229.745 96.2832 229.745 95.8897C229.744 95.4957 230.002 95.1781 230.322 95.1781Z" fill="#F3D591"/>
<path d="M231.476 93.4185C231.676 93.4185 231.839 93.6188 231.839 93.8656C231.839 94.1113 231.676 94.3127 231.476 94.3127C231.276 94.3127 231.113 94.1118 231.113 93.8656C231.113 93.6188 231.276 93.4185 231.476 93.4185Z" fill="#F3D591"/>
<path d="M233.298 227.357C233.616 227.357 233.876 227.675 233.876 228.069C233.876 228.462 233.616 228.781 233.298 228.781C232.978 228.781 232.719 228.462 232.719 228.069C232.719 227.675 232.978 227.357 233.298 227.357Z" fill="#F3D591"/>
<path d="M234.454 225.597C234.654 225.597 234.817 225.798 234.817 226.045C234.817 226.29 234.655 226.491 234.454 226.491C234.254 226.491 234.092 226.291 234.092 226.045C234.092 225.798 234.254 225.597 234.454 225.597Z" fill="#F3D591"/>
<path d="M261.968 226.329C262.287 226.329 262.546 226.647 262.546 227.042C262.546 227.435 262.287 227.754 261.968 227.754C261.649 227.754 261.39 227.435 261.39 227.042C261.39 226.647 261.649 226.329 261.968 226.329Z" fill="#F3D591"/>
<path d="M263.125 224.57C263.325 224.57 263.488 224.771 263.488 225.017C263.488 225.263 263.326 225.464 263.125 225.464C262.924 225.464 262.763 225.264 262.763 225.017C262.763 224.771 262.924 224.57 263.125 224.57Z" fill="#F3D591"/>
<path d="M269.779 133.209C270.097 133.209 270.357 133.527 270.357 133.921C270.357 134.315 270.097 134.633 269.779 134.633C269.459 134.633 269.201 134.315 269.201 133.921C269.201 133.527 269.459 133.209 269.779 133.209Z" fill="#F3D591"/>
<path d="M270.936 131.451C271.136 131.451 271.3 131.651 271.3 131.898C271.3 132.145 271.136 132.344 270.936 132.344C270.736 132.344 270.573 132.145 270.573 131.898C270.573 131.651 270.736 131.451 270.936 131.451Z" fill="#F3D591"/>
<path d="M225.639 60.7286C225.958 60.7286 226.217 61.0463 226.217 61.4408C226.217 61.8337 225.958 62.1519 225.639 62.1519C225.32 62.1519 225.062 61.8337 225.062 61.4408C225.062 61.0463 225.32 60.7286 225.639 60.7286Z" fill="#F3D591"/>
<path d="M226.796 58.9688C226.996 58.9688 227.16 59.1691 227.16 59.4159C227.16 59.6616 226.997 59.8624 226.796 59.8624C226.596 59.8624 226.434 59.6621 226.434 59.4159C226.434 59.1696 226.596 58.9688 226.796 58.9688Z" fill="#F3D591"/>
<path d="M221.998 259.613C222.317 259.613 222.576 259.93 222.576 260.325C222.576 260.718 222.317 261.036 221.998 261.036C221.679 261.036 221.42 260.718 221.42 260.325C221.42 259.93 221.679 259.613 221.998 259.613Z" fill="#F3D591"/>
<path d="M223.156 257.853C223.356 257.853 223.52 258.053 223.52 258.301C223.52 258.546 223.357 258.747 223.156 258.747C222.956 258.747 222.794 258.547 222.794 258.301C222.794 258.053 222.956 257.853 223.156 257.853Z" fill="#F3D591"/>
<path d="M245.866 21.313C245.851 21.7065 245.581 22.0103 245.261 21.992C244.942 21.9732 244.696 21.6395 244.711 21.2461C244.726 20.8543 244.996 20.5511 245.316 20.5693C245.636 20.5881 245.881 20.9213 245.866 21.313Z" fill="#F3D591"/>
<path d="M247.237 22.8203C247.228 23.0665 247.058 23.2563 246.858 23.2452C246.659 23.2336 246.504 23.0245 246.513 22.7782C246.522 22.5314 246.692 22.3416 246.892 22.3532C247.093 22.3648 247.247 22.5735 247.237 22.8203Z" fill="#F3D591"/>
<path d="M210.213 76.0425C210.589 76.0425 210.895 76.6545 210.895 77.4109C210.895 78.1663 210.589 78.7783 210.213 78.7783C209.836 78.7783 209.531 78.1668 209.531 77.4109C209.531 76.6545 209.836 76.0425 210.213 76.0425Z" fill="#F3D591"/>
<path d="M238.991 147.222C239.368 147.222 239.674 147.834 239.674 148.591C239.674 149.345 239.368 149.959 238.991 149.959C238.616 149.959 238.31 149.346 238.31 148.591C238.311 147.834 238.616 147.222 238.991 147.222Z" fill="#F3D591"/>
<path d="M223.321 152.034C223.697 152.034 224.003 152.646 224.003 153.402C224.003 154.157 223.697 154.77 223.321 154.77C222.944 154.77 222.639 154.157 222.639 153.402C222.639 152.646 222.944 152.034 223.321 152.034Z" fill="#F3D591"/>
<path d="M242.312 41.9333C242.295 42.3953 241.783 42.7434 241.17 42.708C240.558 42.6726 240.075 42.267 240.093 41.8049C240.111 41.3417 240.622 40.9948 241.235 41.0302C241.847 41.0656 242.33 41.4701 242.312 41.9333Z" fill="#F3D591"/>
</g>
</g>
<path d="M77.7555 45.6166C76.3336 40.5905 73.87 36.3797 70.7811 33.3661C70.2698 32.8672 69.7406 32.4001 69.198 31.9711C67.1976 30.386 64.988 29.2664 62.6677 28.7035C60.3731 28.1452 57.9677 28.13 55.5388 28.7431C46.0896 31.1253 39.4441 42.2136 39.2528 54.7851C39.2394 55.6309 39.2539 56.4874 39.3042 57.3454C39.3568 58.3281 39.4508 59.3184 39.5862 60.3118C40.1758 64.6488 41.4982 68.5508 43.3442 71.8291C43.446 72.0071 43.5478 72.185 43.6496 72.3585C45.1812 74.9446 47.0495 77.1169 49.1428 78.775C53.1212 81.9316 57.9185 83.2353 62.8019 82.0062C72.2523 79.6239 78.8978 68.5341 79.088 55.9595C79.116 54.1416 79.0097 52.2933 78.7557 50.4374C78.5275 48.761 78.1907 47.1485 77.7555 45.6166Z" fill="#B55926"/>
<path d="M59.7007 68.817C65.4356 65.7456 69.4307 58.6947 69.8435 50.4572C70.3392 41.9215 67.7783 33.4376 62.6677 28.7035C60.3731 28.1452 57.9677 28.13 55.5388 28.7431C46.0896 31.1253 39.4441 42.2136 39.2528 54.7851C39.2394 55.6309 39.2539 56.4874 39.3042 57.3454C39.3568 58.3281 39.4508 59.3184 39.5862 60.3118C40.1758 64.6488 41.4982 68.5508 43.3442 71.829C43.446 72.007 43.5478 72.185 43.6496 72.3584C44.4607 72.6155 45.3098 72.7357 46.2127 72.684C50.9619 72.4147 55.2278 71.108 59.7007 68.817Z" fill="#8942AF"/>
<path d="M77.754 45.6171C76.332 40.5909 73.8685 36.3801 70.7795 33.3666C70.2683 32.8676 69.7391 32.4006 69.1965 31.9716C67.1961 30.3865 64.9865 29.2668 62.6662 28.704C67.7767 33.4381 70.3376 41.922 69.842 50.4577C69.4292 58.6952 65.4329 65.7461 59.6992 68.8174C55.2263 71.1069 50.9604 72.4152 46.2123 72.6829C45.3094 72.7346 44.4603 72.6145 43.6492 72.3574C45.1808 74.9435 47.0491 77.1158 49.1424 78.774C53.1208 81.9305 57.9181 83.2342 62.8015 82.0051C72.2519 79.6228 78.8974 68.533 79.0876 55.9584C79.1156 54.1406 79.0093 52.2923 78.7553 50.4364C78.526 48.7615 78.1892 47.149 77.754 45.6171Z" fill="#624C70"/>
<path d="M90.4937 31.5123C89.9914 30.2938 89.1389 29.3917 87.9899 28.7923L87.9877 28.7908C84.2487 26.8375 77.3749 28.0667 69.1967 31.9747C69.7393 32.4052 70.2684 32.8707 70.7797 33.3697C76.6992 31.0513 81.0456 31.0118 82.189 33.7896C83.2239 36.2996 81.4529 40.6336 77.7542 45.6187C74.0398 50.622 68.3755 56.281 61.6516 61.403C60.7118 62.1195 59.7743 62.8071 58.8446 63.4643C53.1355 67.4971 47.7128 70.3738 43.3428 71.8326C38.2859 73.5227 34.6443 73.3128 33.6083 70.8028C32.4627 68.025 34.7573 63.0064 39.3029 57.3489C39.2526 56.491 39.238 55.6345 39.2514 54.7887C32.8352 61.899 28.5716 68.9012 27.568 74.1784C27.568 74.1784 27.568 74.1814 27.568 74.186C27.1955 76.1332 27.2715 77.8461 27.8466 79.2426C29.979 84.4194 38.4459 83.8869 49.1425 78.7786C54.0238 76.4481 59.3727 73.1607 64.7943 69.0305C70.2203 64.8988 75.0747 60.4066 79.0867 55.9631C79.815 55.1568 80.5153 54.3506 81.1844 53.5504C88.6119 44.674 92.4493 36.2585 90.4937 31.5123Z" fill="#E39F30"/>
<path d="M52.2393 74.2627C26.0387 88.2642 27.5233 74.5502 27.568 74.1836C27.1955 76.1323 27.2715 77.8437 27.8466 79.2402C29.979 84.417 38.4459 83.886 49.1425 78.7762C54.0238 76.4457 59.3727 73.1598 64.7943 69.0296C70.2203 64.8949 75.0747 60.4058 79.0867 55.9607C79.815 55.1529 80.5153 54.3497 81.1844 53.5465C79.8094 54.3071 78.4467 55.051 77.0896 55.7751C70.8189 62.3149 62.3587 68.8562 52.2393 74.2627Z" fill="#EDBB34"/>
<path d="M90.4937 31.5106C89.9913 30.2921 89.1388 29.39 87.9898 28.7891C91.6785 34.5379 87.2749 45.1531 77.0907 55.7743C78.4478 55.0502 79.8116 54.3048 81.1854 53.5457C88.6119 44.6739 92.4493 36.2584 90.4937 31.5106Z" fill="#EDBB34"/>
<path d="M31.8805 71.1863C30.2225 80.7458 47.0612 75.1035 56.6916 67.4076C45.7008 75.601 30.5357 78.0319 31.8805 71.1863Z" fill="#EDBB34"/>
<path d="M446.925 71.1144C439.681 82.865 424.283 86.525 412.53 79.2783C400.781 72.0411 397.119 56.6377 404.36 44.8835C411.602 33.1293 427.002 29.4788 438.753 36.7208C450.507 43.9615 454.167 59.359 446.925 71.1144Z" fill="#EDBB34"/>
<path d="M415.741 35.0668L450.577 56.533C450.38 53.1987 449.509 49.9353 448.026 46.9364L425.457 33.0282C422.115 33.057 418.805 33.7398 415.741 35.0668Z" fill="#DF8D3C"/>
<path d="M404.36 44.883C403.498 46.2845 402.803 47.7377 402.247 49.2125L444.004 74.947C445.077 73.7835 446.058 72.5118 446.925 71.1151C447.284 70.5273 447.599 69.9227 447.905 69.3205L405.521 43.2026C405.122 43.7483 404.72 44.2988 404.36 44.883Z" fill="#D0CA94"/>
<path d="M405.543 43.1723L447.925 69.2914C449.986 65.2299 450.836 60.8295 450.577 56.5336L415.741 35.0673C411.784 36.7669 408.242 39.505 405.543 43.1723Z" fill="#E3AC29"/>
<path d="M402.249 49.2118C400.789 53.087 400.355 57.1749 400.855 61.1295L433.996 81.55C437.752 80.2218 441.213 77.9897 444.006 74.9463L402.249 49.2118Z" fill="#DF8D3C"/>
<path d="M66.8485 292.866C73.5541 304.926 69.2077 320.147 57.1425 326.849C45.0748 333.553 29.8564 329.208 23.1534 317.148C16.4452 305.076 20.7904 289.858 32.8594 283.152C44.9245 276.444 60.1417 280.794 66.8485 292.866Z" fill="#A13472"/>
<path d="M20.1507 302.41L55.9212 282.537C52.9207 281.085 49.6457 280.24 46.3084 280.062L23.1304 292.943C21.5188 295.87 20.507 299.094 20.1507 302.41Z" fill="#CD71A2"/>
<path d="M23.1526 317.148C23.9442 318.575 24.8705 319.89 25.8875 321.102L68.7612 297.278C68.2728 295.773 67.6432 294.292 66.8478 292.866C66.5135 292.262 66.1417 291.693 65.7621 291.125L22.2484 315.307C22.5295 315.93 22.8184 316.544 23.1526 317.148Z" fill="#D17CA6"/>
<path d="M22.2317 315.267L65.7441 291.087C63.214 287.311 59.7964 284.415 55.9215 282.537L20.1511 302.41C19.7054 306.692 20.3532 311.128 22.2317 315.267Z" fill="#A5467A"/>
<path d="M25.8885 321.105C28.5508 324.27 31.9049 326.65 35.5958 328.147L69.6213 309.238C70.2962 305.311 70.0501 301.209 68.7623 297.28L25.8885 321.103V321.105Z" fill="#C88CA0"/>
<path d="M305.354 73.6213C298.496 78.7824 294.909 72.4599 300.956 66.0347C307.002 59.6109 319.797 49.4249 322.049 47.6075C316.932 53.4275 316.696 54.1544 316.696 54.1544L334.946 39L314.132 62.607L321.333 58.1541C321.333 58.1541 310.253 69.933 305.354 73.6213Z" fill="#F8E7B1"/>
<path d="M296.514 123.94C289.659 129.101 286.07 122.778 292.119 116.355C298.164 109.931 310.959 99.7449 313.21 97.9275C308.092 103.746 307.859 104.474 307.859 104.474L326.108 89.3214L305.294 112.928L312.496 108.476C312.496 108.476 301.416 120.253 296.514 123.94Z" fill="#F8E7B1"/>
<path d="M229.395 105.682C222.538 110.842 218.95 104.521 224.997 98.0956C231.043 91.6704 243.838 81.4873 246.09 79.6699C240.973 85.4884 240.737 86.2168 240.737 86.2168L258.987 71.0624L238.173 94.668L245.375 90.215C245.375 90.215 234.294 101.994 229.395 105.682Z" fill="#F8E7B1"/>
<path d="M225.479 227.197C218.623 232.358 215.035 226.035 221.082 219.61C227.128 213.186 239.924 203 242.175 201.183C237.057 207.003 236.824 207.73 236.824 207.73L255.072 192.575L234.259 216.182L241.461 211.729C241.461 211.729 230.38 223.508 225.479 227.197Z" fill="#F8E7B1"/>
<path d="M382.669 290.193C371.55 308.102 407.21 311.301 407.21 311.301C407.21 311.301 393.79 272.283 382.669 290.193Z" fill="#F0EA57"/>
<path d="M385.664 292.109C377.331 305.524 404.047 307.922 404.047 307.922C404.047 307.922 393.993 278.691 385.664 292.109Z" fill="#E3AC29"/>
<path d="M307.185 228.53C307.147 228.566 307.113 228.607 307.087 228.65C306.18 230.147 312.416 245.195 322.306 259.876L327.935 250.583L337.491 234.815C322.93 228.97 308.854 226.92 307.185 228.53Z" fill="#DF8D3C"/>
<path d="M402.058 254.308C402.055 254.239 402.05 254.175 402.033 254.115C401.465 252.04 376.62 234.233 357.102 245.612L368.529 259.459L374.512 281.27C390.082 270.433 402.16 257.259 402.058 254.308Z" fill="#72C8AC"/>
<path d="M352.512 324.96C352.452 324.963 352.397 324.961 352.347 324.948C350.551 324.471 333.292 296.806 341.063 272.743L353.756 284.943L372.645 289.99C364.966 309.351 355.004 324.808 352.512 324.96Z" fill="#72C8AC"/>
<path d="M359.14 247.215C353.424 242.418 344.572 237.804 337.49 234.815L327.935 250.584L322.306 259.876C327.129 266.957 333.526 274.922 339.376 279.832C350.963 289.558 362.703 294.476 372.049 297.961L378.103 287.972L384.537 277.355C378.694 268.091 370.729 256.939 359.14 247.215Z" fill="white"/>
<path d="M347.556 248.957C351.883 252.586 352.905 259.63 349.842 264.687C346.778 269.738 340.788 270.893 336.464 267.263C332.137 263.631 331.113 256.589 334.176 251.534C337.239 246.481 343.229 245.326 347.556 248.957Z" fill="#72C8AC"/>
<path d="M339.252 250.876C337.769 251.707 336.537 253.162 335.865 255.068C335.82 255.195 335.777 255.323 335.739 255.453C334.469 259.644 336.323 264.24 339.876 265.722C340.224 265.869 340.583 265.982 340.937 266.058C341.984 266.281 343.04 266.21 344.023 265.877C346.08 265.186 347.832 263.379 348.606 260.826C349.876 256.635 348.023 252.037 344.472 250.553C342.695 249.814 340.833 249.992 339.252 250.876Z" fill="white"/>
<path d="M388.206 276.958L374.002 301.872L369.584 298.384L383.785 273.469L388.206 276.958Z" fill="#DF8D3C"/>
<path d="M372.728 276.887C382.474 283.816 389.52 291.104 388.475 293.169C387.427 295.234 378.681 291.291 368.941 284.363C359.198 277.435 352.149 270.147 353.194 268.082C354.238 266.017 362.987 269.96 372.728 276.887Z" fill="#72C8AC"/>
<defs>
<linearGradient id="paint0_linear_4654_12614" x1="250" y1="0" x2="250" y2="350" gradientUnits="userSpaceOnUse">
<stop stop-color="#0B1E44"/>
<stop offset="0.5" stop-color="#1A2A6C"/>
<stop offset="1" stop-color="#1B4965"/>
</linearGradient>
<radialGradient id="paint1_radial_4654_12614" cx="0" cy="0" r="1" gradientUnits="userSpaceOnUse" gradientTransform="translate(280.438 233.182) rotate(-129.516) scale(237.668 538.862)">
<stop stop-color="#433C62"/>
<stop offset="0.3745" stop-color="#40395C"/>
<stop offset="0.8624" stop-color="#362F4C"/>
<stop offset="1" stop-color="#322C46"/>
</radialGradient>
</defs>
</svg>
