<svg version="1.2" xmlns="http://www.w3.org/2000/svg" viewBox="0 0 459 272" width="459" height="272"><defs><linearGradient id="P" gradientUnits="userSpaceOnUse"/><linearGradient id="g1" x2="1" href="#P" gradientTransform="matrix(0,272,-459,0,229.5,0)"><stop stop-color="#0b1e44"/><stop offset=".5" stop-color="#1a2a6c"/><stop offset="1" stop-color="#1b4965"/></linearGradient><clipPath clipPathUnits="userSpaceOnUse" id="cp1"><path d="m8 0h443c4.42 0 8 3.58 8 8v256c0 4.42-3.58 8-8 8h-443c-4.42 0-8-3.58-8-8v-256c0-4.42 3.58-8 8-8z"/></clipPath><clipPath clipPathUnits="userSpaceOnUse" id="cp2"><path d="m459-36h-482v482.31h482z"/></clipPath></defs><style>.a{fill:url(#g1)}.b{opacity:.2;fill:#7fd2ff}.c{opacity:.1;fill:#686de0}.d{fill:#f3d591}.e{fill:#b55926}.f{fill:#8942af}.g{fill:#624c70}.h{fill:#e39f30}.i{fill:#edbb34}.j{fill:#df8d3c}.k{fill:#d0ca94}.l{fill:#e3ac29}.m{fill:#a13472}.n{fill:#cd71a2}.o{fill:#d17ca6}.p{fill:#a5467a}.q{fill:#c88ca0}.r{fill:#f8e7b1}.s{fill:#f0ea57}.t{fill:#72c8ac}.u{fill:#fff}</style><path fill-rule="evenodd" class="a" d="m8 0h443c4.4 0 8 3.6 8 8v256c0 4.4-3.6 8-8 8h-443c-4.4 0-8-3.6-8-8v-256c0-4.4 3.6-8 8-8z"/><g clip-path="url(#cp1)"><g clip-path="url(#cp2)"><path class="b" d="m215.8 218.4c0 67.1-54.3 121.5-121.3 121.5-67.1 0-121.4-54.4-121.4-121.5 0-67 54.3-121.4 121.4-121.4 67 0 121.3 54.4 121.3 121.4z"/><path class="b" d="m556.2 163.2c0 67.1-54.3 121.4-121.4 121.4-67 0-121.3-54.3-121.3-121.4 0-67.1 54.3-121.5 121.3-121.5 67.1 0 121.4 54.4 121.4 121.5z"/><path class="c" d="m117.7 43.5c0 67-54.3 121.4-121.4 121.4-67 0-121.3-54.4-121.3-121.4 0-67.1 54.3-121.5 121.3-121.5 67.1 0 121.4 54.4 121.4 121.5z"/><path class="c" d="m477.6 52.5c0 67-54.4 121.4-121.4 121.4-67 0-121.4-54.4-121.4-121.4 0-67.1 54.4-121.5 121.4-121.5 67 0 121.4 54.4 121.4 121.5z"/></g></g><g style="opacity:.4"><g style="opacity:.5"><path class="d" d="m188.4 94c0 1.6-1.3 2.9-2.9 2.9-1.6 0-2.9-1.3-2.9-2.9 0-1.6 1.3-2.9 2.9-2.9 1.6 0 2.9 1.3 2.9 2.9z"/><path class="d" d="m179 1.9c0 0.8-0.6 1.4-1.4 1.4-0.8 0-1.4-0.6-1.4-1.4 0-0.8 0.6-1.4 1.4-1.4 0.8 0 1.4 0.6 1.4 1.4z"/><path class="d" d="m156.9 24.9c0 0.4-0.3 0.7-0.7 0.7-0.4 0-0.8-0.3-0.8-0.7 0-0.4 0.4-0.7 0.8-0.7 0.4 0 0.7 0.3 0.7 0.7z"/><path class="d" d="m167.4 40.7c0 0.4-0.3 0.7-0.7 0.7-0.4 0-0.7-0.3-0.7-0.7 0-0.4 0.3-0.7 0.7-0.7 0.4 0 0.7 0.3 0.7 0.7z"/><path class="d" d="m238.5 43.6c0 0.4-0.3 0.7-0.7 0.7-0.4 0-0.7-0.3-0.7-0.7 0-0.4 0.3-0.7 0.7-0.7 0.4 0 0.7 0.3 0.7 0.7z"/><path class="d" d="m231.2 19.4c0 0.4-0.4 0.7-0.8 0.7-0.4 0-0.7-0.3-0.7-0.7 0-0.4 0.3-0.8 0.7-0.8 0.4 0 0.8 0.4 0.8 0.8z"/><path class="d" d="m129.3 127.9c0 0.4-0.3 0.7-0.7 0.7-0.4 0-0.7-0.3-0.7-0.7 0-0.4 0.3-0.8 0.7-0.8 0.4 0 0.7 0.4 0.7 0.8z"/><path class="d" d="m177 129.6c0 0.6-0.4 1.1-1.1 1.1-0.6 0-1-0.5-1-1.1 0-0.6 0.4-1 1-1 0.7 0 1.1 0.4 1.1 1z"/><path class="d" d="m186.6 33.4c0 0.4-0.3 0.8-0.7 0.8-0.4 0-0.7-0.4-0.7-0.8 0-0.4 0.3-0.7 0.7-0.7 0.4 0 0.7 0.3 0.7 0.7z"/><path class="d" d="m227.7 108.1c0 0.4-0.3 0.7-0.7 0.7-0.4 0-0.8-0.3-0.8-0.7 0-0.4 0.4-0.8 0.8-0.8 0.4 0 0.7 0.4 0.7 0.8z"/><path class="d" d="m132.5 5.4c0 0.4-0.3 0.8-0.7 0.8-0.4 0-0.7-0.4-0.7-0.8 0-0.4 0.3-0.7 0.7-0.7 0.4 0 0.7 0.3 0.7 0.7z"/><path class="d" d="m158.7 26.3c0 0.3-0.2 0.5-0.4 0.5-0.3 0-0.5-0.2-0.5-0.5 0-0.2 0.2-0.4 0.5-0.4 0.2 0 0.4 0.2 0.4 0.4z"/><path class="d" d="m182.5 64.1c0 0.8-0.6 1.5-1.5 1.5-0.8 0-1.5-0.7-1.5-1.5 0-0.8 0.7-1.5 1.5-1.5 0.9 0 1.5 0.7 1.5 1.5z"/><path class="d" d="m235.2 48.4c0 0.4-0.3 0.7-0.7 0.7-0.4 0-0.8-0.3-0.8-0.7 0-0.4 0.4-0.7 0.8-0.7 0.4 0 0.7 0.3 0.7 0.7z"/><path class="d" d="m186.2 67.1c0 0.5-0.4 0.9-0.9 0.9-0.5 0-1-0.4-1-0.9 0-0.6 0.5-1 1-1 0.5 0 0.9 0.4 0.9 1z"/><path class="d" d="m126.1 110.3c0 0.4-0.4 0.7-0.8 0.7-0.4 0-0.7-0.3-0.7-0.7 0-0.4 0.3-0.7 0.7-0.7 0.4 0 0.8 0.3 0.8 0.7z"/><path class="d" d="m127.9 111.8c0 0.2-0.2 0.4-0.5 0.4-0.3 0-0.5-0.2-0.5-0.4 0-0.3 0.3-0.5 0.5-0.5 0.3 0 0.5 0.2 0.5 0.5z"/><path class="d" d="m225.2 127.1c0 0.5-0.4 0.8-0.8 0.8-0.4 0-0.7-0.3-0.7-0.8 0-0.4 0.3-0.7 0.7-0.7 0.4 0 0.8 0.3 0.8 0.7z"/><path class="d" d="m227 128.6c0 0.3-0.2 0.5-0.5 0.5-0.2 0-0.4-0.2-0.4-0.5 0-0.2 0.2-0.4 0.4-0.4 0.3 0 0.5 0.2 0.5 0.4z"/><path class="d" d="m131.5 9.9c0 0.2-0.2 0.5-0.4 0.5-0.3 0-0.5-0.3-0.5-0.5 0-0.3 0.2-0.5 0.5-0.5 0.2 0 0.4 0.2 0.4 0.5z"/><path class="d" d="m117.3 85.6c0 0.5-0.6 0.9-1.4 0.9-0.8 0-1.4-0.4-1.4-0.9 0-0.5 0.6-0.8 1.4-0.8 0.8 0 1.4 0.3 1.4 0.8z"/><path class="d" d="m123.5 27.8c0 0.5-0.6 0.9-1.4 0.9-0.7 0-1.4-0.4-1.4-0.9 0-0.5 0.7-0.9 1.4-0.9 0.8 0 1.4 0.4 1.4 0.9z"/><path class="d" d="m262.9 90.9c0 0.5-0.6 0.9-1.4 0.9-0.8 0-1.4-0.4-1.4-0.9 0-0.4 0.6-0.8 1.4-0.8 0.8 0 1.4 0.4 1.4 0.8z"/><path class="d" d="m263.5 120.1c0 0.5-0.6 0.9-1.4 0.9-0.8 0-1.4-0.4-1.4-0.9 0-0.4 0.6-0.8 1.4-0.8 0.8 0 1.4 0.4 1.4 0.8z"/><path class="d" d="m270.7 23c0 0.5-0.7 0.9-1.4 0.9-0.8 0-1.4-0.4-1.4-0.9 0-0.4 0.6-0.8 1.4-0.8 0.7 0 1.4 0.4 1.4 0.8z"/><path class="d" d="m101.6 28.5c0 0.4-0.4 0.7-0.8 0.7-0.4 0-0.7-0.3-0.7-0.7 0-0.4 0.3-0.8 0.7-0.8 0.4 0 0.8 0.4 0.8 0.8z"/><path class="d" d="m103.4 29.9c0 0.3-0.2 0.5-0.5 0.5-0.2 0-0.5-0.2-0.5-0.5 0-0.2 0.3-0.4 0.5-0.4 0.3 0 0.5 0.2 0.5 0.4z"/><path class="d" d="m157 1.1c0 0.4-0.4 0.7-0.8 0.7-0.4 0-0.7-0.3-0.7-0.7 0-0.4 0.3-0.8 0.7-0.8 0.4 0 0.8 0.4 0.8 0.8z"/><path class="d" d="m158.8 2.5c0 0.3-0.2 0.5-0.5 0.5-0.3 0-0.5-0.2-0.5-0.5 0-0.2 0.2-0.4 0.5-0.4 0.3 0 0.5 0.2 0.5 0.4z"/><path class="d" d="m218.3 4.1c0 0.4-0.3 0.7-0.7 0.7-0.4 0-0.8-0.3-0.8-0.7 0-0.5 0.4-0.8 0.8-0.8 0.4 0 0.7 0.3 0.7 0.8z"/><path class="d" d="m220.1 5.5c0 0.3-0.2 0.5-0.4 0.5-0.3 0-0.5-0.2-0.5-0.5 0-0.2 0.2-0.4 0.5-0.4 0.2 0 0.4 0.2 0.4 0.4z"/><path class="d" d="m228.2 86c0 0.4-0.3 0.8-0.8 0.8-0.4 0-0.7-0.4-0.7-0.8 0-0.4 0.3-0.7 0.8-0.7 0.4 0 0.7 0.3 0.7 0.7z"/><path class="d" d="m230 87.5c0 0.3-0.2 0.5-0.5 0.5-0.2 0-0.4-0.2-0.4-0.5 0-0.2 0.2-0.5 0.4-0.5 0.3 0 0.5 0.3 0.5 0.5z"/><path class="d" d="m230.5 68.5c0 0.4-0.3 0.8-0.7 0.8-0.4 0-0.8-0.4-0.8-0.8 0-0.4 0.4-0.7 0.8-0.7 0.4 0 0.7 0.3 0.7 0.7z"/><path class="d" d="m232.3 70c0 0.2-0.2 0.4-0.5 0.4-0.2 0-0.4-0.2-0.4-0.4 0-0.3 0.2-0.5 0.4-0.5 0.3 0 0.5 0.2 0.5 0.5z"/><path class="d" d="m95 72.3c0 0.4-0.3 0.7-0.7 0.7-0.4 0-0.8-0.3-0.8-0.7 0-0.4 0.4-0.7 0.8-0.7 0.4 0 0.7 0.3 0.7 0.7z"/><path class="d" d="m96.8 73.7c0 0.3-0.2 0.5-0.5 0.5-0.2 0-0.4-0.2-0.4-0.5 0-0.2 0.2-0.4 0.4-0.4 0.3 0 0.5 0.2 0.5 0.4z"/><path class="d" d="m96 108.5c0 0.4-0.3 0.7-0.7 0.7-0.4 0-0.7-0.3-0.7-0.7 0-0.4 0.3-0.8 0.7-0.8 0.4 0.1 0.7 0.4 0.7 0.8z"/><path class="d" d="m97.8 109.9c0 0.3-0.2 0.5-0.4 0.5-0.3 0-0.5-0.2-0.5-0.5 0-0.2 0.2-0.4 0.5-0.4 0.2 0 0.4 0.2 0.4 0.4z"/><path class="d" d="m191.5 118.3c0 0.4-0.3 0.8-0.7 0.8-0.4 0-0.8-0.4-0.8-0.8 0-0.4 0.4-0.7 0.8-0.7 0.4 0 0.7 0.3 0.7 0.7z"/><path class="d" d="m193.3 119.8c0 0.3-0.2 0.5-0.5 0.5-0.2 0-0.4-0.2-0.4-0.5 0-0.3 0.2-0.5 0.4-0.5 0.3 0 0.5 0.2 0.5 0.5z"/><path class="d" d="m265.8 62.6c0 0.4-0.3 0.7-0.7 0.7-0.4 0-0.8-0.3-0.8-0.7 0-0.4 0.4-0.7 0.8-0.7 0.4 0 0.7 0.3 0.7 0.7z"/><path class="d" d="m267.6 64.1c0 0.2-0.2 0.4-0.4 0.4-0.3 0-0.5-0.2-0.5-0.4 0-0.3 0.2-0.5 0.5-0.5 0.2 0 0.4 0.2 0.4 0.5z"/><path class="d" d="m89.5 7.2c0 0.4-0.3 0.7-0.7 0.7-0.4 0-0.8-0.3-0.8-0.7 0-0.4 0.4-0.7 0.8-0.7 0.4 0 0.7 0.3 0.7 0.7z"/><path class="d" d="m91.3 8.7c0 0.2-0.2 0.4-0.5 0.4-0.2 0-0.4-0.2-0.4-0.4 0-0.3 0.2-0.5 0.4-0.5 0.3 0 0.5 0.2 0.5 0.5z"/><path class="d" d="m263.4 3c0 0.5-0.3 0.8-0.7 0.8-0.4 0-0.7-0.3-0.7-0.8 0-0.4 0.3-0.7 0.7-0.7 0.4 0 0.7 0.3 0.7 0.7z"/><path class="d" d="m265.2 4.5c0 0.3-0.2 0.5-0.4 0.5-0.3 0-0.5-0.2-0.5-0.5 0-0.2 0.2-0.4 0.5-0.4 0.2 0 0.4 0.2 0.4 0.4z"/><path class="d" d="m250.1 43.1c0 0.5-0.6 0.9-1.4 0.9-0.8 0-1.4-0.4-1.4-0.9 0-0.4 0.6-0.8 1.4-0.8 0.8 0 1.4 0.4 1.4 0.8z"/><path class="d" d="m177.1 79.5c0 0.4-0.6 0.8-1.4 0.8-0.7 0-1.4-0.4-1.4-0.8 0-0.5 0.7-0.9 1.4-0.9 0.8 0 1.4 0.4 1.4 0.9z"/><path class="d" d="m199.8 8.9c0 0.5-0.7 0.8-1.4 0.8-0.8 0-1.4-0.3-1.4-0.8 0-0.5 0.6-0.9 1.4-0.9 0.7 0 1.4 0.4 1.4 0.9z"/><path class="d" d="m259.9 24.4c0 0.4-0.6 0.8-1.4 0.8-0.7 0-1.4-0.4-1.4-0.8 0-0.5 0.7-0.9 1.4-0.9 0.8 0 1.4 0.4 1.4 0.9z"/><path class="d" d="m172.5 178.3c0-1.6 1.3-2.9 2.9-2.9 1.7 0 3 1.3 3 2.9 0 1.6-1.3 2.9-3 2.9-1.6 0-2.9-1.3-2.9-2.9z"/><path class="d" d="m181.9 270.4c0-0.7 0.6-1.4 1.4-1.4 0.8 0 1.4 0.7 1.4 1.4 0 0.8-0.6 1.4-1.4 1.4-0.8 0-1.4-0.6-1.4-1.4z"/><path class="d" d="m204 247.5c0-0.4 0.3-0.8 0.7-0.8 0.5 0 0.8 0.4 0.8 0.8 0 0.4-0.3 0.7-0.8 0.7-0.4 0-0.7-0.3-0.7-0.7z"/><path class="d" d="m193.5 231.6c0-0.4 0.3-0.7 0.7-0.7 0.4 0 0.8 0.3 0.8 0.7 0 0.4-0.4 0.8-0.8 0.8-0.4 0-0.7-0.4-0.7-0.8z"/><path class="d" d="m122.4 228.7c0-0.4 0.3-0.7 0.7-0.7 0.4 0 0.8 0.3 0.8 0.7 0 0.4-0.4 0.8-0.8 0.8-0.4 0-0.7-0.4-0.7-0.8z"/><path class="d" d="m129.8 253c0-0.4 0.3-0.8 0.7-0.8 0.4 0 0.7 0.4 0.7 0.8 0 0.4-0.3 0.7-0.7 0.7-0.4 0-0.7-0.3-0.7-0.7z"/><path class="d" d="m231.6 144.5c0-0.4 0.3-0.8 0.7-0.8 0.4 0 0.8 0.4 0.8 0.8 0 0.4-0.4 0.7-0.8 0.7-0.4 0-0.7-0.3-0.7-0.7z"/><path class="d" d="m183.9 142.7c0-0.6 0.5-1.1 1.1-1.1 0.6 0 1.1 0.5 1.1 1.1 0 0.6-0.5 1.1-1.1 1.1-0.6 0-1.1-0.5-1.1-1.1z"/><path class="d" d="m174.3 238.9c0-0.4 0.3-0.7 0.7-0.7 0.4 0 0.8 0.3 0.8 0.7 0 0.4-0.4 0.7-0.8 0.7-0.4 0-0.7-0.3-0.7-0.7z"/><path class="d" d="m133.2 164.3c0-0.4 0.4-0.8 0.8-0.8 0.4 0 0.7 0.4 0.7 0.8 0 0.4-0.3 0.7-0.7 0.7-0.4 0-0.8-0.3-0.8-0.7z"/><path class="d" d="m228.4 266.9c0-0.4 0.3-0.7 0.7-0.7 0.4 0 0.7 0.3 0.7 0.7 0 0.4-0.3 0.7-0.7 0.7-0.4 0-0.7-0.3-0.7-0.7z"/><path class="d" d="m202.2 246c0-0.3 0.2-0.5 0.5-0.5 0.2 0 0.4 0.2 0.4 0.5 0 0.2-0.2 0.5-0.4 0.5-0.3 0-0.5-0.3-0.5-0.5z"/><path class="d" d="m178.4 208.3c0-0.9 0.7-1.5 1.5-1.5 0.8 0 1.5 0.6 1.5 1.5 0 0.8-0.7 1.4-1.5 1.4-0.8 0-1.5-0.6-1.5-1.4z"/><path class="d" d="m125.7 223.9c0-0.4 0.4-0.7 0.8-0.7 0.4 0 0.7 0.3 0.7 0.7 0 0.4-0.3 0.8-0.7 0.8-0.4 0-0.8-0.4-0.8-0.8z"/><path class="d" d="m174.7 205.3c0-0.5 0.4-1 1-1 0.5 0 0.9 0.5 0.9 1 0 0.5-0.4 0.9-0.9 0.9-0.6 0-1-0.4-1-0.9z"/><path class="d" d="m234.9 162c0-0.4 0.3-0.7 0.7-0.7 0.4 0 0.7 0.3 0.7 0.7 0 0.4-0.3 0.8-0.7 0.8-0.4 0-0.7-0.4-0.7-0.8z"/><path class="d" d="m233.1 160.6c0-0.3 0.2-0.5 0.4-0.5 0.3 0 0.5 0.2 0.5 0.5 0 0.2-0.2 0.4-0.5 0.4-0.2 0-0.4-0.2-0.4-0.4z"/><path class="d" d="m135.8 145.2c0-0.4 0.3-0.7 0.7-0.7 0.4 0 0.7 0.3 0.7 0.7 0 0.4-0.3 0.7-0.7 0.7-0.4 0-0.7-0.3-0.7-0.7z"/><path class="d" d="m134 143.7c0-0.2 0.2-0.4 0.4-0.4 0.3 0 0.5 0.2 0.5 0.4 0 0.3-0.2 0.5-0.5 0.5-0.2 0-0.4-0.2-0.4-0.5z"/><path class="d" d="m229.4 262.4c0-0.2 0.2-0.4 0.4-0.4 0.3 0 0.5 0.2 0.5 0.5 0 0.2-0.2 0.4-0.5 0.4-0.2 0-0.4-0.2-0.4-0.4z"/><path class="d" d="m243.6 186.7c0-0.4 0.7-0.8 1.4-0.8 0.8 0 1.4 0.4 1.4 0.8 0 0.5-0.6 0.9-1.4 0.9-0.7 0-1.4-0.4-1.4-0.9z"/><path class="d" d="m237.4 244.5c0-0.4 0.6-0.8 1.4-0.8 0.8 0 1.4 0.4 1.4 0.8 0 0.5-0.6 0.9-1.4 0.9-0.8 0-1.4-0.4-1.4-0.9z"/><path class="d" d="m98 181.4c0-0.5 0.6-0.9 1.4-0.9 0.8 0 1.4 0.4 1.4 0.9 0 0.5-0.6 0.9-1.4 0.9-0.8 0-1.4-0.4-1.4-0.9z"/><path class="d" d="m97.4 152.2c0-0.5 0.6-0.8 1.4-0.8 0.8 0 1.4 0.3 1.4 0.8 0 0.5-0.6 0.9-1.4 0.9-0.8 0-1.4-0.4-1.4-0.9z"/><path class="d" d="m90.3 249.3c0-0.5 0.6-0.9 1.4-0.9 0.7 0 1.4 0.4 1.4 0.9 0 0.5-0.7 0.9-1.4 0.9-0.8 0-1.4-0.4-1.4-0.9z"/><path class="d" d="m259.4 243.9c0-0.4 0.3-0.8 0.7-0.8 0.4 0 0.7 0.4 0.7 0.8 0 0.4-0.3 0.7-0.7 0.7-0.4 0-0.7-0.3-0.7-0.7z"/><path class="d" d="m257.6 242.4c0-0.2 0.2-0.4 0.4-0.4 0.3 0 0.5 0.2 0.5 0.4 0 0.3-0.2 0.5-0.5 0.5-0.2 0-0.4-0.2-0.4-0.5z"/><path class="d" d="m204 271.3c0-0.4 0.3-0.8 0.7-0.8 0.4 0 0.7 0.4 0.7 0.8 0 0.4-0.3 0.7-0.7 0.7-0.4 0-0.7-0.3-0.7-0.7z"/><path class="d" d="m202.2 269.8c0-0.2 0.2-0.4 0.4-0.4 0.3 0 0.5 0.2 0.5 0.4 0 0.3-0.2 0.5-0.5 0.5-0.2 0-0.4-0.2-0.4-0.5z"/><path class="d" d="m142.6 268.3c0-0.4 0.3-0.7 0.7-0.7 0.5 0 0.8 0.3 0.8 0.7 0 0.4-0.3 0.7-0.8 0.7-0.4 0-0.7-0.3-0.7-0.7z"/><path class="d" d="m140.8 266.8c0-0.2 0.2-0.4 0.5-0.4 0.2 0 0.4 0.2 0.4 0.4 0 0.3-0.2 0.5-0.4 0.5-0.3 0-0.5-0.2-0.5-0.5z"/><path class="d" d="m132.7 186.3c0-0.4 0.4-0.7 0.8-0.7 0.4 0 0.7 0.3 0.7 0.7 0 0.4-0.3 0.7-0.7 0.7-0.4 0-0.8-0.3-0.8-0.7z"/><path class="d" d="m130.9 184.8c0-0.2 0.2-0.4 0.5-0.4 0.3 0 0.5 0.2 0.5 0.4 0 0.3-0.2 0.5-0.5 0.5-0.3 0-0.5-0.2-0.5-0.5z"/><path class="d" d="m130.4 203.8c0-0.4 0.4-0.7 0.8-0.7 0.4 0 0.7 0.3 0.7 0.7 0 0.4-0.3 0.8-0.7 0.8-0.4-0.1-0.8-0.4-0.8-0.8z"/><path class="d" d="m128.6 202.4c0-0.3 0.2-0.5 0.5-0.5 0.2 0 0.4 0.2 0.4 0.5 0 0.2-0.2 0.4-0.4 0.4-0.3 0-0.5-0.2-0.5-0.4z"/><path class="d" d="m265.9 200.1c0-0.4 0.4-0.8 0.8-0.8 0.4 0 0.7 0.4 0.7 0.8 0 0.4-0.3 0.7-0.7 0.7-0.4 0-0.8-0.3-0.8-0.7z"/><path class="d" d="m264.1 198.6c0-0.3 0.2-0.5 0.5-0.5 0.2 0 0.4 0.2 0.4 0.5 0 0.3-0.2 0.5-0.4 0.5-0.3 0-0.5-0.2-0.5-0.5z"/><path class="d" d="m264.9 163.9c0-0.4 0.3-0.8 0.7-0.8 0.4 0 0.7 0.4 0.7 0.8 0 0.4-0.3 0.7-0.7 0.7-0.4 0-0.7-0.3-0.7-0.7z"/><path class="d" d="m263.1 162.4c0-0.2 0.2-0.5 0.4-0.5 0.3 0 0.5 0.3 0.5 0.5 0 0.3-0.2 0.5-0.5 0.5-0.2 0-0.4-0.2-0.4-0.5z"/><path class="d" d="m169.4 154c0-0.4 0.3-0.7 0.8-0.7 0.4 0 0.7 0.3 0.7 0.7 0 0.4-0.3 0.7-0.8 0.7-0.4 0-0.7-0.3-0.7-0.7z"/><path class="d" d="m167.6 152.5c0-0.2 0.2-0.4 0.5-0.4 0.2 0 0.4 0.2 0.4 0.4 0 0.3-0.2 0.5-0.4 0.5-0.3 0-0.5-0.2-0.5-0.5z"/><path class="d" d="m95.1 209.7c0-0.4 0.3-0.7 0.7-0.7 0.5 0 0.8 0.3 0.8 0.7 0 0.4-0.3 0.8-0.8 0.8-0.4 0-0.7-0.4-0.7-0.8z"/><path class="d" d="m93.3 208.3c0-0.3 0.2-0.5 0.5-0.5 0.2 0 0.4 0.2 0.4 0.5 0 0.2-0.2 0.4-0.4 0.4-0.3 0-0.5-0.2-0.5-0.4z"/><path class="d" d="m271.4 265.1c0-0.4 0.4-0.7 0.8-0.7 0.4 0 0.7 0.3 0.7 0.7 0 0.4-0.3 0.8-0.7 0.8-0.4 0-0.8-0.4-0.8-0.8z"/><path class="d" d="m269.6 263.7c0-0.3 0.2-0.5 0.5-0.5 0.2 0 0.4 0.2 0.4 0.5 0 0.2-0.2 0.4-0.4 0.4-0.3 0-0.5-0.2-0.5-0.4z"/><path class="d" d="m97.5 269.3c0-0.4 0.3-0.7 0.7-0.7 0.4 0 0.8 0.3 0.8 0.7 0 0.4-0.4 0.7-0.8 0.7-0.4 0-0.7-0.3-0.7-0.7z"/><path class="d" d="m95.7 267.8c0-0.2 0.2-0.4 0.5-0.4 0.2 0 0.4 0.2 0.4 0.4 0 0.3-0.2 0.5-0.4 0.5-0.3 0-0.5-0.2-0.5-0.5z"/><path class="d" d="m110.8 229.2c0-0.5 0.6-0.9 1.4-0.9 0.8 0 1.4 0.4 1.4 0.9 0 0.5-0.6 0.9-1.4 0.9-0.8 0-1.4-0.4-1.4-0.9z"/><path class="d" d="m183.8 192.9c0-0.5 0.6-0.9 1.4-0.9 0.8 0 1.4 0.4 1.4 0.9 0 0.4-0.6 0.8-1.4 0.8-0.8 0-1.4-0.4-1.4-0.8z"/><path class="d" d="m161.2 263.5c0-0.5 0.6-0.9 1.4-0.9 0.7 0 1.4 0.4 1.4 0.9 0 0.4-0.7 0.8-1.4 0.8-0.8 0-1.4-0.4-1.4-0.8z"/><path class="d" d="m101 248c0-0.5 0.6-0.9 1.4-0.9 0.8 0 1.4 0.4 1.4 0.9 0 0.4-0.6 0.8-1.4 0.8-0.8 0-1.4-0.4-1.4-0.8z"/><path class="d" d="m54.1 138c1.6 0 2.9 1.3 2.9 2.9 0 1.6-1.3 2.9-2.9 2.9-1.6 0-2.9-1.3-2.9-2.9 0-1.6 1.3-2.9 2.9-2.9z"/><path class="d" d="m12.7 174.9c0.8 0 1.4 0.6 1.4 1.4 0 0.8-0.6 1.4-1.4 1.4-0.7 0-1.4-0.6-1.4-1.4 0-0.8 0.7-1.4 1.4-1.4z"/><path class="d" d="m35.7 197c0.4 0 0.7 0.3 0.7 0.7 0 0.5-0.3 0.8-0.7 0.8-0.4 0-0.7-0.3-0.7-0.8 0-0.4 0.3-0.7 0.7-0.7z"/><path class="d" d="m0.7 158.9c0.4 0 0.8 0.4 0.8 0.8 0 0.4-0.4 0.7-0.8 0.7-0.4 0-0.7-0.3-0.7-0.7 0-0.4 0.3-0.8 0.7-0.8z"/><path class="d" d="m3.6 87.8c0.4 0 0.8 0.4 0.8 0.8 0 0.4-0.4 0.7-0.8 0.7-0.4 0-0.7-0.3-0.7-0.7 0-0.4 0.3-0.8 0.7-0.8z"/><path class="d" d="m15.2 34.9c0 0.4-0.4 0.7-0.8 0.7-0.4 0-0.7-0.3-0.7-0.7 0-0.4 0.4-0.8 0.8-0.7 0.4 0 0.7 0.3 0.7 0.7z"/><path class="d" d="m87.9 197c0.4 0 0.7 0.4 0.7 0.8 0 0.4-0.3 0.7-0.7 0.7-0.4 0-0.7-0.3-0.7-0.7 0-0.4 0.3-0.8 0.7-0.8z"/><path class="d" d="m89.7 149.3c0.6 0 1.1 0.5 1.1 1.1 0 0.6-0.5 1.1-1.1 1.1-0.6 0-1.1-0.5-1.1-1.1 0-0.6 0.5-1.1 1.1-1.1z"/><path class="d" d="m4.8 139.7c0.4 0 0.7 0.4 0.7 0.8 0 0.4-0.3 0.7-0.7 0.7-0.4 0-0.7-0.3-0.7-0.7 0-0.4 0.3-0.8 0.7-0.8z"/><path class="d" d="m68.1 98.7c0.4 0 0.7 0.3 0.7 0.7 0 0.4-0.3 0.7-0.7 0.7-0.4 0-0.7-0.3-0.7-0.7 0-0.4 0.3-0.7 0.7-0.7z"/><path class="d" d="m16.3 221.4c0.4 0 0.7 0.3 0.7 0.7 0 0.4-0.3 0.7-0.7 0.7-0.4 0-0.8-0.3-0.8-0.7 0-0.4 0.4-0.7 0.8-0.7z"/><path class="d" d="m37.2 195.2c0.2 0 0.4 0.2 0.4 0.5 0 0.2-0.2 0.4-0.4 0.4-0.3 0-0.5-0.2-0.5-0.4 0-0.3 0.2-0.5 0.5-0.5z"/><path class="d" d="m24.1 143.8c0.8 0 1.5 0.7 1.5 1.5 0 0.8-0.7 1.5-1.5 1.5-0.8 0-1.5-0.7-1.5-1.5 0-0.8 0.7-1.5 1.5-1.5z"/><path class="d" d="m8.4 91.2c0.4 0 0.8 0.3 0.8 0.7 0 0.4-0.4 0.7-0.8 0.7-0.4 0-0.7-0.3-0.7-0.7 0-0.4 0.3-0.7 0.7-0.7z"/><path class="d" d="m27.1 140.2c0.5 0 0.9 0.4 0.9 0.9 0 0.5-0.4 0.9-0.9 0.9-0.5 0-0.9-0.4-0.9-0.9 0-0.5 0.4-0.9 0.9-0.9z"/><path class="d" d="m70.3 200.3c0.4 0 0.8 0.3 0.8 0.7 0 0.4-0.4 0.8-0.8 0.8-0.4 0-0.7-0.4-0.7-0.8 0-0.4 0.3-0.7 0.7-0.7z"/><path class="d" d="m71.8 198.5c0.3 0 0.5 0.2 0.5 0.5 0 0.2-0.2 0.4-0.5 0.4-0.3 0-0.5-0.2-0.5-0.4 0-0.3 0.2-0.5 0.5-0.5z"/><path class="d" d="m87.2 101.2c0.4 0 0.7 0.3 0.7 0.7 0 0.4-0.3 0.7-0.7 0.7-0.4 0-0.8-0.3-0.8-0.7 0-0.4 0.4-0.7 0.8-0.7z"/><path class="d" d="m88.6 99.4c0.3 0 0.5 0.2 0.5 0.4 0 0.3-0.2 0.5-0.5 0.5-0.2 0-0.4-0.2-0.4-0.5 0-0.2 0.2-0.4 0.4-0.4z"/><path class="d" d="m20.7 222.4c0.3 0 0.5 0.2 0.5 0.4 0 0.3-0.2 0.5-0.5 0.5-0.2 0-0.4-0.2-0.4-0.5 0-0.2 0.2-0.4 0.4-0.4z"/><path class="d" d="m45.6 209.1c0.5 0 0.9 0.6 0.9 1.4 0 0.7-0.4 1.4-0.9 1.4-0.4 0-0.8-0.7-0.8-1.4 0-0.8 0.4-1.4 0.8-1.4z"/><path class="d" d="m38.6 230.4c0.5 0 0.9 0.6 0.9 1.4 0 0.8-0.4 1.4-0.9 1.4-0.4 0-0.8-0.6-0.8-1.4 0-0.8 0.4-1.4 0.8-1.4z"/><path class="d" d="m51 63.4c0.4 0 0.8 0.7 0.8 1.4 0 0.8-0.4 1.4-0.8 1.4-0.5 0-0.9-0.6-0.9-1.4 0-0.7 0.4-1.4 0.9-1.4z"/><path class="d" d="m80.2 62.8c0.4 0 0.8 0.7 0.8 1.4 0 0.8-0.4 1.4-0.8 1.4-0.5 0-0.9-0.6-0.9-1.4 0-0.7 0.4-1.4 0.9-1.4z"/><path class="d" d="m54.5 40.4c-0.1 0.5-0.7 0.9-1.5 0.8-0.8 0-1.4-0.4-1.3-0.9 0-0.5 0.6-0.8 1.4-0.8 0.8 0.1 1.4 0.5 1.4 0.9z"/><path class="d" d="m39.3 252.4c0.4 0 0.7 0.3 0.7 0.7 0 0.4-0.3 0.7-0.7 0.7-0.4 0-0.7-0.3-0.7-0.7 0-0.4 0.3-0.7 0.7-0.7z"/><path class="d" d="m1.3 223c0.3 0 0.5 0.2 0.5 0.4 0 0.3-0.2 0.5-0.5 0.5-0.2 0-0.4-0.2-0.4-0.5 0-0.2 0.2-0.4 0.4-0.4z"/><path class="d" d="m11.9 197c0.4 0 0.7 0.3 0.7 0.7 0 0.4-0.3 0.7-0.7 0.7-0.4 0-0.7-0.3-0.7-0.7 0-0.4 0.3-0.7 0.7-0.7z"/><path class="d" d="m13.4 195.2c0.2 0 0.4 0.2 0.4 0.4 0 0.3-0.2 0.5-0.4 0.5-0.3 0-0.5-0.2-0.5-0.5 0-0.2 0.2-0.4 0.5-0.4z"/><path class="d" d="m3.1 19c-0.1 0.4-0.4 0.7-0.8 0.7-0.4 0-0.7-0.3-0.7-0.7 0-0.4 0.4-0.8 0.8-0.7 0.4 0 0.7 0.3 0.7 0.7z"/><path class="d" d="m4.8 20.6c0 0.2-0.2 0.4-0.5 0.4-0.2 0-0.4-0.2-0.4-0.5 0-0.2 0.2-0.4 0.5-0.4 0.2 0 0.4 0.2 0.4 0.5z"/><path class="d" d="m46.1 98.2c0.4 0 0.7 0.3 0.7 0.7 0 0.4-0.3 0.7-0.7 0.7-0.4 0-0.8-0.3-0.8-0.7 0-0.4 0.4-0.7 0.8-0.7z"/><path class="d" d="m47.5 96.4c0.3 0 0.5 0.2 0.5 0.4 0 0.3-0.2 0.5-0.5 0.5-0.2 0-0.4-0.2-0.4-0.5 0-0.2 0.2-0.4 0.4-0.4z"/><path class="d" d="m28.6 95.9c0.4 0 0.7 0.3 0.7 0.7 0 0.4-0.3 0.7-0.7 0.7-0.5 0-0.8-0.3-0.8-0.7 0-0.4 0.3-0.7 0.8-0.7z"/><path class="d" d="m30 94.1c0.3 0 0.5 0.2 0.5 0.4 0 0.3-0.2 0.5-0.5 0.5-0.2 0-0.4-0.2-0.4-0.5 0-0.2 0.2-0.4 0.4-0.4z"/><path class="d" d="m32.3 231.4c0.4 0 0.7 0.3 0.7 0.7 0 0.4-0.3 0.7-0.7 0.7-0.4 0-0.7-0.3-0.7-0.7 0-0.4 0.3-0.7 0.7-0.7z"/><path class="d" d="m33.8 229.6c0.2 0 0.4 0.2 0.4 0.4 0 0.3-0.2 0.5-0.4 0.5-0.3 0-0.5-0.2-0.5-0.5 0-0.2 0.2-0.4 0.5-0.4z"/><path class="d" d="m68.5 230.3c0.4 0 0.7 0.3 0.7 0.7 0 0.4-0.3 0.8-0.7 0.8-0.4 0-0.7-0.4-0.7-0.8 0-0.4 0.3-0.7 0.7-0.7z"/><path class="d" d="m70 228.5c0.2 0 0.4 0.2 0.4 0.5 0 0.2-0.2 0.4-0.4 0.4-0.3 0-0.5-0.2-0.5-0.4 0-0.3 0.2-0.5 0.5-0.5z"/><path class="d" d="m78.4 134.8c0.4 0 0.7 0.4 0.7 0.8 0 0.4-0.3 0.7-0.7 0.7-0.4 0-0.8-0.3-0.8-0.7 0-0.4 0.4-0.8 0.8-0.8z"/><path class="d" d="m79.8 133c0.3 0 0.5 0.3 0.5 0.5 0 0.3-0.2 0.5-0.5 0.5-0.2 0-0.4-0.2-0.4-0.5 0-0.2 0.2-0.5 0.4-0.5z"/><path class="d" d="m22.6 60.5c0.4 0 0.8 0.4 0.8 0.8 0 0.4-0.4 0.7-0.8 0.7-0.4 0-0.7-0.3-0.7-0.7 0-0.4 0.3-0.8 0.7-0.8z"/><path class="d" d="m24.1 58.7c0.3 0 0.5 0.3 0.5 0.5 0 0.3-0.2 0.5-0.5 0.5-0.3 0-0.5-0.2-0.5-0.5 0-0.2 0.2-0.5 0.5-0.5z"/><path class="d" d="m18 264.4c0.4 0 0.8 0.4 0.8 0.8 0 0.4-0.4 0.7-0.8 0.7-0.4 0-0.7-0.3-0.7-0.7 0-0.4 0.3-0.8 0.7-0.8z"/><path class="d" d="m19.5 262.6c0.3 0 0.5 0.2 0.5 0.5 0 0.2-0.2 0.4-0.5 0.4-0.2 0-0.5-0.2-0.5-0.4 0-0.3 0.3-0.5 0.5-0.5z"/><path class="d" d="m48.2 20.1c0 0.4-0.4 0.8-0.8 0.7-0.4 0-0.7-0.3-0.7-0.7 0-0.4 0.4-0.7 0.8-0.7 0.4 0 0.7 0.3 0.7 0.7z"/><path class="d" d="m49.9 21.7c0 0.2-0.2 0.4-0.5 0.4-0.2 0-0.4-0.2-0.4-0.5 0-0.2 0.2-0.4 0.5-0.4 0.2 0 0.4 0.2 0.4 0.5z"/><path class="d" d="m3.2 76.2c0.4 0 0.8 0.7 0.8 1.4 0 0.8-0.4 1.5-0.8 1.5-0.5 0-0.9-0.7-0.9-1.5 0-0.7 0.4-1.4 0.9-1.4z"/><path class="d" d="m39.5 149.2c0.5 0 0.9 0.6 0.9 1.4 0 0.8-0.4 1.4-0.9 1.4-0.5 0-0.9-0.6-0.9-1.4 0-0.8 0.4-1.4 0.9-1.4z"/><path class="d" d="m19.7 154.1c0.5 0 0.9 0.7 0.9 1.4 0 0.8-0.4 1.5-0.9 1.5-0.5 0-0.8-0.7-0.8-1.5 0-0.7 0.3-1.4 0.8-1.4z"/><path class="d" d="m43.7 41.3c0 0.5-0.7 0.8-1.5 0.8-0.7-0.1-1.3-0.5-1.3-1 0-0.4 0.7-0.8 1.4-0.7 0.8 0 1.4 0.4 1.4 0.9z"/></g><g style="opacity:.5"><path class="d" d="m461.4 94c0 1.6-1.3 2.9-2.9 2.9-1.6 0-2.9-1.3-2.9-2.9 0-1.6 1.3-2.9 2.9-2.9 1.6 0 2.9 1.3 2.9 2.9z"/><path class="d" d="m452 1.9c0 0.8-0.6 1.4-1.4 1.4-0.8 0-1.4-0.6-1.4-1.4 0-0.8 0.6-1.4 1.4-1.4 0.8 0 1.4 0.6 1.4 1.4z"/><path class="d" d="m429.9 24.9c0 0.4-0.3 0.7-0.7 0.7-0.4 0-0.8-0.3-0.8-0.7 0-0.4 0.4-0.7 0.8-0.7 0.4 0 0.7 0.3 0.7 0.7z"/><path class="d" d="m440.4 40.7c0 0.4-0.3 0.7-0.7 0.7-0.4 0-0.7-0.3-0.7-0.7 0-0.4 0.3-0.7 0.7-0.7 0.4 0 0.7 0.3 0.7 0.7z"/><path class="d" d="m511.5 43.6c0 0.4-0.3 0.7-0.7 0.7-0.4 0-0.7-0.3-0.7-0.7 0-0.4 0.3-0.7 0.7-0.7 0.4 0 0.7 0.3 0.7 0.7z"/><path class="d" d="m504.2 19.4c0 0.4-0.4 0.7-0.8 0.7-0.4 0-0.7-0.3-0.7-0.7 0-0.4 0.3-0.8 0.7-0.8 0.4 0 0.8 0.4 0.8 0.8z"/><path class="d" d="m402.3 127.9c0 0.4-0.3 0.7-0.7 0.7-0.4 0-0.7-0.3-0.7-0.7 0-0.4 0.3-0.8 0.7-0.8 0.4 0 0.7 0.4 0.7 0.8z"/><path class="d" d="m450 129.6c0 0.6-0.4 1.1-1.1 1.1-0.5 0-1-0.5-1-1.1 0-0.6 0.5-1 1-1 0.7 0 1.1 0.4 1.1 1z"/><path class="d" d="m459.6 33.4c0 0.4-0.3 0.8-0.7 0.8-0.4 0-0.7-0.4-0.7-0.8 0-0.4 0.3-0.7 0.7-0.7 0.4 0 0.7 0.3 0.7 0.7z"/><path class="d" d="m500.7 108.1c0 0.4-0.3 0.7-0.7 0.7-0.4 0-0.8-0.3-0.8-0.7 0-0.4 0.4-0.8 0.8-0.8 0.4 0 0.7 0.4 0.7 0.8z"/><path class="d" d="m405.5 5.4c0 0.4-0.3 0.8-0.7 0.8-0.4 0-0.7-0.4-0.7-0.8 0-0.4 0.3-0.7 0.7-0.7 0.4 0 0.7 0.3 0.7 0.7z"/><path class="d" d="m431.7 26.3c0 0.3-0.2 0.5-0.4 0.5-0.3 0-0.5-0.2-0.5-0.5 0-0.2 0.2-0.4 0.5-0.4 0.2 0 0.4 0.2 0.4 0.4z"/><path class="d" d="m455.5 64.1c0 0.8-0.6 1.5-1.5 1.5-0.8 0-1.5-0.7-1.5-1.5 0-0.8 0.7-1.5 1.5-1.5 0.9 0 1.5 0.7 1.5 1.5z"/><path class="d" d="m508.2 48.4c0 0.4-0.3 0.7-0.7 0.7-0.4 0-0.8-0.3-0.8-0.7 0-0.4 0.4-0.7 0.8-0.7 0.4 0 0.7 0.3 0.7 0.7z"/><path class="d" d="m459.2 67.1c0 0.5-0.4 0.9-0.9 0.9-0.5 0-1-0.4-1-0.9 0-0.6 0.5-1 1-1 0.5 0 0.9 0.4 0.9 1z"/><path class="d" d="m399.1 110.3c0 0.4-0.4 0.7-0.8 0.7-0.4 0-0.7-0.3-0.7-0.7 0-0.4 0.3-0.7 0.7-0.7 0.4 0 0.8 0.3 0.8 0.7z"/><path class="d" d="m400.9 111.8c0 0.2-0.2 0.4-0.5 0.4-0.3 0-0.5-0.2-0.5-0.4 0-0.3 0.3-0.5 0.5-0.5 0.3 0 0.5 0.2 0.5 0.5z"/><path class="d" d="m498.2 127.1c0 0.5-0.4 0.8-0.8 0.8-0.4 0-0.7-0.3-0.7-0.8 0-0.4 0.3-0.7 0.7-0.7 0.4 0 0.8 0.3 0.8 0.7z"/><path class="d" d="m500 128.6c0 0.3-0.2 0.5-0.5 0.5-0.2 0-0.4-0.2-0.4-0.5 0-0.2 0.2-0.4 0.4-0.4 0.3 0 0.5 0.2 0.5 0.4z"/><path class="d" d="m404.5 9.9c0 0.2-0.2 0.5-0.4 0.5-0.3 0-0.5-0.3-0.5-0.5 0-0.3 0.2-0.5 0.5-0.5 0.2 0 0.4 0.2 0.4 0.5z"/><path class="d" d="m390.3 85.6c0 0.5-0.6 0.9-1.4 0.9-0.8 0-1.4-0.4-1.4-0.9 0-0.5 0.6-0.8 1.4-0.8 0.8 0 1.4 0.3 1.4 0.8z"/><path class="d" d="m396.5 27.8c0 0.5-0.6 0.9-1.4 0.9-0.7 0-1.4-0.4-1.4-0.9 0-0.5 0.7-0.9 1.4-0.9 0.8 0 1.4 0.4 1.4 0.9z"/><path class="d" d="m535.9 90.9c0 0.5-0.6 0.9-1.4 0.9-0.8 0-1.4-0.4-1.4-0.9 0-0.4 0.6-0.8 1.4-0.8 0.8 0 1.4 0.4 1.4 0.8z"/><path class="d" d="m536.5 120.1c0 0.5-0.6 0.9-1.4 0.9-0.8 0-1.4-0.4-1.4-0.9 0-0.4 0.6-0.8 1.4-0.8 0.8 0 1.4 0.4 1.4 0.8z"/><path class="d" d="m543.7 23c0 0.5-0.7 0.9-1.4 0.9-0.8 0-1.4-0.4-1.4-0.9 0-0.4 0.6-0.8 1.4-0.8 0.7 0 1.4 0.4 1.4 0.8z"/><path class="d" d="m374.6 28.5c0 0.4-0.4 0.7-0.8 0.7-0.4 0-0.7-0.3-0.7-0.7 0-0.4 0.3-0.8 0.7-0.8 0.4 0 0.8 0.4 0.8 0.8z"/><path class="d" d="m376.4 29.9c0 0.3-0.2 0.5-0.5 0.5-0.2 0-0.5-0.2-0.5-0.5 0-0.2 0.3-0.4 0.5-0.4 0.3 0 0.5 0.2 0.5 0.4z"/><path class="d" d="m430 1.1c0 0.4-0.4 0.7-0.8 0.7-0.4 0-0.7-0.3-0.7-0.7 0-0.4 0.3-0.8 0.7-0.8 0.4 0 0.8 0.4 0.8 0.8z"/><path class="d" d="m431.8 2.5c0 0.3-0.2 0.5-0.5 0.5-0.3 0-0.5-0.2-0.5-0.5 0-0.2 0.2-0.4 0.5-0.4 0.3 0 0.5 0.2 0.5 0.4z"/><path class="d" d="m491.3 4.1c0 0.4-0.3 0.7-0.7 0.7-0.4 0-0.7-0.3-0.7-0.7 0-0.5 0.3-0.8 0.7-0.8 0.4 0 0.7 0.3 0.7 0.8z"/><path class="d" d="m493.1 5.5c0 0.3-0.2 0.5-0.4 0.5-0.3 0-0.5-0.2-0.5-0.5 0-0.2 0.2-0.4 0.5-0.4 0.2 0 0.4 0.2 0.4 0.4z"/><path class="d" d="m501.2 86c0 0.4-0.3 0.8-0.8 0.8-0.4 0-0.7-0.4-0.7-0.8 0-0.4 0.3-0.7 0.8-0.7 0.4 0 0.7 0.3 0.7 0.7z"/><path class="d" d="m503 87.5c0 0.3-0.2 0.5-0.5 0.5-0.2 0-0.4-0.2-0.4-0.5 0-0.2 0.2-0.5 0.4-0.5 0.3 0 0.5 0.3 0.5 0.5z"/><path class="d" d="m503.5 68.5c0 0.4-0.3 0.8-0.7 0.8-0.4 0-0.8-0.4-0.8-0.8 0-0.4 0.4-0.7 0.8-0.7 0.4 0 0.7 0.3 0.7 0.7z"/><path class="d" d="m505.3 70c0 0.2-0.2 0.4-0.5 0.4-0.2 0-0.4-0.2-0.4-0.4 0-0.3 0.2-0.5 0.4-0.5 0.3 0 0.5 0.2 0.5 0.5z"/><path class="d" d="m368 72.3c0 0.4-0.3 0.7-0.7 0.7-0.4 0-0.8-0.3-0.8-0.7 0-0.4 0.4-0.7 0.8-0.7 0.4 0 0.7 0.3 0.7 0.7z"/><path class="d" d="m369.8 73.7c0 0.3-0.2 0.5-0.5 0.5-0.2 0-0.4-0.2-0.4-0.5 0-0.2 0.2-0.4 0.4-0.4 0.3 0 0.5 0.2 0.5 0.4z"/><path class="d" d="m369 108.5c0 0.4-0.3 0.7-0.7 0.7-0.4 0-0.7-0.3-0.7-0.7 0-0.4 0.3-0.8 0.7-0.8 0.4 0.1 0.7 0.4 0.7 0.8z"/><path class="d" d="m370.8 109.9c0 0.3-0.2 0.5-0.4 0.5-0.3 0-0.5-0.2-0.5-0.5 0-0.2 0.2-0.4 0.5-0.4 0.2 0 0.4 0.2 0.4 0.4z"/><path class="d" d="m464.5 118.3c0 0.4-0.3 0.8-0.7 0.8-0.4 0-0.8-0.4-0.8-0.8 0-0.4 0.4-0.7 0.8-0.7 0.4 0 0.7 0.3 0.7 0.7z"/><path class="d" d="m466.3 119.8c0 0.3-0.2 0.5-0.4 0.5-0.3 0-0.5-0.2-0.5-0.5 0-0.3 0.2-0.5 0.5-0.5 0.2 0 0.4 0.2 0.4 0.5z"/><path class="d" d="m538.8 62.6c0 0.4-0.3 0.7-0.7 0.7-0.4 0-0.8-0.3-0.8-0.7 0-0.4 0.4-0.7 0.8-0.7 0.4 0 0.7 0.3 0.7 0.7z"/><path class="d" d="m540.6 64.1c0 0.2-0.2 0.4-0.4 0.4-0.3 0-0.5-0.2-0.5-0.4 0-0.3 0.2-0.5 0.5-0.5 0.2 0 0.4 0.2 0.4 0.5z"/><path class="d" d="m362.5 7.2c0 0.4-0.3 0.7-0.7 0.7-0.4 0-0.8-0.3-0.8-0.7 0-0.4 0.4-0.7 0.8-0.7 0.4 0 0.7 0.3 0.7 0.7z"/><path class="d" d="m364.3 8.7c0 0.2-0.2 0.4-0.5 0.4-0.2 0-0.4-0.2-0.4-0.4 0-0.3 0.2-0.5 0.4-0.5 0.3 0 0.5 0.2 0.5 0.5z"/><path class="d" d="m536.4 3c0 0.5-0.3 0.8-0.7 0.8-0.4 0-0.7-0.3-0.7-0.8 0-0.4 0.3-0.7 0.7-0.7 0.4 0 0.7 0.3 0.7 0.7z"/><path class="d" d="m538.2 4.5c0 0.3-0.2 0.5-0.4 0.5-0.3 0-0.5-0.2-0.5-0.5 0-0.2 0.2-0.4 0.5-0.4 0.2 0 0.4 0.2 0.4 0.4z"/><path class="d" d="m523.1 43.1c0 0.5-0.6 0.9-1.4 0.9-0.8 0-1.4-0.4-1.4-0.9 0-0.4 0.6-0.8 1.4-0.8 0.8 0 1.4 0.4 1.4 0.8z"/><path class="d" d="m450.1 79.5c0 0.4-0.6 0.8-1.4 0.8-0.7 0-1.4-0.4-1.4-0.8 0-0.5 0.7-0.9 1.4-0.9 0.8 0 1.4 0.4 1.4 0.9z"/><path class="d" d="m472.8 8.9c0 0.5-0.7 0.8-1.4 0.8-0.8 0-1.4-0.3-1.4-0.8 0-0.5 0.6-0.9 1.4-0.9 0.7 0 1.4 0.4 1.4 0.9z"/><path class="d" d="m532.9 24.4c0 0.4-0.6 0.8-1.4 0.8-0.7 0-1.4-0.4-1.4-0.8 0-0.5 0.7-0.9 1.4-0.9 0.8 0 1.4 0.4 1.4 0.9z"/><path class="d" d="m445.5 178.3c0-1.6 1.3-2.9 2.9-2.9 1.7 0 3 1.3 3 2.9 0 1.6-1.3 2.9-3 2.9-1.6 0-2.9-1.3-2.9-2.9z"/><path class="d" d="m454.9 270.4c0-0.7 0.6-1.4 1.4-1.4 0.8 0 1.4 0.7 1.4 1.4 0 0.8-0.6 1.4-1.4 1.4-0.8 0-1.4-0.6-1.4-1.4z"/><path class="d" d="m477 247.5c0-0.4 0.3-0.8 0.7-0.8 0.5 0 0.8 0.4 0.8 0.8 0 0.4-0.3 0.7-0.8 0.7-0.4 0-0.7-0.3-0.7-0.7z"/><path class="d" d="m466.5 231.6c0-0.4 0.3-0.7 0.7-0.7 0.4 0 0.8 0.3 0.8 0.7 0 0.4-0.4 0.8-0.8 0.8-0.4 0-0.7-0.4-0.7-0.8z"/><path class="d" d="m395.4 228.7c0-0.4 0.3-0.7 0.7-0.7 0.4 0 0.8 0.3 0.8 0.7 0 0.4-0.4 0.8-0.8 0.8-0.4 0-0.7-0.4-0.7-0.8z"/><path class="d" d="m402.8 253c0-0.4 0.3-0.8 0.7-0.8 0.4 0 0.7 0.4 0.7 0.8 0 0.4-0.3 0.7-0.7 0.7-0.4 0-0.7-0.3-0.7-0.7z"/><path class="d" d="m504.6 144.5c0-0.4 0.3-0.8 0.7-0.8 0.4 0 0.8 0.4 0.8 0.8 0 0.4-0.4 0.7-0.8 0.7-0.4 0-0.7-0.3-0.7-0.7z"/><path class="d" d="m456.9 142.7c0-0.6 0.5-1.1 1.1-1.1 0.6 0 1.1 0.5 1.1 1.1 0 0.6-0.5 1.1-1.1 1.1-0.6 0-1.1-0.5-1.1-1.1z"/><path class="d" d="m447.3 238.9c0-0.4 0.3-0.7 0.7-0.7 0.4 0 0.8 0.3 0.8 0.7 0 0.4-0.4 0.7-0.8 0.7-0.4 0-0.7-0.3-0.7-0.7z"/><path class="d" d="m406.2 164.3c0-0.4 0.4-0.8 0.8-0.8 0.4 0 0.7 0.4 0.7 0.8 0 0.4-0.3 0.7-0.7 0.7-0.4 0-0.8-0.3-0.8-0.7z"/><path class="d" d="m501.4 266.9c0-0.4 0.3-0.7 0.7-0.7 0.4 0 0.7 0.3 0.7 0.7 0 0.4-0.3 0.7-0.7 0.7-0.4 0-0.7-0.3-0.7-0.7z"/><path class="d" d="m475.2 246c0-0.3 0.2-0.5 0.5-0.5 0.2 0 0.4 0.2 0.4 0.5 0 0.2-0.2 0.5-0.4 0.5-0.3 0-0.5-0.3-0.5-0.5z"/><path class="d" d="m451.4 208.3c0-0.9 0.7-1.5 1.5-1.5 0.8 0 1.5 0.6 1.5 1.5 0 0.8-0.7 1.4-1.5 1.4-0.8 0-1.5-0.6-1.5-1.4z"/><path class="d" d="m398.7 223.9c0-0.4 0.4-0.7 0.8-0.7 0.4 0 0.7 0.3 0.7 0.7 0 0.4-0.3 0.8-0.7 0.8-0.4 0-0.8-0.4-0.8-0.8z"/><path class="d" d="m447.7 205.3c0-0.5 0.4-1 1-1 0.5 0 0.9 0.5 0.9 1 0 0.5-0.4 0.9-0.9 0.9-0.6 0-1-0.4-1-0.9z"/><path class="d" d="m507.9 162c0-0.4 0.3-0.7 0.7-0.7 0.4 0 0.7 0.3 0.7 0.7 0 0.4-0.3 0.8-0.7 0.8-0.4 0-0.7-0.4-0.7-0.8z"/><path class="d" d="m506.1 160.6c0-0.3 0.2-0.5 0.4-0.5 0.3 0 0.5 0.2 0.5 0.5 0 0.2-0.2 0.4-0.5 0.4-0.2 0-0.4-0.2-0.4-0.4z"/><path class="d" d="m408.8 145.2c0-0.4 0.3-0.7 0.7-0.7 0.4 0 0.7 0.3 0.7 0.7 0 0.4-0.3 0.7-0.7 0.7-0.4 0-0.7-0.3-0.7-0.7z"/><path class="d" d="m407 143.7c0-0.2 0.2-0.4 0.4-0.4 0.3 0 0.5 0.2 0.5 0.4 0 0.3-0.2 0.5-0.5 0.5-0.2 0-0.4-0.2-0.4-0.5z"/><path class="d" d="m502.4 262.4c0-0.2 0.2-0.4 0.4-0.4 0.3 0 0.5 0.2 0.5 0.5 0 0.2-0.2 0.4-0.5 0.4-0.2 0-0.4-0.2-0.4-0.4z"/><path class="d" d="m516.6 186.7c0-0.4 0.7-0.8 1.4-0.8 0.8 0 1.4 0.4 1.4 0.8 0 0.5-0.6 0.9-1.4 0.9-0.7 0-1.4-0.4-1.4-0.9z"/><path class="d" d="m510.4 244.5c0-0.4 0.6-0.8 1.4-0.8 0.8 0 1.4 0.4 1.4 0.8 0 0.5-0.6 0.9-1.4 0.9-0.8 0-1.4-0.4-1.4-0.9z"/><path class="d" d="m371 181.4c0-0.5 0.6-0.9 1.4-0.9 0.8 0 1.4 0.4 1.4 0.9 0 0.5-0.6 0.9-1.4 0.9-0.8 0-1.4-0.4-1.4-0.9z"/><path class="d" d="m370.4 152.2c0-0.5 0.6-0.8 1.4-0.8 0.8 0 1.4 0.3 1.4 0.8 0 0.5-0.6 0.9-1.4 0.9-0.8 0-1.4-0.4-1.4-0.9z"/><path class="d" d="m363.3 249.3c0-0.5 0.6-0.9 1.4-0.9 0.7 0 1.4 0.4 1.4 0.9 0 0.5-0.7 0.9-1.4 0.9-0.8 0-1.4-0.4-1.4-0.9z"/><path class="d" d="m532.4 243.9c0-0.4 0.3-0.8 0.7-0.8 0.4 0 0.7 0.4 0.7 0.8 0 0.4-0.3 0.7-0.7 0.7-0.4 0-0.7-0.3-0.7-0.7z"/><path class="d" d="m530.6 242.4c0-0.2 0.2-0.4 0.4-0.4 0.3 0 0.5 0.2 0.5 0.4 0 0.3-0.2 0.5-0.5 0.5-0.2 0-0.4-0.2-0.4-0.5z"/><path class="d" d="m477 271.3c0-0.4 0.3-0.8 0.7-0.8 0.4 0 0.7 0.4 0.7 0.8 0 0.4-0.3 0.7-0.7 0.7-0.4 0-0.7-0.3-0.7-0.7z"/><path class="d" d="m475.2 269.8c0-0.2 0.2-0.4 0.4-0.4 0.3 0 0.5 0.2 0.5 0.4 0 0.3-0.2 0.5-0.5 0.5-0.2 0-0.4-0.2-0.4-0.5z"/><path class="d" d="m415.6 268.3c0-0.4 0.3-0.7 0.7-0.7 0.5 0 0.8 0.3 0.8 0.7 0 0.4-0.3 0.7-0.8 0.7-0.4 0-0.7-0.3-0.7-0.7z"/><path class="d" d="m413.8 266.8c0-0.2 0.2-0.4 0.5-0.4 0.2 0 0.4 0.2 0.4 0.4 0 0.3-0.2 0.5-0.4 0.5-0.3 0-0.5-0.2-0.5-0.5z"/><path class="d" d="m405.7 186.3c0-0.4 0.4-0.7 0.8-0.7 0.4 0 0.7 0.3 0.7 0.7 0 0.4-0.3 0.7-0.7 0.7-0.4 0-0.8-0.3-0.8-0.7z"/><path class="d" d="m403.9 184.8c0-0.2 0.2-0.4 0.5-0.4 0.3 0 0.5 0.2 0.5 0.4 0 0.3-0.2 0.5-0.5 0.5-0.3 0-0.5-0.2-0.5-0.5z"/><path class="d" d="m403.4 203.8c0-0.4 0.4-0.7 0.8-0.7 0.4 0 0.7 0.3 0.7 0.7 0 0.4-0.3 0.8-0.7 0.8-0.4-0.1-0.8-0.4-0.8-0.8z"/><path class="d" d="m401.6 202.4c0-0.3 0.2-0.5 0.5-0.5 0.2 0 0.4 0.2 0.4 0.5 0 0.2-0.2 0.4-0.4 0.4-0.3 0-0.5-0.2-0.5-0.4z"/><path class="d" d="m538.9 200.1c0-0.4 0.4-0.8 0.8-0.8 0.4 0 0.7 0.4 0.7 0.8 0 0.4-0.3 0.7-0.7 0.7-0.4 0-0.8-0.3-0.8-0.7z"/><path class="d" d="m537.1 198.6c0-0.3 0.2-0.5 0.5-0.5 0.2 0 0.4 0.2 0.4 0.5 0 0.3-0.2 0.5-0.4 0.5-0.3 0-0.5-0.2-0.5-0.5z"/><path class="d" d="m537.9 163.9c0-0.4 0.3-0.8 0.7-0.8 0.4 0 0.7 0.4 0.7 0.8 0 0.4-0.3 0.7-0.7 0.7-0.4 0-0.7-0.3-0.7-0.7z"/><path class="d" d="m536.1 162.4c0-0.2 0.2-0.5 0.4-0.5 0.3 0 0.5 0.3 0.5 0.5 0 0.3-0.2 0.5-0.5 0.5-0.2 0-0.4-0.2-0.4-0.5z"/><path class="d" d="m442.4 154c0-0.4 0.3-0.7 0.8-0.7 0.4 0 0.7 0.3 0.7 0.7 0 0.4-0.3 0.7-0.8 0.7-0.4 0-0.7-0.3-0.7-0.7z"/><path class="d" d="m440.6 152.5c0-0.2 0.2-0.4 0.5-0.4 0.2 0 0.4 0.2 0.4 0.4 0 0.3-0.2 0.5-0.4 0.5-0.3 0-0.5-0.2-0.5-0.5z"/><path class="d" d="m368.1 209.7c0-0.4 0.3-0.7 0.7-0.7 0.5 0 0.8 0.3 0.8 0.7 0 0.4-0.3 0.8-0.8 0.8-0.4 0-0.7-0.4-0.7-0.8z"/><path class="d" d="m366.3 208.3c0-0.3 0.2-0.5 0.5-0.5 0.2 0 0.4 0.2 0.4 0.5 0 0.2-0.2 0.4-0.4 0.4-0.3 0-0.5-0.2-0.5-0.4z"/><path class="d" d="m544.4 265.1c0-0.4 0.4-0.7 0.8-0.7 0.4 0 0.7 0.3 0.7 0.7 0 0.4-0.3 0.8-0.7 0.8-0.4 0-0.8-0.4-0.8-0.8z"/><path class="d" d="m542.6 263.7c0-0.3 0.2-0.5 0.5-0.5 0.2 0 0.4 0.2 0.4 0.5 0 0.2-0.2 0.4-0.4 0.4-0.3 0-0.5-0.2-0.5-0.4z"/><path class="d" d="m370.5 269.3c0-0.4 0.3-0.7 0.7-0.7 0.4 0 0.8 0.3 0.8 0.7 0 0.4-0.4 0.7-0.8 0.7-0.4 0-0.7-0.3-0.7-0.7z"/><path class="d" d="m368.7 267.8c0-0.2 0.2-0.4 0.5-0.4 0.2 0 0.4 0.2 0.4 0.4 0 0.3-0.2 0.5-0.4 0.5-0.3 0-0.5-0.2-0.5-0.5z"/><path class="d" d="m383.8 229.2c0-0.5 0.6-0.9 1.4-0.9 0.8 0 1.4 0.4 1.4 0.9 0 0.5-0.6 0.9-1.4 0.9-0.8 0-1.4-0.4-1.4-0.9z"/><path class="d" d="m456.8 192.9c0-0.5 0.6-0.9 1.4-0.9 0.8 0 1.4 0.4 1.4 0.9 0 0.4-0.6 0.8-1.4 0.8-0.8 0-1.4-0.4-1.4-0.8z"/><path class="d" d="m434.1 263.5c0-0.5 0.7-0.9 1.5-0.9 0.7 0 1.4 0.4 1.4 0.9 0 0.4-0.7 0.8-1.4 0.8-0.8 0-1.5-0.4-1.5-0.8z"/><path class="d" d="m374 248c0-0.5 0.6-0.9 1.4-0.9 0.8 0 1.4 0.4 1.4 0.9 0 0.4-0.6 0.8-1.4 0.8-0.8 0-1.4-0.4-1.4-0.8z"/><path class="d" d="m327.1 138c1.6 0 2.9 1.3 2.9 2.9 0 1.6-1.3 2.9-2.9 2.9-1.6 0-2.9-1.3-2.9-2.9 0-1.6 1.3-2.9 2.9-2.9z"/><path class="d" d="m285.7 174.9c0.8 0 1.4 0.6 1.4 1.4 0 0.8-0.6 1.4-1.4 1.4-0.7 0-1.4-0.6-1.4-1.4 0-0.8 0.7-1.4 1.4-1.4z"/><path class="d" d="m308.7 197c0.4 0 0.7 0.3 0.7 0.7 0 0.5-0.3 0.8-0.7 0.8-0.4 0-0.7-0.3-0.7-0.8 0-0.4 0.3-0.7 0.7-0.7z"/><path class="d" d="m273.7 158.9c0.4 0 0.8 0.4 0.8 0.8 0 0.4-0.4 0.7-0.8 0.7-0.4 0-0.7-0.3-0.7-0.7 0-0.4 0.3-0.8 0.7-0.8z"/><path class="d" d="m276.6 87.8c0.4 0 0.8 0.4 0.8 0.8 0 0.4-0.4 0.7-0.8 0.7-0.4 0-0.7-0.3-0.7-0.7 0-0.4 0.3-0.8 0.7-0.8z"/><path class="d" d="m288.2 34.9c0 0.4-0.4 0.7-0.8 0.7-0.4 0-0.7-0.3-0.7-0.7 0-0.4 0.4-0.8 0.8-0.7 0.4 0 0.7 0.3 0.7 0.7z"/><path class="d" d="m360.9 197c0.4 0 0.7 0.4 0.7 0.8 0 0.4-0.3 0.7-0.7 0.7-0.4 0-0.7-0.3-0.7-0.7 0-0.4 0.3-0.8 0.7-0.8z"/><path class="d" d="m362.7 149.3c0.6 0 1.1 0.5 1.1 1.1 0 0.6-0.5 1.1-1.1 1.1-0.6 0-1.1-0.5-1.1-1.1 0-0.6 0.5-1.1 1.1-1.1z"/><path class="d" d="m277.8 139.7c0.4 0 0.7 0.4 0.7 0.8 0 0.4-0.3 0.7-0.7 0.7-0.4 0-0.7-0.3-0.7-0.7 0-0.4 0.3-0.8 0.7-0.8z"/><path class="d" d="m341.1 98.7c0.4 0 0.7 0.3 0.7 0.7 0 0.4-0.3 0.7-0.7 0.7-0.4 0-0.7-0.3-0.7-0.7 0-0.4 0.3-0.7 0.7-0.7z"/><path class="d" d="m289.3 221.4c0.4 0 0.7 0.3 0.7 0.7 0 0.4-0.3 0.7-0.7 0.7-0.4 0-0.8-0.3-0.8-0.7 0-0.4 0.4-0.7 0.8-0.7z"/><path class="d" d="m310.2 195.2c0.2 0 0.4 0.2 0.4 0.5 0 0.2-0.2 0.4-0.4 0.4-0.3 0-0.5-0.2-0.5-0.4 0-0.3 0.2-0.5 0.5-0.5z"/><path class="d" d="m297.1 143.8c0.8 0 1.5 0.7 1.5 1.5 0 0.8-0.7 1.5-1.5 1.5-0.8 0-1.5-0.7-1.5-1.5 0-0.8 0.7-1.5 1.5-1.5z"/><path class="d" d="m281.4 91.2c0.4 0 0.8 0.3 0.8 0.7 0 0.4-0.4 0.7-0.8 0.7-0.4 0-0.7-0.3-0.7-0.7 0-0.4 0.3-0.7 0.7-0.7z"/><path class="d" d="m300.1 140.2c0.5 0 0.9 0.4 0.9 0.9 0 0.5-0.4 0.9-0.9 0.9-0.5 0-0.9-0.4-0.9-0.9 0-0.5 0.4-0.9 0.9-0.9z"/><path class="d" d="m343.3 200.3c0.4 0 0.8 0.3 0.8 0.7 0 0.4-0.4 0.8-0.8 0.8-0.4 0-0.7-0.4-0.7-0.8 0-0.4 0.3-0.7 0.7-0.7z"/><path class="d" d="m344.8 198.5c0.3 0 0.5 0.2 0.5 0.5 0 0.2-0.2 0.4-0.5 0.4-0.3 0-0.5-0.2-0.5-0.4 0-0.3 0.2-0.5 0.5-0.5z"/><path class="d" d="m360.2 101.2c0.4 0 0.7 0.3 0.7 0.7 0 0.4-0.3 0.7-0.7 0.7-0.4 0-0.8-0.3-0.8-0.7 0-0.4 0.4-0.7 0.8-0.7z"/><path class="d" d="m361.6 99.4c0.3 0 0.5 0.2 0.5 0.4 0 0.3-0.2 0.5-0.5 0.5-0.2 0-0.4-0.2-0.4-0.5 0-0.2 0.2-0.4 0.4-0.4z"/><path class="d" d="m293.7 222.4c0.3 0 0.5 0.2 0.5 0.4 0 0.3-0.2 0.5-0.5 0.5-0.2 0-0.4-0.2-0.4-0.5 0-0.2 0.2-0.4 0.4-0.4z"/><path class="d" d="m318.6 209.1c0.5 0 0.9 0.6 0.9 1.4 0 0.7-0.4 1.4-0.9 1.4-0.4 0-0.8-0.7-0.8-1.4 0-0.8 0.4-1.4 0.8-1.4z"/><path class="d" d="m311.6 230.4c0.5 0 0.9 0.6 0.9 1.4 0 0.8-0.4 1.4-0.9 1.4-0.4 0-0.8-0.6-0.8-1.4 0-0.8 0.4-1.4 0.8-1.4z"/><path class="d" d="m324 63.4c0.4 0 0.8 0.7 0.8 1.4 0 0.8-0.4 1.4-0.8 1.4-0.5 0-0.9-0.6-0.9-1.4 0-0.7 0.4-1.4 0.9-1.4z"/><path class="d" d="m353.2 62.8c0.4 0 0.8 0.7 0.8 1.4 0 0.8-0.4 1.4-0.8 1.4-0.5 0-0.9-0.6-0.9-1.4 0-0.7 0.4-1.4 0.9-1.4z"/><path class="d" d="m327.5 40.4c-0.1 0.5-0.7 0.9-1.5 0.8-0.8 0-1.4-0.4-1.3-0.9 0-0.5 0.6-0.8 1.4-0.8 0.8 0.1 1.4 0.5 1.4 0.9z"/><path class="d" d="m312.3 252.4c0.4 0 0.7 0.3 0.7 0.7 0 0.4-0.3 0.7-0.7 0.7-0.4 0-0.7-0.3-0.7-0.7 0-0.4 0.3-0.7 0.7-0.7z"/><path class="d" d="m274.3 223c0.3 0 0.5 0.2 0.5 0.4 0 0.3-0.2 0.5-0.5 0.5-0.2 0-0.4-0.2-0.4-0.5 0-0.2 0.2-0.4 0.4-0.4z"/><path class="d" d="m284.9 197c0.4 0 0.7 0.3 0.7 0.7 0 0.4-0.3 0.7-0.7 0.7-0.4 0-0.7-0.3-0.7-0.7 0-0.4 0.3-0.7 0.7-0.7z"/><path class="d" d="m286.4 195.2c0.2 0 0.4 0.2 0.4 0.4 0 0.3-0.2 0.5-0.4 0.5-0.3 0-0.5-0.2-0.5-0.5 0-0.2 0.2-0.4 0.5-0.4z"/><path class="d" d="m276.1 19c-0.1 0.4-0.4 0.7-0.8 0.7-0.4 0-0.7-0.3-0.7-0.7 0-0.4 0.4-0.8 0.8-0.7 0.4 0 0.7 0.3 0.7 0.7z"/><path class="d" d="m277.8 20.6c0 0.2-0.2 0.4-0.5 0.4-0.2 0-0.4-0.2-0.4-0.5 0-0.2 0.2-0.4 0.5-0.4 0.2 0 0.4 0.2 0.4 0.5z"/><path class="d" d="m319.1 98.2c0.4 0 0.7 0.3 0.7 0.7 0 0.4-0.3 0.7-0.7 0.7-0.4 0-0.8-0.3-0.8-0.7 0-0.4 0.4-0.7 0.8-0.7z"/><path class="d" d="m320.5 96.4c0.3 0 0.5 0.2 0.5 0.4 0 0.3-0.2 0.5-0.5 0.5-0.2 0-0.4-0.2-0.4-0.5 0-0.2 0.2-0.4 0.4-0.4z"/><path class="d" d="m301.6 95.9c0.4 0 0.7 0.3 0.7 0.7 0 0.4-0.3 0.7-0.7 0.7-0.5 0-0.8-0.3-0.8-0.7 0-0.4 0.3-0.7 0.8-0.7z"/><path class="d" d="m303 94.1c0.3 0 0.5 0.2 0.5 0.4 0 0.3-0.2 0.5-0.5 0.5-0.2 0-0.4-0.2-0.4-0.5 0-0.2 0.2-0.4 0.4-0.4z"/><path class="d" d="m305.3 231.4c0.4 0 0.7 0.3 0.7 0.7 0 0.4-0.3 0.7-0.7 0.7-0.4 0-0.7-0.3-0.7-0.7 0-0.4 0.3-0.7 0.7-0.7z"/><path class="d" d="m306.8 229.6c0.2 0 0.4 0.2 0.4 0.4 0 0.3-0.2 0.5-0.4 0.5-0.3 0-0.5-0.2-0.5-0.5 0-0.2 0.2-0.4 0.5-0.4z"/><path class="d" d="m341.5 230.3c0.4 0 0.7 0.3 0.7 0.7 0 0.4-0.3 0.8-0.7 0.8-0.4 0-0.7-0.4-0.7-0.8 0-0.4 0.3-0.7 0.7-0.7z"/><path class="d" d="m343 228.5c0.2 0 0.4 0.2 0.4 0.5 0 0.2-0.2 0.4-0.4 0.4-0.3 0-0.5-0.2-0.5-0.4 0-0.3 0.2-0.5 0.5-0.5z"/><path class="d" d="m351.4 134.8c0.4 0 0.7 0.4 0.7 0.8 0 0.4-0.3 0.7-0.7 0.7-0.4 0-0.8-0.3-0.8-0.7 0-0.4 0.4-0.8 0.8-0.8z"/><path class="d" d="m352.8 133c0.3 0 0.5 0.3 0.5 0.5 0 0.3-0.2 0.5-0.5 0.5-0.2 0-0.4-0.2-0.4-0.5 0-0.2 0.2-0.5 0.4-0.5z"/><path class="d" d="m295.6 60.5c0.4 0 0.8 0.4 0.8 0.8 0 0.4-0.4 0.7-0.8 0.7-0.4 0-0.7-0.3-0.7-0.7 0-0.4 0.3-0.8 0.7-0.8z"/><path class="d" d="m297.1 58.7c0.3 0 0.5 0.3 0.5 0.5 0 0.3-0.2 0.5-0.5 0.5-0.3 0-0.5-0.2-0.5-0.5 0-0.2 0.3-0.5 0.5-0.5z"/><path class="d" d="m291 264.4c0.4 0 0.8 0.4 0.8 0.8 0 0.4-0.4 0.7-0.8 0.7-0.4 0-0.7-0.3-0.7-0.7 0-0.4 0.3-0.8 0.7-0.8z"/><path class="d" d="m292.5 262.6c0.3 0 0.5 0.2 0.5 0.5 0 0.2-0.2 0.4-0.5 0.4-0.2 0-0.5-0.2-0.5-0.4 0-0.3 0.3-0.5 0.5-0.5z"/><path class="d" d="m321.2 20.1c0 0.4-0.4 0.8-0.8 0.7-0.4 0-0.7-0.3-0.7-0.7 0-0.4 0.4-0.7 0.8-0.7 0.4 0 0.7 0.3 0.7 0.7z"/><path class="d" d="m322.9 21.7c0 0.2-0.2 0.4-0.5 0.4-0.2 0-0.4-0.2-0.4-0.5 0-0.2 0.2-0.4 0.5-0.4 0.2 0 0.4 0.2 0.4 0.5z"/><path class="d" d="m276.2 76.2c0.4 0 0.8 0.7 0.8 1.4 0 0.8-0.4 1.5-0.8 1.5-0.5 0-0.9-0.7-0.9-1.5 0-0.7 0.4-1.4 0.9-1.4z"/><path class="d" d="m312.5 149.2c0.5 0 0.9 0.6 0.9 1.4 0 0.8-0.4 1.4-0.9 1.4-0.5 0-0.9-0.6-0.9-1.4 0-0.8 0.4-1.4 0.9-1.4z"/><path class="d" d="m292.7 154.1c0.5 0 0.9 0.7 0.9 1.4 0 0.8-0.4 1.5-0.9 1.5-0.5 0-0.8-0.7-0.8-1.5 0-0.7 0.3-1.4 0.8-1.4z"/><path class="d" d="m316.7 41.3c0 0.5-0.7 0.8-1.4 0.8-0.8-0.1-1.4-0.5-1.4-1 0-0.4 0.7-0.8 1.4-0.7 0.8 0 1.4 0.4 1.4 0.9z"/></g></g><path class="e" d="m70.2 47.2c-1.4-3.7-3.9-6.8-7-9q-0.8-0.6-1.6-1.1c-2-1.1-4.2-2-6.6-2.4-2.3-0.4-4.7-0.4-7.1 0-9.5 1.8-16.2 10-16.4 19.3q0 0.9 0 1.9 0.1 1.1 0.3 2.2c0.6 3.2 1.9 6.1 3.8 8.5q0.2 0.2 0.3 0.4c1.5 1.9 3.4 3.5 5.5 4.8 4 2.3 8.9 3.3 13.8 2.3 9.5-1.7 16.2-9.9 16.4-19.2q0-2-0.4-4.1-0.3-1.9-1-3.6z"/><path class="f" d="m52 64.4c5.8-2.3 9.8-7.5 10.3-13.6 0.5-6.3-2.1-12.6-7.3-16.1-2.3-0.4-4.7-0.4-7.1 0-9.5 1.8-16.2 10-16.4 19.3q0 0.9 0 1.9 0.1 1.1 0.3 2.2c0.6 3.2 1.9 6.1 3.8 8.5q0.2 0.2 0.3 0.4 1.2 0.3 2.6 0.2c4.8-0.2 9.1-1.1 13.5-2.8z"/><path class="g" d="m70.2 47.2c-1.4-3.7-3.9-6.8-7-9q-0.8-0.6-1.6-1.1c-2-1.1-4.2-2-6.6-2.4 5.2 3.5 7.8 9.8 7.3 16.1-0.5 6.1-4.5 11.3-10.3 13.6-4.5 1.7-8.7 2.6-13.5 2.8q-1.4 0.1-2.6-0.2c1.5 1.9 3.4 3.5 5.5 4.8 4 2.3 8.9 3.3 13.8 2.3 9.5-1.7 16.2-9.9 16.4-19.2q0-2-0.4-4.1-0.3-1.9-1-3.6z"/><path class="h" d="m83 36.8q-0.7-1.4-2.5-2c-3.8-1.5-10.7-0.6-18.9 2.3q0.8 0.5 1.6 1.1c5.9-1.8 10.3-1.8 11.5 0.3 1 1.8-0.8 5-4.5 8.7-3.7 3.7-9.4 7.9-16.2 11.7q-1.4 0.8-2.8 1.5c-5.8 3-11.2 5.1-15.6 6.2-5.1 1.3-8.8 1.1-9.8-0.7-1.1-2.1 1.2-5.8 5.7-10q0-1 0-1.9c-6.5 5.3-10.8 10.4-11.8 14.4q0 0 0 0c-0.3 1.4-0.3 2.7 0.3 3.7 2.2 3.8 10.7 3.4 21.4-0.3 4.9-1.8 10.3-4.2 15.8-7.3 5.4-3 10.3-6.3 14.4-9.6q1.1-0.9 2.1-1.8c7.4-6.6 11.3-12.8 9.3-16.3z"/><path class="i" d="m44.5 68.4c-26.3 10.4-24.8 0.2-24.8 0-0.3 1.4-0.3 2.7 0.3 3.7 2.2 3.8 10.7 3.4 21.4-0.3 4.9-1.8 10.3-4.2 15.8-7.3 5.4-3 10.3-6.3 14.4-9.6q1.1-0.9 2.1-1.8-2.1 0.8-4.2 1.6c-6.3 4.9-14.8 9.7-25 13.7z"/><path class="i" d="m83 36.8q-0.7-1.4-2.5-2c3.7 4.2-0.7 12.1-11 19.9q2.1-0.8 4.2-1.6c7.4-6.6 11.3-12.8 9.3-16.3z"/><path class="i" d="m24.1 66.1c-1.7 7.1 15.2 2.9 24.9-2.8-11 6.1-26.3 7.9-24.9 2.8z"/><path class="i" d="m438.5 51.4c-6.8 11-21.2 14.4-32.2 7.6-11-6.7-14.4-21.2-7.6-32.2 6.7-11 21.2-14.4 32.2-7.6 11 6.8 14.4 21.2 7.6 32.2z"/><path class="j" d="m409.3 17.6l32.6 20.1c-0.1-3.1-1-6.1-2.4-9l-21.1-13c-3.1 0.1-6.2 0.7-9.1 1.9z"/><path class="k" d="m398.7 26.8q-1.2 2-2 4.1l39.1 24.1q1.5-1.7 2.7-3.6 0.5-0.8 0.9-1.7l-39.6-24.5q-0.6 0.8-1.1 1.6z"/><path class="l" d="m399.8 25.2l39.7 24.5c1.9-3.8 2.7-7.9 2.4-12l-32.6-20.1c-3.7 1.6-7 4.2-9.5 7.6z"/><path class="j" d="m396.7 30.9c-1.4 3.6-1.8 7.4-1.3 11.1l31 19.2c3.5-1.3 6.8-3.4 9.4-6.2z"/><path class="m" d="m58.5 229.7c5.8 10.5 2 23.7-8.5 29.6-10.4 5.8-23.7 2-29.5-8.5-5.8-10.4-2-23.7 8.5-29.5 10.4-5.8 23.7-2 29.5 8.4z"/><path class="n" d="m17.9 238l31.1-17.2c-2.6-1.3-5.5-2-8.4-2.2l-20.1 11.2c-1.4 2.6-2.3 5.4-2.6 8.2z"/><path class="o" d="m20.5 250.8q1.1 1.9 2.4 3.5l37.2-20.7q-0.6-2-1.6-3.9-0.5-0.7-1-1.5l-37.8 21q0.4 0.8 0.8 1.6z"/><path class="p" d="m19.7 249.2l37.8-21c-2.2-3.3-5.1-5.8-8.5-7.4l-31.1 17.2c-0.4 3.8 0.2 7.6 1.8 11.2z"/><path class="q" d="m22.9 254.3c2.3 2.7 5.2 4.8 8.4 6.1l29.6-16.4c0.6-3.4 0.4-7-0.8-10.4l-37.2 20.7z"/><path class="r" d="m283.8 37.5c-6.3 4-9.6-0.9-4.1-5.9 5.6-5 17.4-12.9 19.5-14.3-4.8 4.5-5 5.1-5 5.1l16.8-11.8-19.1 18.3 6.6-3.4c0 0-10.2 9.1-14.7 12z"/><path class="r" d="m275.7 76.6c-6.4 4-9.7-0.9-4.1-5.9 5.6-5 17.4-12.9 19.4-14.3-4.7 4.5-4.9 5.1-4.9 5.1l16.8-11.8-19.2 18.3 6.7-3.4c0 0-10.2 9.1-14.7 12z"/><path class="r" d="m213.9 62.4c-6.3 4-9.6-0.9-4.1-5.9 5.6-5 17.4-12.9 19.4-14.3-4.7 4.5-4.9 5.1-4.9 5.1l16.8-11.8-19.1 18.4 6.6-3.5c0 0-10.2 9.1-14.7 12z"/><path class="r" d="m210.3 156.8c-6.3 4.1-9.6-0.9-4.1-5.8 5.6-5 17.4-13 19.4-14.4-4.7 4.6-4.9 5.1-4.9 5.1l16.8-11.8-19.1 18.4 6.6-3.5c0 0-10.2 9.2-14.7 12z"/><path class="s" d="m340.5 224.8c-10.2 13.9 22.6 16.4 22.6 16.4 0 0-12.3-30.4-22.6-16.4z"/><path class="l" d="m343.3 226.2c-7.7 10.5 16.9 12.3 16.9 12.3 0 0-9.2-22.7-16.9-12.3z"/><path class="j" d="m271.1 176.8q-0.1 0.1-0.1 0.1c-0.9 1.2 4.9 12.9 14 24.3l5.1-7.2 8.8-12.3c-13.4-4.5-26.3-6.1-27.8-4.9z"/><path class="t" d="m358.4 196.9q0-0.1 0-0.2c-0.6-1.6-23.4-15.4-41.4-6.6l10.5 10.8 5.5 16.9c14.4-8.4 25.5-18.6 25.4-20.9z"/><path class="t" d="m312.8 251.8q-0.1 0-0.2 0c-1.6-0.4-17.5-21.9-10.4-40.6l11.7 9.5 17.4 3.9c-7.1 15-16.2 27.1-18.5 27.2z"/><path class="u" d="m318.9 191.4c-5.3-3.8-13.4-7.4-20-9.7l-8.8 12.3-5.1 7.2c4.4 5.5 10.3 11.7 15.7 15.5 10.6 7.6 21.5 11.4 30.1 14.1l5.5-7.8 5.9-8.2c-5.3-7.2-12.7-15.9-23.3-23.4z"/><path class="t" d="m308.2 192.7c4 2.8 4.9 8.3 2.1 12.2-2.8 4-8.3 4.9-12.3 2-4-2.8-4.9-8.3-2.1-12.2 2.8-3.9 8.3-4.8 12.3-2z"/><path class="u" d="m300.6 194.2c-1.4 0.6-2.5 1.8-3.2 3.3q0 0.1-0.1 0.3c-1.1 3.2 0.6 6.8 3.8 7.9q0.5 0.2 1 0.3c1 0.2 2 0.1 2.9-0.1 1.9-0.6 3.5-2 4.2-4 1.1-3.2-0.6-6.8-3.8-7.9-1.7-0.6-3.4-0.5-4.8 0.2z"/><path class="j" d="m345.6 214.5l-13 19.3-4.1-2.7 13.1-19.3z"/><path class="t" d="m331.4 214.4c8.9 5.4 15.4 11.1 14.5 12.7-1 1.6-9-1.5-18-6.9-9-5.4-15.5-11-14.5-12.6 1-1.6 9 1.4 18 6.8z"/></svg>