<svg width="32" height="32" viewBox="0 0 32 32" fill="none" xmlns="http://www.w3.org/2000/svg">
<circle cx="16" cy="16" r="16" fill="#1A2A6C" fill-opacity="0.1"/>
<path d="M21.3929 20.6071C21.4445 20.6588 21.4855 20.72 21.5134 20.7875C21.5413 20.8549 21.5557 20.9272 21.5557 21.0002C21.5557 21.0732 21.5413 21.1455 21.5134 21.2129C21.4855 21.2804 21.4445 21.3416 21.3929 21.3933C21.3413 21.4449 21.28 21.4858 21.2126 21.5138C21.1451 21.5417 21.0728 21.5561 20.9998 21.5561C20.9268 21.5561 20.8546 21.5417 20.7871 21.5138C20.7197 21.4858 20.6584 21.4449 20.6068 21.3933L15.9998 16.7856L11.3929 21.3933C11.2886 21.4975 11.1473 21.5561 10.9998 21.5561C10.8524 21.5561 10.711 21.4975 10.6068 21.3933C10.5025 21.289 10.444 21.1476 10.444 21.0002C10.444 20.8528 10.5025 20.7114 10.6068 20.6071L15.2144 16.0002L10.6068 11.3933C10.5025 11.289 10.444 11.1476 10.444 11.0002C10.444 10.8528 10.5025 10.7114 10.6068 10.6071C10.711 10.5029 10.8524 10.4443 10.9998 10.4443C11.1473 10.4443 11.2886 10.5029 11.3929 10.6071L15.9998 15.2148L20.6068 10.6071C20.711 10.5029 20.8524 10.4443 20.9998 10.4443C21.1473 10.4443 21.2886 10.5029 21.3929 10.6071C21.4971 10.7114 21.5557 10.8528 21.5557 11.0002C21.5557 11.1476 21.4971 11.289 21.3929 11.3933L16.7853 16.0002L21.3929 20.6071Z" fill="#1A2A6C"/>
</svg>
