<svg width="853" height="409" viewBox="0 0 853 409" fill="none" xmlns="http://www.w3.org/2000/svg">
<path d="M160.788 360.215V289.047H0V239.26L155.546 8H219.566V239.26H259.584V289.047H219.566V360.215H160.788ZM162.795 239.26L166.298 67.2691L56.279 239.26H162.795Z" fill="white"/>
<path d="M753.234 360.215V289.047H592.445V239.26L747.991 8H812.011V239.26H852.029V289.047H812.011V360.215H753.234ZM755.241 239.26L758.743 67.2691L648.724 239.26H755.241Z" fill="white"/>
<path d="M558.347 187.986C558.347 244.511 546.632 288.747 523.203 320.737C499.774 352.727 467.559 368.722 426.558 368.722C385.045 368.722 352.748 352.563 329.667 320.266C306.565 287.969 295.035 242.586 295.035 184.115C295.035 126.136 306.709 80.9574 330.036 48.5786C353.383 16.1997 385.803 0 427.316 0C469.32 0 501.658 16.2406 524.35 48.7014C547.001 81.1418 558.347 127.59 558.347 187.986ZM425.554 318.915C449.884 318.915 468.194 307.63 480.441 285.02C492.688 262.431 498.811 228.618 498.811 183.603C498.811 139.878 492.77 106.557 480.686 83.6403C468.603 60.7232 450.97 49.2749 427.787 49.2749C403.62 49.2749 385.352 60.6822 373.023 83.5174C360.694 106.353 354.509 140.042 354.509 184.566C354.509 227.799 360.633 260.997 372.88 284.16C385.168 307.343 402.719 318.915 425.554 318.915Z" fill="white"/>
<g clip-path="url(#clip0_4306_12504)">
<path d="M385.445 141.606C385.445 141.606 379.956 124.915 381.738 122.519C383.52 120.123 407.748 109.596 438.693 103.022C469.638 96.4479 471.092 98.9465 473.488 100.728C475.884 102.51 478.793 121.413 478.731 125.304C478.649 129.195 385.445 141.606 385.445 141.606Z" fill="url(#paint0_linear_4306_12504)"/>
<path d="M532 268.152L529.849 272.883L514.837 305.958L500.461 337.641C493.313 332.623 491.101 314.314 491.449 300.388C491.797 286.441 489.872 277.184 489.872 277.184C485.592 275.136 482.029 271.45 479.346 267.886C477.502 265.429 476.069 263.053 475.106 261.292C474.185 259.633 473.714 258.547 473.714 258.547C456.941 259.366 445.513 248.492 442.809 246.73C440.106 244.969 435.027 246.607 429.989 257.974C425.442 268.193 413.912 272.33 411.659 273.047C411.413 273.129 411.27 273.17 411.27 273.17C410.779 275.914 410.267 278.392 409.734 280.625C405.454 298.709 400.231 301.125 400.231 301.125C399.658 306.982 403.16 315.502 404.225 326.418C405.29 337.354 404.184 354.271 404.184 354.271L389.09 344.891L359.558 326.561C359.558 326.561 348.376 300.142 349.072 291.336C349.257 288.919 349.83 286.666 350.567 284.659C351.428 282.325 352.492 280.338 353.414 278.863C353.414 278.863 353.414 278.863 353.414 278.843C354.54 277.041 355.462 275.996 355.462 275.996C355.462 275.996 355.421 274.583 355.483 272.392C355.503 271.409 355.564 270.262 355.646 269.013C355.851 266.227 356.22 262.93 356.937 259.715C357.121 258.895 357.346 258.097 357.613 257.339C358.084 255.946 358.677 254.636 359.333 253.448C359.968 252.26 360.664 251.195 361.34 250.253C361.34 250.232 361.381 250.212 361.422 250.15C361.442 250.13 361.463 250.11 361.463 250.089L361.483 250.069L361.504 250.048C361.524 250.007 361.545 249.987 361.565 249.946C361.627 249.864 361.667 249.802 361.729 249.72C361.79 249.659 361.831 249.577 361.893 249.516C362.098 249.249 362.282 249.004 362.466 248.778C363.716 247.242 364.678 246.341 364.74 246.259C364.74 246.259 365.395 243.945 366.296 240.627C366.992 238.067 367.832 234.913 368.59 231.739C370.372 224.489 370.187 221.909 374.795 218.366C379.342 214.884 380.468 211.935 383.131 209.805C383.131 209.805 383.131 209.805 383.151 209.805C383.192 209.764 383.233 209.743 383.274 209.702C384.83 208.515 387.657 206.712 389.848 205.381C389.848 205.381 389.848 205.381 389.869 205.361C391.568 204.316 392.879 203.538 392.879 203.538C392.859 198.357 394.497 194.035 394.497 194.035C394.005 193.339 393.555 192.11 393.207 190.984C392.777 189.612 392.49 188.362 392.49 188.362C391.732 188.874 391.015 189.325 390.299 189.735L390.278 189.755C382.455 194.199 376.925 192.663 376.925 192.663C374.816 193.544 372.747 194.158 370.74 194.547C367.975 195.08 365.333 195.162 362.835 194.916C349.789 193.728 340.737 184.123 340.737 184.123L347.557 174.477L362.589 153.178C365.292 153.69 367.218 154.488 368.59 155.328C368.59 155.328 368.59 155.328 368.61 155.328C369.081 155.615 369.491 155.922 369.839 156.188C369.839 156.188 369.839 156.188 369.86 156.188C370.064 156.352 370.228 156.516 370.392 156.659C371.191 157.397 371.539 158.031 371.662 158.257C371.682 158.318 371.703 158.359 371.703 158.359V158.339C371.744 157.847 371.826 157.376 371.908 156.946C372.112 155.902 372.42 155.062 372.788 154.386C372.87 154.243 372.952 154.099 373.034 153.976C373.464 153.26 373.956 152.768 374.427 152.42C375.328 151.724 376.106 151.601 376.106 151.601C376.147 151.171 376.208 150.741 376.27 150.331C378.42 134.643 388.517 134.254 388.517 134.254C390.626 122.458 402.587 122.294 402.587 122.294C402.587 122.294 405.126 122.888 409.12 123.441H409.14C415.53 124.342 425.606 125.141 435.027 123.297C445.41 121.27 451.841 115.658 454.913 112.259C456.367 110.62 457.084 109.494 457.084 109.494C466.955 107.2 474.615 119.631 474.615 119.631C480.288 119.652 484.814 123.42 487.415 126.226C488.971 127.926 489.852 129.278 489.852 129.278C489.913 129.196 489.975 129.114 490.036 129.032C490.692 128.213 491.408 127.496 492.146 126.861C492.146 126.861 492.146 126.861 492.146 126.84L492.166 126.82C492.187 126.799 492.207 126.779 492.207 126.779C492.33 126.677 492.473 126.554 492.596 126.451C493.805 125.489 495.054 124.751 496.262 124.178C499.334 122.683 501.976 122.294 501.976 122.294L515.309 149.86L518.196 155.82C518.196 155.82 516.599 164.401 507.28 169.173C506.461 169.603 505.56 169.992 504.618 170.34C503.942 170.586 503.246 170.791 502.549 170.954C495.054 172.695 486.841 169.357 482.151 166.92C482.151 166.92 482.09 166.899 481.967 166.838C481.926 166.817 481.885 166.797 481.865 166.776C481.783 166.735 481.68 166.674 481.557 166.613C479.55 165.527 478.322 164.708 478.322 164.708C478.813 165.978 479.161 167.35 479.428 168.702C479.468 168.968 479.53 169.234 479.571 169.5C480.595 175.644 479.796 181.747 479.796 181.747C481.23 185.782 481.885 188.833 482.09 191.107C482.459 194.998 481.578 196.636 481.271 197.066C481.23 197.128 481.189 197.169 481.189 197.189C481.23 197.169 481.476 197.005 481.947 196.8C481.947 196.8 481.967 196.8 481.967 196.78C482.541 196.513 483.421 196.165 484.589 195.879C484.752 195.838 484.937 195.797 485.121 195.756C485.141 195.756 485.162 195.756 485.182 195.735C485.838 195.612 486.555 195.489 487.353 195.428C490.241 195.182 494.091 195.469 498.884 197.128C499.006 197.169 499.129 197.21 499.252 197.251C499.477 197.333 499.723 197.415 499.949 197.517C512.237 202.186 517.479 221.888 517.479 221.888C518.852 222.728 520.92 224.755 522.927 227.643C525.856 231.841 528.723 237.863 529.378 244.703C530.525 256.274 532 268.152 532 268.152Z" fill="url(#paint1_linear_4306_12504)"/>
<path d="M362.855 194.875C349.81 193.687 340.757 184.082 340.757 184.082L347.577 174.436C349.891 177.405 354.93 182.771 362.159 184.573C364.658 185.188 366.951 185.331 368.958 185.167C367.566 188.526 365.6 191.823 362.855 194.875Z" fill="url(#paint2_linear_4306_12504)"/>
<path d="M473.632 195.735L463.371 211.279C463.371 211.279 454.339 225.861 437.403 224.427C420.466 222.994 405.167 207.531 393.022 214.515C380.878 221.499 373.853 237.187 373.853 237.187L380.837 235.098C380.837 235.098 368.569 243.208 366.378 248.328C365.866 249.515 365.886 250.539 366.726 251.277L359.333 253.448C359.968 252.26 360.664 251.195 361.34 250.253C361.34 250.232 361.381 250.212 361.422 250.15C361.442 250.13 361.463 250.109 361.463 250.089L361.483 250.068L361.504 250.048C361.524 250.007 361.545 249.987 361.565 249.946C361.627 249.864 361.667 249.802 361.729 249.72C361.79 249.659 361.831 249.577 361.893 249.515C362.098 249.249 362.282 249.003 362.466 248.778C363.715 247.242 364.678 246.341 364.739 246.259C364.739 246.259 365.395 243.945 366.296 240.627C366.992 238.067 367.832 234.913 368.59 231.739C370.371 224.489 370.187 221.908 374.795 218.365C379.342 214.884 380.468 211.935 383.131 209.805C383.131 209.805 383.131 209.805 383.151 209.805C383.192 209.764 383.233 209.743 383.274 209.702C384.83 208.514 387.657 206.712 389.848 205.381C389.848 205.381 389.848 205.381 389.868 205.361C391.568 204.316 392.879 203.538 392.879 203.538C392.859 198.356 394.497 194.035 394.497 194.035C394.005 193.339 393.555 192.11 393.207 190.984C392.777 189.611 392.49 188.362 392.49 188.362C391.732 188.874 391.015 189.325 390.299 189.734L390.278 189.755C382.455 194.199 376.925 192.663 376.925 192.663C374.816 193.544 372.747 194.158 370.74 194.547C372.03 192.233 373.546 188.751 374.508 183.939C377.232 182.874 378.748 181.542 378.748 181.542C378.748 181.542 380.878 184.307 386.039 183.959C391.2 183.611 401.235 179.044 401.194 173.535C401.194 173.535 405.228 191.987 425.872 198.397C446.414 204.705 465.112 198.909 473.632 195.735Z" fill="url(#paint3_linear_4306_12504)"/>
<path d="M400.211 301.105C399.637 306.962 403.14 315.482 404.205 326.397C405.269 337.334 404.164 354.25 404.164 354.25L389.07 344.87C392.572 335.286 388.025 320.786 387.554 310.054C386.981 296.824 395.029 296.271 395.029 296.271C391.261 284.884 396.484 275.914 401.911 271.49C405.618 274.911 408.096 278.085 409.714 280.604C405.433 298.688 400.211 301.105 400.211 301.105Z" fill="url(#paint4_linear_4306_12504)"/>
<path d="M481.455 246.464C477.543 252.874 475.803 258.445 475.106 261.292C474.185 259.633 473.714 258.547 473.714 258.547C456.94 259.367 445.513 248.492 442.809 246.73C440.106 244.969 435.027 246.608 429.989 257.974C425.442 268.193 413.912 272.33 411.659 273.047C410.697 271.818 409.079 269.811 406.969 267.456C410.922 263.544 414.24 257.933 419.687 249.27C426.692 238.108 435.6 235.856 440.065 234.934C447.09 233.48 450.305 237.801 466.32 244.805C471.85 247.222 477.031 247.345 481.455 246.464Z" fill="url(#paint5_linear_4306_12504)"/>
<path d="M514.838 305.958L500.461 337.641C493.313 332.623 491.101 314.314 491.449 300.388C491.797 286.441 489.872 277.184 489.872 277.184C485.592 275.136 482.029 271.45 479.346 267.886C481.558 263.319 486.575 253.734 493.047 245.665C490.753 255.004 495.279 262.254 500.624 268.685C500.624 268.685 499.007 283.041 501.812 295.473C503.615 303.542 510.352 305.549 514.838 305.958Z" fill="url(#paint6_linear_4306_12504)"/>
<path d="M532 268.152L529.849 272.883C525.794 268.357 522.272 258.793 520.429 245.624C517.91 227.663 506.83 225.185 506.83 225.185C511.213 210.808 501.198 199.278 499.293 197.23C499.518 197.312 499.764 197.394 499.99 197.496C512.278 202.166 517.52 221.867 517.52 221.867C518.893 222.707 520.961 224.735 522.968 227.622C525.897 231.821 528.764 237.842 529.419 244.682C530.525 256.274 532 268.152 532 268.152Z" fill="url(#paint7_linear_4306_12504)"/>
<path d="M396.156 132.39C397.241 138.801 407.932 139.026 407.932 139.026C401.276 141.094 395.726 140.5 388.865 139.354C381.984 138.207 377.314 150.495 379.178 151.293C381.042 152.092 382.823 155.307 382.823 155.307C377.478 152.768 376.679 155.41 378.359 161.124C380.038 166.838 379.342 175.624 379.342 175.624C378.297 169.684 374.386 161.656 371.887 156.925C372.092 155.881 372.399 155.041 372.768 154.365C372.85 154.222 372.932 154.079 373.013 153.956C373.444 153.239 373.935 152.747 374.406 152.399C375.307 151.703 376.085 151.58 376.085 151.58C376.126 151.15 376.188 150.72 376.249 150.31C378.4 134.623 388.496 134.234 388.496 134.234C390.606 122.437 402.566 122.273 402.566 122.273C402.566 122.273 405.106 122.867 409.099 123.42C404.204 122.765 395.07 126.001 396.156 132.39Z" fill="url(#paint8_linear_4306_12504)"/>
<path d="M490.016 128.991L489.77 130.199C482.336 122.621 472.628 123.932 472.628 123.932C471.399 129.523 461.753 130.506 461.753 130.506C461.753 130.506 469.249 126.431 468.266 121.638C467.283 116.846 455.015 112.504 455.015 112.504C454.974 112.402 454.933 112.3 454.913 112.197C456.367 110.559 457.084 109.432 457.084 109.432C466.955 107.139 474.615 119.57 474.615 119.57C480.288 119.59 484.814 123.359 487.415 126.164C488.971 127.864 489.852 129.216 489.852 129.216C489.893 129.155 489.954 129.073 490.016 128.991Z" fill="url(#paint9_linear_4306_12504)"/>
<path d="M363.429 260.247C363.204 260.8 355.872 278.454 350.547 284.639C351.407 282.304 352.472 280.317 353.394 278.843C353.394 278.843 353.394 278.843 353.394 278.822C354.52 277.02 355.442 275.976 355.442 275.976C355.442 275.976 355.401 274.563 355.462 272.371C355.483 271.388 355.544 270.241 355.626 268.992C357.879 267.374 361.545 264.241 363.429 260.247Z" fill="#CEC4D6"/>
<path d="M497.061 161.779C498.494 164.831 500.297 167.923 502.529 170.934C495.033 172.674 486.821 169.336 482.131 166.899C482.131 166.899 482.069 166.879 481.947 166.817C481.906 166.797 481.865 166.776 481.844 166.756C481.762 166.715 481.66 166.653 481.537 166.592C479.53 165.506 478.301 164.687 478.301 164.687C478.793 165.957 479.141 167.329 479.407 168.681C479.448 168.947 479.509 169.213 479.55 169.48C469.925 156.106 465.665 138.596 465.46 137.736C465.767 138.575 471.911 155.86 486.759 160.53C490.61 161.718 494.03 162.045 497.061 161.779Z" fill="#E5DFE9"/>
<path d="M518.176 155.799C518.176 155.799 516.578 164.38 507.26 169.152C505.806 167.247 503.963 164.462 502.119 160.714C509.39 158.236 513.67 152.461 515.288 149.839L518.176 155.799Z" fill="#E5DFE9"/>
<path d="M484.589 195.858C484.589 195.878 470.846 203.599 468.635 206.057C466.423 208.535 464.477 212.303 453.95 215.539C451.411 216.317 448.359 217.075 445.021 217.649C435.826 219.205 424.377 219.287 414.997 213.983C414.997 213.983 411.311 207.593 402.996 204.05C403.447 204.152 410.246 205.647 415.407 205.975C415.817 205.995 416.206 206.016 416.574 206.016C417.209 206.036 417.783 206.016 418.315 205.995C418.315 205.995 419.257 204.726 420.466 204.234C421.592 203.763 424.459 203.804 428.248 203.784C428.74 203.784 429.231 203.763 429.743 203.763C431.934 203.722 434.372 203.661 436.911 203.435C439.164 203.251 441.355 202.985 443.342 202.719C443.854 202.657 444.366 202.575 444.837 202.514C448.38 202.002 451.022 201.51 451.657 201.469C453.377 201.346 454.79 202.37 455.364 202.882C455.548 203.046 455.65 203.149 455.65 203.149C455.65 203.149 455.998 203.026 456.633 202.801C457.821 202.37 459.972 201.572 462.593 200.548C462.962 200.404 463.33 200.261 463.719 200.097C464.477 199.79 465.255 199.483 466.075 199.155C466.341 199.053 466.628 198.93 466.894 198.807C468.88 197.967 470.969 197.066 472.976 196.124C473.181 196.022 473.406 195.919 473.611 195.817C476.888 194.26 479.919 192.642 482.069 191.106C482.11 191.577 482.151 192.028 482.151 192.438C482.233 195.387 481.517 196.677 481.25 197.066C481.209 197.128 481.168 197.169 481.168 197.189C481.209 197.169 481.455 197.005 481.926 196.8C481.926 196.8 481.947 196.8 481.947 196.779C482.541 196.472 483.421 196.145 484.589 195.858Z" fill="url(#paint10_linear_4306_12504)"/>
<path d="M482.192 192.417C478.813 194.486 466.587 201.715 456.777 204.173L456.613 208.494C456.633 208.043 456.49 203.108 446.414 204.726C435.846 206.425 425.483 206.466 425.483 206.466C425.483 206.466 428.33 218.98 445.021 217.649C435.826 219.205 424.377 219.287 414.997 213.983C414.997 213.983 411.311 207.593 402.996 204.05C403.447 204.152 410.246 205.647 415.407 205.975C415.817 205.995 416.206 206.016 416.574 206.016C417.209 206.036 417.783 206.016 418.315 205.995C418.315 205.995 419.257 204.726 420.466 204.234C421.592 203.763 424.459 203.804 428.248 203.784C428.74 203.784 429.231 203.763 429.743 203.763C431.934 203.722 434.372 203.661 436.911 203.435C439.164 203.251 441.355 202.985 443.342 202.719C443.854 202.657 444.366 202.575 444.837 202.514C448.38 202.002 451.022 201.51 451.657 201.469C453.377 201.346 454.79 202.37 455.364 202.882C455.548 203.046 455.65 203.149 455.65 203.149C455.65 203.149 455.998 203.026 456.633 202.801C457.821 202.37 459.972 201.572 462.593 200.548C462.962 200.404 463.33 200.261 463.719 200.097C464.477 199.79 465.255 199.483 466.075 199.155C466.341 199.053 466.628 198.93 466.894 198.807C468.88 197.967 470.969 197.066 472.976 196.124C473.181 196.022 473.406 195.919 473.611 195.817C476.888 194.26 479.919 192.642 482.069 191.106C482.151 191.557 482.172 192.008 482.192 192.417Z" fill="url(#paint11_linear_4306_12504)"/>
<path d="M429.763 203.743L429.784 217.178L428.268 203.763C428.739 203.743 429.251 203.743 429.763 203.743Z" fill="#5C479E"/>
<path d="M444.857 202.493L444.263 216.195L443.342 202.698C443.874 202.637 444.386 202.555 444.857 202.493Z" fill="#5C479E"/>
<path d="M416.595 206.016L415.817 211.669L415.427 205.975C415.817 205.975 416.206 205.996 416.595 206.016Z" fill="#5C479E"/>
<path d="M456.019 212.795C455.978 208.904 455.609 204.869 455.405 202.841C455.589 203.005 455.691 203.108 455.691 203.108C455.691 203.108 456.039 202.985 456.674 202.76C457.022 208.31 456.019 212.795 456.019 212.795Z" fill="#5C479E"/>
<path d="M463.76 200.056L463.187 208.412L462.654 200.486C463.003 200.363 463.371 200.22 463.76 200.056Z" fill="#5C479E"/>
<path d="M466.914 198.766L466.484 204.951L466.095 199.094C466.382 199.012 466.648 198.889 466.914 198.766Z" fill="#5C479E"/>
<path d="M473.652 195.796L473.324 200.609L473.017 196.083C473.222 196.001 473.447 195.899 473.652 195.796Z" fill="#5C479E"/>
<path d="M425.033 218.795C418.049 220.884 409.816 204.623 396.32 205.873C391.671 206.303 386.53 208.269 383.172 209.784C383.212 209.743 383.253 209.723 383.294 209.682C384.851 208.494 387.677 206.692 389.869 205.361C389.869 205.361 389.868 205.361 389.889 205.34C390.237 205.176 394.067 203.497 401.665 203.886C411.434 204.398 418.172 217.976 425.033 218.795Z" fill="#ACA5B5"/>
<path d="M498.904 197.107C479.899 194.711 461.917 213.696 461.917 213.696C469.74 203.579 476.642 199.053 481.291 197.046C481.516 196.943 481.742 196.861 481.947 196.779C481.947 196.779 481.967 196.78 481.967 196.759C483.216 196.247 484.281 195.94 485.121 195.756C485.141 195.756 485.162 195.755 485.182 195.735C486.514 195.428 487.292 195.428 487.353 195.428C490.261 195.162 494.112 195.448 498.904 197.107Z" fill="#ACA5B5"/>
<path d="M380.816 235.098C369.02 240.156 362.2 249.045 361.401 250.13C363.183 247.672 364.76 246.218 364.76 246.218C364.76 246.218 365.415 243.904 366.316 240.586C372.665 237.207 380.509 235.159 380.816 235.098Z" fill="#ACA5B5"/>
<path d="M359.456 268.275C356.793 275.034 353.598 278.618 353.414 278.843C354.54 277.041 355.462 275.996 355.462 275.996C355.462 275.996 355.421 274.583 355.483 272.392C357.899 270.876 359.394 268.378 359.456 268.275Z" fill="#ACA5B5"/>
<path d="M492.125 126.82C491.388 127.496 485.305 133.64 487.169 152.072C487.169 152.072 483.278 138.268 487.394 126.185C488.951 127.885 489.831 129.237 489.831 129.237C490.528 128.315 491.306 127.516 492.125 126.82Z" fill="#C0B8CC"/>
<path d="M492.166 126.799L492.146 126.82C492.146 126.82 492.146 126.799 492.166 126.799Z" fill="#ACA5B5"/>
<path d="M371.662 158.236C370.945 157.274 370.351 156.598 369.859 156.168C371.027 157.11 371.518 157.949 371.662 158.236Z" fill="#ACA5B5"/>
<path d="M379.362 175.624C376.413 166.121 373.689 161.021 371.723 158.318C371.887 156.598 372.276 155.328 372.788 154.365C377.765 163.541 379.362 175.624 379.362 175.624Z" fill="#ACA5B5"/>
<path d="M382.762 154.345C378.625 150.741 374.406 152.379 374.406 152.379C375.307 151.683 376.085 151.56 376.085 151.56C376.126 151.13 376.188 150.7 376.249 150.29C380.775 151.171 382.762 154.345 382.762 154.345Z" fill="#ACA5B5"/>
<path d="M401.46 181.891C401.296 182.095 397.303 187.256 393.227 190.943C392.797 189.571 392.51 188.321 392.51 188.321C391.773 188.833 401.46 181.891 401.46 181.891Z" fill="#ACA5B5"/>
<path d="M478.322 164.667C478.813 165.937 479.161 167.309 479.428 168.66C475.352 164.114 473.652 158.257 473.591 158.031C476.192 163.131 480.083 165.732 481.558 166.571C479.53 165.486 478.322 164.667 478.322 164.667Z" fill="#ACA5B5"/>
<path d="M410.86 189.1L413.932 193.667C409.017 197.558 400.313 202.698 395.5 203.333C390.688 203.989 387.718 203.21 387.206 200.343C386.817 198.152 390.688 194.404 392.572 192.725C393.166 192.192 393.555 191.885 393.555 191.885L394.538 194.015C394.538 194.015 388.865 199.872 392.674 200.568C392.797 200.589 392.92 200.609 393.063 200.63C397.651 200.998 410.697 188.71 410.697 188.71" fill="#34254C"/>
<path d="M392.674 200.568C392.674 200.568 389.172 200.855 389.315 198.254C389.397 196.82 391.056 194.527 392.551 192.724C393.145 192.192 393.534 191.885 393.534 191.885L394.517 194.015C394.538 194.015 388.844 199.872 392.674 200.568Z" fill="#51347F"/>
<path d="M490.057 184.451C489.197 185.741 487.62 187.072 485.121 188.485C478.936 191.967 466.382 189.12 466.382 189.12L464.948 182.423C464.948 182.423 473.017 186.724 481.066 186.171C482.868 186.048 484.302 185.741 485.367 185.352C488.132 184.328 488.644 182.607 487.865 181.501C486.78 179.965 479.858 181.174 479.858 181.174L480.021 175.562C480.021 175.562 483.237 175.726 486.084 176.545C487.742 177.037 489.278 177.733 489.954 178.757C491.081 180.477 491.47 182.382 490.057 184.451Z" fill="#34254C"/>
<path d="M490.057 184.451C488.172 185.843 485.387 185.352 485.387 185.352C490.651 183.775 487.476 178.491 486.104 176.545C487.763 177.037 489.299 177.733 489.975 178.757C491.081 180.478 491.47 182.382 490.057 184.451Z" fill="#51347F"/>
<path d="M398.798 116.928C398.798 116.928 389.254 121.208 390.381 142.487C391.507 163.766 409.099 174.886 409.099 174.886L409.406 179.392C409.406 179.392 395.849 175.132 388.189 157.847C380.53 140.562 386.51 119.119 398.532 114.737L398.798 116.928Z" fill="url(#paint12_linear_4306_12504)"/>
<path d="M456.613 102.367C456.613 102.367 468.88 107.036 474.226 123.83C479.571 140.623 470.007 152.277 460.484 159.731L463.576 166.961C463.576 166.961 480.37 156.762 482.049 138.842C483.749 120.922 471.277 104.292 458.825 97.3696L456.613 102.367Z" fill="url(#paint13_linear_4306_12504)"/>
<path d="M466.914 191.987C466.853 192.95 458.395 194.424 455.118 195.018C441.929 197.435 428.392 199.114 414.568 200.077C414.076 200.118 413.605 199.811 413.462 199.319C410.062 188.588 407.707 177.569 406.273 166.285C405.843 162.947 405.495 159.608 405.229 156.229C405.147 155.164 405.823 154.202 406.847 153.915C424.726 148.877 442.461 145.989 460.054 146.01C461.098 146.01 461.999 146.747 462.224 147.75C465.133 160.673 467.385 184.84 466.914 191.987Z" fill="url(#paint14_linear_4306_12504)"/>
<path d="M466.382 189.1C466.32 190.062 457.862 191.537 454.585 192.131C441.396 194.547 427.859 196.227 414.035 197.189C413.543 197.23 413.072 196.923 412.929 196.431C409.529 185.7 407.174 174.682 405.741 163.397C405.31 160.059 404.962 156.721 404.696 153.341C404.614 152.277 405.29 151.314 406.314 151.027C424.193 145.989 441.929 143.101 459.521 143.122C460.565 143.122 461.467 143.859 461.692 144.863C464.62 157.786 466.873 181.952 466.382 189.1Z" fill="url(#paint15_linear_4306_12504)"/>
<path d="M454.606 192.151C441.581 194.547 428.248 196.206 414.608 197.169C413.789 197.23 413.031 196.718 412.786 195.92C409.488 185.352 407.174 174.497 405.761 163.418C412.786 175.583 428.248 194.916 454.606 192.151Z" fill="url(#paint16_linear_4306_12504)"/>
<path d="M412.294 160.1C412.294 160.1 415.202 179.003 418.213 189.796L422.063 189.202C422.063 189.202 418.827 170.319 418.049 158.728L412.294 160.1Z" fill="url(#paint17_linear_4306_12504)"/>
<path d="M427.92 156.762C427.92 156.762 430.624 177.303 433.225 187.154L437.71 186.519C437.71 186.519 434.454 167.309 433.675 155.717L427.92 156.762Z" fill="url(#paint18_linear_4306_12504)"/>
<path d="M421.08 160.796C421.08 160.796 421.879 167.862 422.862 172.654L426.712 172.06L424.93 160.202C424.93 160.202 422.678 160.366 421.08 160.796Z" fill="url(#paint19_linear_4306_12504)"/>
<path d="M453.684 159.383C453.807 161.247 452.394 162.865 450.53 162.988C448.667 163.11 447.049 161.697 446.926 159.834C446.803 157.97 448.216 156.352 450.08 156.229C451.923 156.106 453.541 157.519 453.684 159.383Z" fill="url(#paint20_linear_4306_12504)"/>
<path d="M455.957 173.801C456.08 175.665 454.667 177.283 452.804 177.406C450.94 177.528 449.322 176.115 449.199 174.252C449.076 172.388 450.489 170.77 452.353 170.647C454.217 170.524 455.835 171.917 455.957 173.801Z" fill="url(#paint21_linear_4306_12504)"/>
<path d="M462.818 131.899C463.085 135.729 460.197 139.047 456.367 139.292C452.537 139.559 449.22 136.671 448.974 132.841C448.708 129.011 451.595 125.694 455.425 125.448C459.255 125.202 462.552 128.069 462.818 131.899Z" fill="url(#paint22_linear_4306_12504)"/>
<path d="M403.59 149.123C406.765 148.385 414.465 146.829 422.882 145.006C424.685 144.617 424.705 143.163 424.521 142.262L422.923 136.957C422.739 136.097 421.92 135.524 421.06 135.667C417.25 136.302 407.399 136.937 401.317 138.985C400.559 139.251 399.719 139.415 400.19 141.914C400.457 143.388 400.928 145.805 401.685 148.058C401.931 148.856 402.75 149.327 403.59 149.123Z" fill="url(#paint23_linear_4306_12504)"/>
<path d="M398.798 116.928C398.798 116.928 400.313 122.069 402.095 124.547C402.095 124.547 435.191 139.763 460.955 109.535C460.955 109.535 459.173 102.531 457.022 99.4382C457.043 99.4382 441.56 124.956 398.798 116.928Z" fill="url(#paint24_linear_4306_12504)"/>
<path d="M386.223 86.4539C386.223 86.4539 379.69 90.1608 378.748 90.8571C376.72 92.3726 384.585 114.43 387.493 114.532C389.234 114.593 395.111 112.484 395.111 112.484L386.223 86.4539Z" fill="url(#paint25_linear_4306_12504)"/>
<path d="M384.093 93.069C384.134 93.7858 383.602 94.4002 382.885 94.4411C382.168 94.4821 381.554 93.9496 381.513 93.2328C381.472 92.516 382.004 91.9016 382.721 91.8606C383.417 91.8197 384.032 92.3522 384.093 93.069Z" fill="#C8B8D3"/>
<path d="M452.701 65.2775C452.701 65.2775 460.156 64.3354 461.323 64.3354C463.863 64.3354 470.744 86.7406 468.471 88.5428C467.119 89.6282 461.139 91.4509 461.139 91.4509L452.701 65.2775Z" fill="url(#paint26_linear_4306_12504)"/>
<path d="M458.354 69.2917C458.743 69.8856 459.542 70.0699 460.135 69.6808C460.729 69.2916 460.914 68.4929 460.525 67.899C460.135 67.3051 459.337 67.1208 458.743 67.5099C458.149 67.899 457.985 68.6977 458.354 69.2917Z" fill="#C8B8D3"/>
<path d="M403.201 55.6314L402.402 52.9895C407.277 49.2007 413.462 47.3575 420.793 47.2141L422.329 50.6752L403.201 55.6314Z" fill="url(#paint27_linear_4306_12504)"/>
<path d="M461.958 95.5265L445.779 100.749L397.037 116.457C378.175 96.0589 382.68 62.738 407.563 52.6209C408.71 52.1498 409.857 51.7402 411.004 51.3716C411.004 51.3716 411.004 51.3716 411.024 51.3716C438.427 42.7495 464.17 64.3149 461.958 95.5265Z" fill="url(#paint28_linear_4306_12504)"/>
<path d="M445.758 100.749L397.016 116.457C378.154 96.0589 382.66 62.738 407.543 52.6209C408.69 52.1498 409.837 51.7402 410.983 51.3716C394.313 58.2938 392.818 69.4759 407.727 64.9089C422.637 60.3213 433.327 63.2295 433.327 63.2295L445.758 100.749Z" fill="url(#paint29_linear_4306_12504)"/>
<path d="M461.958 95.5264C461.958 95.5264 456.224 115.986 432.651 121.475C409.079 126.963 397.016 116.457 397.016 116.457L461.958 95.5264Z" fill="url(#paint30_linear_4306_12504)"/>
<path d="M461.958 95.5263C461.958 95.5263 457.555 103.227 447.888 109.862C437.444 117.03 420.834 122.929 397.037 116.477C386.674 97.0214 392.674 77.3196 407.297 67.9603C408.403 67.2639 409.55 66.6086 410.738 66.0147C428.801 57.1878 455.937 64.2124 461.958 95.5263Z" fill="url(#paint31_linear_4306_12504)"/>
<path d="M447.868 109.863C437.423 117.031 420.814 122.929 397.016 116.478C386.653 97.0216 392.654 77.3198 407.277 67.9604C405.413 72.548 402.955 81.7845 404.983 95.8747C408.055 117.01 422.698 123.338 447.868 109.863Z" fill="url(#paint32_linear_4306_12504)"/>
<path d="M420.752 65.9737C420.752 65.9737 440.925 62.5331 452.189 81.088C453.09 82.5625 452.701 84.4877 451.288 85.4912C449.691 86.6176 447.479 86.1261 446.516 84.4262C443.547 79.1834 436.01 69.1481 420.752 65.9737Z" fill="url(#paint33_linear_4306_12504)"/>
<path d="M455.548 89.7101C456.265 90.9389 455.835 92.5363 454.585 93.2326C453.357 93.9494 451.759 93.5194 451.063 92.2701C450.346 91.0413 450.776 89.4439 452.025 88.7475C453.254 88.0512 454.831 88.4813 455.548 89.7101Z" fill="url(#paint34_linear_4306_12504)"/>
<path d="M497.245 240.586C496.139 242.716 494.542 243.679 493.047 245.665C486.575 253.735 481.558 263.319 479.346 267.886C477.502 265.429 476.069 263.053 475.106 261.292C475.803 258.445 477.523 252.874 481.455 246.464C489.668 244.826 497.081 240.73 497.245 240.586Z" fill="#2D2244"/>
<path d="M522.968 227.623C518.626 228.278 511.561 230.203 503.246 235.794C499.621 238.231 496.16 241.754 493.047 245.645C494.255 244.007 495.545 243.372 496.651 241.262C496.487 241.426 489.668 244.826 481.455 246.444C483.073 243.781 485.08 240.976 487.538 238.149C498.638 225.411 517.5 221.868 517.5 221.868C518.872 222.707 520.94 224.735 522.968 227.623Z" fill="url(#paint35_linear_4306_12504)"/>
<path d="M411.639 273.027C411.393 273.109 411.25 273.149 411.25 273.149C410.758 275.894 410.246 278.372 409.714 280.604C408.096 278.085 405.618 274.89 401.911 271.491C402.361 271.122 402.832 270.774 403.303 270.467C404.614 269.586 405.802 268.582 406.949 267.456C409.079 269.791 410.697 271.798 411.639 273.027Z" fill="#2D2244"/>
<path d="M406.949 267.456C405.802 268.582 404.614 269.586 403.303 270.467C402.853 270.774 402.382 271.122 401.911 271.491C398.675 268.521 394.497 265.367 389.152 262.357C375.676 254.779 363.716 255.905 357.592 257.318C358.063 255.926 358.657 254.615 359.312 253.427C359.947 252.239 360.644 251.174 361.319 250.232C361.319 250.212 361.36 250.191 361.401 250.13C361.422 250.11 361.442 250.089 361.442 250.069L361.463 250.048L361.483 250.028C361.504 249.987 361.524 249.966 361.545 249.925C361.606 249.843 361.647 249.782 361.709 249.7C361.77 249.638 361.811 249.557 361.872 249.495C362.077 249.229 362.261 248.983 362.446 248.758C363.572 248.594 364.883 248.451 366.337 248.348C371.928 247.98 379.649 248.389 387.124 251.83C395.132 255.496 402.279 262.275 406.949 267.456Z" fill="url(#paint36_linear_4306_12504)"/>
<path d="M507.26 169.132C506.441 169.562 505.54 169.951 504.598 170.299C503.922 170.545 503.225 170.75 502.529 170.913C500.297 167.882 498.495 164.81 497.061 161.759C498.884 161.595 500.563 161.226 502.119 160.694C503.963 164.462 505.806 167.227 507.26 169.132Z" fill="#2D2244"/>
<path d="M502.119 160.714C500.563 161.247 498.884 161.615 497.061 161.779C490.282 147.361 491.408 133.271 492.596 126.451C493.805 125.489 495.054 124.751 496.262 124.178C494.992 131.244 495.443 144.105 499.682 155.144C500.461 157.171 501.3 159.035 502.119 160.714Z" fill="url(#paint37_linear_4306_12504)"/>
<path d="M374.549 183.877C373.587 188.69 372.071 192.172 370.781 194.486C368.016 195.018 365.374 195.1 362.876 194.854C365.62 191.803 367.586 188.506 368.958 185.147C371.15 184.983 373.034 184.471 374.549 183.877Z" fill="#2D2244"/>
<path d="M374.55 183.877C373.034 184.471 371.17 184.983 368.958 185.147C373.71 173.596 371.539 161.37 370.392 156.618C371.191 157.356 371.539 157.991 371.662 158.216C371.682 158.277 371.703 158.318 371.703 158.318V158.298C371.867 156.577 372.256 155.308 372.768 154.345C372.85 154.202 372.932 154.058 373.014 153.936C376.208 167.063 375.942 176.894 374.55 183.877Z" fill="url(#paint38_linear_4306_12504)"/>
<path d="M403.815 147.812C406.99 147.075 415.038 145.252 423.108 143.695C424.009 143.532 424.582 142.651 424.398 141.75L423.128 135.667C422.944 134.807 422.125 134.234 421.264 134.377C417.455 135.012 407.563 136.732 401.481 138.76C400.723 139.026 400.252 139.804 400.395 140.603C400.641 142.077 401.133 144.494 401.89 146.726C402.157 147.546 402.996 148.017 403.815 147.812Z" fill="url(#paint39_linear_4306_12504)"/>
<path d="M352.288 181.993C348.99 183.283 345.837 183.754 343.072 183.775C336.621 183.816 332.176 181.419 332.176 181.419C332.176 181.419 331.91 181.993 330.907 182.546C330.907 182.546 330.886 182.546 330.886 182.566C329.616 183.283 327.159 183.959 322.592 183.365C314.42 182.3 311.533 177.958 311.635 174.723C311.676 173.801 312.208 173.105 313.028 172.572C315.076 171.261 318.823 170.995 320.421 170.893C322.674 170.729 323.268 170.053 322.203 168.497C322.141 168.415 322.08 168.353 322.018 168.271C320.646 166.94 316.141 166.879 313.581 165.507C310.898 164.073 309.362 160.612 309.444 157.048C309.485 155.287 311.062 154.283 313.191 153.976C315.383 153.649 318.107 154.017 320.318 155.021C324.66 156.987 326.237 156.229 326.401 153.956C326.524 152.338 323.186 150.147 320.134 148.037C318.885 147.177 317.677 146.337 316.775 145.538C313.683 142.835 315.567 137.203 320.994 136.179C321.568 136.077 322.1 136.077 322.592 136.179C326.831 136.998 328.654 144.289 331.173 143.265C333.999 142.098 331.89 139.661 328.06 135.708C327.568 135.196 327.036 134.623 326.544 134.029C323.206 130.076 320.298 124.69 324.046 121.905C324.906 121.27 325.971 121.085 327.159 121.311C331.91 122.171 338.669 129.318 342.642 138.125C344.096 141.34 345.202 143.327 346.062 144.535C347.557 146.644 348.253 146.378 348.519 146.05C348.622 145.928 348.663 145.805 348.663 145.805C349.687 144.269 350.322 134.52 350.875 128.335C350.957 127.332 351.079 126.369 351.223 125.427C351.981 120.635 353.598 117.03 356.527 116.293C357.039 116.17 357.531 116.088 357.981 116.088C360.521 116.047 361.893 118.095 362.487 123.01C362.63 124.239 362.651 125.407 362.589 126.533C362.343 130.731 360.93 134.459 361.012 139.313C361.115 145.457 364.801 152.01 365.989 160.018C367.197 168.026 363.306 177.692 352.288 181.993Z" fill="url(#paint40_linear_4306_12504)"/>
<path d="M333.221 130.527C332.811 134.008 329.043 134.274 326.544 134.049C326.176 133.619 325.828 133.169 325.479 132.697C322.653 128.95 320.708 124.403 324.046 121.905C324.906 121.27 325.971 121.085 327.159 121.311C328.183 122.56 330.272 124.157 331.705 126.062C332.729 127.414 333.426 128.888 333.221 130.527Z" fill="url(#paint41_linear_4306_12504)"/>
<path d="M326.667 143.613C326.032 145.764 323.964 148.856 320.134 148.078C319.09 147.361 318.066 146.644 317.226 145.969C317.062 145.846 316.919 145.702 316.775 145.579C313.683 142.876 315.567 137.244 320.994 136.22C321.568 136.118 322.1 136.118 322.592 136.22C323.411 137.101 324.804 138.678 325.746 140.255C326.483 141.483 326.954 142.712 326.667 143.613Z" fill="url(#paint42_linear_4306_12504)"/>
<path d="M323.841 168.394C323.431 168.476 322.817 168.415 322.039 168.292C320.953 168.026 319.95 167.8 319.028 167.555C317.042 167.022 315.342 166.469 313.601 165.548C310.918 164.114 309.382 160.653 309.464 157.089C309.505 155.328 311.082 154.325 313.212 154.017C314.645 155.246 317.226 157.315 319.253 158.052C319.847 158.277 320.462 158.523 321.076 158.81C323.575 159.936 326.032 161.554 326.381 163.069C326.831 164.954 326.708 167.882 323.841 168.394Z" fill="url(#paint43_linear_4306_12504)"/>
<path d="M330.907 182.566C329.719 183.222 327.589 183.857 323.739 183.508C323.37 183.467 322.981 183.426 322.592 183.385C314.42 182.321 311.533 177.979 311.635 174.743C311.676 173.821 312.208 173.125 313.028 172.593C313.232 172.511 316.489 171.302 324.23 174.538C324.455 174.641 324.681 174.743 324.906 174.825C332.361 177.999 334.163 180.211 330.907 182.566Z" fill="url(#paint44_linear_4306_12504)"/>
<path d="M343.338 167.227C343.133 166.838 336.969 154.898 346.062 144.555C347.557 146.665 348.253 146.399 348.519 146.071L348.704 146.46C348.724 146.481 340.184 158.707 343.338 167.227Z" fill="url(#paint45_linear_4306_12504)"/>
<path d="M352.288 181.993C348.99 183.283 345.837 183.754 343.072 183.775C362.917 179.249 360.418 160.673 358.043 154.898C355.319 148.283 354.684 138.944 358.247 129.318C360.848 122.232 359.108 117.911 358.002 116.109C360.541 116.068 361.913 118.116 362.507 123.031C362.651 124.26 362.671 125.427 362.61 126.554C362.364 130.752 360.951 134.479 361.033 139.333C361.135 145.477 364.822 152.031 366.009 160.038C367.197 168.026 363.306 177.692 352.288 181.993Z" fill="url(#paint46_linear_4306_12504)"/>
<path d="M362.61 126.554C357.776 128.847 353.476 126.902 351.243 125.468C352.001 120.676 353.619 117.071 356.548 116.334C360.05 115.453 361.79 117.276 362.507 123.052C362.651 124.26 362.671 125.427 362.61 126.554Z" fill="url(#paint47_linear_4306_12504)"/>
<path d="M333.221 130.527C332.811 134.008 326.299 135.688 325.479 132.718C326.135 126.308 329.76 125.837 331.705 126.082C332.729 127.414 333.426 128.888 333.221 130.527Z" fill="url(#paint48_linear_4306_12504)"/>
<path d="M326.667 143.613C326.524 148.774 319.131 149.471 317.226 145.969C316.673 144.392 316.591 142.487 318.045 140.644C321.261 136.63 325.561 140.132 325.746 140.275C326.483 141.483 326.708 142.671 326.667 143.613Z" fill="url(#paint49_linear_4306_12504)"/>
<path d="M323.841 168.394C323.431 168.476 322.817 168.415 322.039 168.292C320.953 168.026 319.95 167.8 319.028 167.554C317.759 163.151 319.725 160.182 321.076 158.789C323.575 159.915 326.032 161.533 326.381 163.049C326.831 164.954 326.708 167.882 323.841 168.394Z" fill="url(#paint50_linear_4306_12504)"/>
<path d="M330.907 182.566C329.719 183.222 327.589 183.857 323.739 183.508C322.858 182.198 322.366 180.15 322.878 178.184C323.37 176.3 324.312 175.296 324.926 174.825C332.361 177.999 334.163 180.211 330.907 182.566Z" fill="url(#paint51_linear_4306_12504)"/>
<path d="M514.592 159.629C518.073 160.284 521.248 160.161 523.972 159.67C530.32 158.523 534.253 155.328 534.253 155.328C534.253 155.328 534.621 155.84 535.707 156.209H535.727C537.12 156.68 539.659 156.884 544.042 155.451C551.865 152.891 553.893 148.099 553.197 144.924C552.992 144.023 552.336 143.429 551.435 143.06C549.182 142.139 545.455 142.589 543.858 142.774C541.605 143.04 540.888 142.487 541.666 140.767C541.707 140.685 541.748 140.603 541.81 140.521C542.895 138.964 547.319 138.063 549.572 136.241C551.947 134.336 552.807 130.65 552.07 127.168C551.701 125.448 549.961 124.772 547.831 124.833C545.619 124.915 542.997 125.796 541.011 127.188C537.12 129.933 535.42 129.482 534.846 127.27C534.437 125.714 537.304 122.929 539.905 120.287C540.97 119.201 542.014 118.157 542.752 117.215C545.291 113.979 542.404 108.797 536.874 108.818C536.301 108.818 535.768 108.92 535.297 109.105C531.283 110.702 530.853 118.218 528.17 117.665C525.159 117.051 526.777 114.245 529.808 109.658C530.197 109.064 530.607 108.408 530.996 107.732C533.536 103.227 535.399 97.3901 531.201 95.3626C530.238 94.8915 529.173 94.912 528.047 95.3421C523.541 97.0624 518.217 105.357 515.964 114.737C515.145 118.157 514.407 120.328 513.793 121.679C512.728 124.035 511.991 123.891 511.663 123.625C511.54 123.523 511.479 123.4 511.479 123.4C510.189 122.089 507.751 112.627 506.052 106.647C505.785 105.684 505.478 104.742 505.171 103.862C503.533 99.2947 501.28 96.0589 498.269 95.8746C497.737 95.8336 497.245 95.8541 496.815 95.936C494.296 96.3661 493.354 98.6393 493.661 103.575C493.743 104.804 493.948 105.951 494.214 107.057C495.238 111.132 497.327 114.532 498.146 119.304C499.191 125.366 496.795 132.472 497.102 140.562C497.348 148.672 502.959 157.437 514.592 159.629Z" fill="url(#paint52_linear_4306_12504)"/>
<path d="M523.746 105.521C524.791 108.859 528.559 108.408 530.955 107.753C531.242 107.261 531.508 106.749 531.754 106.237C533.822 102.019 534.887 97.1853 531.14 95.3831C530.177 94.912 529.112 94.9325 527.986 95.3626C527.207 96.7757 525.467 98.7213 524.402 100.872C523.664 102.346 523.255 103.944 523.746 105.521Z" fill="url(#paint53_linear_4306_12504)"/>
<path d="M532.614 117.133C533.638 119.119 536.26 121.782 539.864 120.307C540.765 119.406 541.625 118.505 542.322 117.686C542.465 117.522 542.588 117.379 542.69 117.215C545.23 113.979 542.342 108.797 536.813 108.818C536.239 108.818 535.707 108.92 535.236 109.105C534.601 110.129 533.515 111.931 532.901 113.672C532.409 115.023 532.184 116.314 532.614 117.133Z" fill="url(#paint54_linear_4306_12504)"/>
<path d="M540.007 140.971C540.417 140.971 541.031 140.808 541.748 140.541C542.772 140.07 543.694 139.661 544.554 139.251C546.418 138.37 547.974 137.51 549.51 136.261C551.886 134.356 552.746 130.67 552.009 127.188C551.64 125.468 549.899 124.792 547.769 124.854C546.581 126.328 544.452 128.827 542.588 129.933C542.055 130.26 541.482 130.609 540.929 131.018C538.676 132.595 536.567 134.623 536.505 136.2C536.423 138.145 537.099 140.992 540.007 140.971Z" fill="url(#paint55_linear_4306_12504)"/>
<path d="M535.707 156.209C536.997 156.639 539.209 156.864 542.916 155.799C543.264 155.697 543.632 155.594 544.021 155.451C551.845 152.891 553.872 148.099 553.176 144.924C552.971 144.023 552.316 143.429 551.415 143.06C551.21 143.02 547.769 142.426 540.765 147.054C540.56 147.197 540.356 147.341 540.151 147.464C533.413 151.99 532.061 154.509 535.707 156.209Z" fill="url(#paint56_linear_4306_12504)"/>
<path d="M520.633 143.45C520.756 143.02 524.606 130.158 513.732 121.679C512.667 124.035 511.929 123.891 511.602 123.625L511.479 124.055C511.479 124.055 522.149 134.479 520.633 143.45Z" fill="url(#paint57_linear_4306_12504)"/>
<path d="M514.592 159.629C518.073 160.284 521.248 160.161 523.972 159.67C503.635 158.912 502.631 140.193 503.901 134.07C505.335 127.066 504.229 117.768 498.945 108.961C495.074 102.49 495.975 97.9021 496.733 95.936C494.214 96.3661 493.272 98.6394 493.579 103.575C493.661 104.804 493.866 105.951 494.132 107.057C495.156 111.132 497.245 114.532 498.064 119.304C499.109 125.366 496.713 132.472 497.02 140.562C497.348 148.672 502.959 157.437 514.592 159.629Z" fill="url(#paint58_linear_4306_12504)"/>
<path d="M494.132 107.057C499.314 108.429 503.184 105.705 505.089 103.862C503.451 99.2948 501.198 96.059 498.187 95.8747C494.583 95.6494 493.211 97.7793 493.579 103.575C493.661 104.824 493.866 105.971 494.132 107.057Z" fill="url(#paint59_linear_4306_12504)"/>
<path d="M523.746 105.521C524.791 108.859 531.508 109.309 531.754 106.237C529.911 100.052 526.265 100.278 524.402 100.872C523.664 102.346 523.255 103.944 523.746 105.521Z" fill="url(#paint60_linear_4306_12504)"/>
<path d="M532.614 117.133C533.72 122.171 541.113 121.495 542.322 117.686C542.567 116.047 542.301 114.143 540.519 112.607C536.608 109.248 533.044 113.487 532.901 113.672C532.409 115.023 532.409 116.232 532.614 117.133Z" fill="url(#paint61_linear_4306_12504)"/>
<path d="M540.007 140.972C540.417 140.972 541.031 140.808 541.748 140.541C542.772 140.07 543.694 139.661 544.554 139.251C544.984 134.684 542.485 132.145 540.909 131.018C538.656 132.595 536.546 134.623 536.485 136.2C536.423 138.145 537.099 140.992 540.007 140.972Z" fill="url(#paint62_linear_4306_12504)"/>
<path d="M535.707 156.209C536.997 156.639 539.209 156.864 542.916 155.799C543.53 154.345 543.653 152.256 542.772 150.413C541.933 148.652 540.827 147.832 540.13 147.484C533.413 151.99 532.061 154.509 535.707 156.209Z" fill="url(#paint63_linear_4306_12504)"/>
<path d="M497.716 338.747C497.716 338.747 494.91 329.428 495.545 324.534C496.18 319.639 524.217 251.359 560.815 251.461L497.716 338.747Z" fill="#ACA5B5"/>
<path d="M506.359 362.34C506.359 362.34 498.187 355.807 497.429 334.323C496.672 312.819 540.458 237.965 567.102 253.632L506.359 362.34Z" fill="url(#paint64_linear_4306_12504)"/>
<path d="M573.963 280.42C573.963 281.3 573.922 282.181 573.902 283.103C573.738 287.567 573.308 292.421 572.55 297.541C572.427 298.401 572.304 299.261 572.14 300.121C571.403 304.586 570.441 309.256 569.212 314.089C568.986 314.908 568.782 315.748 568.556 316.587C567.082 321.953 565.28 327.503 563.109 333.156C562.802 333.954 562.474 334.753 562.146 335.572C560.221 340.365 558.009 345.218 555.511 350.093C555.122 350.871 554.712 351.649 554.302 352.427C552.07 356.626 549.633 360.824 546.95 365.023C546.725 365.371 546.499 365.719 546.274 366.067C545.721 366.395 545.168 366.702 544.615 367.009C525.221 377.249 501.853 363.958 501.771 354.209C501.771 354.107 501.771 354.004 501.771 353.881C501.792 353.267 501.915 352.386 502.119 351.28C502.672 348.188 503.86 343.314 505.539 337.477C505.765 336.678 506.01 335.839 506.256 334.999C507.608 330.37 509.246 325.23 511.069 319.926C511.356 319.106 511.622 318.308 511.909 317.488C513.813 312.041 515.923 306.47 518.135 301.166C518.462 300.367 518.811 299.569 519.138 298.77C521.145 294.121 523.214 289.718 525.323 285.806C525.753 285.007 526.183 284.249 526.613 283.492C527.125 282.591 527.637 281.73 528.17 280.891C530.361 277.348 532.634 274.112 534.908 271.163C535.481 270.425 536.075 269.688 536.649 268.992C541.113 263.606 545.66 259.407 549.981 256.52C550.985 255.844 551.968 255.25 552.951 254.717C558.255 251.85 563.129 251.092 567.02 252.649C568.925 253.407 570.625 256.171 571.854 260.513C572.12 261.414 572.345 262.397 572.57 263.442C573.533 267.968 574.045 273.723 573.963 280.42Z" fill="url(#paint65_linear_4306_12504)"/>
<path d="M572.591 263.442L550.002 256.52C551.005 255.844 551.988 255.25 552.971 254.717L571.874 260.513C572.14 261.435 572.366 262.397 572.591 263.442Z" fill="#988CA5"/>
<path d="M573.963 280.42C573.963 281.3 573.922 282.181 573.902 283.103L534.908 271.163C535.481 270.426 536.075 269.688 536.649 268.992L573.963 280.42Z" fill="#988CA5"/>
<path d="M572.55 297.541C572.427 298.401 572.304 299.261 572.14 300.121L525.323 285.785C525.753 284.987 526.183 284.229 526.613 283.471L572.55 297.541Z" fill="#988CA5"/>
<path d="M569.212 314.089C568.986 314.908 568.782 315.748 568.556 316.587L518.135 301.145C518.462 300.347 518.81 299.548 519.138 298.749L569.212 314.089Z" fill="#988CA5"/>
<path d="M563.088 333.156C562.781 333.954 562.453 334.753 562.126 335.572L511.028 319.926C511.315 319.106 511.581 318.308 511.868 317.489L563.088 333.156Z" fill="#988CA5"/>
<path d="M555.511 350.093C555.122 350.871 554.712 351.649 554.302 352.427L505.519 337.497C505.744 336.699 505.99 335.859 506.236 335.019L555.511 350.093Z" fill="#988CA5"/>
<path d="M546.95 365.023C546.725 365.371 546.499 365.719 546.274 366.067C545.721 366.395 545.168 366.702 544.615 367.009L501.771 353.882C501.792 353.267 501.915 352.386 502.119 351.281L546.95 365.023Z" fill="#988CA5"/>
<path d="M408.894 356.79C408.894 356.79 405.228 347.778 401.665 344.358C398.101 340.938 333.385 305.446 304.979 328.486L408.894 356.79Z" fill="#ACA5B5"/>
<path d="M416.984 380.567C416.984 380.567 419.257 370.348 406.334 353.144C393.412 335.941 312.331 305.201 301.456 334.118L416.984 380.567Z" fill="url(#paint66_linear_4306_12504)"/>
<path d="M312.925 359.288C313.478 359.964 314.052 360.64 314.666 361.336C317.595 364.716 320.974 368.218 324.783 371.74C325.418 372.334 326.053 372.908 326.708 373.501C330.087 376.512 333.774 379.543 337.767 382.513C338.464 383.025 339.14 383.537 339.856 384.049C344.362 387.305 349.257 390.479 354.52 393.51C355.257 393.94 356.015 394.371 356.773 394.78C361.278 397.299 366.03 399.695 371.047 401.907C371.846 402.255 372.645 402.604 373.464 402.952C377.826 404.815 382.373 406.556 387.104 408.133C387.493 408.277 387.882 408.399 388.292 408.522C388.926 408.44 389.561 408.338 390.176 408.215C411.7 403.996 421.531 378.99 415.469 371.351C415.407 371.269 415.346 371.187 415.264 371.105C414.854 370.634 414.219 370.04 413.359 369.303C410.983 367.235 407.01 364.204 402.034 360.701C401.337 360.21 400.641 359.718 399.904 359.227C395.931 356.483 391.446 353.492 386.694 350.523C385.977 350.072 385.24 349.622 384.503 349.151C379.588 346.12 374.468 343.109 369.389 340.365C368.631 339.955 367.853 339.546 367.095 339.136C362.63 336.781 358.247 334.651 354.131 332.931C353.312 332.582 352.493 332.255 351.673 331.948C350.711 331.579 349.769 331.21 348.827 330.903C344.894 329.531 341.085 328.425 337.481 327.585C336.559 327.38 335.658 327.176 334.757 326.991C327.896 325.599 321.732 325.189 316.55 325.66C315.342 325.763 314.195 325.926 313.11 326.131C307.17 327.237 302.91 329.695 300.862 333.361C299.859 335.142 300.269 338.358 302.03 342.515C302.398 343.396 302.829 344.297 303.3 345.239C305.45 349.335 308.645 354.148 312.925 359.288Z" fill="url(#paint67_linear_4306_12504)"/>
<path d="M303.341 345.219L316.571 325.64C315.362 325.742 314.215 325.906 313.13 326.111L302.05 342.495C302.419 343.375 302.849 344.276 303.341 345.219Z" fill="#988CA5"/>
<path d="M312.925 359.288C313.478 359.964 314.052 360.64 314.666 361.336L337.501 327.565C336.58 327.36 335.678 327.155 334.777 326.971L312.925 359.288Z" fill="#988CA5"/>
<path d="M324.783 371.74C325.418 372.334 326.053 372.908 326.708 373.501L354.131 332.931C353.312 332.582 352.492 332.255 351.673 331.948L324.783 371.74Z" fill="#988CA5"/>
<path d="M337.767 382.513C338.464 383.025 339.14 383.537 339.856 384.049L369.389 340.365C368.631 339.955 367.853 339.546 367.095 339.136L337.767 382.513Z" fill="#988CA5"/>
<path d="M354.52 393.49C355.257 393.92 356.015 394.35 356.773 394.76L386.694 350.502C385.977 350.052 385.24 349.601 384.503 349.13L354.52 393.49Z" fill="#988CA5"/>
<path d="M371.047 401.907C371.846 402.255 372.645 402.603 373.464 402.952L402.034 360.701C401.337 360.21 400.641 359.718 399.904 359.227L371.047 401.907Z" fill="#988CA5"/>
<path d="M387.104 408.154C387.493 408.297 387.882 408.42 388.292 408.543C388.926 408.461 389.561 408.358 390.176 408.235L415.264 371.126C414.854 370.655 414.219 370.061 413.359 369.323L387.104 408.154Z" fill="#988CA5"/>
<path d="M572.591 263.442C572.366 262.397 572.14 261.414 571.874 260.513C570.625 256.171 568.925 253.407 567.041 252.649C565.71 252.116 564.256 251.85 562.699 251.871C562.044 251.727 561.388 251.625 560.733 251.563L560.795 251.461C560.364 251.461 559.934 251.482 559.484 251.482C557.784 251.461 556.064 251.686 554.302 252.157C546.172 253.898 538.533 258.834 531.652 265.347C531.16 261.148 530.197 252.854 529.419 244.703C528.764 237.862 525.897 231.841 522.968 227.643C520.94 224.755 518.892 222.728 517.52 221.888C517.52 221.888 512.298 202.166 499.989 197.517C499.744 197.435 499.518 197.332 499.293 197.251C499.17 197.21 499.047 197.169 498.925 197.128C494.132 195.469 490.261 195.182 487.394 195.428C487.333 195.428 486.555 195.428 485.223 195.735C485.203 195.735 485.182 195.735 485.162 195.756C484.978 195.796 484.793 195.837 484.629 195.878C483.442 196.165 482.581 196.513 482.008 196.779L481.988 196.8C481.783 196.882 481.557 196.984 481.332 197.066C481.353 197.046 481.373 197.005 481.394 196.984C481.414 196.964 481.435 196.923 481.455 196.902C481.455 196.902 481.455 196.882 481.476 196.882C481.496 196.841 481.516 196.82 481.537 196.779L481.557 196.759C481.578 196.718 481.598 196.677 481.619 196.636C481.619 196.616 481.639 196.616 481.639 196.595C481.66 196.554 481.68 196.493 481.701 196.452C481.701 196.431 481.701 196.431 481.721 196.411C481.742 196.349 481.762 196.288 481.783 196.227V196.206C481.885 195.919 481.988 195.592 482.069 195.162C482.069 195.141 482.069 195.121 482.09 195.1C482.11 195.018 482.131 194.916 482.131 194.834C482.131 194.793 482.151 194.752 482.151 194.732C482.172 194.65 482.172 194.547 482.192 194.445C482.192 194.404 482.213 194.363 482.213 194.301C482.233 194.199 482.233 194.097 482.233 193.994C482.233 193.953 482.233 193.892 482.254 193.851C482.254 193.748 482.274 193.626 482.274 193.523C482.274 193.482 482.274 193.421 482.274 193.38C482.274 193.257 482.274 193.134 482.274 193.011C482.274 192.991 482.274 192.97 482.274 192.929C482.274 192.602 482.274 192.233 482.254 191.844C482.233 191.619 482.213 191.373 482.192 191.127C482.151 190.676 482.09 190.205 482.008 189.714C483.175 189.448 484.261 189.059 485.203 188.547C487.701 187.133 489.278 185.802 490.139 184.512C491.552 182.444 491.163 180.559 490.036 178.839C489.36 177.815 487.845 177.098 486.165 176.627C483.544 175.869 480.595 175.665 480.165 175.644C480.144 173.78 480.001 171.671 479.653 169.562C479.612 169.295 479.571 169.029 479.509 168.763C479.243 167.391 478.875 166.039 478.404 164.769C478.404 164.769 479.612 165.609 481.639 166.674C481.762 166.735 481.865 166.797 481.947 166.838C481.988 166.858 482.028 166.879 482.049 166.899C482.172 166.961 482.233 166.981 482.233 166.981C486.903 169.418 495.136 172.756 502.631 171.016C503.328 170.852 504.024 170.647 504.7 170.401C505.662 170.053 506.543 169.643 507.362 169.234C512.462 166.612 515.247 162.865 516.722 160.018C519.425 160.305 521.883 160.161 524.074 159.752C530.423 158.605 534.355 155.41 534.355 155.41C534.355 155.41 534.723 155.922 535.809 156.291H535.829C535.911 156.311 535.993 156.352 536.096 156.372C536.116 156.372 536.157 156.393 536.178 156.393C536.239 156.413 536.321 156.434 536.382 156.454C536.423 156.454 536.444 156.475 536.485 156.475C536.546 156.495 536.628 156.495 536.69 156.516C536.731 156.516 536.772 156.536 536.813 156.536C536.874 156.557 536.956 156.557 537.038 156.577C537.079 156.577 537.14 156.598 537.181 156.598C537.263 156.598 537.345 156.618 537.406 156.618C537.447 156.618 537.509 156.618 537.55 156.639C537.632 156.639 537.714 156.659 537.816 156.659C537.877 156.659 537.918 156.659 537.98 156.659C538.082 156.659 538.164 156.659 538.267 156.659C538.328 156.659 538.369 156.659 538.43 156.659C538.533 156.659 538.656 156.659 538.758 156.659C538.799 156.659 538.86 156.659 538.901 156.659C539.024 156.659 539.168 156.639 539.291 156.639C539.332 156.639 539.372 156.639 539.393 156.639C539.741 156.598 540.13 156.557 540.54 156.495C540.54 156.495 540.54 156.495 540.56 156.495C540.745 156.454 540.949 156.434 541.154 156.393C541.195 156.393 541.257 156.372 541.298 156.372C541.461 156.331 541.625 156.311 541.81 156.27C541.871 156.25 541.932 156.229 542.014 156.229C542.178 156.188 542.342 156.147 542.506 156.106C542.588 156.086 542.649 156.065 542.731 156.045C542.834 156.024 542.936 155.983 543.038 155.963C543.12 155.942 543.202 155.922 543.284 155.881C543.325 155.881 543.346 155.86 543.387 155.86C543.632 155.779 543.878 155.717 544.144 155.615C551.968 153.055 553.995 148.262 553.299 145.088C553.094 144.187 552.439 143.593 551.538 143.224C549.285 142.303 545.557 142.753 543.96 142.938C541.707 143.204 540.99 142.651 541.769 140.931C541.81 140.849 541.851 140.767 541.912 140.685C542.936 140.214 543.858 139.804 544.718 139.395C546.581 138.514 548.138 137.654 549.674 136.404C552.05 134.5 552.91 130.813 552.172 127.332C551.804 125.612 550.063 124.936 547.933 124.997C545.721 125.079 543.1 125.96 541.113 127.352C537.222 130.097 535.522 129.646 534.949 127.434C534.539 125.878 537.406 123.092 540.007 120.451C540.069 120.389 540.13 120.328 540.192 120.266C541.257 119.754 542.117 118.915 542.485 117.829C542.506 117.809 542.506 117.809 542.526 117.788C542.649 117.645 542.772 117.501 542.875 117.358C545.414 114.122 542.526 108.941 536.997 108.961C536.423 108.961 535.891 109.064 535.42 109.248C531.406 110.845 530.976 118.362 528.293 117.809C525.282 117.194 526.9 114.388 529.931 109.801C530.32 109.207 530.73 108.552 531.119 107.876C531.16 107.814 531.18 107.753 531.221 107.692C531.611 107.364 531.877 106.913 531.918 106.36C531.918 106.34 531.938 106.34 531.938 106.319C532 106.217 532.041 106.094 532.102 105.992C532.123 105.971 532.123 105.93 532.143 105.91C532.184 105.807 532.245 105.705 532.286 105.582C532.307 105.541 532.307 105.521 532.327 105.48C532.368 105.377 532.43 105.275 532.471 105.152C532.491 105.132 532.491 105.091 532.512 105.07C532.655 104.742 532.778 104.415 532.901 104.067C532.921 104.005 532.942 103.964 532.962 103.903C532.983 103.821 533.024 103.739 533.044 103.657C533.065 103.596 533.085 103.534 533.106 103.452C533.126 103.37 533.147 103.309 533.188 103.227C533.208 103.165 533.228 103.084 533.249 103.022C533.269 102.94 533.29 102.879 533.31 102.797C533.331 102.735 533.351 102.653 533.372 102.592C533.392 102.51 533.413 102.449 533.433 102.387C533.454 102.326 533.474 102.244 533.495 102.182C533.515 102.121 533.536 102.039 533.536 101.978C533.556 101.916 533.577 101.834 533.577 101.773C533.597 101.711 533.597 101.629 533.618 101.568C533.638 101.486 533.638 101.425 533.659 101.343C533.679 101.281 533.679 101.22 533.7 101.158C533.72 101.036 533.741 100.913 533.741 100.79C533.741 100.728 533.761 100.667 533.761 100.585C533.761 100.503 533.781 100.442 533.781 100.36C533.781 100.298 533.781 100.237 533.781 100.175C533.781 100.114 533.781 100.032 533.781 99.9705C533.781 99.9091 533.781 99.8477 533.781 99.7862C533.781 99.7248 533.781 99.6633 533.781 99.6019C533.781 99.5405 533.781 99.479 533.781 99.4176C533.781 99.3561 533.781 99.2947 533.761 99.2333C533.761 99.1718 533.741 99.1104 533.741 99.049C533.741 98.9875 533.72 98.9261 533.72 98.8646C533.72 98.8032 533.7 98.7417 533.7 98.6803C533.679 98.6189 533.679 98.5574 533.659 98.496C533.638 98.4345 533.638 98.3731 533.618 98.3117C533.597 98.2502 533.577 98.1888 533.577 98.1274C533.556 98.0659 533.556 98.025 533.536 97.9635C533.515 97.8816 533.474 97.8201 533.454 97.7587C533.433 97.6768 533.392 97.5949 533.351 97.5334C533.331 97.472 533.29 97.4106 533.269 97.3491C533.249 97.3082 533.208 97.2467 533.188 97.2057C533.167 97.1443 533.126 97.1033 533.106 97.0419C533.085 97.0009 533.044 96.9395 533.003 96.8985C532.962 96.8576 532.942 96.7961 532.901 96.7552C532.86 96.7142 532.839 96.6733 532.798 96.6323C532.757 96.5913 532.716 96.5299 532.676 96.489C532.635 96.448 532.594 96.407 532.553 96.3661C532.512 96.3251 532.471 96.2841 532.409 96.2227C532.368 96.1817 532.327 96.1408 532.286 96.1203C532.225 96.0793 532.184 96.0384 532.123 95.9974C532.082 95.9565 532.041 95.936 532 95.895C531.938 95.8541 531.856 95.8131 531.795 95.7517C531.754 95.7312 531.713 95.6902 531.672 95.6697C531.549 95.6083 531.447 95.5469 531.324 95.4854C530.361 95.0144 529.296 95.0349 528.17 95.465C523.664 97.1853 518.34 105.48 516.087 114.86C515.268 118.28 514.53 120.451 513.916 121.802C512.851 124.157 512.114 124.014 511.786 123.748C511.663 123.645 511.602 123.523 511.602 123.523C510.311 122.212 507.874 112.75 506.174 106.77C505.908 105.807 505.601 104.865 505.294 103.985C503.655 99.4176 501.403 96.1817 498.392 95.9974C498.269 95.9974 498.146 95.977 498.044 95.977C497.982 95.977 497.941 95.977 497.88 95.977C497.819 95.977 497.757 95.977 497.696 95.977C497.634 95.977 497.593 95.977 497.532 95.977C497.47 95.977 497.429 95.9769 497.368 95.9974C497.307 95.9974 497.266 95.9974 497.204 96.0179C497.143 96.0179 497.102 96.0384 497.04 96.0384C496.999 96.0384 496.958 96.0384 496.938 96.0589C496.917 96.0589 496.917 96.0589 496.917 96.0589C496.795 96.0793 496.672 96.1203 496.549 96.1408C496.508 96.1408 496.487 96.1613 496.446 96.1613C496.323 96.2022 496.201 96.2432 496.098 96.2841C496.078 96.2841 496.057 96.3046 496.037 96.3251C495.934 96.3661 495.832 96.4275 495.75 96.4685C495.73 96.4889 495.709 96.4889 495.689 96.5094C495.586 96.5709 495.484 96.6323 495.402 96.7142C495.381 96.7347 495.361 96.7552 495.32 96.7757C495.238 96.8576 495.156 96.919 495.074 97.001C495.054 97.0214 495.033 97.0419 495.013 97.0624C494.931 97.1443 494.869 97.2262 494.808 97.3286C494.788 97.3491 494.788 97.3696 494.767 97.3901C494.706 97.4925 494.644 97.5949 494.583 97.6973C494.562 97.7177 494.542 97.7587 494.521 97.7997C494.46 97.9021 494.398 98.025 494.357 98.1478C494.337 98.1888 494.337 98.2298 494.317 98.2502C494.255 98.3731 494.214 98.5165 494.173 98.6598C494.173 98.6803 494.153 98.7213 494.153 98.7417C494.112 98.8646 494.071 99.008 494.05 99.1514C494.05 99.1923 494.03 99.2333 494.03 99.2742C493.989 99.4381 493.968 99.6019 493.948 99.7657C493.948 99.8067 493.927 99.8682 493.927 99.9091C493.907 100.093 493.886 100.257 493.866 100.462C493.866 100.503 493.866 100.544 493.845 100.585C493.825 100.769 493.825 100.954 493.805 101.138C493.805 101.179 493.805 101.199 493.805 101.24C493.805 101.445 493.784 101.67 493.784 101.896C493.784 101.957 493.784 101.998 493.784 102.06C493.784 102.285 493.784 102.531 493.805 102.776C493.805 102.817 493.805 102.879 493.805 102.92C493.805 103.186 493.825 103.452 493.845 103.718C493.927 104.947 494.132 106.094 494.398 107.2C495.422 111.276 497.511 114.675 498.331 119.447C498.556 120.717 498.617 122.048 498.597 123.4C497.941 123.645 497.245 123.932 496.528 124.28C495.34 124.854 494.071 125.612 492.862 126.554C492.739 126.656 492.596 126.758 492.473 126.881C492.473 126.881 492.453 126.902 492.432 126.922C492.432 126.922 492.432 126.922 492.412 126.922C492.412 126.922 492.412 126.922 492.391 126.943C492.391 126.943 492.391 126.943 492.391 126.963C492.187 127.127 492.002 127.311 491.797 127.475C491.736 127.537 491.675 127.598 491.613 127.66C491.49 127.782 491.367 127.905 491.245 128.028C491.142 128.131 491.06 128.233 490.958 128.335C490.876 128.417 490.794 128.499 490.712 128.602C490.589 128.724 490.487 128.868 490.384 128.991C490.343 129.032 490.302 129.073 490.261 129.134C490.2 129.216 490.139 129.298 490.077 129.38C490.077 129.38 489.217 128.028 487.64 126.328C485.756 124.301 482.889 121.761 479.305 120.512C478.977 119.713 478.608 118.915 478.219 118.136C477.216 111.194 475.352 102.08 473.734 100.872C472.178 99.7043 471.01 98.2502 461.856 99.1923C461.589 99.008 461.344 98.8441 461.077 98.6803C461.897 96.8371 462.224 95.6697 462.224 95.6697C462.327 94.1747 462.368 92.7206 462.347 91.287C464.088 90.7341 467.713 89.5053 468.737 88.6861C470.99 86.8838 464.108 64.4787 461.589 64.4787C460.688 64.4787 456.08 65.0317 454.012 65.2979C446.578 55.1808 434.945 49.1801 422.084 49.6512L421.06 47.3574C413.748 47.5008 407.543 49.344 402.669 53.1328L403.242 55.0374C391.691 61.7753 385.691 74.1453 385.67 87.0886C383.868 88.1126 379.772 90.4678 379.035 91.0003C377.007 92.5158 384.871 114.573 387.78 114.675C389.049 114.716 392.51 113.61 394.292 112.996C394.968 113.897 395.685 114.798 396.443 115.658C388.087 118.894 382.803 121.597 382.004 122.662C380.898 124.137 382.578 131.039 384.011 136.118C381.083 138.043 377.683 142.057 376.536 150.413C376.475 150.822 376.434 151.252 376.372 151.683C376.372 151.683 375.594 151.805 374.693 152.502C374.242 152.85 373.751 153.341 373.3 154.058C373.218 154.181 373.136 154.324 373.054 154.468C372.972 154.611 372.891 154.775 372.829 154.959C372.809 155 372.788 155.041 372.768 155.082C372.706 155.226 372.645 155.389 372.583 155.553C372.563 155.594 372.563 155.615 372.542 155.656C372.481 155.84 372.42 156.045 372.358 156.27C372.338 156.311 372.338 156.352 372.338 156.393C372.297 156.577 372.235 156.782 372.194 156.987C372.194 157.007 372.174 157.028 372.174 157.048C372.174 157.069 372.174 157.089 372.174 157.089C372.133 157.253 372.112 157.417 372.092 157.581C372.092 157.642 372.071 157.683 372.071 157.745C372.051 157.97 372.01 158.195 371.989 158.42V158.441C371.989 158.441 371.969 158.4 371.949 158.339C371.928 158.298 371.908 158.277 371.887 158.216C371.867 158.195 371.867 158.175 371.846 158.154C371.826 158.134 371.805 158.093 371.785 158.052C371.764 158.031 371.744 158.011 371.744 157.97C371.723 157.929 371.682 157.888 371.662 157.847C371.641 157.827 371.621 157.786 371.6 157.765C371.559 157.704 371.518 157.663 371.477 157.601C371.457 157.581 371.436 157.56 371.416 157.519C371.355 157.437 371.273 157.356 371.211 157.274C371.191 157.253 371.17 157.212 371.129 157.192C371.068 157.13 371.006 157.048 370.945 156.987C370.884 156.925 370.822 156.864 370.761 156.803C370.74 156.782 370.72 156.762 370.679 156.721C370.658 156.7 370.658 156.7 370.638 156.68C370.597 156.639 370.535 156.577 370.474 156.536C370.372 156.434 370.249 156.352 370.126 156.25C370.126 156.25 370.126 156.25 370.105 156.25C369.757 155.963 369.348 155.676 368.877 155.389H368.856C367.832 154.775 366.501 154.161 364.781 153.69C363.265 148.467 361.34 143.839 361.278 139.436C361.196 134.602 362.61 130.854 362.855 126.656C362.917 125.53 362.896 124.362 362.753 123.133C362.712 122.867 362.692 122.601 362.651 122.335C362.651 122.294 362.63 122.232 362.63 122.191C362.589 121.946 362.548 121.72 362.507 121.495C362.507 121.434 362.487 121.393 362.487 121.331C362.446 121.106 362.405 120.901 362.343 120.676C362.343 120.635 362.323 120.614 362.323 120.573C362.282 120.389 362.241 120.205 362.18 120.041C362.159 120 362.159 119.959 362.139 119.918C362.077 119.734 362.036 119.57 361.975 119.386C361.954 119.345 361.934 119.283 361.934 119.242C361.872 119.078 361.811 118.915 361.749 118.771C361.729 118.73 361.709 118.71 361.709 118.669C361.647 118.546 361.586 118.403 361.524 118.28C361.504 118.259 361.504 118.218 361.483 118.198C361.422 118.075 361.34 117.952 361.258 117.829C361.237 117.788 361.217 117.768 361.197 117.727C361.115 117.624 361.053 117.501 360.971 117.42C360.951 117.399 360.93 117.358 360.91 117.338C360.828 117.235 360.746 117.153 360.664 117.071C360.644 117.051 360.623 117.03 360.623 117.03C360.541 116.948 360.459 116.887 360.357 116.826C360.336 116.805 360.316 116.785 360.275 116.764C360.172 116.703 360.091 116.641 359.988 116.58C359.968 116.559 359.927 116.559 359.906 116.539C359.804 116.477 359.701 116.436 359.579 116.396C359.558 116.396 359.538 116.375 359.517 116.375C359.415 116.334 359.312 116.314 359.21 116.293C359.189 116.293 359.169 116.273 359.128 116.273C359.005 116.252 358.882 116.232 358.759 116.211C358.718 116.211 358.698 116.211 358.657 116.211C358.534 116.211 358.411 116.191 358.268 116.191C358.247 116.191 358.247 116.191 358.227 116.191C358.186 116.191 358.145 116.191 358.125 116.191C358.063 116.191 358.022 116.191 357.961 116.191C357.899 116.191 357.858 116.191 357.797 116.211C357.735 116.211 357.694 116.232 357.633 116.232C357.572 116.232 357.531 116.252 357.469 116.252C357.408 116.252 357.346 116.273 357.285 116.293C357.244 116.293 357.182 116.314 357.141 116.314C357.019 116.334 356.916 116.355 356.793 116.396C353.865 117.133 352.267 120.737 351.489 125.53C351.346 126.451 351.223 127.434 351.141 128.438C350.588 134.623 349.953 144.371 348.929 145.907C348.929 145.907 348.888 146.03 348.786 146.153C348.519 146.481 347.823 146.747 346.328 144.637C345.468 143.429 344.362 141.443 342.908 138.227C338.935 129.421 332.176 122.273 327.425 121.413C326.237 121.188 325.172 121.372 324.312 122.007C324.21 122.089 324.107 122.171 324.005 122.253C323.964 122.294 323.943 122.314 323.902 122.355C323.841 122.417 323.78 122.458 323.718 122.519C323.677 122.56 323.636 122.601 323.616 122.642C323.575 122.703 323.513 122.744 323.472 122.806C323.431 122.847 323.411 122.888 323.37 122.949C323.329 123.011 323.288 123.052 323.247 123.113C323.206 123.154 323.186 123.215 323.165 123.256C323.124 123.318 323.104 123.359 323.063 123.42C323.042 123.461 323.001 123.523 322.981 123.564C322.96 123.625 322.919 123.666 322.899 123.727C322.878 123.789 322.858 123.83 322.837 123.891C322.817 123.953 322.796 124.014 322.776 124.055C322.756 124.116 322.735 124.157 322.715 124.219C322.694 124.28 322.674 124.342 322.674 124.403C322.653 124.485 322.633 124.567 322.612 124.649C322.592 124.731 322.592 124.792 322.571 124.874C322.571 124.936 322.551 124.997 322.551 125.038C322.551 125.1 322.53 125.161 322.53 125.222C322.53 125.284 322.53 125.345 322.53 125.407C322.53 125.468 322.53 125.53 322.53 125.591C322.53 125.652 322.53 125.714 322.53 125.775C322.53 125.837 322.53 125.898 322.53 125.96C322.53 126.021 322.551 126.083 322.551 126.144C322.551 126.205 322.571 126.267 322.571 126.328C322.571 126.39 322.592 126.451 322.592 126.513C322.592 126.574 322.612 126.636 322.633 126.697C322.653 126.758 322.653 126.82 322.674 126.881C322.694 126.943 322.694 127.004 322.715 127.086C322.735 127.148 322.735 127.209 322.756 127.27C322.776 127.352 322.796 127.414 322.817 127.496C322.837 127.557 322.858 127.619 322.878 127.68C322.919 127.803 322.96 127.905 323.001 128.028C323.022 128.09 323.042 128.151 323.063 128.212C323.083 128.274 323.124 128.356 323.145 128.417C323.165 128.479 323.206 128.54 323.227 128.602C323.247 128.663 323.288 128.745 323.309 128.806C323.329 128.868 323.37 128.929 323.39 129.011C323.411 129.073 323.452 129.134 323.472 129.216C323.513 129.277 323.534 129.359 323.575 129.421C323.616 129.482 323.636 129.544 323.677 129.605C323.718 129.667 323.739 129.748 323.78 129.81C323.82 129.871 323.841 129.933 323.882 129.994C323.923 130.056 323.964 130.138 324.005 130.199C324.046 130.26 324.066 130.322 324.107 130.383C324.148 130.465 324.189 130.527 324.23 130.609C324.251 130.65 324.292 130.711 324.312 130.752C324.496 131.059 324.681 131.366 324.885 131.653C324.906 131.674 324.926 131.694 324.926 131.715C324.988 131.817 325.049 131.899 325.131 132.001C325.152 132.022 325.172 132.063 325.193 132.083C325.254 132.186 325.336 132.267 325.397 132.37C325.418 132.39 325.438 132.431 325.459 132.452C325.541 132.554 325.602 132.657 325.684 132.759L325.705 132.78C325.848 133.312 326.176 133.701 326.626 133.947C326.667 134.008 326.729 134.07 326.77 134.111C327.282 134.705 327.794 135.278 328.285 135.79C332.115 139.743 334.224 142.18 331.398 143.347C328.859 144.392 327.056 137.08 322.817 136.261C322.325 136.159 321.793 136.159 321.22 136.261C315.792 137.285 313.908 142.917 317.001 145.62C317.124 145.743 317.267 145.846 317.41 145.969C317.431 145.989 317.431 145.989 317.451 146.01C318.004 147.013 319.008 147.668 320.155 147.976C320.216 148.017 320.298 148.078 320.359 148.119C323.411 150.228 326.749 152.42 326.626 154.038C326.462 156.311 324.885 157.069 320.544 155.103C318.332 154.099 315.588 153.731 313.417 154.058C311.307 154.386 309.71 155.369 309.669 157.13C309.587 160.694 311.123 164.155 313.806 165.588C315.547 166.51 317.246 167.084 319.233 167.596C320.155 167.841 321.138 168.067 322.244 168.333C322.325 168.394 322.387 168.476 322.428 168.558C323.513 170.094 322.899 170.79 320.646 170.954C319.028 171.057 315.301 171.323 313.253 172.634C312.434 173.166 311.901 173.862 311.86 174.784C311.758 178.02 314.645 182.362 322.817 183.427C323.083 183.468 323.349 183.488 323.595 183.508C323.636 183.508 323.657 183.508 323.698 183.529C323.78 183.529 323.882 183.549 323.964 183.549C324.066 183.549 324.169 183.57 324.271 183.57C324.353 183.57 324.435 183.59 324.517 183.59C324.681 183.611 324.865 183.611 325.029 183.611C325.09 183.611 325.172 183.611 325.234 183.631C325.418 183.631 325.582 183.652 325.746 183.652C325.787 183.652 325.848 183.652 325.889 183.652C326.094 183.652 326.299 183.652 326.503 183.652C326.503 183.652 326.503 183.652 326.524 183.652C326.933 183.652 327.323 183.611 327.671 183.59C327.712 183.59 327.753 183.59 327.773 183.57C327.916 183.549 328.039 183.549 328.162 183.529C328.203 183.529 328.265 183.508 328.306 183.508C328.408 183.488 328.531 183.468 328.633 183.447C328.695 183.447 328.736 183.427 328.797 183.427C328.9 183.406 328.981 183.386 329.084 183.365C329.145 183.345 329.186 183.345 329.227 183.324C329.309 183.304 329.391 183.283 329.473 183.263C329.514 183.242 329.575 183.242 329.616 183.222C329.698 183.201 329.78 183.181 329.842 183.16C329.883 183.14 329.924 183.14 329.965 183.119C330.046 183.099 330.108 183.078 330.169 183.037C330.21 183.017 330.251 183.017 330.292 182.996C330.354 182.976 330.436 182.935 330.497 182.915C330.538 182.894 330.558 182.894 330.599 182.874C330.661 182.853 330.722 182.812 330.784 182.792C330.804 182.771 330.845 182.771 330.866 182.751C330.948 182.71 331.029 182.669 331.111 182.628C331.111 182.628 331.132 182.628 331.132 182.607C332.115 182.054 332.402 181.481 332.402 181.481C332.402 181.481 335.924 183.386 341.269 183.754L341.003 184.123C341.003 184.123 350.055 193.728 363.101 194.916C365.6 195.141 368.262 195.059 371.006 194.547C373.013 194.179 375.082 193.564 377.191 192.663C377.191 192.663 382.721 194.179 390.544 189.755L390.565 189.734C391.282 189.325 392.019 188.874 392.756 188.362C392.756 188.362 393.043 189.612 393.473 190.984C393.575 191.291 393.678 191.619 393.78 191.926V191.905C393.78 191.905 393.719 191.946 393.616 192.028C393.555 192.09 393.452 192.151 393.35 192.253C393.186 192.397 393.002 192.561 392.777 192.745C390.892 194.424 387.022 198.172 387.411 200.363C387.82 202.678 389.828 203.62 393.063 203.579C392.777 203.743 391.609 204.439 390.114 205.361C390.094 205.361 390.094 205.381 390.094 205.381C387.902 206.733 385.076 208.515 383.52 209.702C383.479 209.743 383.438 209.764 383.397 209.805C383.397 209.805 383.397 209.805 383.376 209.805C380.714 211.935 379.588 214.884 375.041 218.365C370.433 221.908 370.597 224.489 368.836 231.739C368.057 234.893 367.218 238.067 366.542 240.627C365.641 243.945 364.985 246.259 364.985 246.259C364.985 246.259 363.552 247.57 361.893 249.823C361.852 249.864 361.831 249.905 361.79 249.946C361.77 249.966 361.77 249.987 361.749 249.987C361.708 250.048 361.668 250.109 361.606 250.171C361.565 250.232 361.545 250.253 361.524 250.273C360.848 251.195 360.172 252.28 359.517 253.468C358.882 254.656 358.288 255.967 357.797 257.359C357.531 258.117 357.305 258.916 357.121 259.735C356.404 262.95 356.036 266.248 355.831 269.033C355.749 270.282 355.687 271.429 355.667 272.412C355.605 274.624 355.646 276.017 355.646 276.017C355.646 276.017 354.745 277.061 353.598 278.863V278.884C352.677 280.358 351.591 282.345 350.752 284.68C350.014 286.666 349.441 288.919 349.257 291.356C348.642 299.057 357.182 320.335 359.292 325.455C342.457 320.52 323.984 318.287 310.672 325.005C309.013 325.742 307.518 326.664 306.228 327.749C305.88 328.015 305.532 328.261 305.204 328.548L305.327 328.568C304.856 329.039 304.405 329.531 303.996 330.043C302.788 331.005 301.825 332.132 301.108 333.381C300.105 335.163 300.514 338.378 302.276 342.536C302.644 343.416 303.074 344.317 303.545 345.259C305.655 349.376 308.87 354.168 313.13 359.329C313.683 360.005 314.256 360.681 314.871 361.377C317.799 364.756 321.179 368.259 324.988 371.781C325.623 372.375 326.258 372.948 326.913 373.542C330.292 376.553 333.979 379.584 337.972 382.554C338.669 383.066 339.344 383.578 340.061 384.09C344.567 387.346 349.461 390.52 354.725 393.551C355.462 393.981 356.22 394.412 356.978 394.821C361.483 397.34 366.235 399.736 371.252 401.948C372.051 402.296 372.85 402.644 373.669 402.993C378.031 404.856 382.578 406.597 387.309 408.174C387.698 408.317 388.087 408.44 388.496 408.563C389.131 408.481 389.766 408.379 390.381 408.256C406.109 405.184 415.591 390.991 417.189 380.588C417.189 380.588 417.23 380.362 417.291 379.932C417.619 377.29 417.414 374.935 416.656 373.092C415.735 369.098 413.646 363.589 409.12 356.81C409.12 356.81 407.154 351.956 404.696 348.024C404.921 342.106 405.085 333.135 404.43 326.418C403.365 315.482 399.863 306.982 400.436 301.125C400.436 301.125 405.659 298.708 409.939 280.625C410.471 278.392 410.983 275.914 411.475 273.17C411.475 273.17 411.618 273.129 411.864 273.047C414.117 272.33 425.647 268.193 430.194 257.974C435.252 246.628 440.311 244.989 443.014 246.73C445.717 248.492 457.145 259.366 473.918 258.547C473.918 258.547 474.41 259.633 475.311 261.291C476.274 263.032 477.707 265.428 479.55 267.886C482.233 271.45 485.797 275.136 490.077 277.184C490.077 277.184 492.002 286.441 491.654 300.388C491.388 310.874 492.596 323.817 496.242 331.743C496.917 335.45 497.921 338.767 497.921 338.767C498.658 346.877 500.481 352.468 502.283 356.155C502.857 358.06 504.167 360.026 506.093 361.869C506.4 362.176 506.584 362.319 506.584 362.319C514.366 369.405 530.668 374.484 544.841 367.009C545.394 366.723 545.947 366.395 546.499 366.067C546.725 365.719 546.95 365.371 547.175 365.023C549.858 360.824 552.316 356.605 554.528 352.407C554.937 351.629 555.347 350.851 555.736 350.072C558.235 345.198 560.426 340.344 562.371 335.552C562.699 334.753 563.006 333.934 563.334 333.135C565.525 327.483 567.328 321.933 568.782 316.567C569.007 315.727 569.232 314.888 569.437 314.068C570.666 309.235 571.649 304.566 572.366 300.101C572.509 299.22 572.652 298.36 572.775 297.521C573.533 292.38 573.963 287.547 574.127 283.082C574.168 282.161 574.188 281.28 574.188 280.399C574.045 273.723 573.533 267.968 572.591 263.442ZM393.063 200.609C392.92 200.589 392.797 200.589 392.674 200.548C392.326 200.486 392.039 200.364 391.835 200.22C391.691 200.118 391.589 200.015 391.527 199.872C391.486 199.811 391.466 199.749 391.425 199.667C391.384 199.524 391.343 199.38 391.343 199.217C391.343 198.725 391.527 198.152 391.835 197.578C391.937 197.394 392.039 197.189 392.162 197.005C392.408 196.616 392.654 196.227 392.92 195.878C392.981 195.796 393.043 195.694 393.125 195.612C393.248 195.448 393.391 195.284 393.514 195.121C394.067 194.445 394.517 193.974 394.517 193.974C394.517 193.974 393.473 196.82 393.063 200.609ZM479.858 181.153C479.858 181.174 486.8 179.945 487.865 181.501C488.643 182.607 488.132 184.328 485.367 185.352C484.322 185.741 482.93 186.048 481.168 186.171C480.82 184.84 480.37 183.365 479.776 181.727C479.796 181.727 479.837 181.522 479.858 181.153Z" fill="url(#paint68_linear_4306_12504)"/>
</g>
<defs>
<linearGradient id="paint0_linear_4306_12504" x1="381.273" y1="123.192" x2="478.155" y2="116.589" gradientUnits="userSpaceOnUse">
<stop stop-color="#34254C"/>
<stop offset="1" stop-color="#51397F"/>
</linearGradient>
<linearGradient id="paint1_linear_4306_12504" x1="372.773" y1="235.723" x2="485.393" y2="228.047" gradientUnits="userSpaceOnUse">
<stop stop-color="#E1DAE5"/>
<stop offset="1" stop-color="#F7F4F9"/>
</linearGradient>
<linearGradient id="paint2_linear_4306_12504" x1="335.213" y1="186.014" x2="366.902" y2="183.854" gradientUnits="userSpaceOnUse">
<stop stop-color="#C8B8D3"/>
<stop offset="1" stop-color="#C8B8D3" stop-opacity="0.3"/>
</linearGradient>
<linearGradient id="paint3_linear_4306_12504" x1="332.899" y1="216.683" x2="466.188" y2="207.598" gradientUnits="userSpaceOnUse">
<stop stop-color="#C8B8D3"/>
<stop offset="1" stop-color="#C8B8D3" stop-opacity="0.3"/>
</linearGradient>
<linearGradient id="paint4_linear_4306_12504" x1="386.966" y1="313.957" x2="414.338" y2="312.091" gradientUnits="userSpaceOnUse">
<stop stop-color="#C8B8D3" stop-opacity="0.9"/>
<stop offset="1" stop-color="#C8B8D3" stop-opacity="0.3"/>
</linearGradient>
<linearGradient id="paint5_linear_4306_12504" x1="406.124" y1="255.261" x2="489.151" y2="249.602" gradientUnits="userSpaceOnUse">
<stop stop-color="#C8B8D3" stop-opacity="0.9"/>
<stop offset="1" stop-color="#C8B8D3" stop-opacity="0.3"/>
</linearGradient>
<linearGradient id="paint6_linear_4306_12504" x1="481.038" y1="292.72" x2="517.017" y2="290.268" gradientUnits="userSpaceOnUse">
<stop stop-color="#C8B8D3" stop-opacity="0.9"/>
<stop offset="1" stop-color="#C8B8D3" stop-opacity="0.3"/>
</linearGradient>
<linearGradient id="paint7_linear_4306_12504" x1="534.241" y1="222.955" x2="503.487" y2="241.882" gradientUnits="userSpaceOnUse">
<stop stop-color="white"/>
<stop offset="1" stop-color="white" stop-opacity="0"/>
</linearGradient>
<linearGradient id="paint8_linear_4306_12504" x1="377.359" y1="125.387" x2="401.031" y2="159.221" gradientUnits="userSpaceOnUse">
<stop stop-color="#C8B8D3"/>
<stop offset="1" stop-color="#C8B8D3" stop-opacity="0.3"/>
</linearGradient>
<linearGradient id="paint9_linear_4306_12504" x1="482.42" y1="100.067" x2="465.993" y2="134.529" gradientUnits="userSpaceOnUse">
<stop stop-color="white"/>
<stop offset="1" stop-color="white" stop-opacity="0"/>
</linearGradient>
<linearGradient id="paint10_linear_4306_12504" x1="385.916" y1="209.821" x2="467.683" y2="204.248" gradientUnits="userSpaceOnUse">
<stop stop-color="#34254C"/>
<stop offset="1" stop-color="#51397F"/>
</linearGradient>
<linearGradient id="paint11_linear_4306_12504" x1="400.24" y1="211.411" x2="496.246" y2="200.808" gradientUnits="userSpaceOnUse">
<stop stop-color="#2D2244"/>
<stop offset="1" stop-color="#3E2C5E" stop-opacity="0"/>
</linearGradient>
<linearGradient id="paint12_linear_4306_12504" x1="388.141" y1="122.665" x2="407.868" y2="174.626" gradientUnits="userSpaceOnUse">
<stop stop-color="#CE1D3B"/>
<stop offset="1" stop-color="#ED202E"/>
</linearGradient>
<linearGradient id="paint13_linear_4306_12504" x1="456.535" y1="93.977" x2="469.505" y2="138.63" gradientUnits="userSpaceOnUse">
<stop stop-color="#CE1D3B"/>
<stop offset="1" stop-color="#ED202E"/>
</linearGradient>
<linearGradient id="paint14_linear_4306_12504" x1="405.618" y1="176.874" x2="452.887" y2="170.631" gradientUnits="userSpaceOnUse">
<stop stop-color="#A193AD"/>
<stop offset="0.9961" stop-color="#CEC4D6"/>
</linearGradient>
<linearGradient id="paint15_linear_4306_12504" x1="441.043" y1="192.016" x2="431.142" y2="142.279" gradientUnits="userSpaceOnUse">
<stop stop-color="#E1DAE5"/>
<stop offset="1" stop-color="#F7F4F9"/>
</linearGradient>
<linearGradient id="paint16_linear_4306_12504" x1="409.438" y1="199.396" x2="433.821" y2="173.994" gradientUnits="userSpaceOnUse">
<stop stop-color="#CEC4D6"/>
<stop offset="0.9961" stop-color="#CEC4D6" stop-opacity="0"/>
</linearGradient>
<linearGradient id="paint17_linear_4306_12504" x1="421.09" y1="188.323" x2="416.072" y2="165.358" gradientUnits="userSpaceOnUse">
<stop stop-color="#34254C"/>
<stop offset="1" stop-color="#432A68"/>
</linearGradient>
<linearGradient id="paint18_linear_4306_12504" x1="436.379" y1="184.982" x2="431.361" y2="162.016" gradientUnits="userSpaceOnUse">
<stop stop-color="#34254C"/>
<stop offset="1" stop-color="#432A68"/>
</linearGradient>
<linearGradient id="paint19_linear_4306_12504" x1="425.88" y1="178.691" x2="422.986" y2="161.095" gradientUnits="userSpaceOnUse">
<stop stop-color="#A193AD"/>
<stop offset="0.9961" stop-color="#CEC4D6"/>
</linearGradient>
<linearGradient id="paint20_linear_4306_12504" x1="446.514" y1="164.262" x2="452.089" y2="157.408" gradientUnits="userSpaceOnUse">
<stop stop-color="#3492B7"/>
<stop offset="1" stop-color="#4CC8E5"/>
</linearGradient>
<linearGradient id="paint21_linear_4306_12504" x1="449.189" y1="174.257" x2="455.956" y2="173.795" gradientUnits="userSpaceOnUse">
<stop stop-color="#D733DB"/>
<stop offset="1" stop-color="#F43EF9"/>
</linearGradient>
<linearGradient id="paint22_linear_4306_12504" x1="447.702" y1="135.087" x2="460.016" y2="130.988" gradientUnits="userSpaceOnUse">
<stop stop-color="#1E45A5"/>
<stop offset="1" stop-color="#2265C6"/>
</linearGradient>
<linearGradient id="paint23_linear_4306_12504" x1="395.588" y1="147.276" x2="418.822" y2="139.865" gradientUnits="userSpaceOnUse">
<stop stop-color="#34254C"/>
<stop offset="1" stop-color="#51397F"/>
</linearGradient>
<linearGradient id="paint24_linear_4306_12504" x1="398.781" y1="116.736" x2="461.162" y2="112.484" gradientUnits="userSpaceOnUse">
<stop stop-color="#34254C"/>
<stop offset="1" stop-color="#51397F"/>
</linearGradient>
<linearGradient id="paint25_linear_4306_12504" x1="390.106" y1="99.6637" x2="383.348" y2="101.851" gradientUnits="userSpaceOnUse">
<stop stop-color="#E1DAE5"/>
<stop offset="1" stop-color="#F7F4F9"/>
</linearGradient>
<linearGradient id="paint26_linear_4306_12504" x1="458.829" y1="77.8187" x2="464.773" y2="76.1638" gradientUnits="userSpaceOnUse">
<stop stop-color="#E1DAE5"/>
<stop offset="1" stop-color="#F7F4F9"/>
</linearGradient>
<linearGradient id="paint27_linear_4306_12504" x1="402.332" y1="52.0409" x2="422.309" y2="50.6793" gradientUnits="userSpaceOnUse">
<stop stop-color="#E1DAE5"/>
<stop offset="1" stop-color="#F7F4F9"/>
</linearGradient>
<linearGradient id="paint28_linear_4306_12504" x1="392.705" y1="91.4923" x2="458.82" y2="64.11" gradientUnits="userSpaceOnUse">
<stop stop-color="#E1DAE5"/>
<stop offset="1" stop-color="#F7F4F9"/>
</linearGradient>
<linearGradient id="paint29_linear_4306_12504" x1="411.559" y1="110.843" x2="424.273" y2="50.3043" gradientUnits="userSpaceOnUse">
<stop stop-color="#C8B8D3"/>
<stop offset="1" stop-color="#C8B8D3" stop-opacity="0"/>
</linearGradient>
<linearGradient id="paint30_linear_4306_12504" x1="411.03" y1="120.273" x2="445.874" y2="109.049" gradientUnits="userSpaceOnUse">
<stop stop-color="#E1DAE5"/>
<stop offset="1" stop-color="#F7F4F9"/>
</linearGradient>
<linearGradient id="paint31_linear_4306_12504" x1="388.496" y1="99.445" x2="469.345" y2="79.2595" gradientUnits="userSpaceOnUse">
<stop stop-color="#201D21"/>
<stop offset="1" stop-color="#524B56"/>
</linearGradient>
<linearGradient id="paint32_linear_4306_12504" x1="377.436" y1="98.1056" x2="415.535" y2="93.3842" gradientUnits="userSpaceOnUse">
<stop stop-color="#111011"/>
<stop offset="1" stop-color="#111011" stop-opacity="0"/>
</linearGradient>
<linearGradient id="paint33_linear_4306_12504" x1="431.433" y1="61.3951" x2="444.326" y2="92.2397" gradientUnits="userSpaceOnUse">
<stop stop-color="#EDE7F2"/>
<stop offset="1" stop-color="#EDE7F2" stop-opacity="0"/>
</linearGradient>
<linearGradient id="paint34_linear_4306_12504" x1="448.148" y1="84.825" x2="459.9" y2="98.9153" gradientUnits="userSpaceOnUse">
<stop stop-color="#EDE7F2"/>
<stop offset="1" stop-color="#EDE7F2" stop-opacity="0"/>
</linearGradient>
<linearGradient id="paint35_linear_4306_12504" x1="480.698" y1="235.448" x2="523.295" y2="232.545" gradientUnits="userSpaceOnUse">
<stop stop-color="#34254C"/>
<stop offset="1" stop-color="#51397F"/>
</linearGradient>
<linearGradient id="paint36_linear_4306_12504" x1="401.477" y1="270.108" x2="355.619" y2="245.558" gradientUnits="userSpaceOnUse">
<stop stop-color="#34254C"/>
<stop offset="1" stop-color="#51397F"/>
</linearGradient>
<linearGradient id="paint37_linear_4306_12504" x1="499.748" y1="164.855" x2="492.536" y2="125.529" gradientUnits="userSpaceOnUse">
<stop stop-color="#34254C"/>
<stop offset="1" stop-color="#51397F"/>
</linearGradient>
<linearGradient id="paint38_linear_4306_12504" x1="367.905" y1="169.759" x2="375.414" y2="169.247" gradientUnits="userSpaceOnUse">
<stop stop-color="#34254C"/>
<stop offset="1" stop-color="#51397F"/>
</linearGradient>
<linearGradient id="paint39_linear_4306_12504" x1="395.976" y1="146.448" x2="419.21" y2="139.038" gradientUnits="userSpaceOnUse">
<stop stop-color="#A193AD"/>
<stop offset="0.9961" stop-color="#CEC4D6"/>
</linearGradient>
<linearGradient id="paint40_linear_4306_12504" x1="363.674" y1="171.332" x2="323.081" y2="136.223" gradientUnits="userSpaceOnUse">
<stop stop-color="#E1DAE5"/>
<stop offset="1" stop-color="#F7F4F9"/>
</linearGradient>
<linearGradient id="paint41_linear_4306_12504" x1="322.466" y1="127.996" x2="333.088" y2="127.272" gradientUnits="userSpaceOnUse">
<stop stop-color="#E1DAE5"/>
<stop offset="1" stop-color="#F7F4F9"/>
</linearGradient>
<linearGradient id="paint42_linear_4306_12504" x1="315.295" y1="142.596" x2="326.675" y2="141.821" gradientUnits="userSpaceOnUse">
<stop stop-color="#E1DAE5"/>
<stop offset="1" stop-color="#F7F4F9"/>
</linearGradient>
<linearGradient id="paint43_linear_4306_12504" x1="309.739" y1="161.805" x2="326.322" y2="160.675" gradientUnits="userSpaceOnUse">
<stop stop-color="#E1DAE5"/>
<stop offset="1" stop-color="#F7F4F9"/>
</linearGradient>
<linearGradient id="paint44_linear_4306_12504" x1="311.875" y1="178.546" x2="332.25" y2="177.157" gradientUnits="userSpaceOnUse">
<stop stop-color="#E1DAE5"/>
<stop offset="1" stop-color="#F7F4F9"/>
</linearGradient>
<linearGradient id="paint45_linear_4306_12504" x1="348.265" y1="134.095" x2="341.761" y2="166.91" gradientUnits="userSpaceOnUse">
<stop stop-color="#C8B8D3"/>
<stop offset="1" stop-color="#C8B8D3" stop-opacity="0.3"/>
</linearGradient>
<linearGradient id="paint46_linear_4306_12504" x1="375.435" y1="164.999" x2="348.397" y2="148.281" gradientUnits="userSpaceOnUse">
<stop stop-color="#C8B8D3"/>
<stop offset="1" stop-color="#C8B8D3" stop-opacity="0.3"/>
</linearGradient>
<linearGradient id="paint47_linear_4306_12504" x1="356.526" y1="129.518" x2="357.869" y2="117.557" gradientUnits="userSpaceOnUse">
<stop stop-color="#34254C"/>
<stop offset="1" stop-color="#51397F"/>
</linearGradient>
<linearGradient id="paint48_linear_4306_12504" x1="325.333" y1="130.425" x2="333.266" y2="129.884" gradientUnits="userSpaceOnUse">
<stop stop-color="#34254C"/>
<stop offset="1" stop-color="#51397F"/>
</linearGradient>
<linearGradient id="paint49_linear_4306_12504" x1="316.837" y1="143.745" x2="326.664" y2="143.075" gradientUnits="userSpaceOnUse">
<stop stop-color="#34254C"/>
<stop offset="1" stop-color="#51397F"/>
</linearGradient>
<linearGradient id="paint50_linear_4306_12504" x1="318.534" y1="163.863" x2="326.502" y2="163.32" gradientUnits="userSpaceOnUse">
<stop stop-color="#34254C"/>
<stop offset="1" stop-color="#51397F"/>
</linearGradient>
<linearGradient id="paint51_linear_4306_12504" x1="322.632" y1="179.417" x2="332.359" y2="178.754" gradientUnits="userSpaceOnUse">
<stop stop-color="#34254C"/>
<stop offset="1" stop-color="#51397F"/>
</linearGradient>
<linearGradient id="paint52_linear_4306_12504" x1="501.417" y1="151.264" x2="534.773" y2="109.219" gradientUnits="userSpaceOnUse">
<stop stop-color="#E1DAE5"/>
<stop offset="1" stop-color="#F7F4F9"/>
</linearGradient>
<linearGradient id="paint53_linear_4306_12504" x1="533.849" y1="101.022" x2="523.277" y2="102.286" gradientUnits="userSpaceOnUse">
<stop stop-color="#E1DAE5"/>
<stop offset="1" stop-color="#F7F4F9"/>
</linearGradient>
<linearGradient id="paint54_linear_4306_12504" x1="543.609" y1="114.034" x2="532.283" y2="115.388" gradientUnits="userSpaceOnUse">
<stop stop-color="#E1DAE5"/>
<stop offset="1" stop-color="#F7F4F9"/>
</linearGradient>
<linearGradient id="paint55_linear_4306_12504" x1="552.64" y1="131.874" x2="536.136" y2="133.847" gradientUnits="userSpaceOnUse">
<stop stop-color="#E1DAE5"/>
<stop offset="1" stop-color="#F7F4F9"/>
</linearGradient>
<linearGradient id="paint56_linear_4306_12504" x1="553.654" y1="148.72" x2="533.376" y2="151.144" gradientUnits="userSpaceOnUse">
<stop stop-color="#E1DAE5"/>
<stop offset="1" stop-color="#F7F4F9"/>
</linearGradient>
<linearGradient id="paint57_linear_4306_12504" x1="509.633" y1="111.811" x2="522.126" y2="142.844" gradientUnits="userSpaceOnUse">
<stop stop-color="#C8B8D3"/>
<stop offset="1" stop-color="#C8B8D3" stop-opacity="0.3"/>
</linearGradient>
<linearGradient id="paint58_linear_4306_12504" x1="488.683" y1="147.229" x2="512.141" y2="125.775" gradientUnits="userSpaceOnUse">
<stop stop-color="#C8B8D3"/>
<stop offset="1" stop-color="#C8B8D3" stop-opacity="0.3"/>
</linearGradient>
<linearGradient id="paint59_linear_4306_12504" x1="500.665" y1="108.85" x2="497.121" y2="97.347" gradientUnits="userSpaceOnUse">
<stop stop-color="#34254C"/>
<stop offset="1" stop-color="#51397F"/>
</linearGradient>
<linearGradient id="paint60_linear_4306_12504" x1="531.483" y1="103.941" x2="523.588" y2="104.885" gradientUnits="userSpaceOnUse">
<stop stop-color="#34254C"/>
<stop offset="1" stop-color="#51397F"/>
</linearGradient>
<linearGradient id="paint61_linear_4306_12504" x1="542.307" y1="115.449" x2="532.527" y2="116.618" gradientUnits="userSpaceOnUse">
<stop stop-color="#34254C"/>
<stop offset="1" stop-color="#51397F"/>
</linearGradient>
<linearGradient id="paint62_linear_4306_12504" x1="544.381" y1="135.532" x2="536.45" y2="136.48" gradientUnits="userSpaceOnUse">
<stop stop-color="#34254C"/>
<stop offset="1" stop-color="#51397F"/>
</linearGradient>
<linearGradient id="paint63_linear_4306_12504" x1="543.246" y1="151.576" x2="533.566" y2="152.733" gradientUnits="userSpaceOnUse">
<stop stop-color="#34254C"/>
<stop offset="1" stop-color="#51397F"/>
</linearGradient>
<linearGradient id="paint64_linear_4306_12504" x1="495.688" y1="309.415" x2="570.549" y2="304.313" gradientUnits="userSpaceOnUse">
<stop stop-color="#E1DAE5"/>
<stop offset="1" stop-color="#F7F4F9"/>
</linearGradient>
<linearGradient id="paint65_linear_4306_12504" x1="497.071" y1="359.588" x2="579.124" y2="281.163" gradientUnits="userSpaceOnUse">
<stop stop-color="#BBAEC4"/>
<stop offset="1" stop-color="#DED1E8"/>
</linearGradient>
<linearGradient id="paint66_linear_4306_12504" x1="392.046" y1="332.687" x2="330.591" y2="375.743" gradientUnits="userSpaceOnUse">
<stop stop-color="#E1DAE5"/>
<stop offset="1" stop-color="#F7F4F9"/>
</linearGradient>
<linearGradient id="paint67_linear_4306_12504" x1="316.519" y1="374.615" x2="417.878" y2="353.143" gradientUnits="userSpaceOnUse">
<stop stop-color="#BBAEC4"/>
<stop offset="1" stop-color="#DED1E8"/>
</linearGradient>
<linearGradient id="paint68_linear_4306_12504" x1="544.588" y1="153.565" x2="341.728" y2="315.159" gradientUnits="userSpaceOnUse">
<stop stop-color="#04074A"/>
<stop offset="0.8902" stop-opacity="0"/>
</linearGradient>
<clipPath id="clip0_4306_12504">
<rect width="281" height="364" fill="white" transform="translate(293 45)"/>
</clipPath>
</defs>
</svg>
