<svg width="1440" height="1024" viewBox="0 0 1440 1024" fill="none" xmlns="http://www.w3.org/2000/svg">
<g clip-path="url(#clip0_3167_15220)">
<rect width="1440" height="1024" fill="white"/>
<path d="M1440 0V1024H0V0H1440Z" fill="url(#paint0_linear_3167_15220)"/>
<path opacity="0.5" d="M123.409 312.033C191.567 312.033 246.821 256.779 246.821 188.62C246.821 120.462 191.567 65.208 123.409 65.208C55.2498 65.208 -0.00390625 120.462 -0.00390625 188.62C-0.00390625 256.779 55.2498 312.033 123.409 312.033Z" fill="url(#paint1_linear_3167_15220)"/>
<path opacity="0.5" d="M1445.49 0V404.439C1418.09 411.689 1389.3 415.539 1359.6 415.539C1174.38 415.539 1024.22 265.38 1024.22 80.1587C1024.22 52.5312 1027.56 25.6819 1033.87 0L1445.49 0Z" fill="url(#paint2_linear_3167_15220)"/>
<path opacity="0.5" d="M234.021 948.387C313.321 948.387 377.606 884.102 377.606 804.802C377.606 725.502 313.321 661.217 234.021 661.217C154.721 661.217 90.4355 725.502 90.4355 804.802C90.4355 884.102 154.721 948.387 234.021 948.387Z" fill="url(#paint3_linear_3167_15220)"/>
<path opacity="0.5" d="M1113.72 928.399C1153.63 928.399 1185.99 896.041 1185.99 856.126C1185.99 816.21 1153.63 783.852 1113.72 783.852C1073.8 783.852 1041.45 816.21 1041.45 856.126C1041.45 896.041 1073.8 928.399 1113.72 928.399Z" fill="url(#paint4_linear_3167_15220)"/>
<g opacity="0.42">
<path d="M948.674 202.609C950.009 202.609 951.091 201.527 951.091 200.192C951.091 198.858 950.009 197.776 948.674 197.776C947.34 197.776 946.258 198.858 946.258 200.192C946.258 201.527 947.34 202.609 948.674 202.609Z" fill="white"/>
<path d="M667.689 291.492C669.024 291.492 670.106 290.41 670.106 289.076C670.106 287.741 669.024 286.659 667.689 286.659C666.354 286.659 665.272 287.741 665.272 289.076C665.272 290.41 666.354 291.492 667.689 291.492Z" fill="white"/>
<path d="M986.378 424.428C987.713 424.428 988.795 423.346 988.795 422.011C988.795 420.677 987.713 419.595 986.378 419.595C985.044 419.595 983.962 420.677 983.962 422.011C983.962 423.346 985.044 424.428 986.378 424.428Z" fill="white"/>
<path d="M1056.97 539.341C1058.31 539.341 1059.39 538.259 1059.39 536.925C1059.39 535.59 1058.31 534.508 1056.97 534.508C1055.64 534.508 1054.56 535.59 1054.56 536.925C1054.56 538.259 1055.64 539.341 1056.97 539.341Z" fill="white"/>
<path d="M917.524 371.856C917.524 373.187 916.439 374.272 915.108 374.272C913.776 374.272 912.691 373.187 912.691 371.856C912.691 370.524 913.776 369.439 915.108 369.439C916.459 369.439 917.524 370.524 917.524 371.856Z" fill="white"/>
<path d="M1186.22 353.199C1187.56 353.199 1188.64 352.117 1188.64 350.782C1188.64 349.447 1187.56 348.365 1186.22 348.365C1184.89 348.365 1183.81 349.447 1183.81 350.782C1183.81 352.117 1184.89 353.199 1186.22 353.199Z" fill="white"/>
<path d="M853.77 134.411C853.77 135.742 852.685 136.827 851.354 136.827C850.022 136.827 848.937 135.742 848.937 134.411C848.937 133.079 850.022 131.994 851.354 131.994C852.685 131.994 853.77 133.079 853.77 134.411Z" fill="white"/>
<path d="M699.31 179.118C699.31 180.45 698.225 181.535 696.893 181.535C695.562 181.535 694.477 180.45 694.477 179.118C694.477 177.787 695.562 176.702 696.893 176.702C698.225 176.722 699.31 177.787 699.31 179.118Z" fill="white"/>
<path d="M619.172 183.542C620.506 183.542 621.588 182.46 621.588 181.125C621.588 179.791 620.506 178.709 619.172 178.709C617.837 178.709 616.755 179.791 616.755 181.125C616.755 182.46 617.837 183.542 619.172 183.542Z" fill="white"/>
<path d="M578.929 316.232C578.929 317.563 577.843 318.649 576.512 318.649C575.181 318.649 574.095 317.563 574.095 316.232C574.095 314.901 575.181 313.815 576.512 313.815C577.843 313.815 578.929 314.901 578.929 316.232Z" fill="white"/>
<path d="M626.34 392.827C627.674 392.827 628.756 391.745 628.756 390.411C628.756 389.076 627.674 387.994 626.34 387.994C625.005 387.994 623.923 389.076 623.923 390.411C623.923 391.745 625.005 392.827 626.34 392.827Z" fill="white"/>
<path d="M455.291 568.3C455.291 569.631 454.205 570.717 452.874 570.717C451.543 570.717 450.458 569.631 450.458 568.3C450.458 566.969 451.543 565.883 452.874 565.883C454.226 565.883 455.291 566.969 455.291 568.3Z" fill="white"/>
<path d="M472.699 521.421C472.699 522.752 471.613 523.838 470.282 523.838C468.951 523.838 467.866 522.752 467.866 521.421C467.866 520.09 468.951 519.004 470.282 519.004C471.613 519.004 472.699 520.09 472.699 521.421Z" fill="white"/>
<path d="M374.661 784.425C374.661 785.757 373.576 786.842 372.244 786.842C370.913 786.842 369.828 785.757 369.828 784.425C369.828 783.094 370.913 782.009 372.244 782.009C373.576 782.009 374.661 783.094 374.661 784.425Z" fill="white"/>
<path d="M413.184 705.27C413.184 706.601 412.098 707.687 410.767 707.687C409.436 707.687 408.351 706.601 408.351 705.27C408.351 703.939 409.436 702.854 410.767 702.854C412.098 702.854 413.184 703.939 413.184 705.27Z" fill="white"/>
<path d="M438.231 931.553C439.566 931.553 440.648 930.472 440.648 929.137C440.648 927.802 439.566 926.72 438.231 926.72C436.896 926.72 435.814 927.802 435.814 929.137C435.814 930.472 436.896 931.553 438.231 931.553Z" fill="white"/>
<path d="M353.73 981.136C353.73 982.467 352.645 983.552 351.314 983.552C349.983 983.552 348.897 982.467 348.897 981.136C348.897 979.805 349.983 978.719 351.314 978.719C352.645 978.719 353.73 979.805 353.73 981.136Z" fill="white"/>
<path d="M772.546 956.642C772.546 957.973 771.461 959.058 770.13 959.058C768.799 959.058 767.713 957.973 767.713 956.642C767.713 955.311 768.799 954.225 770.13 954.225C771.461 954.246 772.546 955.311 772.546 956.642Z" fill="white"/>
<path d="M933.069 937.472C933.069 938.803 931.983 939.889 930.652 939.889C929.321 939.889 928.235 938.803 928.235 937.472C928.235 936.141 929.321 935.056 930.652 935.056C932.004 935.056 933.069 936.141 933.069 937.472Z" fill="white"/>
<path d="M969.912 843.019C969.912 844.35 968.827 845.435 967.496 845.435C966.164 845.435 965.079 844.35 965.079 843.019C965.079 841.687 966.164 840.602 967.496 840.602C968.827 840.602 969.912 841.687 969.912 843.019Z" fill="white"/>
<path d="M795.689 820.02C795.689 821.351 794.603 822.436 793.272 822.436C791.941 822.436 790.856 821.351 790.856 820.02C790.856 818.688 791.941 817.603 793.272 817.603C794.603 817.603 795.689 818.688 795.689 820.02Z" fill="white"/>
<path d="M780.104 763.577C780.104 764.908 779.018 765.993 777.687 765.993C776.356 765.993 775.27 764.908 775.27 763.577C775.27 762.246 776.356 761.16 777.687 761.16C779.039 761.16 780.104 762.246 780.104 763.577Z" fill="white"/>
<path d="M742.953 765.563C742.953 766.894 741.867 767.98 740.536 767.98C739.205 767.98 738.12 766.894 738.12 765.563C738.12 764.232 739.205 763.146 740.536 763.146C741.867 763.146 742.953 764.232 742.953 765.563Z" fill="white"/>
<path d="M1195.72 796.816C1197.06 796.816 1198.14 795.734 1198.14 794.399C1198.14 793.064 1197.06 791.982 1195.72 791.982C1194.39 791.982 1193.31 793.064 1193.31 794.399C1193.31 795.734 1194.39 796.816 1195.72 796.816Z" fill="white"/>
<path d="M1095.27 779.613C1096.6 779.613 1097.69 778.531 1097.69 777.196C1097.69 775.861 1096.6 774.779 1095.27 774.779C1093.94 774.779 1092.85 775.861 1092.85 777.196C1092.85 778.531 1093.94 779.613 1095.27 779.613Z" fill="white"/>
<path d="M1204.14 699.618C1204.14 700.949 1203.06 702.034 1201.73 702.034C1200.39 702.034 1199.31 700.949 1199.31 699.618C1199.31 698.286 1200.39 697.201 1201.73 697.201C1203.06 697.201 1204.14 698.286 1204.14 699.618Z" fill="white"/>
<path d="M1229.11 587.899C1230.44 587.899 1231.52 586.817 1231.52 585.483C1231.52 584.148 1230.44 583.066 1229.11 583.066C1227.77 583.066 1226.69 584.148 1226.69 585.483C1226.69 586.817 1227.77 587.899 1229.11 587.899Z" fill="white"/>
<path d="M1176.94 551.035C1178.28 551.035 1179.36 549.953 1179.36 548.619C1179.36 547.284 1178.28 546.202 1176.94 546.202C1175.61 546.202 1174.53 547.284 1174.53 548.619C1174.53 549.953 1175.61 551.035 1176.94 551.035Z" fill="white"/>
<path d="M1199.17 448.164C1200.5 448.164 1201.58 447.082 1201.58 445.747C1201.58 444.413 1200.5 443.331 1199.17 443.331C1197.83 443.331 1196.75 444.413 1196.75 445.747C1196.75 447.082 1197.83 448.164 1199.17 448.164Z" fill="white"/>
<path d="M1212.46 448.205C1213.79 448.205 1214.87 447.123 1214.87 445.788C1214.87 444.454 1213.79 443.372 1212.46 443.372C1211.12 443.372 1210.04 444.454 1210.04 445.788C1210.04 447.123 1211.12 448.205 1212.46 448.205Z" fill="white"/>
<path d="M923.259 264.541C924.593 264.541 925.675 263.459 925.675 262.124C925.675 260.789 924.593 259.707 923.259 259.707C921.924 259.707 920.842 260.789 920.842 262.124C920.842 263.459 921.924 264.541 923.259 264.541Z" fill="white"/>
<path d="M741.478 342.037C742.813 342.037 743.895 340.955 743.895 339.62C743.895 338.286 742.813 337.204 741.478 337.204C740.144 337.204 739.062 338.286 739.062 339.62C739.062 340.955 740.144 342.037 741.478 342.037Z" fill="white"/>
<path d="M866.365 370.852C867.7 370.852 868.782 369.77 868.782 368.436C868.782 367.101 867.7 366.019 866.365 366.019C865.031 366.019 863.949 367.101 863.949 368.436C863.949 369.77 865.031 370.852 866.365 370.852Z" fill="white"/>
<path d="M440.033 370.586C440.033 371.917 438.948 373.002 437.617 373.002C436.285 373.002 435.2 371.917 435.2 370.586C435.2 369.255 436.285 368.169 437.617 368.169C438.968 368.19 440.033 369.255 440.033 370.586Z" fill="white"/>
<path d="M364.134 481.321C365.469 481.321 366.551 480.239 366.551 478.905C366.551 477.57 365.469 476.488 364.134 476.488C362.8 476.488 361.718 477.57 361.718 478.905C361.718 480.239 362.8 481.321 364.134 481.321Z" fill="white"/>
<path d="M337.592 560.313C337.592 561.644 336.507 562.729 335.176 562.729C333.844 562.729 332.759 561.644 332.759 560.313C332.759 558.981 333.844 557.896 335.176 557.896C336.527 557.896 337.592 558.981 337.592 560.313Z" fill="white"/>
<path d="M355.123 320.43C355.123 321.762 354.038 322.847 352.706 322.847C351.375 322.847 350.29 321.762 350.29 320.43C350.29 319.099 351.375 318.014 352.706 318.014C354.058 318.034 355.123 319.099 355.123 320.43Z" fill="white"/>
<path d="M368.865 133.223C368.865 134.554 367.78 135.639 366.449 135.639C365.117 135.639 364.032 134.554 364.032 133.223C364.032 131.892 365.117 130.806 366.449 130.806C367.78 130.806 368.865 131.892 368.865 133.223Z" fill="white"/>
<path d="M432.333 120.013C433.667 120.013 434.749 118.931 434.749 117.597C434.749 116.262 433.667 115.18 432.333 115.18C430.998 115.18 429.916 116.262 429.916 117.597C429.916 118.931 430.998 120.013 432.333 120.013Z" fill="white"/>
<path d="M745.677 105.493C745.677 106.824 744.591 107.909 743.26 107.909C741.929 107.909 740.843 106.824 740.843 105.493C740.843 104.162 741.929 103.076 743.26 103.076C744.612 103.076 745.677 104.162 745.677 105.493Z" fill="white"/>
<path d="M648.847 130.56C648.847 131.892 647.762 132.977 646.431 132.977C645.099 132.977 644.014 131.892 644.014 130.56C644.014 129.229 645.099 128.144 646.431 128.144C647.762 128.144 648.847 129.229 648.847 130.56Z" fill="white"/>
<path d="M927.129 103.957C928.464 103.957 929.546 102.875 929.546 101.54C929.546 100.206 928.464 99.1235 927.129 99.1235C925.795 99.1235 924.713 100.206 924.713 101.54C924.713 102.875 925.795 103.957 927.129 103.957Z" fill="white"/>
<path d="M904.212 176.968C904.212 178.299 903.127 179.385 901.796 179.385C900.464 179.385 899.379 178.299 899.379 176.968C899.379 175.637 900.464 174.551 901.796 174.551C903.127 174.551 904.212 175.637 904.212 176.968Z" fill="white"/>
<path d="M857.067 258.745C858.402 258.745 859.484 257.663 859.484 256.328C859.484 254.993 858.402 253.911 857.067 253.911C855.733 253.911 854.651 254.993 854.651 256.328C854.651 257.663 855.733 258.745 857.067 258.745Z" fill="white"/>
<path d="M693.473 349.348C693.473 350.679 692.388 351.765 691.057 351.765C689.725 351.765 688.64 350.679 688.64 349.348C688.64 348.017 689.725 346.932 691.057 346.932C692.388 346.932 693.473 348.017 693.473 349.348Z" fill="white"/>
<path d="M635.638 385.946C636.972 385.946 638.054 384.864 638.054 383.529C638.054 382.195 636.972 381.113 635.638 381.113C634.303 381.113 633.221 382.195 633.221 383.529C633.221 384.864 634.303 385.946 635.638 385.946Z" fill="white"/>
<path d="M551.526 491.008C552.861 491.008 553.943 489.926 553.943 488.592C553.943 487.257 552.861 486.175 551.526 486.175C550.192 486.175 549.11 487.257 549.11 488.592C549.11 489.926 550.192 491.008 551.526 491.008Z" fill="white"/>
<path d="M536.187 541.615C537.521 541.615 538.603 540.533 538.603 539.198C538.603 537.863 537.521 536.781 536.187 536.781C534.852 536.781 533.77 537.863 533.77 539.198C533.77 540.533 534.852 541.615 536.187 541.615Z" fill="white"/>
<path d="M551.67 622.961C553.004 622.961 554.086 621.879 554.086 620.544C554.086 619.21 553.004 618.128 551.67 618.128C550.335 618.128 549.253 619.21 549.253 620.544C549.253 621.879 550.335 622.961 551.67 622.961Z" fill="white"/>
<path d="M579.297 682.476C579.297 683.807 578.212 684.892 576.881 684.892C575.549 684.892 574.464 683.807 574.464 682.476C574.464 681.145 575.549 680.059 576.881 680.059C578.212 680.08 579.297 681.145 579.297 682.476Z" fill="white"/>
<path d="M709.796 721.163C711.13 721.163 712.212 720.081 712.212 718.746C712.212 717.411 711.13 716.329 709.796 716.329C708.461 716.329 707.379 717.411 707.379 718.746C707.379 720.081 708.461 721.163 709.796 721.163Z" fill="white"/>
<path d="M814.367 736.666C815.701 736.666 816.783 735.584 816.783 734.249C816.783 732.914 815.701 731.833 814.367 731.833C813.032 731.833 811.95 732.914 811.95 734.249C811.95 735.584 813.032 736.666 814.367 736.666Z" fill="white"/>
<path d="M855.818 744.366C855.818 745.698 854.733 746.783 853.402 746.783C852.07 746.783 850.985 745.698 850.985 744.366C850.985 743.035 852.07 741.95 853.402 741.95C854.733 741.95 855.818 743.035 855.818 744.366Z" fill="white"/>
<path d="M973.394 710.247C974.729 710.247 975.811 709.165 975.811 707.83C975.811 706.496 974.729 705.414 973.394 705.414C972.059 705.414 970.977 706.496 970.977 707.83C970.977 709.165 972.059 710.247 973.394 710.247Z" fill="white"/>
<path d="M983.429 634.368C983.429 635.699 982.344 636.785 981.012 636.785C979.681 636.785 978.596 635.699 978.596 634.368C978.596 633.037 979.681 631.952 981.012 631.952C982.344 631.952 983.429 633.037 983.429 634.368Z" fill="white"/>
<path d="M955.167 497.091C956.501 497.091 957.583 496.009 957.583 494.674C957.583 493.34 956.501 492.258 955.167 492.258C953.832 492.258 952.75 493.34 952.75 494.674C952.75 496.009 953.832 497.091 955.167 497.091Z" fill="white"/>
<path d="M924.488 467.313C924.488 468.644 923.402 469.73 922.071 469.73C920.74 469.73 919.654 468.644 919.654 467.313C919.654 465.982 920.74 464.896 922.071 464.896C923.402 464.917 924.488 465.982 924.488 467.313Z" fill="white"/>
<path d="M922.583 411.464C923.918 411.464 925 410.382 925 409.047C925 407.713 923.918 406.631 922.583 406.631C921.248 406.631 920.166 407.713 920.166 409.047C920.166 410.382 921.248 411.464 922.583 411.464Z" fill="white"/>
<path d="M614.011 430.777C614.011 432.108 612.925 433.193 611.594 433.193C610.263 433.193 609.178 432.108 609.178 430.777C609.178 429.446 610.263 428.36 611.594 428.36C612.925 428.381 614.011 429.446 614.011 430.777Z" fill="white"/>
<path d="M602.603 471.552C602.603 472.884 601.518 473.969 600.187 473.969C598.856 473.969 597.77 472.884 597.77 471.552C597.77 470.221 598.856 469.136 600.187 469.136C601.518 469.136 602.603 470.221 602.603 471.552Z" fill="white"/>
<path d="M604.692 574.014C604.692 575.345 603.607 576.43 602.276 576.43C600.945 576.43 599.859 575.345 599.859 574.014C599.859 572.683 600.945 571.597 602.276 571.597C603.627 571.597 604.692 572.683 604.692 574.014Z" fill="white"/>
<path d="M893.337 682.947C894.672 682.947 895.754 681.865 895.754 680.53C895.754 679.196 894.672 678.114 893.337 678.114C892.003 678.114 890.921 679.196 890.921 680.53C890.921 681.865 892.003 682.947 893.337 682.947Z" fill="white"/>
<path d="M920.863 653.251C920.863 654.582 919.777 655.667 918.446 655.667C917.115 655.667 916.029 654.582 916.029 653.251C916.029 651.92 917.115 650.834 918.446 650.834C919.777 650.855 920.863 651.92 920.863 653.251Z" fill="white"/>
<path d="M943.841 638.096C945.176 638.096 946.258 637.014 946.258 635.679C946.258 634.344 945.176 633.262 943.841 633.262C942.507 633.262 941.425 634.344 941.425 635.679C941.425 637.014 942.507 638.096 943.841 638.096Z" fill="white"/>
<path d="M998.871 608.748C998.871 610.079 997.786 611.165 996.454 611.165C995.123 611.165 994.038 610.079 994.038 608.748C994.038 607.417 995.123 606.331 996.454 606.331C997.786 606.352 998.871 607.417 998.871 608.748Z" fill="white"/>
<path d="M1031.37 558.469C1031.37 559.801 1030.29 560.886 1028.96 560.886C1027.62 560.886 1026.54 559.801 1026.54 558.469C1026.54 557.138 1027.62 556.053 1028.96 556.053C1030.31 556.073 1031.37 557.138 1031.37 558.469Z" fill="white"/>
<path d="M1041.16 510.116C1042.5 510.116 1043.58 509.034 1043.58 507.7C1043.58 506.365 1042.5 505.283 1041.16 505.283C1039.83 505.283 1038.75 506.365 1038.75 507.7C1038.75 509.034 1039.83 510.116 1041.16 510.116Z" fill="white"/>
<path d="M1047.94 478.188C1047.94 479.519 1046.86 480.605 1045.52 480.605C1044.19 480.605 1043.11 479.519 1043.11 478.188C1043.11 476.857 1044.19 475.771 1045.52 475.771C1046.88 475.792 1047.94 476.857 1047.94 478.188Z" fill="white"/>
<path d="M994.795 476.857C994.795 478.188 993.71 479.273 992.379 479.273C991.048 479.273 989.962 478.188 989.962 476.857C989.962 475.525 991.048 474.44 992.379 474.44C993.73 474.46 994.795 475.525 994.795 476.857Z" fill="white"/>
<path d="M1015.48 423.629C1016.81 423.629 1017.9 422.547 1017.9 421.213C1017.9 419.878 1016.81 418.796 1015.48 418.796C1014.15 418.796 1013.06 419.878 1013.06 421.213C1013.06 422.547 1014.15 423.629 1015.48 423.629Z" fill="white"/>
<path d="M1025.66 426.455C1025.66 427.787 1024.57 428.872 1023.24 428.872C1021.91 428.872 1020.83 427.787 1020.83 426.455C1020.83 425.124 1021.91 424.039 1023.24 424.039C1024.59 424.039 1025.66 425.124 1025.66 426.455Z" fill="white"/>
<path d="M1091.09 536.883C1091.09 538.215 1090.01 539.3 1088.68 539.3C1087.34 539.3 1086.26 538.215 1086.26 536.883C1086.26 535.552 1087.34 534.467 1088.68 534.467C1090.01 534.467 1091.09 535.552 1091.09 536.883Z" fill="white"/>
<path d="M1061.13 592.016C1062.46 592.016 1063.55 590.934 1063.55 589.599C1063.55 588.264 1062.46 587.182 1061.13 587.182C1059.8 587.182 1058.71 588.264 1058.71 589.599C1058.71 590.934 1059.8 592.016 1061.13 592.016Z" fill="white"/>
<path d="M1059.33 586.589C1059.33 587.92 1058.24 589.005 1056.91 589.005C1055.58 589.005 1054.49 587.92 1054.49 586.589C1054.49 585.257 1055.58 584.172 1056.91 584.172C1058.26 584.172 1059.33 585.257 1059.33 586.589Z" fill="white"/>
<path d="M985.026 762.512C986.361 762.512 987.443 761.43 987.443 760.095C987.443 758.76 986.361 757.678 985.026 757.678C983.692 757.678 982.61 758.76 982.61 760.095C982.61 761.43 983.692 762.512 985.026 762.512Z" fill="white"/>
</g>
<path d="M627.302 270.684C628.637 270.684 629.719 269.602 629.719 268.268C629.719 266.933 628.637 265.851 627.302 265.851C625.968 265.851 624.886 266.933 624.886 268.268C624.886 269.602 625.968 270.684 627.302 270.684Z" fill="white"/>
<path d="M763.351 313.14C763.351 314.471 762.265 315.556 760.934 315.556C759.603 315.556 758.518 314.471 758.518 313.14C758.518 311.808 759.603 310.723 760.934 310.723C762.265 310.723 763.351 311.808 763.351 313.14Z" fill="white"/>
<path d="M609.935 369.603C611.27 369.603 612.352 368.521 612.352 367.186C612.352 365.851 611.27 364.77 609.935 364.77C608.601 364.77 607.519 365.851 607.519 367.186C607.519 368.521 608.601 369.603 609.935 369.603Z" fill="white"/>
<path d="M635.699 326.452C635.699 327.783 634.614 328.868 633.282 328.868C631.951 328.868 630.866 327.783 630.866 326.452C630.866 325.12 631.951 324.035 633.282 324.035C634.614 324.035 635.699 325.12 635.699 326.452Z" fill="white"/>
<path d="M902.287 388.301C902.287 389.632 901.202 390.718 899.871 390.718C898.539 390.718 897.454 389.632 897.454 388.301C897.454 386.97 898.539 385.885 899.871 385.885C901.202 385.885 902.287 386.97 902.287 388.301Z" fill="white"/>
<path d="M602.399 448.635C603.733 448.635 604.815 447.553 604.815 446.219C604.815 444.884 603.733 443.802 602.399 443.802C601.064 443.802 599.982 444.884 599.982 446.219C599.982 447.553 601.064 448.635 602.399 448.635Z" fill="white"/>
<path d="M595.251 532.87C595.251 534.201 594.166 535.286 592.834 535.286C591.503 535.286 590.418 534.201 590.418 532.87C590.418 531.538 591.503 530.453 592.834 530.453C594.166 530.453 595.251 531.538 595.251 532.87Z" fill="white"/>
<path d="M936.96 504.259C936.96 505.59 935.874 506.676 934.543 506.676C933.212 506.676 932.127 505.59 932.127 504.259C932.127 502.928 933.212 501.842 934.543 501.842C935.874 501.842 936.96 502.928 936.96 504.259Z" fill="white"/>
<path d="M959.898 438.907C961.232 438.907 962.314 437.825 962.314 436.491C962.314 435.156 961.232 434.074 959.898 434.074C958.563 434.074 957.481 435.156 957.481 436.491C957.481 437.825 958.563 438.907 959.898 438.907Z" fill="white"/>
<path d="M859.853 316.805C859.853 318.137 858.767 319.222 857.436 319.222C856.105 319.222 855.019 318.137 855.019 316.805C855.019 315.474 856.105 314.389 857.436 314.389C858.767 314.409 859.853 315.474 859.853 316.805Z" fill="white"/>
<path d="M901.939 249.57C903.274 249.57 904.356 248.488 904.356 247.153C904.356 245.818 903.274 244.736 901.939 244.736C900.604 244.736 899.522 245.818 899.522 247.153C899.522 248.488 900.604 249.57 901.939 249.57Z" fill="white"/>
<path d="M722.207 222.229C723.541 222.229 724.623 221.147 724.623 219.812C724.623 218.477 723.541 217.396 722.207 217.396C720.872 217.396 719.79 218.477 719.79 219.812C719.79 221.147 720.872 222.229 722.207 222.229Z" fill="white"/>
<path d="M724.603 264.663C724.603 265.995 723.517 267.08 722.186 267.08C720.855 267.08 719.77 265.995 719.77 264.663C719.77 263.332 720.855 262.247 722.186 262.247C723.517 262.267 724.603 263.332 724.603 264.663Z" fill="white"/>
<path d="M1048.56 572.089C1049.89 572.089 1050.97 571.007 1050.97 569.672C1050.97 568.337 1049.89 567.255 1048.56 567.255C1047.22 567.255 1046.14 568.337 1046.14 569.672C1046.14 571.007 1047.22 572.089 1048.56 572.089Z" fill="white"/>
<path d="M1012.31 700.867C1012.31 702.198 1011.22 703.283 1009.89 703.283C1008.56 703.283 1007.47 702.198 1007.47 700.867C1007.47 699.536 1008.56 698.45 1009.89 698.45C1011.22 698.45 1012.31 699.536 1012.31 700.867Z" fill="white"/>
<path d="M1013.78 801.833C1015.12 801.833 1016.2 800.751 1016.2 799.417C1016.2 798.082 1015.12 797 1013.78 797C1012.45 797 1011.36 798.082 1011.36 799.417C1011.36 800.751 1012.45 801.833 1013.78 801.833Z" fill="white"/>
<path d="M842.65 880.722C842.65 882.054 841.564 883.139 840.233 883.139C838.902 883.139 837.816 882.054 837.816 880.722C837.816 879.391 838.902 878.306 840.233 878.306C841.564 878.306 842.65 879.391 842.65 880.722Z" fill="white"/>
<path d="M766.423 892.908C767.758 892.908 768.84 891.826 768.84 890.491C768.84 889.157 767.758 888.075 766.423 888.075C765.088 888.075 764.006 889.157 764.006 890.491C764.006 891.826 765.088 892.908 766.423 892.908Z" fill="white"/>
<path d="M731.402 828.969C732.737 828.969 733.819 827.887 733.819 826.553C733.819 825.218 732.737 824.136 731.402 824.136C730.067 824.136 728.986 825.218 728.986 826.553C728.986 827.887 730.067 828.969 731.402 828.969Z" fill="white"/>
<path d="M813.24 817.337C814.575 817.337 815.657 816.255 815.657 814.92C815.657 813.585 814.575 812.503 813.24 812.503C811.906 812.503 810.824 813.585 810.824 814.92C810.824 816.255 811.906 817.337 813.24 817.337Z" fill="white"/>
<path d="M800.215 769.966C800.215 771.298 799.129 772.383 797.798 772.383C796.467 772.383 795.382 771.298 795.382 769.966C795.382 768.635 796.467 767.55 797.798 767.55C799.129 767.55 800.215 768.635 800.215 769.966Z" fill="white"/>
<path d="M762.388 780.309C763.723 780.309 764.805 779.227 764.805 777.892C764.805 776.558 763.723 775.476 762.388 775.476C761.054 775.476 759.972 776.558 759.972 777.892C759.972 779.227 761.054 780.309 762.388 780.309Z" fill="white"/>
<path d="M434.381 697.549C435.715 697.549 436.797 696.467 436.797 695.133C436.797 693.798 435.715 692.716 434.381 692.716C433.046 692.716 431.964 693.798 431.964 695.133C431.964 696.467 433.046 697.549 434.381 697.549Z" fill="white"/>
<path d="M488.612 751.78C489.946 751.78 491.028 750.698 491.028 749.363C491.028 748.029 489.946 746.947 488.612 746.947C487.277 746.947 486.195 748.029 486.195 749.363C486.195 750.698 487.277 751.78 488.612 751.78Z" fill="white"/>
<path d="M655.032 695.133C655.032 696.464 653.947 697.549 652.616 697.549C651.284 697.549 650.199 696.464 650.199 695.133C650.199 693.801 651.284 692.716 652.616 692.716C653.947 692.736 655.032 693.801 655.032 695.133Z" fill="white"/>
<path d="M588.943 576.246C590.278 576.246 591.36 575.164 591.36 573.829C591.36 572.495 590.278 571.413 588.943 571.413C587.609 571.413 586.527 572.495 586.527 573.829C586.527 575.164 587.609 576.246 588.943 576.246Z" fill="white"/>
<path d="M477.266 569.631C477.266 570.962 476.18 572.048 474.849 572.048C473.518 572.048 472.433 570.962 472.433 569.631C472.433 568.3 473.518 567.214 474.849 567.214C476.201 567.235 477.266 568.32 477.266 569.631Z" fill="white"/>
<path d="M283.238 97.8744C283.238 99.2056 282.153 100.291 280.822 100.291C279.49 100.291 278.405 99.2056 278.405 97.8744C278.405 96.5432 279.49 95.4578 280.822 95.4578C282.153 95.4782 283.238 96.5432 283.238 97.8744Z" fill="white"/>
<path d="M416.891 142.746C416.891 144.077 415.805 145.163 414.474 145.163C413.143 145.163 412.057 144.077 412.057 142.746C412.057 141.415 413.143 140.329 414.474 140.329C415.805 140.329 416.891 141.415 416.891 142.746Z" fill="white"/>
<path d="M263.475 199.209C264.81 199.209 265.892 198.127 265.892 196.793C265.892 195.458 264.81 194.376 263.475 194.376C262.14 194.376 261.058 195.458 261.058 196.793C261.058 198.127 262.14 199.209 263.475 199.209Z" fill="white"/>
<path d="M286.822 158.475C288.157 158.475 289.239 157.393 289.239 156.058C289.239 154.723 288.157 153.641 286.822 153.641C285.488 153.641 284.406 154.723 284.406 156.058C284.406 157.393 285.488 158.475 286.822 158.475Z" fill="white"/>
<path d="M555.827 217.908C555.827 219.239 554.742 220.324 553.41 220.324C552.079 220.324 550.994 219.239 550.994 217.908C550.994 216.576 552.079 215.491 553.41 215.491C554.742 215.491 555.827 216.576 555.827 217.908Z" fill="white"/>
<path d="M255.938 278.242C257.273 278.242 258.355 277.16 258.355 275.825C258.355 274.49 257.273 273.408 255.938 273.408C254.604 273.408 253.522 274.49 253.522 275.825C253.522 277.16 254.604 278.242 255.938 278.242Z" fill="white"/>
<path d="M246.374 364.893C247.709 364.893 248.791 363.811 248.791 362.476C248.791 361.141 247.709 360.059 246.374 360.059C245.04 360.059 243.958 361.141 243.958 362.476C243.958 363.811 245.04 364.893 246.374 364.893Z" fill="white"/>
<path d="M590.5 333.865C590.5 335.197 589.414 336.282 588.083 336.282C586.752 336.282 585.666 335.197 585.666 333.865C585.666 332.534 586.752 331.449 588.083 331.449C589.414 331.449 590.5 332.534 590.5 333.865Z" fill="white"/>
<path d="M615.834 266.097C615.834 267.428 614.748 268.514 613.417 268.514C612.086 268.514 611 267.428 611 266.097C611 264.766 612.086 263.68 613.417 263.68C614.748 263.701 615.834 264.766 615.834 266.097Z" fill="white"/>
<path d="M513.393 146.432C513.393 147.763 512.307 148.849 510.976 148.849C509.645 148.849 508.559 147.763 508.559 146.432C508.559 145.101 509.645 144.016 510.976 144.016C512.307 144.016 513.393 145.101 513.393 146.432Z" fill="white"/>
<path d="M557.875 76.7594C557.875 78.0906 556.79 79.1761 555.458 79.1761C554.127 79.1761 553.042 78.0906 553.042 76.7594C553.042 75.4282 554.127 74.3428 555.458 74.3428C556.81 74.3428 557.875 75.4282 557.875 76.7594Z" fill="white"/>
<path d="M378.143 49.4391C378.143 50.7703 377.057 51.8557 375.726 51.8557C374.395 51.8557 373.309 50.7703 373.309 49.4391C373.309 48.1079 374.395 47.0225 375.726 47.0225C377.078 47.0225 378.143 48.1079 378.143 49.4391Z" fill="white"/>
<path d="M378.143 94.2904C378.143 95.6216 377.057 96.7071 375.726 96.7071C374.395 96.7071 373.309 95.6216 373.309 94.2904C373.309 92.9592 374.395 91.8738 375.726 91.8738C377.057 91.8738 378.143 92.9592 378.143 94.2904Z" fill="white"/>
<path d="M702.095 401.716C703.43 401.716 704.512 400.634 704.512 399.299C704.512 397.964 703.43 396.882 702.095 396.882C700.761 396.882 699.679 397.964 699.679 399.299C699.679 400.634 700.761 401.716 702.095 401.716Z" fill="white"/>
<path d="M665.825 530.473C665.825 531.804 664.74 532.89 663.409 532.89C662.077 532.89 660.992 531.804 660.992 530.473C660.992 529.142 662.077 528.057 663.409 528.057C664.76 528.057 665.825 529.142 665.825 530.473Z" fill="white"/>
<path d="M669.716 629.023C669.716 630.354 668.631 631.44 667.3 631.44C665.969 631.44 664.883 630.354 664.883 629.023C664.883 627.692 665.969 626.606 667.3 626.606C668.631 626.627 669.716 627.692 669.716 629.023Z" fill="white"/>
<path d="M493.773 712.745C495.107 712.745 496.189 711.663 496.189 710.329C496.189 708.994 495.107 707.912 493.773 707.912C492.438 707.912 491.356 708.994 491.356 710.329C491.356 711.663 492.438 712.745 493.773 712.745Z" fill="white"/>
<path d="M419.963 722.514C421.297 722.514 422.379 721.432 422.379 720.098C422.379 718.763 421.297 717.681 419.963 717.681C418.628 717.681 417.546 718.763 417.546 720.098C417.546 721.432 418.628 722.514 419.963 722.514Z" fill="white"/>
<path d="M387.338 656.18C387.338 657.511 386.253 658.596 384.922 658.596C383.59 658.596 382.505 657.511 382.505 656.18C382.505 654.848 383.59 653.763 384.922 653.763C386.273 653.763 387.338 654.848 387.338 656.18Z" fill="white"/>
<path d="M469.197 644.526C469.197 645.858 468.111 646.943 466.78 646.943C465.449 646.943 464.363 645.858 464.363 644.526C464.363 643.195 465.449 642.11 466.78 642.11C468.111 642.13 469.197 643.195 469.197 644.526Z" fill="white"/>
<path d="M453.734 599.573C453.734 600.904 452.649 601.99 451.318 601.99C449.986 601.99 448.901 600.904 448.901 599.573C448.901 598.242 449.986 597.156 451.318 597.156C452.669 597.177 453.734 598.242 453.734 599.573Z" fill="white"/>
<path d="M418.324 607.499C418.324 608.83 417.239 609.915 415.908 609.915C414.577 609.915 413.491 608.83 413.491 607.499C413.491 606.167 414.577 605.082 415.908 605.082C417.239 605.082 418.324 606.167 418.324 607.499Z" fill="white"/>
<path d="M90.3372 524.739C90.3372 526.07 89.2517 527.156 87.9205 527.156C86.5893 527.156 85.5039 526.07 85.5039 524.739C85.5039 523.408 86.5893 522.322 87.9205 522.322C89.2517 522.322 90.3372 523.408 90.3372 524.739Z" fill="white"/>
<path d="M142.131 581.387C143.466 581.387 144.548 580.305 144.548 578.97C144.548 577.635 143.466 576.553 142.131 576.553C140.796 576.553 139.714 577.635 139.714 578.97C139.714 580.305 140.796 581.387 142.131 581.387Z" fill="white"/>
<path d="M308.552 524.759C308.552 526.091 307.466 527.176 306.135 527.176C304.804 527.176 303.718 526.091 303.718 524.759C303.718 523.428 304.804 522.343 306.135 522.343C307.487 522.343 308.552 523.428 308.552 524.759Z" fill="white"/>
<path d="M242.483 405.873C243.818 405.873 244.9 404.791 244.9 403.456C244.9 402.122 243.818 401.04 242.483 401.04C241.148 401.04 240.066 402.122 240.066 403.456C240.066 404.791 241.148 405.873 242.483 405.873Z" fill="white"/>
<path d="M130.806 399.258C130.806 400.589 129.72 401.675 128.389 401.675C127.058 401.675 125.972 400.589 125.972 399.258C125.972 397.927 127.058 396.841 128.389 396.841C129.72 396.841 130.806 397.927 130.806 399.258Z" fill="white"/>
<path d="M998.359 333.927C998.359 335.258 997.273 336.344 995.942 336.344C994.611 336.344 993.526 335.258 993.526 333.927C993.526 332.596 994.611 331.51 995.942 331.51C997.294 331.531 998.359 332.596 998.359 333.927Z" fill="white"/>
<path d="M1132.01 378.798C1132.01 380.13 1130.93 381.215 1129.59 381.215C1128.26 381.215 1127.18 380.13 1127.18 378.798C1127.18 377.467 1128.26 376.382 1129.59 376.382C1130.93 376.382 1132.01 377.467 1132.01 378.798Z" fill="white"/>
<path d="M980.992 432.845C980.992 434.176 979.906 435.262 978.575 435.262C977.244 435.262 976.159 434.176 976.159 432.845C976.159 431.514 977.244 430.428 978.575 430.428C979.927 430.428 980.992 431.514 980.992 432.845Z" fill="white"/>
<path d="M1004.36 392.111C1004.36 393.442 1003.27 394.527 1001.94 394.527C1000.61 394.527 999.526 393.442 999.526 392.111C999.526 390.779 1000.61 389.694 1001.94 389.694C1003.27 389.694 1004.36 390.779 1004.36 392.111Z" fill="white"/>
<path d="M1268.53 456.377C1269.87 456.377 1270.95 455.295 1270.95 453.96C1270.95 452.625 1269.87 451.543 1268.53 451.543C1267.2 451.543 1266.11 452.625 1266.11 453.96C1266.11 455.295 1267.2 456.377 1268.53 456.377Z" fill="white"/>
<path d="M973.476 511.878C973.476 513.209 972.39 514.294 971.059 514.294C969.728 514.294 968.642 513.209 968.642 511.878C968.642 510.546 969.728 509.461 971.059 509.461C972.39 509.461 973.476 510.546 973.476 511.878Z" fill="white"/>
<path d="M963.912 598.528C963.912 599.86 962.826 600.945 961.495 600.945C960.164 600.945 959.078 599.86 959.078 598.528C959.078 597.197 960.164 596.112 961.495 596.112C962.826 596.112 963.912 597.197 963.912 598.528Z" fill="white"/>
<path d="M1305.62 569.918C1305.62 571.249 1304.53 572.334 1303.2 572.334C1301.87 572.334 1300.79 571.249 1300.79 569.918C1300.79 568.587 1301.87 567.501 1303.2 567.501C1304.53 567.501 1305.62 568.587 1305.62 569.918Z" fill="white"/>
<path d="M1328.56 504.566C1329.89 504.566 1330.97 503.484 1330.97 502.15C1330.97 500.815 1329.89 499.733 1328.56 499.733C1327.22 499.733 1326.14 500.815 1326.14 502.15C1326.14 503.484 1327.22 504.566 1328.56 504.566Z" fill="white"/>
<path d="M1226.1 384.901C1227.43 384.901 1228.51 383.819 1228.51 382.485C1228.51 381.15 1227.43 380.068 1226.1 380.068C1224.76 380.068 1223.68 381.15 1223.68 382.485C1223.68 383.819 1224.76 384.901 1226.1 384.901Z" fill="white"/>
<path d="M1270.6 315.229C1271.93 315.229 1273.02 314.147 1273.02 312.812C1273.02 311.477 1271.93 310.395 1270.6 310.395C1269.26 310.395 1268.18 311.477 1268.18 312.812C1268.18 314.147 1269.26 315.229 1270.6 315.229Z" fill="white"/>
<path d="M1093.28 285.492C1093.28 286.823 1092.2 287.908 1090.87 287.908C1089.54 287.908 1088.45 286.823 1088.45 285.492C1088.45 284.16 1089.54 283.075 1090.87 283.075C1092.2 283.075 1093.28 284.16 1093.28 285.492Z" fill="white"/>
<path d="M1093.26 330.343C1093.26 331.674 1092.18 332.759 1090.85 332.759C1089.52 332.759 1088.43 331.674 1088.43 330.343C1088.43 329.011 1089.52 327.926 1090.85 327.926C1092.18 327.926 1093.26 329.011 1093.26 330.343Z" fill="white"/>
<path d="M1417.22 637.768C1418.55 637.768 1419.63 636.686 1419.63 635.352C1419.63 634.017 1418.55 632.935 1417.22 632.935C1415.88 632.935 1414.8 634.017 1414.8 635.352C1414.8 636.686 1415.88 637.768 1417.22 637.768Z" fill="white"/>
<path d="M1380.97 766.526C1380.97 767.857 1379.88 768.942 1378.55 768.942C1377.22 768.942 1376.13 767.857 1376.13 766.526C1376.13 765.195 1377.22 764.109 1378.55 764.109C1379.88 764.109 1380.97 765.195 1380.97 766.526Z" fill="white"/>
<path d="M1382.44 867.492C1383.78 867.492 1384.86 866.41 1384.86 865.076C1384.86 863.741 1383.78 862.659 1382.44 862.659C1381.11 862.659 1380.02 863.741 1380.02 865.076C1380.02 866.41 1381.11 867.492 1382.44 867.492Z" fill="white"/>
<path d="M1211.31 946.381C1211.31 947.712 1210.22 948.798 1208.89 948.798C1207.56 948.798 1206.48 947.712 1206.48 946.381C1206.48 945.05 1207.56 943.964 1208.89 943.964C1210.22 943.985 1211.31 945.05 1211.31 946.381Z" fill="white"/>
<path d="M1137.5 956.15C1137.5 957.481 1136.41 958.567 1135.08 958.567C1133.75 958.567 1132.67 957.481 1132.67 956.15C1132.67 954.819 1133.75 953.733 1135.08 953.733C1136.41 953.754 1137.5 954.819 1137.5 956.15Z" fill="white"/>
<path d="M1100.06 894.649C1101.4 894.649 1102.48 893.567 1102.48 892.232C1102.48 890.897 1101.4 889.815 1100.06 889.815C1098.73 889.815 1097.65 890.897 1097.65 892.232C1097.65 893.567 1098.73 894.649 1100.06 894.649Z" fill="white"/>
<path d="M1181.9 882.995C1183.24 882.995 1184.32 881.913 1184.32 880.579C1184.32 879.244 1183.24 878.162 1181.9 878.162C1180.57 878.162 1179.48 879.244 1179.48 880.579C1179.48 881.913 1180.57 882.995 1181.9 882.995Z" fill="white"/>
<path d="M1168.88 835.625C1168.88 836.957 1167.79 838.042 1166.46 838.042C1165.13 838.042 1164.04 836.957 1164.04 835.625C1164.04 834.294 1165.13 833.209 1166.46 833.209C1167.79 833.229 1168.88 834.294 1168.88 835.625Z" fill="white"/>
<path d="M1131.05 845.968C1132.38 845.968 1133.47 844.886 1133.47 843.551C1133.47 842.216 1132.38 841.134 1131.05 841.134C1129.71 841.134 1128.63 842.216 1128.63 843.551C1128.63 844.886 1129.71 845.968 1131.05 845.968Z" fill="white"/>
<path d="M803.041 763.208C804.376 763.208 805.458 762.126 805.458 760.791C805.458 759.457 804.376 758.375 803.041 758.375C801.706 758.375 800.625 759.457 800.625 760.791C800.625 762.126 801.706 763.208 803.041 763.208Z" fill="white"/>
<path d="M859.668 815.023C859.668 816.354 858.583 817.439 857.252 817.439C855.921 817.439 854.835 816.354 854.835 815.023C854.835 813.691 855.921 812.606 857.252 812.606C858.603 812.606 859.668 813.691 859.668 815.023Z" fill="white"/>
<path d="M1023.69 760.791C1023.69 762.123 1022.61 763.208 1021.28 763.208C1019.94 763.208 1018.86 762.123 1018.86 760.791C1018.86 759.46 1019.94 758.375 1021.28 758.375C1022.61 758.395 1023.69 759.481 1023.69 760.791Z" fill="white"/>
<path d="M957.604 641.926C958.938 641.926 960.02 640.844 960.02 639.509C960.02 638.174 958.938 637.092 957.604 637.092C956.269 637.092 955.187 638.174 955.187 639.509C955.187 640.844 956.269 641.926 957.604 641.926Z" fill="white"/>
<path d="M845.926 635.31C845.926 636.642 844.841 637.727 843.51 637.727C842.178 637.727 841.093 636.642 841.093 635.31C841.093 633.979 842.178 632.894 843.51 632.894C844.861 632.894 845.926 633.979 845.926 635.31Z" fill="white"/>
<path d="M654.766 362.128C654.766 363.459 653.681 364.544 652.349 364.544C651.018 364.544 649.933 363.459 649.933 362.128C649.933 360.797 651.018 359.711 652.349 359.711C653.681 359.732 654.766 360.797 654.766 362.128Z" fill="white"/>
<path d="M705.618 316.99C705.618 318.321 704.532 319.407 703.201 319.407C701.87 319.407 700.785 318.321 700.785 316.99C700.785 315.659 701.87 314.573 703.201 314.573C704.532 314.594 705.618 315.659 705.618 316.99Z" fill="white"/>
<path d="M668.324 346.522C669.658 346.522 670.74 345.44 670.74 344.105C670.74 342.771 669.658 341.689 668.324 341.689C666.989 341.689 665.907 342.771 665.907 344.105C665.907 345.44 666.989 346.522 668.324 346.522Z" fill="white"/>
<path d="M786.596 301.568C786.596 302.899 785.51 303.985 784.179 303.985C782.848 303.985 781.762 302.899 781.762 301.568C781.762 300.237 782.848 299.152 784.179 299.152C785.51 299.172 786.596 300.237 786.596 301.568Z" fill="white"/>
<path d="M838.758 346.235C838.758 347.566 837.673 348.652 836.342 348.652C835.01 348.652 833.925 347.566 833.925 346.235C833.925 344.904 835.01 343.819 836.342 343.819C837.693 343.819 838.758 344.904 838.758 346.235Z" fill="white"/>
<path d="M647.373 241.603C647.373 242.934 646.287 244.02 644.956 244.02C643.625 244.02 642.539 242.934 642.539 241.603C642.539 240.272 643.625 239.186 644.956 239.186C646.308 239.207 647.373 240.272 647.373 241.603Z" fill="white"/>
<path d="M532.951 336.978C534.286 336.978 535.368 335.896 535.368 334.562C535.368 333.227 534.286 332.145 532.951 332.145C531.616 332.145 530.534 333.227 530.534 334.562C530.534 335.896 531.616 336.978 532.951 336.978Z" fill="white"/>
<path d="M988.733 883.917C988.733 885.248 987.648 886.334 986.317 886.334C984.986 886.334 983.9 885.248 983.9 883.917C983.9 882.586 984.986 881.5 986.317 881.5C987.648 881.5 988.733 882.586 988.733 883.917Z" fill="white"/>
</g>
<defs>
<linearGradient id="paint0_linear_3167_15220" x1="0" y1="512" x2="1440" y2="512" gradientUnits="userSpaceOnUse">
<stop stop-color="#04074A"/>
<stop offset="1" stop-color="#2A246D"/>
</linearGradient>
<linearGradient id="paint1_linear_3167_15220" x1="191.79" y1="233.739" x2="-109.397" y2="35.0399" gradientUnits="userSpaceOnUse">
<stop stop-color="white"/>
<stop offset="0.8902" stop-color="#1D262D" stop-opacity="0"/>
</linearGradient>
<linearGradient id="paint2_linear_3167_15220" x1="1160.48" y1="303.806" x2="1463.76" y2="-85.227" gradientUnits="userSpaceOnUse">
<stop stop-color="white"/>
<stop offset="0.8902" stop-color="#1D262D" stop-opacity="0"/>
</linearGradient>
<linearGradient id="paint3_linear_3167_15220" x1="344.463" y1="736.573" x2="60.0092" y2="912.265" gradientUnits="userSpaceOnUse">
<stop stop-color="white"/>
<stop offset="0.8902" stop-color="#1D262D" stop-opacity="0"/>
</linearGradient>
<linearGradient id="paint4_linear_3167_15220" x1="1088.21" y1="826.563" x2="1197.67" y2="953.452" gradientUnits="userSpaceOnUse">
<stop stop-color="white"/>
<stop offset="0.8902" stop-color="#1D262D" stop-opacity="0"/>
</linearGradient>
<clipPath id="clip0_3167_15220">
<rect width="1440" height="1024" fill="white"/>
</clipPath>
</defs>
</svg>
