<svg width="30" height="30" viewBox="0 0 30 30" fill="none" xmlns="http://www.w3.org/2000/svg">
<rect width="30" height="30" rx="5" fill="#1A2A6C"/>
<path d="M9.6875 25V11.6219H5.32812V25H9.6875ZM7.48438 9.83221C8.89062 9.83221 10.0156 8.71365 10.0156 7.37136C10.0156 6.07383 8.89062 5 7.48438 5C6.125 5 5 6.07383 5 7.37136C5 8.71365 6.125 9.83221 7.48438 9.83221ZM25.9531 25H26V17.6622C26 14.0828 25.1562 11.3087 20.75 11.3087C18.6406 11.3087 17.2344 12.4273 16.625 13.4564H16.5781V11.6219H12.4062V25H16.7656V18.3781C16.7656 16.6331 17.0938 14.9776 19.3438 14.9776C21.5938 14.9776 21.6406 16.9463 21.6406 18.5123V25H25.9531Z" fill="white"/>
</svg>
