<svg width="40" height="31" viewBox="0 0 40 31" fill="none" xmlns="http://www.w3.org/2000/svg">
<rect x="9.56641" y="8.2998" width="27.3333" height="16.4" fill="white"/>
<path d="M38.8834 5.7551C38.5137 3.71414 36.7519 2.22782 34.7073 1.7638C31.6476 1.1149 25.9851 0.650879 19.8586 0.650879C13.7357 0.650879 7.9826 1.1149 4.91934 1.7638C2.87838 2.22782 1.11292 3.61988 0.743157 5.7551C0.369767 8.0752 0 11.3233 0 15.4995C0 19.6757 0.369767 22.9238 0.833787 25.2439C1.20718 27.2849 2.96901 28.7712 5.00997 29.2352C8.25811 29.8841 13.8264 30.3482 19.9529 30.3482C26.0794 30.3482 31.6476 29.8841 34.8958 29.2352C36.9367 28.7712 38.6986 27.3792 39.072 25.2439C39.4417 22.9238 39.9057 19.5815 40 15.4995C39.8115 11.3233 39.3475 8.0752 38.8834 5.7551ZM14.8486 21.9958V9.00324L26.17 15.4995L14.8486 21.9958Z" fill="#1A2A6C"/>
</svg>
