<svg width="1439" height="519" viewBox="0 0 1439 519" fill="none" xmlns="http://www.w3.org/2000/svg">
<g clip-path="url(#clip0_5285_1486)">
<mask id="mask0_5285_1486" style="mask-type:luminance" maskUnits="userSpaceOnUse" x="-1" y="-41" width="1440" height="560">
<path d="M1439 -41H-1V519H1439V-41Z" fill="white"/>
</mask>
<g mask="url(#mask0_5285_1486)">
<mask id="mask1_5285_1486" style="mask-type:luminance" maskUnits="userSpaceOnUse" x="784" y="2" width="903" height="157">
<path d="M1687 2H784V158.8H1687V2Z" fill="white"/>
</mask>
<g mask="url(#mask1_5285_1486)">
<path d="M1687 198.801C1687 192.532 1664.85 187.428 1636.83 186.998C1636.84 186.837 1636.85 186.674 1636.85 186.505C1636.85 175.179 1628.4 166.013 1617.97 166.013C1613.75 166.013 1609.86 167.534 1606.72 170.072C1606.67 169.981 1606.62 169.898 1606.57 169.811C1602.36 147.119 1583.89 130.03 1561.74 130.03C1557.96 130.03 1554.31 130.581 1550.8 131.518C1546.37 120.971 1536.6 113.633 1525.23 113.633C1516.91 113.633 1509.46 117.571 1504.32 123.806C1498.55 114.902 1489.02 109.077 1478.24 109.077C1476.67 109.077 1475.13 109.239 1473.63 109.479C1474.69 105.284 1475.3 100.886 1475.3 96.325C1475.3 68.902 1454.82 46.681 1429.56 46.681C1416.35 46.681 1404.48 52.7997 1396.13 62.521C1390.07 47.3105 1376.14 36.6559 1359.9 36.6559C1346.02 36.6559 1333.84 44.4587 1326.81 56.2228C1322.05 48.0313 1313.67 42.5786 1304.1 42.5786C1301.46 42.5786 1298.92 43.0054 1296.51 43.7778C1290.44 31.4157 1278.45 23 1264.65 23C1251.27 23 1239.61 30.9175 1233.38 42.6583C1232.89 42.6301 1232.41 42.5786 1231.91 42.5786C1222.06 42.5786 1213.47 48.3535 1208.8 56.9354C1200.51 48.3452 1189.31 43.0387 1176.95 43.0387C1163.35 43.0387 1151.16 49.4564 1142.71 59.613C1130.85 50.3433 1116.31 44.8623 1100.57 44.8623C1078.93 44.8623 1059.53 55.2147 1046.3 71.586C1041.08 69.065 1035.32 67.632 1029.24 67.632C1006.06 67.632 987.277 88.016 987.277 113.175C987.277 114.125 987.355 115.053 987.41 115.985C985.221 115.364 982.934 114.994 980.564 114.994C970.216 114.994 961.251 121.358 956.761 130.669C951.3 127.66 945.144 125.927 938.601 125.927C921.285 125.927 906.563 137.818 900.867 154.461C899.756 154.284 898.629 154.167 897.481 154.167C885.331 154.167 875.344 164.166 874.107 176.993C873.785 176.973 873.464 176.943 873.139 176.943C865.718 176.943 859.5 182.444 857.719 189.898C855.91 189.77 854.058 189.687 852.157 189.687C837.031 189.687 824.333 193.977 820.583 199.799C819.372 199.746 818.157 199.712 816.908 199.712C798.832 199.712 784.18 205.823 784.18 213.372C784.18 220.92 798.832 227.036 816.908 227.036C819.243 227.036 821.517 226.933 823.717 226.733C829.077 231.228 840.16 234.324 852.997 234.324C854.256 234.324 855.495 234.287 856.716 234.229C858.209 241.575 864.238 247.081 871.461 247.081C873.107 247.081 874.69 246.782 876.175 246.252C881.365 253.921 889.713 258.917 899.153 258.917C903.884 258.917 908.331 257.648 912.264 255.439C916.486 259.842 922.21 262.561 928.523 262.561C934.922 262.561 940.714 259.779 944.951 255.281C952.332 265.263 963.649 271.669 976.362 271.669C986.82 271.669 996.311 267.312 1003.47 260.222C1006.79 268.05 1014.06 273.493 1022.52 273.493C1030.08 273.493 1036.68 269.144 1040.38 262.639C1046.44 266.61 1053.52 268.937 1061.12 268.937C1070.48 268.937 1079.06 265.445 1085.9 259.647C1089.74 264.228 1095.25 267.126 1101.41 267.126C1107.45 267.126 1112.87 264.336 1116.7 259.908C1122.53 269.716 1132.66 276.221 1144.21 276.221C1153.32 276.221 1161.57 272.175 1167.5 265.645C1178.42 274.923 1194.39 280.777 1212.19 280.777C1234.11 280.777 1253.26 271.906 1263.61 258.702C1269.93 270.011 1281.36 277.593 1294.44 277.593C1298.8 277.593 1302.95 276.715 1306.81 275.18C1311.6 283.712 1320.22 289.432 1330.11 289.432C1339.9 289.432 1348.48 283.802 1353.28 275.378C1364.09 283.921 1377.39 288.975 1391.79 288.975C1414.29 288.975 1434.13 276.663 1445.91 257.9C1453.1 266.088 1463.21 271.215 1474.45 271.215C1486.18 271.215 1496.68 265.636 1503.91 256.814C1506.5 257.859 1509.29 258.463 1512.22 258.463C1515.58 258.463 1518.77 257.704 1521.67 256.349C1529.48 258.845 1538.49 260.283 1548.1 260.283C1575.46 260.283 1598.01 248.742 1601.5 233.789C1601.95 233.822 1602.4 233.864 1602.86 233.864C1609.27 233.864 1614.92 230.391 1618.34 225.092C1620.98 226.619 1623.99 227.489 1627.2 227.489C1636.59 227.489 1644.36 220.04 1645.82 210.297C1669.44 209.035 1687 204.376 1687 198.801Z" fill="#1A2A6C"/>
<path d="M1541 170C1541 170 1534.63 136.053 1506.78 137.643C1478.93 139.232 1475.26 146.629 1475.26 146.629C1475.26 146.629 1468.83 110.142 1439.28 104.85C1409.72 99.5579 1401.99 106.963 1401.99 106.963C1401.99 106.963 1380.88 96.9199 1370.92 116.482C1370.92 116.482 1360.31 95.7479 1347.79 102.941C1335.26 110.133 1331.59 117.539 1331.59 117.539C1331.59 117.539 1333.69 81.0519 1307.48 70.4769C1281.26 59.9009 1267 76.8259 1267 76.8259V170H1541Z" fill="#F6F9FE"/>
</g>
<path d="M1072.88 205.156C1067.86 204.337 1063.22 204.083 1059.61 204.318C1059.05 201.03 1055.17 198.254 1050.24 197.857C1045.25 197.456 1040.98 199.659 1040.04 202.894C1038.03 200.634 1035.2 199.201 1032.04 199.201C1029.14 199.201 1026.53 200.408 1024.57 202.341C1022.27 198.904 1018.62 196.61 1014.43 196.222C1013.09 192.054 1009.41 189.038 1005.04 189.038C1003.51 189.038 1002.08 189.429 1000.79 190.075C997.608 184.094 991.567 180.051 984.624 180.051C979.938 180.051 975.67 181.904 972.398 184.932C967.975 181.392 962.489 179.267 956.513 179.267C952.708 179.267 949.101 180.139 945.831 181.674C944.663 172.001 936.878 164.525 927.431 164.525C926.078 164.525 924.76 164.684 923.491 164.975C923.495 164.824 923.511 164.675 923.511 164.52C923.511 153.656 915.199 144.85 904.941 144.85C903.557 144.85 902.22 145.024 900.922 145.325C895.851 125.517 878.813 110.934 858.503 110.934C848.936 110.934 840.112 114.202 832.893 119.688C831.163 102.542 817.472 89.1872 800.82 89.1872C791.423 89.1872 782.991 93.4682 777.093 100.256C774.462 69.0979 749.785 44.6718 719.68 44.6718C705.834 44.6718 693.137 49.8471 683.195 58.4572C669.549 38.2129 647.197 25 621.912 25C585.565 25 555.244 52.2703 548.189 88.551C543.034 86.9775 537.603 86.0904 531.97 86.0904C501.904 86.0904 477.164 110.052 473.751 140.917C470.239 139.63 466.485 138.894 462.553 138.894C449.82 138.894 438.731 146.283 432.841 157.214C429.239 156.09 425.44 155.458 421.494 155.458C407.496 155.458 395.188 163.071 388.023 174.589C385.295 172.645 382.013 171.509 378.48 171.509C370.695 171.509 364.135 177.022 362.06 184.556C360.502 183.831 358.785 183.415 356.969 183.415C351.216 183.415 346.418 187.485 344.849 193.042C340.818 193.892 337.437 196.544 335.38 200.152C335.238 200.145 335.11 200.106 334.966 200.106C331.803 200.106 328.974 201.539 326.97 203.804C326.03 200.564 321.756 198.362 316.762 198.761C311.839 199.161 307.958 201.938 307.399 205.222C303.785 204.989 299.142 205.244 294.124 206.063C283.143 207.853 274.596 211.638 275.015 214.522C275.392 217.108 282.851 218.078 292.295 216.961C294.311 218.769 298.523 220.126 303.496 220.308C307.923 220.471 311.84 219.66 314.146 218.301C315.758 220.38 318.177 221.732 320.915 221.732C323.144 221.732 325.154 220.828 326.703 219.381C328.72 221.834 331.656 223.413 334.965 223.413C337.209 223.413 339.289 222.693 341.025 221.477C343.026 222.587 345.263 223.276 347.683 223.276C351.836 223.276 355.555 221.386 358.186 218.407C361.316 222.629 366.171 225.349 371.63 225.349C377.564 225.349 382.79 222.147 385.859 217.292C392.512 230.981 405.953 240.363 421.492 240.363C434.031 240.363 445.218 234.257 452.567 224.713C457.88 238.16 470.411 247.609 485.039 247.609C500.821 247.609 514.172 236.612 518.635 221.459C523.667 235.527 536.472 245.544 551.519 245.544C564.931 245.544 576.586 237.589 582.524 225.9C592.805 243.862 611.381 255.901 632.663 255.901C649.041 255.901 663.833 248.779 674.473 237.317C681.034 248.461 692.674 255.896 705.984 255.896C717.076 255.896 727.002 250.724 733.807 242.565C744.955 252.797 759.489 259 775.401 259C794.585 259 811.773 249.982 823.423 235.746C830.622 241.863 839.749 245.542 849.699 245.542C863.638 245.542 875.955 238.326 883.605 227.267C889.443 233.439 897.497 237.259 906.402 237.259C917.913 237.259 927.991 230.858 933.703 221.255C938.272 229.578 946.761 235.186 956.51 235.186C964.17 235.186 971.042 231.717 975.86 226.206C978.962 228.746 982.836 230.27 987.063 230.27C993.806 230.27 999.689 226.402 1002.86 220.656C1005.42 223.677 1009.09 225.61 1013.21 225.61C1017.91 225.61 1022.05 223.135 1024.56 219.366C1026.52 221.296 1029.14 222.506 1032.03 222.506C1035.35 222.506 1038.28 220.924 1040.3 218.474C1041.84 219.919 1043.86 220.822 1046.09 220.822C1048.83 220.822 1051.23 219.474 1052.85 217.395C1055.17 218.753 1059.08 219.56 1063.51 219.398C1068.48 219.219 1072.69 217.863 1074.71 216.051C1084.15 217.167 1091.61 216.2 1091.98 213.615C1092.41 210.733 1083.86 206.949 1072.88 205.156Z" fill="#F6F9FE"/>
<path d="M1644.31 232.705C1638.61 231.833 1633.35 231.562 1629.25 231.814C1628.61 228.314 1624.21 225.361 1618.62 224.937C1612.96 224.511 1608.11 226.855 1607.05 230.298C1604.76 227.892 1601.56 226.367 1597.96 226.367C1594.68 226.367 1591.72 227.652 1589.49 229.708C1586.88 226.051 1582.73 223.611 1577.98 223.198C1576.47 218.762 1572.29 215.553 1567.32 215.553C1565.59 215.553 1563.97 215.97 1562.51 216.656C1558.9 210.292 1552.04 205.99 1544.17 205.99C1538.85 205.99 1534.01 207.962 1530.3 211.183C1525.27 207.417 1519.05 205.156 1512.27 205.156C1507.95 205.156 1503.86 206.083 1500.15 207.718C1498.82 197.424 1489.99 189.469 1479.27 189.469C1477.74 189.469 1476.25 189.638 1474.8 189.948C1474.81 189.787 1474.82 189.628 1474.82 189.464C1474.82 177.903 1465.39 168.533 1453.75 168.533C1452.19 168.533 1450.67 168.718 1449.19 169.038C1443.44 147.961 1424.11 132.443 1401.06 132.443C1390.21 132.443 1380.2 135.92 1372.01 141.758C1370.04 123.513 1354.51 109.302 1335.62 109.302C1324.95 109.302 1315.39 113.857 1308.7 121.08C1305.7 87.924 1277.7 61.933 1243.55 61.933C1227.84 61.933 1213.43 67.44 1202.16 76.602C1186.67 55.0599 1161.31 41 1132.62 41C1091.38 41 1056.97 70.018 1048.97 108.625C1043.12 106.95 1036.95 106.006 1030.57 106.006C996.453 106.006 968.383 131.504 964.51 164.348C960.526 162.978 956.265 162.195 951.805 162.195C937.358 162.195 924.776 170.057 918.092 181.69C914.005 180.493 909.695 179.821 905.217 179.821C889.334 179.821 875.369 187.922 867.24 200.179C864.145 198.109 860.42 196.9 856.413 196.9C847.579 196.9 840.136 202.767 837.781 210.784C836.013 210.012 834.065 209.57 832.004 209.57C825.478 209.57 820.034 213.9 818.253 219.814C813.68 220.718 809.842 223.541 807.509 227.379C807.349 227.372 807.203 227.33 807.041 227.33C803.45 227.33 800.241 228.855 797.967 231.265C796.9 227.818 792.051 225.474 786.385 225.9C780.799 226.325 776.395 229.28 775.76 232.775C771.66 232.527 766.391 232.797 760.699 233.669C748.238 235.575 738.542 239.602 739.017 242.671C739.444 245.423 747.907 246.454 758.624 245.266C760.91 247.19 765.691 248.634 771.332 248.829C776.355 249.001 780.801 248.138 783.417 246.693C785.246 248.904 787.99 250.344 791.097 250.344C793.626 250.344 795.906 249.381 797.664 247.841C799.953 250.452 803.284 252.132 807.039 252.132C809.585 252.132 811.945 251.365 813.914 250.071C816.184 251.254 818.724 251.986 821.468 251.986C826.18 251.986 830.401 249.975 833.385 246.804C836.937 251.297 842.446 254.192 848.64 254.192C855.372 254.192 861.301 250.785 864.785 245.618C872.333 260.185 887.584 270.168 905.215 270.168C919.443 270.168 932.136 263.672 940.474 253.515C946.502 267.824 960.72 277.879 977.317 277.879C995.224 277.879 1010.37 266.176 1015.43 250.052C1021.14 265.022 1035.67 275.681 1052.75 275.681C1067.97 275.681 1081.19 267.217 1087.92 254.778C1099.59 273.891 1120.67 286.703 1144.82 286.703C1163.4 286.703 1180.18 279.124 1192.26 266.927C1199.7 278.785 1212.9 286.697 1228.01 286.697C1240.59 286.697 1251.85 281.194 1259.58 272.512C1272.22 283.399 1288.72 290 1306.78 290C1328.54 290 1348.04 280.405 1361.26 265.255C1369.43 271.765 1379.78 275.679 1391.08 275.679C1406.89 275.679 1420.87 268 1429.54 256.233C1436.17 262.801 1445.31 266.865 1455.41 266.865C1468.47 266.865 1479.9 260.055 1486.38 249.835C1491.57 258.692 1501.2 264.659 1512.26 264.659C1520.96 264.659 1528.75 260.968 1534.22 255.104C1537.74 257.807 1542.14 259.428 1546.93 259.428C1554.58 259.428 1561.25 255.312 1564.86 249.197C1567.76 252.413 1571.93 254.47 1576.6 254.47C1581.94 254.47 1586.62 251.837 1589.49 247.826C1591.71 249.879 1594.67 251.167 1597.96 251.167C1601.72 251.167 1605.04 249.483 1607.33 246.876C1609.09 248.414 1611.37 249.375 1613.9 249.375C1617.01 249.375 1619.74 247.939 1621.58 245.728C1624.2 247.173 1628.64 248.032 1633.67 247.86C1639.3 247.669 1644.09 246.225 1646.38 244.298C1657.1 245.486 1665.56 244.457 1665.98 241.706C1666.47 238.639 1656.76 234.612 1644.31 232.705Z" fill="#F6F9FE"/>
<path d="M581.418 275.421C581.418 269.987 562.215 265.561 537.921 265.189C537.925 265.049 537.941 264.908 537.941 264.761C537.941 254.941 530.61 246.994 521.572 246.994C517.907 246.994 514.54 248.313 511.817 250.513C511.774 250.434 511.73 250.362 511.688 250.287C508.032 230.612 492.02 215.796 472.819 215.796C469.543 215.796 466.378 216.274 463.334 217.086C459.494 207.942 451.023 201.58 441.163 201.58C433.951 201.58 427.49 204.994 423.03 210.4C418.028 202.68 409.771 197.63 400.421 197.63C399.057 197.63 397.728 197.77 396.42 197.979C397.341 194.341 397.875 190.528 397.875 186.574C397.875 162.798 380.119 143.532 358.217 143.532C346.757 143.532 336.47 148.837 329.226 157.265C323.979 144.077 311.897 134.84 297.821 134.84C285.787 134.84 275.224 141.605 269.127 151.805C265.005 144.702 257.737 139.975 249.437 139.975C247.148 139.975 244.945 140.345 242.859 141.015C237.597 130.297 227.204 123 215.235 123C203.633 123 193.528 129.865 188.127 140.044C187.703 140.02 187.281 139.975 186.854 139.975C178.313 139.975 170.865 144.982 166.811 152.422C159.629 144.975 149.913 140.374 139.195 140.374C127.405 140.374 116.837 145.938 109.513 154.744C99.2302 146.707 86.6201 141.955 72.9789 141.955C54.2155 141.955 37.3917 150.931 25.922 165.125C21.3989 162.939 16.4021 161.696 11.1302 161.696C-8.96094 161.696 -25.2518 179.369 -25.2518 201.183C-25.2518 202.006 -25.1841 202.811 -25.1366 203.619C-27.0345 203.081 -29.0174 202.76 -31.0723 202.76C-40.0436 202.76 -47.8168 208.278 -51.7092 216.35C-56.444 213.741 -61.7821 212.239 -67.4543 212.239C-82.4679 212.239 -95.2322 222.548 -100.17 236.979C-101.134 236.825 -102.111 236.724 -103.106 236.724C-113.64 236.724 -122.299 245.393 -123.372 256.514C-123.651 256.497 -123.929 256.471 -124.211 256.471C-130.645 256.471 -136.037 261.24 -137.58 267.703C-139.149 267.592 -140.754 267.52 -142.403 267.52C-155.517 267.52 -166.526 271.239 -169.778 276.287C-170.827 276.241 -171.882 276.212 -172.964 276.212C-188.636 276.212 -201.34 281.51 -201.34 288.054C-201.34 294.599 -188.636 299.902 -172.964 299.902C-170.94 299.902 -168.968 299.812 -167.06 299.639C-162.413 303.536 -152.804 306.22 -141.674 306.22C-140.583 306.22 -139.509 306.189 -138.45 306.138C-137.156 312.507 -131.928 317.281 -125.666 317.281C-124.239 317.281 -122.866 317.022 -121.579 316.562C-117.079 323.211 -109.841 327.543 -101.656 327.543C-97.5549 327.543 -93.6986 326.442 -90.2886 324.527C-86.6281 328.345 -81.6658 330.702 -76.1923 330.702C-70.6439 330.702 -65.6226 328.29 -61.9491 324.39C-55.5497 333.045 -45.7374 338.599 -34.7156 338.599C-25.6478 338.599 -17.4196 334.822 -11.2103 328.674C-8.32877 335.461 -2.02726 340.18 5.30673 340.18C11.8589 340.18 17.5828 336.41 20.7868 330.77C26.0472 334.213 32.186 336.23 38.7769 336.23C46.8857 336.23 54.3263 333.203 60.2563 328.176C63.5827 332.148 68.3665 334.661 73.7046 334.661C78.9376 334.661 83.6422 332.241 86.9628 328.402C92.013 336.906 100.798 342.546 110.812 342.546C118.715 342.546 125.86 339.038 131.005 333.376C140.471 341.42 154.319 346.496 169.756 346.496C188.759 346.496 205.358 338.805 214.331 327.357C219.817 337.162 229.721 343.736 241.064 343.736C244.842 343.736 248.443 342.974 251.791 341.643C255.944 349.041 263.419 354 271.987 354C280.48 354 287.915 349.118 292.083 341.815C301.451 349.222 312.983 353.604 325.467 353.604C344.972 353.604 362.175 342.929 372.392 326.661C378.622 333.761 387.393 338.206 397.139 338.206C407.307 338.206 416.409 333.369 422.673 325.72C424.92 326.625 427.345 327.149 429.885 327.149C432.792 327.149 435.557 326.491 438.073 325.316C444.85 327.481 452.657 328.728 460.988 328.728C484.713 328.728 504.263 318.721 507.287 305.757C507.679 305.785 508.069 305.821 508.468 305.821C514.025 305.821 518.924 302.81 521.886 298.217C524.18 299.54 526.792 300.295 529.569 300.295C537.712 300.295 544.447 293.836 545.711 285.389C566.192 284.295 581.418 280.255 581.418 275.421Z" fill="#F6F9FE"/>
<path d="M1061.76 282.421C1061.76 276.987 1042.55 272.561 1018.26 272.189C1018.26 272.049 1018.28 271.908 1018.28 271.761C1018.28 261.941 1010.95 253.994 1001.91 253.994C998.247 253.994 994.88 255.313 992.157 257.513C992.114 257.434 992.07 257.362 992.028 257.287C988.372 237.612 972.36 222.796 953.159 222.796C949.883 222.796 946.718 223.274 943.673 224.086C939.834 214.942 931.363 208.58 921.503 208.58C914.291 208.58 907.83 211.994 903.37 217.4C898.368 209.68 890.111 204.63 880.761 204.63C879.397 204.63 878.068 204.77 876.76 204.979C877.68 201.341 878.215 197.528 878.215 193.574C878.215 169.798 860.459 150.532 838.557 150.532C827.097 150.532 816.81 155.837 809.566 164.265C804.319 151.077 792.237 141.84 778.161 141.84C766.127 141.84 755.564 148.605 749.467 158.805C745.345 151.702 738.077 146.975 729.777 146.975C727.488 146.975 725.285 147.345 723.199 148.015C717.937 137.297 707.544 130 695.575 130C683.973 130 673.868 136.865 668.466 147.044C668.043 147.02 667.621 146.975 667.193 146.975C658.653 146.975 651.205 151.982 647.151 159.422C639.969 151.975 630.253 147.374 619.535 147.374C607.745 147.374 597.177 152.938 589.853 161.744C579.57 153.707 566.96 148.955 553.319 148.955C534.555 148.955 517.731 157.931 506.262 172.125C501.739 169.939 496.742 168.696 491.47 168.696C471.379 168.696 455.088 186.369 455.088 208.183C455.088 209.006 455.156 209.811 455.203 210.619C453.305 210.081 451.322 209.76 449.267 209.76C440.296 209.76 432.523 215.278 428.631 223.35C423.896 220.741 418.558 219.239 412.885 219.239C397.872 219.239 385.107 229.548 380.17 243.979C379.206 243.825 378.229 243.724 377.233 243.724C366.7 243.724 358.041 252.393 356.968 263.514C356.689 263.497 356.411 263.471 356.129 263.471C349.695 263.471 344.303 268.24 342.76 274.703C341.191 274.592 339.586 274.52 337.937 274.52C324.823 274.52 313.814 278.239 310.562 283.287C309.512 283.241 308.458 283.212 307.375 283.212C291.704 283.212 279 288.51 279 295.054C279 301.599 291.704 306.902 307.375 306.902C309.4 306.902 311.372 306.812 313.28 306.639C317.926 310.536 327.536 313.22 338.666 313.22C339.757 313.22 340.831 313.189 341.89 313.138C343.184 319.507 348.412 324.281 354.674 324.281C356.101 324.281 357.474 324.022 358.761 323.562C363.261 330.211 370.499 334.543 378.684 334.543C382.785 334.543 386.641 333.442 390.051 331.527C393.712 335.345 398.674 337.702 404.147 337.702C409.696 337.702 414.717 335.29 418.391 331.39C424.79 340.045 434.602 345.599 445.624 345.599C454.692 345.599 462.92 341.822 469.13 335.674C472.011 342.461 478.312 347.18 485.646 347.18C492.199 347.18 497.923 343.41 501.127 337.77C506.387 341.213 512.526 343.23 519.117 343.23C527.225 343.23 534.666 340.203 540.596 335.176C543.922 339.148 548.706 341.661 554.044 341.661C559.277 341.661 563.982 339.241 567.303 335.402C572.353 343.906 581.138 349.546 591.152 349.546C599.055 349.546 606.2 346.038 611.345 340.376C620.811 348.42 634.659 353.496 650.096 353.496C669.099 353.496 685.698 345.805 694.67 334.357C700.157 344.162 710.061 350.736 721.404 350.736C725.181 350.736 728.783 349.974 732.131 348.643C736.284 356.041 743.759 361 752.327 361C760.82 361 768.255 356.118 772.423 348.815C781.791 356.222 793.323 360.604 805.806 360.604C825.311 360.604 842.515 349.929 852.732 333.661C858.962 340.761 867.733 345.206 877.479 345.206C887.647 345.206 896.749 340.369 903.013 332.72C905.26 333.625 907.685 334.149 910.225 334.149C913.132 334.149 915.897 333.491 918.413 332.316C925.189 334.481 932.997 335.728 941.328 335.728C965.053 335.728 984.603 325.721 987.627 312.757C988.019 312.785 988.409 312.821 988.808 312.821C994.365 312.821 999.26 309.81 1002.23 305.217C1004.52 306.54 1007.13 307.295 1009.91 307.295C1018.05 307.295 1024.79 300.836 1026.05 292.389C1046.53 291.295 1061.76 287.255 1061.76 282.421Z" fill="#F6F9FE"/>
<path d="M1523.76 278.421C1523.76 272.987 1504.55 268.561 1480.26 268.189C1480.26 268.049 1480.28 267.908 1480.28 267.761C1480.28 257.941 1472.95 249.994 1463.91 249.994C1460.25 249.994 1456.88 251.313 1454.16 253.513C1454.11 253.434 1454.07 253.362 1454.03 253.287C1450.37 233.612 1434.36 218.796 1415.16 218.796C1411.88 218.796 1408.72 219.274 1405.67 220.086C1401.83 210.942 1393.36 204.58 1383.5 204.58C1376.29 204.58 1369.83 207.994 1365.37 213.4C1360.37 205.68 1352.11 200.63 1342.76 200.63C1341.4 200.63 1340.07 200.77 1338.76 200.979C1339.68 197.341 1340.21 193.528 1340.21 189.574C1340.21 165.798 1322.46 146.532 1300.56 146.532C1289.1 146.532 1278.81 151.837 1271.57 160.265C1266.32 147.077 1254.24 137.84 1240.16 137.84C1228.13 137.84 1217.56 144.605 1211.47 154.805C1207.34 147.702 1200.08 142.975 1191.78 142.975C1189.49 142.975 1187.29 143.345 1185.2 144.015C1179.94 133.297 1169.54 126 1157.57 126C1145.97 126 1135.87 132.865 1130.47 143.044C1130.04 143.02 1129.62 142.975 1129.19 142.975C1120.65 142.975 1113.2 147.982 1109.15 155.422C1101.97 147.975 1092.25 143.374 1081.53 143.374C1069.75 143.374 1059.18 148.938 1051.85 157.744C1041.57 149.707 1028.96 144.955 1015.32 144.955C996.555 144.955 979.731 153.931 968.262 168.125C963.739 165.939 958.742 164.696 953.47 164.696C933.379 164.696 917.088 182.369 917.088 204.183C917.088 205.006 917.156 205.811 917.203 206.619C915.305 206.081 913.322 205.76 911.267 205.76C902.296 205.76 894.523 211.278 890.631 219.35C885.896 216.741 880.558 215.239 874.885 215.239C859.872 215.239 847.107 225.548 842.17 239.979C841.206 239.825 840.229 239.724 839.233 239.724C828.7 239.724 820.041 248.393 818.968 259.514C818.689 259.497 818.411 259.471 818.129 259.471C811.695 259.471 806.303 264.24 804.76 270.703C803.191 270.592 801.586 270.52 799.937 270.52C786.823 270.52 775.814 274.239 772.562 279.287C771.512 279.241 770.458 279.212 769.375 279.212C753.704 279.212 741 284.51 741 291.054C741 297.599 753.704 302.902 769.375 302.902C771.4 302.902 773.372 302.812 775.28 302.639C779.926 306.536 789.536 309.22 800.666 309.22C801.757 309.22 802.831 309.189 803.89 309.138C805.184 315.507 810.412 320.281 816.674 320.281C818.101 320.281 819.474 320.022 820.761 319.562C825.261 326.211 832.499 330.543 840.684 330.543C844.785 330.543 848.641 329.442 852.051 327.527C855.712 331.345 860.674 333.702 866.147 333.702C871.696 333.702 876.717 331.29 880.391 327.39C886.79 336.045 896.602 341.599 907.624 341.599C916.692 341.599 924.92 337.822 931.13 331.674C934.011 338.461 940.312 343.18 947.646 343.18C954.199 343.18 959.923 339.41 963.127 333.77C968.387 337.213 974.526 339.23 981.117 339.23C989.225 339.23 996.666 336.203 1002.6 331.176C1005.92 335.148 1010.71 337.661 1016.04 337.661C1021.28 337.661 1025.98 335.241 1029.3 331.402C1034.35 339.906 1043.14 345.546 1053.15 345.546C1061.05 345.546 1068.2 342.038 1073.35 336.376C1082.81 344.42 1096.66 349.496 1112.1 349.496C1131.1 349.496 1147.7 341.805 1156.67 330.357C1162.16 340.162 1172.06 346.736 1183.4 346.736C1187.18 346.736 1190.78 345.974 1194.13 344.643C1198.28 352.041 1205.76 357 1214.33 357C1222.82 357 1230.26 352.118 1234.42 344.815C1243.79 352.222 1255.32 356.604 1267.81 356.604C1287.31 356.604 1304.52 345.929 1314.73 329.661C1320.96 336.761 1329.73 341.206 1339.48 341.206C1349.65 341.206 1358.75 336.369 1365.01 328.72C1367.26 329.625 1369.68 330.149 1372.22 330.149C1375.13 330.149 1377.9 329.491 1380.41 328.316C1387.19 330.481 1395 331.728 1403.33 331.728C1427.05 331.728 1446.6 321.721 1449.63 308.757C1450.02 308.785 1450.41 308.821 1450.81 308.821C1456.36 308.821 1461.26 305.81 1464.23 301.217C1466.52 302.54 1469.13 303.295 1471.91 303.295C1480.05 303.295 1486.79 296.836 1488.05 288.389C1508.53 287.295 1523.76 283.255 1523.76 278.421Z" fill="#F6F9FE"/>
<path d="M1439 296H-1V522H1439V296Z" fill="#F6F9FE"/>
<mask id="mask2_5285_1486" style="mask-type:luminance" maskUnits="userSpaceOnUse" x="0" y="-39" width="550" height="208">
<path d="M550 -39H0V169H550V-39Z" fill="white"/>
</mask>
<g mask="url(#mask2_5285_1486)">
<path d="M360.406 127.776C360.406 127.776 357.479 83.1624 390.619 81.5844C390.619 81.5844 398.047 74.7634 406.97 81.5844C406.97 81.5844 417.079 57.603 436.119 58.3081C455.16 59.0135 463.141 73.2114 463.141 73.2114C463.141 73.2114 472.301 64.7865 485.452 75.2835C485.452 75.2835 483.008 43.2633 506.25 38.0192C529.492 32.7663 534.204 41.8973 534.204 41.8973C534.204 41.8973 529.695 15.4565 550.537 11.7812V169.35H360.336L360.406 127.776Z" fill="#1A2A6C"/>
<path d="M276.977 169.342C276.977 169.342 283.341 135.648 311.137 137.225C338.941 138.803 342.607 146.145 342.607 146.145C342.607 146.145 349.024 109.93 378.534 104.677C408.044 99.4244 415.762 106.775 415.762 106.775C415.762 106.775 436.833 96.8064 446.784 116.223C446.784 116.223 457.376 95.6434 469.876 102.782C482.377 109.921 486.042 117.271 486.042 117.271C486.042 117.271 483.95 81.0574 510.12 70.5604C536.298 60.0634 550.53 76.8614 550.53 76.8614V169.342H276.977Z" fill="#F6F9FE"/>
<path d="M493.716 124.975C493.716 124.975 491.624 88.7602 517.794 78.2632C532.746 72.2612 543.805 75.1792 550.539 78.7752V76.8622C550.539 76.8622 536.298 60.0632 510.128 70.5602C486.491 80.0442 485.91 110.503 486.016 116.312C491.8 121.133 493.716 124.975 493.716 124.975Z" fill="#E6D4EE"/>
<path d="M318.81 144.921C346.614 146.499 350.28 153.841 350.28 153.841C350.28 153.841 356.697 117.626 386.207 112.373C415.717 107.12 423.435 114.47 423.435 114.47C423.435 114.47 435.61 108.715 445.816 114.47C435.531 97.4157 415.77 106.767 415.77 106.767C415.77 106.767 408.051 99.4167 378.542 104.67C349.032 109.923 342.615 146.137 342.615 146.137C342.615 146.137 338.949 138.787 311.144 137.218C283.34 135.641 276.984 169.335 276.984 169.335H286.953C290.671 159.499 299.655 143.837 318.81 144.921Z" fill="#E6D4EE"/>
<path d="M454.457 123.925C454.457 123.925 465.05 103.345 477.55 110.484C480.407 112.114 482.798 113.763 484.802 115.323C482.868 112.67 478.456 107.681 469.885 102.79C458.923 96.5318 449.429 111.577 447.258 115.375C449.93 117.226 452.427 119.958 454.457 123.925Z" fill="#E6D4EE"/>
<path d="M200.52 122.693C200.52 122.693 203.816 72.4465 166.5 70.6745C166.5 70.6745 158.132 62.9895 148.084 70.6745C148.084 70.6745 136.7 43.6698 115.251 44.463C93.8111 45.2562 84.8184 61.2525 84.8184 61.2525C84.8184 61.2525 74.5071 51.7606 59.6862 63.5885C59.6862 63.5885 62.4376 27.5321 36.2594 21.6182C10.0811 15.7043 4.78048 25.981 4.78048 25.981C4.78048 25.981 9.86143 -3.80009 -13.6094 -7.93359V169.519H200.599L200.52 122.693Z" fill="#1A2A6C"/>
<path d="M294.481 169.501C294.481 169.501 287.316 131.559 256.004 133.331C224.693 135.102 220.57 143.378 220.57 143.378C220.57 143.378 213.344 102.589 180.107 96.684C146.87 90.77 138.176 99.046 138.176 99.046C138.176 99.046 114.442 87.817 103.242 109.684C103.242 109.684 91.3136 86.513 77.2312 94.551C63.1487 102.589 59.0259 110.865 59.0259 110.865C59.0259 110.865 61.3818 70.076 31.9071 58.2566C2.43243 46.4376 -13.6016 65.352 -13.6016 65.352V169.501H294.481Z" fill="#F6F9FE"/>
<path d="M50.3857 119.536C50.3857 119.536 52.7416 78.747 23.2669 66.928C6.42426 60.177 -6.02317 63.456 -13.6094 67.51V65.359C-13.6094 65.359 2.42456 46.4456 31.8992 58.2645C58.5258 68.947 59.1763 103.249 59.0532 109.789C52.5482 115.209 50.3857 119.536 50.3857 119.536Z" fill="#E6D4EE"/>
<path d="M247.375 142.003C216.063 143.775 211.94 152.051 211.94 152.051C211.94 152.051 204.714 111.261 171.477 105.356C138.24 99.4418 129.546 107.718 129.546 107.718C129.546 107.718 115.842 101.232 104.344 107.727C115.921 88.5138 138.187 99.0548 138.187 99.0548C138.187 99.0548 146.881 90.7788 180.118 96.6928C213.355 102.607 220.581 143.387 220.581 143.387C220.581 143.387 224.704 135.111 256.016 133.339C287.328 131.568 294.492 169.51 294.492 169.51H283.267C279.056 158.414 268.947 140.778 247.375 142.003Z" fill="#E6D4EE"/>
<path d="M94.6035 118.357C94.6035 118.357 82.6747 95.1866 68.5922 103.225C65.3749 105.067 62.6762 106.909 60.4258 108.671C62.6059 105.684 67.5725 100.06 77.2246 94.5516C89.5665 87.5006 100.256 104.441 102.708 108.733C99.702 110.813 96.889 113.898 94.6035 118.357Z" fill="#E6D4EE"/>
</g>
<mask id="mask3_5285_1486" style="mask-type:luminance" maskUnits="userSpaceOnUse" x="721" y="-41" width="550" height="208">
<path d="M1271 -41H721V167H1271V-41Z" fill="white"/>
</mask>
<g mask="url(#mask3_5285_1486)">
<path d="M997.977 167.343C997.977 167.343 1004.34 133.649 1032.13 135.226C1059.94 136.804 1063.6 144.146 1063.6 144.146C1063.6 144.146 1070.02 107.931 1099.53 102.678C1129.04 97.4245 1136.76 104.776 1136.76 104.776C1136.76 104.776 1157.83 94.8065 1167.78 114.224C1167.78 114.224 1178.37 93.6435 1190.87 100.783C1203.37 107.922 1207.04 115.272 1207.04 115.272C1207.04 115.272 1204.95 79.0575 1231.12 68.5605C1257.29 58.0631 1271.53 74.8615 1271.53 74.8615V167.343H997.977Z" fill="#F6F9FE"/>
<path d="M1214.71 122.975C1214.71 122.975 1212.62 86.7601 1238.79 76.2631C1253.74 70.2611 1264.8 73.1791 1271.54 76.7751V74.8621C1271.54 74.8621 1257.3 58.0635 1231.13 68.5601C1207.49 78.0441 1206.91 108.503 1207.01 114.312C1212.8 119.133 1214.71 122.975 1214.71 122.975Z" fill="#E6D4EE"/>
<path d="M1039.81 142.921C1067.61 144.499 1071.28 151.841 1071.28 151.841C1071.28 151.841 1077.7 115.626 1107.2 110.373C1136.71 105.12 1144.43 112.47 1144.43 112.47C1144.43 112.47 1156.61 106.715 1166.81 112.47C1156.53 95.4157 1136.77 104.767 1136.77 104.767C1136.77 104.767 1129.05 97.4167 1099.54 102.67C1070.03 107.923 1063.61 144.137 1063.61 144.137C1063.61 144.137 1059.95 136.787 1032.14 135.218C1004.34 133.641 997.984 167.335 997.984 167.335H1007.95C1011.67 157.499 1020.65 141.837 1039.81 142.921Z" fill="#E6D4EE"/>
<path d="M1175.45 121.929C1175.45 121.929 1186.05 101.349 1198.55 108.488C1201.4 110.118 1203.79 111.767 1205.8 113.327C1203.86 110.674 1199.45 105.685 1190.88 100.794C1179.92 94.5357 1170.43 109.581 1168.25 113.379C1170.93 115.23 1173.42 117.962 1175.45 121.929Z" fill="#E6D4EE"/>
<path d="M1015.48 167.501C1015.48 167.501 1008.32 129.559 977.004 131.331C945.693 133.102 941.57 141.378 941.57 141.378C941.57 141.378 934.344 100.589 901.107 94.684C867.87 88.77 859.176 97.046 859.176 97.046C859.176 97.046 835.442 85.817 824.242 107.684C824.242 107.684 812.314 84.513 798.231 92.551C784.149 100.589 780.026 108.865 780.026 108.865C780.026 108.865 782.382 68.076 752.907 56.2566C723.432 44.4376 707.398 63.352 707.398 63.352V167.501H1015.48Z" fill="#F6F9FE"/>
<path d="M771.386 117.536C771.386 117.536 773.742 76.747 744.267 64.928C727.424 58.1771 714.977 61.456 707.391 65.51V63.359C707.391 63.359 723.425 44.4456 752.899 56.2645C779.526 66.947 780.176 101.249 780.053 107.789C773.548 113.209 771.386 117.536 771.386 117.536Z" fill="#E6D4EE"/>
<path d="M968.375 140.003C937.063 141.775 932.94 150.051 932.94 150.051C932.94 150.051 925.714 109.261 892.477 103.356C859.24 97.4418 850.546 105.718 850.546 105.718C850.546 105.718 836.842 99.2318 825.344 105.727C836.921 86.5138 859.187 97.0548 859.187 97.0548C859.187 97.0548 867.881 88.7788 901.118 94.6928C934.355 100.607 941.581 141.387 941.581 141.387C941.581 141.387 945.704 133.111 977.016 131.339C1008.33 129.568 1015.49 167.51 1015.49 167.51H1004.26C1000.05 156.414 989.947 138.778 968.375 140.003Z" fill="#E6D4EE"/>
<path d="M815.603 116.357C815.603 116.357 803.675 93.1866 789.592 101.225C786.375 103.067 783.676 104.909 781.426 106.671C783.606 103.684 788.573 98.0596 798.225 92.5516C810.566 85.5006 821.256 102.441 823.708 106.733C820.702 108.813 817.889 111.898 815.603 116.357Z" fill="#E6D4EE"/>
</g>
<path d="M739.93 127.577C739.93 127.577 742.869 83.1238 709.59 81.5515C709.59 81.5515 702.131 74.7541 693.17 81.5515C693.17 81.5515 683.019 57.6564 663.899 58.359C644.779 59.062 636.763 73.2087 636.763 73.2087C636.763 73.2087 627.565 64.8131 614.358 75.2723C614.358 75.2723 616.813 43.3685 593.473 38.1434C570.133 32.9094 565.402 42.0073 565.402 42.0073C565.402 42.0073 569.93 15.6619 549 12V169H740L739.93 127.577Z" fill="#1A2A6C"/>
<path d="M824 170C824 170 817.602 136.053 789.659 137.643C761.707 139.232 758.023 146.629 758.023 146.629C758.023 146.629 751.572 110.142 721.906 104.85C692.24 99.5579 684.481 106.963 684.481 106.963C684.481 106.963 663.299 96.9199 653.295 116.482C653.295 116.482 642.647 95.7479 630.08 102.941C617.513 110.133 613.829 117.539 613.829 117.539C613.829 117.539 615.931 81.0519 589.624 70.4769C563.307 59.9009 549 76.8259 549 76.8259V170H824Z" fill="#F6F9FE"/>
</g>
<path d="M34 72C23.143 63.587 0 63 0 63L0.5 519H1439.5V103.5C1439.5 103.5 1427.97 100.502 1420.5 101C1413.03 101.498 1402 106 1402 106C1402 106 1397 104 1388.5 103.5C1380 103 1371.5 115 1371.5 115C1371.5 115 1363.78 101.626 1355.5 101C1348.27 100.453 1339 109.5 1339 109.5L1331 108C1331 108 1329 79.5 1314 72.5C1302.71 67.2327 1294.43 63.9209 1282.5 67.5C1277.5 69 1274 77 1274 77C1274 77 1266.31 73.3332 1261 72.5C1248.36 70.5157 1239.35 73.3334 1229.5 81.5C1217.04 91.8294 1215.5 120.5 1215.5 120.5C1215.5 120.5 1205.64 109.163 1197 108C1192.13 107.344 1188.83 107.163 1184.5 109.5C1179.72 112.081 1176 120.5 1176 120.5C1176 120.5 1170.61 114.232 1166 112C1162.72 110.411 1160.64 109.795 1157 109.5C1151.85 109.082 1144 112 1144 112C1144 112 1128.87 107.38 1119 108C1107.04 108.751 1099.5 110.698 1090 118C1078.42 126.902 1078.72 137.808 1071.5 150.5L1060.5 145.5C1060.5 145.5 1044.05 139.765 1034 142.5C1024.8 145.004 1014 156.5 1014 156.5L1016 166.5H1004.5C1004.5 166.5 1001.16 157.957 997.5 153.5C989.743 144.051 981.62 141.102 969.5 139.5C955.272 137.619 934 149 934 149C934 149 928.341 129.411 920 120C911.557 110.474 904.651 106.295 892.5 102.5C877.02 97.665 851 104 851 104C851 104 843.417 102.5 838.5 102.5C833.583 102.5 830.468 101.949 826 104C820.603 106.477 815.5 115 815.5 115C815.5 115 808.427 101.007 800 99.5C791.822 98.0378 780.5 108 780.5 108L772 115L737.5 111C737.5 111 721.532 103.206 710.5 102.5C700.44 101.856 685 106 685 106C685 106 675.521 102.844 669.5 104C662.211 105.399 654 115 654 115C654 115 643.533 100.886 634 101C624.626 101.112 614.5 115 614.5 115C614.5 115 613.412 104.039 611 97.5C606.513 85.3356 602.6 76.7915 591 71C576.176 63.5991 549 77 549 77C549 77 523.75 73.2852 511.5 81.5C497.125 91.1396 493.5 122 493.5 122C493.5 122 483.6 108.718 474.5 108.5C465.079 108.274 454.5 122 454.5 122C454.5 122 449.681 114.87 445 112.5C437.317 108.611 423 114 423 114C423 114 416.114 111.367 411.5 110.5C397.93 107.949 388.596 108.843 376.5 115.5C360.985 124.039 351 153 351 153C351 153 344.814 149.179 340.5 147.5C330.432 143.582 323.656 142.724 313 144.5C304 146 292 158.5 292 158.5L295 168H284C284 168 279.987 159.432 276 155C267.472 145.519 259.183 142.326 246.5 141C232.601 139.546 212 150.5 212 150.5C212 150.5 208.936 138.358 205 131.5C196.786 117.189 188.199 109.582 172.5 104.5C156.67 99.376 130 107.5 130 107.5C130 107.5 119.647 103.378 113 104.5C104.561 105.925 95 117 95 117C95 117 86.3259 100.657 75.5 101C65.1544 101.327 50.5 117 50.5 117C50.5 117 48.7955 83.4649 34 72Z" fill="#F6F9FE"/>
</g>
<defs>
<clipPath id="clip0_5285_1486">
<rect width="1439" height="519" fill="white"/>
</clipPath>
</defs>
</svg>
