<svg width="30" height="30" viewBox="0 0 30 30" fill="none" xmlns="http://www.w3.org/2000/svg">
<rect width="30" height="30" rx="5" fill="white"/>
<path d="M9.6875 25.9531V11.9375H5.32812V25.9531H9.6875ZM7.48438 10.0625C8.89062 10.0625 10.0156 8.89062 10.0156 7.48438C10.0156 6.125 8.89062 5 7.48438 5C6.125 5 5 6.125 5 7.48438C5 8.89062 6.125 10.0625 7.48438 10.0625ZM25.9531 25.9531H26V18.2656C26 14.5156 25.1562 11.6094 20.75 11.6094C18.6406 11.6094 17.2344 12.7812 16.625 13.8594H16.5781V11.9375H12.4062V25.9531H16.7656V19.0156C16.7656 17.1875 17.0938 15.4531 19.3438 15.4531C21.5938 15.4531 21.6406 17.5156 21.6406 19.1562V25.9531H25.9531Z" fill="#554FD6"/>
</svg>
