<svg width="31" height="31" viewBox="0 0 31 31" fill="none" xmlns="http://www.w3.org/2000/svg">
<path fill-rule="evenodd" clip-rule="evenodd" d="M25.8784 31H5.12137C2.30461 31 0 28.6954 0 25.8786V5.12139C0 2.30462 2.30461 0 5.12137 0H25.8784C28.6952 0 30.9998 2.30462 30.9998 5.12139V25.8785C30.9998 28.6953 28.6952 31 25.8784 31Z" fill="white"/>
<path fill-rule="evenodd" clip-rule="evenodd" d="M26.071 15.2282C26.071 20.9139 21.4254 25.5242 15.6949 25.5242C13.875 25.5242 12.1652 25.0595 10.6788 24.243L4.93359 26.0688L6.8063 20.5449C5.86128 18.993 5.31789 17.1731 5.31789 15.2283C5.31789 9.54138 9.96336 4.9314 15.6949 4.9314C21.4254 4.93129 26.071 9.54128 26.071 15.2282ZM15.6949 6.57125C10.8832 6.57125 6.97039 10.4541 6.97039 15.2282C6.97039 17.1214 7.58722 18.8761 8.63203 20.3038L7.54259 23.5181L10.8946 22.453C12.2717 23.3566 13.9219 23.8841 15.6948 23.8841C20.5044 23.8841 24.4183 20.001 24.4183 15.2281C24.4184 10.4541 20.5045 6.57125 15.6949 6.57125ZM20.9346 17.5996C20.8703 17.4942 20.7006 17.4311 20.4473 17.3049C20.1927 17.179 18.9415 16.5678 18.7087 16.4842C18.4758 16.4002 18.305 16.3579 18.1365 16.6101C17.9668 16.8626 17.4791 17.4312 17.3304 17.5997C17.1824 17.7685 17.0344 17.7891 16.78 17.6629C16.5251 17.5369 15.7052 17.2694 14.734 16.4108C13.9784 15.7409 13.4678 14.9154 13.3187 14.6629C13.1711 14.4107 13.3041 14.2742 13.43 14.1483C13.5448 14.0347 13.6847 13.8536 13.812 13.7068C13.9394 13.5589 13.9817 13.4531 14.0665 13.2847C14.1513 13.1161 14.1091 12.9694 14.0448 12.8431C13.9817 12.7172 13.4726 11.4751 13.2604 10.9692C13.0496 10.4648 12.8373 10.4837 12.6882 10.4837C12.5403 10.4837 12.2656 10.5277 12.2656 10.5277C12.2656 10.5277 11.7557 10.5909 11.523 10.8434C11.2901 11.0956 10.6331 11.7068 10.6331 12.9477C10.6331 14.1895 11.5438 15.3902 11.6709 15.5575C11.7983 15.7263 13.43 18.3579 16.0161 19.3684C18.6023 20.3786 18.6023 20.0416 19.0687 19.9991C19.5343 19.9579 20.5733 19.389 20.7855 18.7995C20.9977 18.2097 20.9977 17.7042 20.9346 17.5996Z" fill="#554FD6"/>
</svg>
