<svg width="12" height="12" viewBox="0 0 12 12" fill="none" xmlns="http://www.w3.org/2000/svg">
<path d="M11.3887 10.6038C11.4403 10.6554 11.4812 10.7166 11.5091 10.7841C11.5371 10.8515 11.5514 10.9238 11.5514 10.9968C11.5514 11.0697 11.5371 11.142 11.5091 11.2094C11.4812 11.2769 11.4403 11.3381 11.3887 11.3898C11.337 11.4414 11.2758 11.4823 11.2083 11.5102C11.1409 11.5382 11.0686 11.5525 10.9957 11.5525C10.9227 11.5525 10.8504 11.5382 10.783 11.5102C10.7155 11.4823 10.6543 11.4414 10.6027 11.3898L5.99642 6.78282L1.39018 11.3898C1.28595 11.494 1.14459 11.5525 0.997186 11.5525C0.849784 11.5525 0.708419 11.494 0.60419 11.3898C0.499961 11.2855 0.441406 11.1442 0.441406 10.9968C0.441406 10.8494 0.499961 10.708 0.60419 10.6038L5.21113 5.99752L0.60419 1.39128C0.499961 1.28705 0.441406 1.14569 0.441406 0.998284C0.441406 0.850883 0.499961 0.709518 0.60419 0.605289C0.708419 0.50106 0.849784 0.442505 0.997186 0.442505C1.14459 0.442505 1.28595 0.50106 1.39018 0.605289L5.99642 5.21222L10.6027 0.605289C10.7069 0.50106 10.8483 0.442505 10.9957 0.442505C11.1431 0.442505 11.2844 0.50106 11.3887 0.605289C11.4929 0.709518 11.5514 0.850883 11.5514 0.998284C11.5514 1.14569 11.4929 1.28705 11.3887 1.39128L6.78172 5.99752L11.3887 10.6038Z" fill="#1A2A6C"/>
</svg>
