<svg width="493" height="330" viewBox="0 0 493 330" fill="none" xmlns="http://www.w3.org/2000/svg">
<g clip-path="url(#clip0_5061_17679)">
<path d="M79.5593 252.71C79.5593 252.71 76.563 253.099 71.3711 254.837L78.4385 255.843L79.5593 252.71Z" fill="#C7C7C7"/>
<path d="M409.134 721.866C521.445 609.555 521.445 427.463 409.134 315.153C296.823 202.842 114.732 202.842 2.42104 315.153C-109.89 427.463 -109.89 609.555 2.42104 721.866C114.732 834.176 296.823 834.176 409.134 721.866Z" fill="#EDEDED"/>
<path opacity="0.79" d="M201.833 863.46C392.927 863.46 547.84 708.548 547.84 517.453C547.84 326.358 392.927 171.445 201.833 171.445C10.738 171.445 -144.175 326.358 -144.175 517.453C-144.175 708.548 10.738 863.46 201.833 863.46Z" fill="url(#paint0_radial_5061_17679)"/>
<path d="M34.6385 274.324C34.6385 274.324 29.538 277.732 29.8582 279.172C30.1784 280.591 34.2039 279.424 34.2039 279.424L34.6385 274.324Z" fill="#C7C7C7"/>
<path d="M79.812 254.494C81.0699 256.987 71.3951 264.466 58.1522 271.19C44.9322 277.915 33.176 281.345 31.8952 278.852C30.6372 276.359 40.3121 268.88 53.5549 262.156C66.7978 255.431 78.554 252.001 79.812 254.494Z" fill="#A8A8A8"/>
<path d="M31.208 292.576C31.208 292.576 31.7112 289.671 30.499 284.914C29.3096 280.156 29.1266 277.114 32.3745 277.457C37.7265 278.006 40.7685 278.647 50.7635 273.661C60.7815 268.674 74.8477 261.561 76.586 257.948C78.3243 254.334 77.5467 251.498 81.8008 253.213C86.055 254.928 86.4896 257.147 91.8645 255.912C97.2623 254.677 31.208 292.576 31.208 292.576Z" fill="url(#paint1_linear_5061_17679)"/>
<path d="M310.589 244.545C310.589 244.545 313.173 244.659 317.725 245.803L311.755 247.152L310.589 244.545Z" fill="#C7C7C7"/>
<path d="M350.501 259.869C350.501 259.869 355.098 262.43 354.938 263.665C354.778 264.9 351.256 264.169 351.256 264.169L350.501 259.869Z" fill="#C7C7C7"/>
<path d="M310.498 246.077C309.583 248.295 318.389 254.013 330.168 258.839C341.947 263.665 352.239 265.77 353.154 263.551C354.069 261.332 345.263 255.614 333.484 250.788C321.682 245.962 311.413 243.858 310.498 246.077Z" fill="#A8A8A8"/>
<path d="M354.733 275.239C354.733 275.239 354.115 272.791 354.801 268.652C355.487 264.512 355.442 261.881 352.674 262.407C348.145 263.254 345.584 264.009 336.687 260.44C327.789 256.872 315.255 251.795 313.517 248.822C311.779 245.848 312.236 243.378 308.737 245.139C305.215 246.9 305.009 248.822 300.32 248.158C295.608 247.449 354.733 275.239 354.733 275.239Z" fill="url(#paint2_linear_5061_17679)"/>
<path d="M177.132 266.753C177.132 266.753 179.305 265.747 183.536 264.695L179.213 268.377L177.132 266.753Z" fill="#C7C7C7"/>
<path d="M216.563 262.11C216.563 262.11 221.458 262.224 221.847 263.322C222.236 264.42 219.034 265.335 219.034 265.335L216.563 262.11Z" fill="#C7C7C7"/>
<path d="M177.703 268.057C177.908 270.275 187.629 271.167 199.385 270.047C211.141 268.926 220.519 266.227 220.313 264.009C220.107 261.79 210.387 260.898 198.63 262.019C186.874 263.139 177.497 265.838 177.703 268.057Z" fill="#A8A8A8"/>
<path d="M231.796 271.716C231.796 271.716 225.094 271.19 223.882 267.485C222.67 263.78 221.48 261.653 219.445 263.254C216.083 265.907 214.299 267.622 205.447 268.537C196.596 269.452 184.085 270.664 181.386 268.995C178.664 267.302 177.978 265.061 175.851 268.034C173.724 271.007 173.449 271.145 170.224 274.141C165.719 278.326 231.796 271.716 231.796 271.716Z" fill="url(#paint3_linear_5061_17679)"/>
<path d="M142 283.999C142.069 285.257 139.233 286.446 135.665 286.652C132.097 286.881 129.124 286.034 129.055 284.776C128.986 283.518 131.822 282.329 135.39 282.123C138.959 281.917 141.932 282.764 142 283.999Z" fill="#EDEDED"/>
<path d="M206.522 329.171C206.591 330.429 203.754 331.618 200.186 331.824C196.618 332.053 193.645 331.206 193.576 329.948C193.508 328.69 196.344 327.501 199.912 327.295C203.48 327.089 206.43 327.913 206.522 329.171Z" fill="#EDEDED"/>
<path d="M180.858 303.097C181.086 306.733 172.853 310.187 162.469 310.805C152.085 311.445 143.508 308.998 143.279 305.361C143.05 301.724 151.284 298.271 161.668 297.653C172.052 297.036 180.652 299.46 180.858 303.097Z" fill="#EDEDED"/>
<path d="M369.76 330.223C369.874 331.984 365.895 333.654 360.886 333.951C355.877 334.249 351.737 333.082 351.623 331.321C351.508 329.56 355.488 327.89 360.497 327.593C365.529 327.295 369.669 328.462 369.76 330.223Z" fill="#EDEDED"/>
<path d="M119.906 316.225C120.02 317.986 116.04 319.656 111.031 319.953C106.022 320.251 101.882 319.084 101.768 317.323C101.654 315.562 105.633 313.892 110.642 313.595C115.651 313.298 119.791 314.487 119.906 316.225Z" fill="#EDEDED"/>
<path d="M275.893 304.721C276.007 306.482 272.027 308.151 267.018 308.449C262.01 308.746 257.87 307.58 257.755 305.818C257.641 304.057 261.621 302.388 266.63 302.09C271.639 301.793 275.778 302.982 275.893 304.721Z" fill="#EDEDED"/>
<path d="M265.532 251.795C265.6 253.053 262.764 254.242 259.196 254.448C255.628 254.677 252.655 253.83 252.586 252.572C252.518 251.314 255.354 250.125 258.922 249.919C262.49 249.691 265.44 250.537 265.532 251.795Z" fill="#EDEDED"/>
<path d="M192.868 243.858C192.936 245.116 190.1 246.306 186.532 246.511C182.964 246.74 179.991 245.894 179.922 244.636C179.854 243.378 182.69 242.189 186.258 241.983C189.826 241.754 192.799 242.6 192.868 243.858Z" fill="#EDEDED"/>
<path d="M64.6684 295.206C64.7371 296.464 61.9009 297.653 58.3329 297.859C54.7649 298.088 51.7915 297.242 51.7229 295.984C51.6543 294.726 54.4904 293.536 58.0584 293.331C61.6265 293.125 64.5769 293.971 64.6684 295.206Z" fill="#EDEDED"/>
<path d="M300.842 297.877C311.22 297.246 319.453 293.79 319.232 290.159C319.011 286.527 310.42 284.095 300.043 284.726C289.665 285.357 281.432 288.813 281.653 292.444C281.874 296.075 290.465 298.508 300.842 297.877Z" fill="#EDEDED"/>
<path d="M115.08 262.75C115.766 265.289 110.414 268.949 103.14 270.893C95.8672 272.837 89.4173 272.357 88.7311 269.818C88.045 267.279 93.397 263.62 100.67 261.675C107.944 259.731 114.393 260.212 115.08 262.75Z" fill="#EDEDED"/>
<path d="M308.994 265.28L302.274 292.412L294.42 293.822L300.758 266.758L308.994 265.28Z" fill="#D1420B"/>
<path d="M308.994 265.28L300.759 266.758L287.334 264.383L293.161 262.861L308.994 265.28Z" fill="#E77622"/>
<path d="M300.759 266.758L294.421 293.822L289.707 294.67L295.657 267.674L300.759 266.758Z" fill="#EFA729"/>
<path d="M300.759 266.758L295.657 267.674L282.83 265.558L273.411 268.018L267.974 267.187L277.447 264.67L276.504 262.464L275.967 261.213L273.092 254.496L276.739 255.884L279.206 253.159L281.39 261.062L282.048 263.446L282.951 261.3L288.185 248.852L290.24 253.254L294.209 252.044L288.573 262.159L287.334 264.383L300.759 266.758Z" fill="#F9D82B"/>
<path d="M295.656 267.674L289.707 294.67L280.072 296.398L284.395 269.696L295.656 267.674Z" fill="#D1420B"/>
<path d="M295.656 267.674L284.394 269.696L273.41 268.018L282.83 265.558L295.656 267.674Z" fill="#E77622"/>
<path d="M293.162 262.861L287.335 264.383L288.574 262.16L293.162 262.861Z" fill="#EFA729"/>
<path d="M284.394 269.696L280.071 296.397L269.325 294.756L273.41 268.018L284.394 269.696Z" fill="#E35D1E"/>
<path d="M282.95 261.301L282.047 263.446L281.389 261.062L282.95 261.301Z" fill="#E77622"/>
<path d="M276.504 262.464L277.447 264.67L267.401 263.012L272.971 261.84L272.974 261.841L276.504 262.464Z" fill="#EFA729"/>
<path d="M277.447 264.67L267.974 267.187L256.138 265.379L267.401 263.012L277.447 264.67Z" fill="#E77622"/>
<path d="M275.966 261.213L276.503 262.464L272.972 261.84L275.966 261.213Z" fill="#E77622"/>
<path d="M273.411 268.018L269.325 294.756L264.663 294.043C264.412 293.472 267.973 267.187 267.973 267.187L273.411 268.018Z" fill="#EFA729"/>
<path d="M264.664 294.044L254.567 292.501L256.137 265.379L267.974 267.187C267.974 267.187 264.413 293.472 264.664 294.044Z" fill="#E35D1E"/>
<path d="M126.55 273.305L114.25 300.579L105.709 300.551L117.594 273.274L126.55 273.305Z" fill="#7D3893"/>
<path d="M126.55 273.304L117.594 273.274L103.916 268.188L110.345 267.708L126.55 273.304Z" fill="#AC65C4"/>
<path d="M117.594 273.274L105.709 300.551L100.582 300.535L112.045 273.256L117.594 273.274Z" fill="#EFA729"/>
<path d="M117.595 273.274L112.046 273.256L98.9482 268.559L88.5566 269.335L82.9912 267.413L93.4505 266.587L92.8831 264.083L92.5585 262.663L90.8239 255.036L94.3979 257.2L97.5193 254.805L98.2974 263.547L98.5303 266.184L99.8948 264.099L107.804 252L109.118 257.029L113.532 256.521L105.649 266.086L103.916 268.188L117.595 273.274Z" fill="#F9D82B"/>
<path d="M112.045 273.256L100.582 300.535L90.1045 300.5L99.7982 273.217L112.045 273.256Z" fill="#7D3893"/>
<path d="M112.046 273.257L99.799 273.217L88.5566 269.335L98.9482 268.559L112.046 273.257Z" fill="#AC65C4"/>
<path d="M110.345 267.709L103.916 268.188L105.649 266.086L110.345 267.709Z" fill="#EFA729"/>
<path d="M99.7987 273.217L90.105 300.5L79.1055 296.701L88.5563 269.335L99.7987 273.217Z" fill="#904DA3"/>
<path d="M99.8943 264.099L98.5298 266.185L98.2969 263.547L99.8943 264.099Z" fill="#AC65C4"/>
<path d="M92.8826 264.083L93.45 266.587L83.1914 262.907L89.2813 262.745L89.2846 262.747L92.8826 264.083Z" fill="#EFA729"/>
<path d="M93.4499 266.587L82.9906 267.413L70.876 263.229L83.1913 262.907L93.4499 266.587Z" fill="#AC65C4"/>
<path d="M92.5575 262.662L92.8821 264.083L89.2842 262.747L92.5575 262.662Z" fill="#AC65C4"/>
<path d="M88.5555 269.335L79.1047 296.701L74.3331 295.053C74.1786 294.403 82.9893 267.413 82.9893 267.413L88.5555 269.335Z" fill="#EFA729"/>
<path d="M74.3338 295.053L64 291.484L70.8754 263.228L82.99 267.412C82.99 267.412 74.1793 294.403 74.3338 295.053Z" fill="#904DA3"/>
<path d="M154.536 180.773C154.778 180.495 155.068 180.306 155.408 180.235C156.629 179.977 157.954 181.368 158.37 183.34C158.527 184.084 158.534 184.804 158.413 185.426C158.413 185.426 158.412 185.43 158.412 185.433C158.214 186.46 157.675 187.221 156.917 187.38C156.636 187.439 156.344 187.408 156.064 187.304C156.753 187.999 157.564 188.344 158.341 188.178C158.724 188.097 159.064 187.902 159.35 187.61C159.744 187.222 160.041 186.665 160.219 185.998C160.462 185.1 160.493 184.005 160.252 182.871C160.045 181.892 159.666 181.021 159.191 180.335C158.863 179.863 158.492 179.481 158.096 179.21C157.539 178.828 156.939 178.666 156.357 178.79C155.508 178.969 154.868 179.717 154.536 180.773Z" fill="#61909B"/>
<path d="M154.531 180.783C154.239 181.713 154.19 182.884 154.446 184.098C154.729 185.434 155.328 186.57 156.064 187.304C156.345 187.409 156.636 187.439 156.917 187.38C157.676 187.22 158.214 186.46 158.412 185.433C158.413 185.429 158.413 185.426 158.413 185.426C158.534 184.804 158.527 184.084 158.37 183.34C157.955 181.368 156.629 179.976 155.408 180.235C155.068 180.306 154.778 180.495 154.536 180.773C154.536 180.773 154.535 180.776 154.531 180.783Z" fill="#82B2BF"/>
<path d="M166.39 227.192C165.758 227.966 164.608 227.993 163.94 227.297C166.403 230.062 170.545 228.666 170.545 228.666C170.545 228.666 170.545 228.666 170.542 228.662C170.456 228.594 169.241 227.574 167.681 225.609L166.39 227.192Z" fill="#2C6FD1"/>
<path d="M155.906 193.788C153.327 194.221 151.657 196.75 152.271 199.293C152.794 201.474 153.53 204.251 154.493 207.302C155.976 204.235 157.48 202.306 157.48 202.306C157.48 202.306 158.582 200.844 160.201 199.928C160.187 199.555 160.168 198.009 160.578 195.99C159.524 195.255 158.55 194.42 157.662 193.495L155.906 193.788Z" fill="#4884DF"/>
<path d="M160.578 195.99C163.229 197.841 166.368 199.047 169.794 199.366C175.018 199.852 179.969 198.188 183.792 195.084C183.793 195.081 183.793 195.081 183.793 195.081C183.911 194.985 184.026 194.89 184.138 194.794C184.665 194.347 185.165 193.873 185.64 193.375C174.584 200.573 163.286 194.914 159.35 187.611C159.064 187.903 158.724 188.098 158.341 188.179C157.564 188.344 156.753 187.999 156.064 187.305C155.328 186.571 154.729 185.435 154.446 184.098C154.19 182.884 154.239 181.714 154.531 180.784C154.536 180.777 154.536 180.774 154.536 180.774C154.867 179.718 155.507 178.97 156.357 178.79C156.938 178.668 157.54 178.83 158.095 179.21C159.032 172.186 163.354 165.555 173.052 164.351C183.873 163.003 188.276 168.615 188.494 168.905C185.404 163.624 179.977 159.878 173.524 159.277C162.734 158.273 153.154 166.434 152.123 177.504C151.55 183.662 153.745 189.423 157.662 193.495C158.55 194.42 159.524 195.254 160.578 195.99Z" fill="#DFEDF2"/>
<path d="M158.096 179.21C158.492 179.481 158.864 179.862 159.192 180.336C168.691 158.13 189.127 170.521 189.436 170.705C189.156 170.091 188.844 169.492 188.504 168.915C188.504 168.915 188.501 168.912 188.495 168.904C188.277 168.615 183.873 163.002 173.053 164.35C163.354 165.555 159.033 172.186 158.096 179.21Z" fill="#4884DF"/>
<path d="M188.201 172.159C186.176 170.483 181.913 169.109 181.913 169.109C182.438 170.309 182.817 171.566 183.081 172.844L188.826 174.586C188.53 173.082 188.201 172.159 188.201 172.159ZM189.434 170.705C189.438 170.709 189.438 170.709 189.438 170.709C190.877 173.853 191.54 177.421 191.194 181.139C190.884 184.474 189.797 187.543 188.136 190.175C171.963 200.753 160.218 185.998 160.218 185.998C160.461 185.1 160.492 184.005 160.251 182.871C160.044 181.892 159.665 181.021 159.19 180.335C168.691 158.129 189.126 170.521 189.434 170.705ZM181.658 190.529C184.183 190.378 187.196 188.105 187.196 188.105C189.623 183.599 189.492 178.735 189.002 175.58L183.381 174.64C184.39 182.485 181.658 190.529 181.658 190.529Z" fill="#82B2BF"/>
<path d="M160.219 185.998C160.04 186.665 159.744 187.222 159.35 187.61C163.284 194.914 174.582 200.572 185.639 193.375C185.663 193.352 185.682 193.333 185.702 193.31C186.609 192.353 187.426 191.306 188.137 190.175C171.963 200.753 160.219 185.998 160.219 185.998Z" fill="#4884DF"/>
<path d="M160.578 195.99C160.167 198.009 160.186 199.555 160.201 199.928C161.75 199.045 163.772 198.663 165.758 200.534C166.637 201.363 167.106 202.182 167.292 202.961C167.292 202.961 167.292 202.965 167.296 202.968C167.365 203.103 168.27 205.021 166.193 209.332C164.042 213.806 163.807 219.338 163.807 219.338C164.099 219.96 164.402 220.551 164.711 221.111C175.195 207.018 189.437 208.974 189.437 208.974C188.312 206.982 187.272 204.64 186.399 202.455C184.848 198.574 183.822 195.178 183.792 195.084C179.969 198.188 175.018 199.852 169.794 199.366C166.368 199.046 163.228 197.84 160.578 195.99Z" fill="#82B2BF"/>
<path d="M160.551 218.309C160.441 219.268 160.45 220.081 160.507 220.72C160.6 221.819 160.824 222.417 160.824 222.417C162.725 222.92 163.257 224.514 162.976 225.975C163.244 226.368 163.519 226.755 163.799 227.135C163.846 227.193 163.891 227.247 163.939 227.298C164.608 227.994 165.758 227.966 166.389 227.193L167.68 225.609C167.445 225.311 167.202 224.995 166.951 224.653C166.226 223.657 165.453 222.477 164.71 221.112C164.401 220.552 164.097 219.961 163.805 219.338C163.03 217.694 162.318 215.835 161.749 213.757C161.036 215.507 160.691 217.04 160.551 218.309Z" fill="#4884DF"/>
<path d="M162.804 211.535C162.385 212.31 162.036 213.05 161.751 213.756C162.319 215.835 163.031 217.693 163.807 219.338C163.807 219.338 164.042 213.806 166.193 209.332C168.27 205.021 167.365 203.102 167.295 202.969C167.728 204.755 166.708 206.314 165.909 207.216C164.725 208.547 163.651 209.97 162.804 211.535Z" fill="#61909B"/>
<path d="M164.711 221.111C165.455 222.476 166.227 223.657 166.952 224.652C175.166 211.743 191.188 211.658 191.188 211.658C190.59 210.894 190.002 209.979 189.437 208.974C189.437 208.974 175.195 207.018 164.711 221.111Z" fill="#4884DF"/>
<path d="M166.952 224.652C167.204 224.994 167.447 225.311 167.681 225.609C169.241 227.574 170.456 228.594 170.542 228.662C170.52 228.48 169.86 223.623 173.622 222.932C177.009 222.309 180.786 223.078 182.616 228.348C183.671 228.315 184.643 228.137 185.539 227.838C189.777 226.437 192.218 222.393 192.713 218.448C193.035 215.896 192.54 213.385 191.188 211.659C191.188 211.659 175.165 211.743 166.952 224.652Z" fill="#82B2BF"/>
<path d="M181.913 169.109C182.439 170.309 182.818 171.566 183.081 172.844L188.826 174.586C188.531 173.082 188.202 172.159 188.202 172.159C186.177 170.483 181.913 169.109 181.913 169.109Z" fill="#DFEDF2"/>
<path d="M189.003 175.58L183.381 174.64C184.39 182.486 181.658 190.529 181.658 190.529C184.183 190.378 187.196 188.105 187.196 188.105C189.624 183.599 189.492 178.736 189.003 175.58Z" fill="#DFEDF2"/>
<path d="M183.792 195.08C183.792 195.08 183.792 195.08 183.791 195.083C183.821 195.178 184.847 198.574 186.398 202.454C187.401 202.413 188.345 202.313 189.238 202.156C189.238 202.156 184.509 197.3 184.137 194.793C184.026 194.889 183.911 194.985 183.792 195.08Z" fill="#B7C9CE"/>
<path d="M185.639 193.375C185.165 193.872 184.664 194.346 184.137 194.793C184.509 197.299 189.238 202.156 189.238 202.156C197.514 200.713 201.19 194.62 202.811 190.149C198.199 192.9 194.567 188.387 194.567 188.387C192.299 194.235 185.751 193.357 185.751 193.357L185.702 193.31C185.683 193.333 185.663 193.352 185.639 193.375Z" fill="#DFEDF2"/>
<path d="M185.538 227.837C185.538 227.837 186.776 228.813 188.126 230.514C195.681 228.859 192.712 218.447 192.712 218.447C192.218 222.392 189.776 226.436 185.538 227.837Z" fill="#B7C9CE"/>
<path d="M188.126 230.514C189.058 231.688 190.042 233.214 190.711 235.004C196.039 230.567 201.456 232.116 201.624 232.167C198.9 223.57 192.712 218.447 192.712 218.447C192.712 218.447 195.682 228.859 188.126 230.514Z" fill="#DFEDF2"/>
<path d="M193.617 179.923C191.867 180.801 193.69 183.096 194.711 184.186C195.094 184.593 195.287 185.146 195.221 185.703C195.221 185.703 199.43 189.87 203.768 186.793C203.924 186.067 204 185.547 204.035 185.323C204.282 183.816 204.86 176.274 200.071 176.398C195.282 176.519 195.725 181.543 195.725 181.543C195.725 181.543 195.137 179.158 193.617 179.923Z" fill="#DFEDF2"/>
<path d="M195.222 185.703C195.095 186.725 194.87 187.615 194.568 188.387C194.568 188.387 198.2 192.9 202.812 190.149C203.285 188.837 203.585 187.668 203.768 186.793C199.431 189.87 195.222 185.703 195.222 185.703Z" fill="#4884DF"/>
<path d="M190.711 235.005C190.963 235.68 191.17 236.393 191.313 237.14C191.493 236.99 196.337 232.965 202.237 234.413C202.061 233.639 201.858 232.891 201.628 232.168C201.628 232.168 201.628 232.168 201.624 232.168C201.455 232.116 196.039 230.568 190.711 235.005Z" fill="#4884DF"/>
<path d="M191.312 237.139C191.436 237.795 191.51 238.479 191.522 239.185C191.539 240.408 191.677 241.327 191.899 242.032C201.864 246.826 205.807 245.217 205.932 245.165C205.936 245.162 205.936 245.162 205.936 245.162C207.692 241.848 202.883 239.566 202.883 239.566C202.836 237.752 202.603 236.031 202.237 234.413C196.337 232.965 191.493 236.99 191.312 237.139Z" fill="#82B2BF"/>
<path d="M191.898 242.032C192.552 244.146 193.942 244.312 195.043 244.92C196.516 245.734 204.172 248.472 205.932 245.165C205.806 245.217 201.864 246.826 191.898 242.032Z" fill="#61909B"/>
<path d="M185.522 228.012C185.546 228.014 185.57 228.012 185.594 228.004C189.459 226.727 192.321 222.984 192.888 218.469C192.9 218.373 192.831 218.284 192.734 218.272C192.637 218.258 192.55 218.328 192.537 218.425C192.12 221.752 190.023 226.168 185.483 227.669C185.391 227.7 185.34 227.799 185.371 227.892C185.394 227.961 185.454 228.006 185.522 228.012Z" fill="#51666B"/>
<path d="M186.383 202.63C186.41 202.633 186.438 202.629 186.464 202.619C186.555 202.583 186.598 202.48 186.563 202.389C185.196 198.97 184.233 195.921 183.971 195.068L183.959 195.03C183.929 194.937 183.83 194.887 183.738 194.915C183.645 194.945 183.594 195.044 183.624 195.136L183.635 195.172C183.898 196.028 184.864 199.088 186.235 202.52C186.261 202.583 186.319 202.625 186.383 202.63Z" fill="#51666B"/>
<path d="M177.434 199.688C177.464 199.69 177.496 199.686 177.525 199.672C177.613 199.631 177.651 199.526 177.611 199.438C177.468 199.132 177.391 198.961 177.391 198.961C177.351 198.872 177.246 198.833 177.157 198.872C177.069 198.912 177.029 199.017 177.07 199.106C177.07 199.106 177.148 199.278 177.291 199.587C177.318 199.646 177.374 199.682 177.434 199.688Z" fill="#51666B"/>
<path d="M186.79 222.818C186.698 222.787 186.649 222.686 186.681 222.594C186.794 222.27 186.895 221.927 186.982 221.573C187.005 221.478 187.1 221.42 187.195 221.443C187.29 221.466 187.348 221.562 187.324 221.656C187.235 222.021 187.131 222.375 187.014 222.71C186.986 222.788 186.91 222.835 186.831 222.827C186.817 222.827 186.803 222.823 186.79 222.818ZM187.34 220.729C187.244 220.714 187.178 220.624 187.193 220.528C187.233 220.271 187.265 220.013 187.289 219.76C187.298 219.664 187.305 219.566 187.312 219.468C187.319 219.371 187.403 219.298 187.501 219.304C187.611 219.31 187.671 219.395 187.664 219.492C187.658 219.593 187.65 219.693 187.64 219.792C187.616 220.052 187.583 220.318 187.542 220.582C187.527 220.674 187.443 220.739 187.352 220.73C187.347 220.73 187.343 220.73 187.34 220.729ZM187.335 218.403C187.326 218.043 187.297 217.686 187.251 217.344C187.239 217.248 187.306 217.159 187.403 217.146C187.5 217.133 187.588 217.201 187.601 217.297C187.649 217.653 187.678 218.021 187.688 218.394C187.691 218.491 187.614 218.572 187.516 218.575C187.509 218.576 187.502 218.575 187.495 218.574C187.407 218.566 187.338 218.493 187.335 218.403ZM187.048 216.303C186.958 215.958 186.846 215.621 186.714 215.301C186.677 215.211 186.72 215.108 186.81 215.071C186.9 215.034 187.003 215.077 187.04 215.167C187.178 215.502 187.296 215.854 187.389 216.215C187.413 216.309 187.357 216.405 187.263 216.43C187.242 216.435 187.222 216.437 187.202 216.435C187.131 216.428 187.067 216.377 187.048 216.303ZM186.241 214.358C186.061 214.056 185.856 213.768 185.631 213.5C185.569 213.425 185.578 213.314 185.653 213.252C185.728 213.189 185.839 213.199 185.902 213.273C186.138 213.555 186.354 213.859 186.544 214.176C186.594 214.259 186.567 214.368 186.484 214.418C186.45 214.438 186.413 214.445 186.377 214.442C186.322 214.438 186.271 214.408 186.241 214.358ZM184.904 212.706C184.682 212.453 184.449 212.169 184.211 211.86C184.151 211.783 184.165 211.672 184.242 211.613C184.319 211.553 184.43 211.568 184.49 211.645C184.723 211.948 184.952 212.226 185.169 212.473C185.233 212.546 185.226 212.657 185.153 212.722C185.115 212.755 185.067 212.769 185.02 212.765C184.977 212.76 184.935 212.741 184.904 212.706ZM183.565 210.981C183.361 210.692 183.157 210.391 182.953 210.081C182.9 210 182.922 209.89 183.004 209.837C183.085 209.784 183.195 209.807 183.248 209.887C183.45 210.194 183.652 210.492 183.853 210.778C183.909 210.857 183.89 210.967 183.811 211.023C183.775 211.049 183.733 211.058 183.693 211.055C183.643 211.05 183.596 211.025 183.565 210.981ZM182.368 209.165C182.178 208.861 181.99 208.551 181.803 208.237C181.753 208.153 181.781 208.045 181.864 207.995C181.948 207.945 182.056 207.973 182.106 208.056C182.292 208.368 182.479 208.676 182.667 208.978C182.719 209.061 182.693 209.17 182.611 209.221C182.577 209.242 182.538 209.25 182.501 209.247C182.449 209.243 182.398 209.214 182.368 209.165ZM181.256 207.3C181.076 206.986 180.898 206.67 180.723 206.355C180.676 206.27 180.706 206.163 180.792 206.116C180.876 206.068 180.984 206.099 181.031 206.184C181.205 206.498 181.382 206.812 181.562 207.125C181.61 207.209 181.581 207.317 181.496 207.366C181.463 207.385 181.427 207.392 181.393 207.389C181.338 207.383 181.286 207.352 181.256 207.3ZM180.203 205.403C180.029 205.079 179.859 204.76 179.694 204.445C179.649 204.359 179.682 204.253 179.768 204.207C179.855 204.162 179.961 204.195 180.007 204.282C180.171 204.595 180.34 204.914 180.514 205.236C180.56 205.322 180.528 205.428 180.442 205.475C180.41 205.492 180.376 205.498 180.342 205.495C180.286 205.489 180.232 205.457 180.203 205.403ZM179.196 203.483C179.025 203.149 178.861 202.826 178.705 202.515C178.662 202.428 178.697 202.323 178.784 202.279C178.871 202.236 178.977 202.271 179.021 202.358C179.175 202.667 179.339 202.99 179.509 203.323C179.553 203.41 179.519 203.515 179.433 203.56C179.401 203.576 179.368 203.582 179.336 203.579C179.278 203.573 179.224 203.539 179.196 203.483ZM178.225 201.543C178.05 201.186 177.892 200.858 177.753 200.567C177.711 200.479 177.748 200.373 177.836 200.331C177.924 200.289 178.029 200.326 178.071 200.415C178.21 200.706 178.368 201.032 178.541 201.389C178.584 201.476 178.548 201.582 178.461 201.625C178.43 201.639 178.398 201.645 178.367 201.642C178.308 201.636 178.253 201.601 178.225 201.543Z" fill="#51666B"/>
<path d="M186.148 224.275C186.209 224.28 186.272 224.254 186.31 224.2C186.401 224.069 186.495 223.909 186.589 223.724C186.633 223.637 186.599 223.531 186.512 223.487C186.426 223.444 186.32 223.478 186.275 223.564C186.189 223.734 186.103 223.88 186.021 223.998C185.965 224.078 185.985 224.188 186.065 224.244C186.09 224.262 186.119 224.272 186.148 224.275Z" fill="#51666B"/>
<path d="M172.494 169.101C172.516 169.103 172.539 169.101 172.561 169.094C173.345 168.859 174.145 168.704 174.939 168.634C175.037 168.625 175.108 168.54 175.099 168.443C175.091 168.346 175.004 168.277 174.909 168.283C174.091 168.355 173.268 168.514 172.46 168.756C172.366 168.784 172.314 168.883 172.341 168.976C172.363 169.047 172.425 169.094 172.494 169.101Z" fill="#51666B"/>
<path d="M160.367 180.621C160.438 180.628 160.508 180.591 160.541 180.523C160.583 180.438 164.722 172.081 171.634 169.412C171.724 169.377 171.77 169.275 171.735 169.185C171.7 169.094 171.598 169.049 171.506 169.084C164.464 171.803 160.266 180.284 160.225 180.369C160.182 180.457 160.219 180.562 160.306 180.605C160.325 180.614 160.346 180.619 160.367 180.621Z" fill="#51666B"/>
<path d="M160.201 199.929C158.583 200.844 157.48 202.307 157.48 202.307C157.48 202.307 155.976 204.235 154.493 207.302L154.493 207.305C152.839 210.732 151.216 215.581 151.765 220.746C154.732 216.457 160.548 218.308 160.548 218.308L160.552 218.309C160.691 217.04 161.035 215.506 161.751 213.757C162.036 213.05 162.385 212.311 162.804 211.535C163.651 209.971 164.726 208.548 165.908 207.217C166.708 206.313 167.727 204.755 167.295 202.969C167.292 202.965 167.292 202.961 167.292 202.961C167.105 202.183 166.636 201.363 165.757 200.534C163.772 198.664 161.749 199.046 160.201 199.929Z" fill="#DFEDF2"/>
<path d="M151.766 220.746C151.797 221.088 151.843 221.436 151.899 221.782C152.046 222.681 152.233 223.481 152.461 224.193C154.009 220.158 160.505 220.72 160.505 220.72H160.508C160.451 220.08 160.441 219.269 160.552 218.309L160.549 218.308C160.549 218.308 154.732 216.457 151.766 220.746Z" fill="#4884DF"/>
<path d="M160.505 220.72C160.505 220.72 154.009 220.158 152.461 224.193C154.766 231.536 160.777 229.283 162.056 227.876C162.513 227.369 162.843 226.689 162.976 225.975C163.257 224.514 162.726 222.92 160.824 222.417C160.824 222.417 160.6 221.819 160.508 220.72H160.505Z" fill="#DFEDF2"/>
<path d="M182.616 228.348C180.787 223.078 177.008 222.309 173.622 222.932C169.86 223.623 170.52 228.48 170.542 228.662C170.545 228.666 170.545 228.666 170.545 228.666C170.545 228.666 174.254 234.214 172.021 240.44C177.704 238.851 182.955 243.009 182.955 243.009C183.82 239.194 184.035 234.794 183.234 230.686C183.066 229.824 182.859 229.047 182.616 228.348Z" fill="#DFEDF2"/>
<path d="M169.882 245.012C168.668 248.316 169.744 249.73 170.309 251.118C171.007 252.823 175.864 261.101 179.273 258.713C179.273 258.713 171.298 254.263 169.882 245.012Z" fill="#61909B"/>
<path d="M171.118 242.404C170.559 243.39 170.161 244.252 169.881 245.012C171.297 254.263 179.273 258.713 179.273 258.713C182.682 256.324 179.84 250.556 179.84 250.556C180.878 249.116 181.773 247.177 182.444 244.951C182.444 244.951 176.212 240.487 171.118 242.404Z" fill="#82B2BF"/>
<path d="M172.021 240.44C171.787 241.091 171.492 241.744 171.119 242.403C176.213 240.487 182.445 244.951 182.445 244.951C182.634 244.325 182.804 243.678 182.955 243.009C182.955 243.009 177.704 238.851 172.021 240.44Z" fill="#4884DF"/>
<path d="M182.599 228.523C182.623 228.526 182.649 228.523 182.673 228.514C182.766 228.483 182.814 228.382 182.782 228.29C180.835 222.679 176.708 222.185 173.59 222.758C173.495 222.776 173.431 222.868 173.448 222.964C173.466 223.059 173.557 223.124 173.653 223.105C177.992 222.307 180.951 224.09 182.449 228.406C182.472 228.474 182.532 228.518 182.599 228.523Z" fill="#51666B"/>
<path d="M170.527 228.833C170.538 228.834 170.551 228.834 170.563 228.832C170.659 228.821 170.729 228.738 170.717 228.641C170.614 227.816 170.28 223.725 173.654 223.106C173.75 223.088 173.813 222.996 173.795 222.9C173.778 222.804 173.685 222.742 173.59 222.759C169.827 223.45 170.3 228.141 170.366 228.674C170.376 228.758 170.445 228.825 170.527 228.833Z" fill="#51666B"/>
<path d="M161.838 225.021C161.866 225.023 161.895 225.019 161.923 225.008C162.013 224.969 162.055 224.866 162.016 224.776L160.987 222.348C160.949 222.258 160.846 222.217 160.756 222.255C160.666 222.293 160.624 222.396 160.663 222.486L161.692 224.913C161.718 224.976 161.775 225.015 161.838 225.021Z" fill="#51666B"/>
<path d="M182.977 243.185C183.049 243.175 183.11 243.123 183.127 243.048C184.062 238.926 184.161 234.523 183.407 230.652C183.241 229.799 183.031 229.005 182.782 228.29C182.75 228.197 182.65 228.15 182.557 228.181C182.464 228.212 182.415 228.313 182.448 228.406C182.69 229.105 182.896 229.884 183.059 230.72C183.804 234.544 183.705 238.894 182.781 242.969C182.759 243.065 182.819 243.16 182.914 243.182C182.936 243.187 182.957 243.187 182.977 243.185Z" fill="#51666B"/>
<path d="M172.044 240.616C172.107 240.608 172.165 240.565 172.188 240.5C174.425 234.261 170.731 228.623 170.693 228.568C170.639 228.486 170.527 228.465 170.447 228.519C170.366 228.573 170.343 228.683 170.398 228.765C170.435 228.819 174.03 234.314 171.854 240.381C171.821 240.473 171.869 240.574 171.961 240.607C171.988 240.617 172.016 240.62 172.044 240.616Z" fill="#51666B"/>
<path d="M124.227 35.8691L129.91 51.9816L126.373 55.3401L120.518 39.3898L124.227 35.8691Z" fill="#9B197A"/>
<path d="M124.228 35.8689L120.519 39.3897L112.865 42.687L115.33 39.952L124.228 35.8689Z" fill="#CC3EA1"/>
<path d="M120.519 39.3904L126.373 55.3407L124.25 57.3562L118.221 41.5727L120.519 39.3904Z" fill="#EFA729"/>
<path d="M120.518 39.3899L118.22 41.5722L110.96 44.8L106.976 49.2198L103.92 50.6226L107.913 46.155L106.689 45.3454L105.996 44.8872L102.271 42.4232L104.599 41.9057L104.944 39.6859L108.714 42.9884L109.85 43.9847L109.591 42.5857L108.083 34.471L110.61 36.0282L112.23 34.077L112.75 41.1352L112.865 42.6873L120.518 39.3899Z" fill="#F9D82B"/>
<path d="M118.22 41.5725L124.25 57.356L119.911 61.4755L113.15 46.3877L118.22 41.5725Z" fill="#9B197A"/>
<path d="M118.22 41.5723L113.149 46.3875L106.976 49.22L110.96 44.8002L118.22 41.5723Z" fill="#CC3EA1"/>
<path d="M115.33 39.9521L112.865 42.6871L112.751 41.1351L115.33 39.9521Z" fill="#EFA729"/>
<path d="M113.15 46.3872L119.911 61.475L113.872 64.2461L106.976 49.2196L113.15 46.3872Z" fill="#B33185"/>
<path d="M109.591 42.5856L109.85 43.9846L108.714 42.9883L109.591 42.5856Z" fill="#CC3EA1"/>
<path d="M106.689 45.3459L107.913 46.1555L102.225 48.6837L104.676 46.2144L104.678 46.2132L106.689 45.3459Z" fill="#EFA729"/>
<path d="M107.913 46.1546L103.921 50.6223L97.2695 53.6744L102.226 48.6829L107.913 46.1546Z" fill="#CC3EA1"/>
<path d="M105.995 44.888L106.689 45.3462L104.678 46.2135L105.995 44.888Z" fill="#CC3EA1"/>
<path d="M106.976 49.2202L113.872 64.2467L111.253 65.4488C110.932 65.2416 103.921 50.623 103.921 50.623L106.976 49.2202Z" fill="#EFA729"/>
<path d="M111.252 65.4485L105.578 68.0526L97.2694 53.6753L103.921 50.6232C103.921 50.6232 110.931 65.2407 111.252 65.4485Z" fill="#B33185"/>
<path d="M113.648 145.732C113.662 146.226 113.551 146.681 113.32 147.101L113.319 147.103C111.551 150.302 102.838 151.34 90.6713 149.898L90.6687 149.899C90.6668 149.899 90.6643 149.898 90.6624 149.898C84.9069 149.213 78.3784 147.974 71.4476 146.145C70.0632 145.779 68.7132 145.403 67.3975 145.019L67.3956 145.019L67.3936 145.018C63.6746 143.929 60.2397 142.769 57.129 141.574C45.2849 137.023 38.1844 131.955 38.3293 128.341L38.33 128.339C38.363 127.535 38.7526 126.805 39.53 126.167C42.4462 123.771 50.3381 123.235 60.1686 124.27C59.2501 125.478 58.4664 126.803 57.846 128.229C56.8386 128.475 56.0415 128.813 55.5057 129.252C54.1982 130.325 54.6063 131.817 56.3987 133.451C57.8625 134.783 60.2537 136.21 63.388 137.577C66.1631 138.783 69.5204 139.945 73.3373 140.952C83.4475 143.621 92.0538 143.966 95.6259 142.416C96.7929 141.912 97.4228 141.204 97.3955 140.31C97.3777 139.757 97.1044 139.164 96.6073 138.549C96.859 136.819 96.8629 135.095 96.6448 133.418C106.692 137.537 113.538 142.188 113.648 145.732Z" fill="#F9D82B"/>
<path d="M88.3036 150.798L88.3017 150.797C83.0604 150.077 77.2476 148.923 71.1203 147.305C70.4573 147.131 69.802 146.953 69.1562 146.774C64.9796 145.615 61.1315 144.365 57.6693 143.065C43.9507 137.922 36.275 132.049 38.33 128.34C38.185 131.955 45.2855 137.024 57.1297 141.574C60.2404 142.769 63.6746 143.929 67.3943 145.018L67.3962 145.018L67.3981 145.019C68.7138 145.404 70.0639 145.78 71.4483 146.145C78.379 147.975 84.9075 149.213 90.663 149.897C90.6649 149.898 90.6675 149.899 90.6694 149.899L90.6719 149.898C102.839 151.34 111.551 150.302 113.32 147.103C113.139 151.284 103.469 152.727 89.4477 150.949C89.0702 150.902 88.6888 150.852 88.3036 150.798Z" fill="#EFA729"/>
<path d="M96.0789 141.019C95.9441 141.494 95.7922 141.961 95.6244 142.417C92.0522 143.967 83.4466 143.622 73.3358 140.953C69.5189 139.946 66.1615 138.784 63.3864 137.577C63.251 137.074 63.1334 136.56 63.0387 136.04C61.6289 128.272 65.3403 120.784 71.8198 116.8C75.0233 116.057 78.4614 116.062 81.8639 116.96C90.0239 119.114 95.6492 125.786 96.642 133.419C96.86 135.095 96.8562 136.82 96.6045 138.55C96.4863 139.372 96.3115 140.197 96.0789 141.019Z" fill="#E35D1E"/>
<path d="M88.3029 150.798C88.6881 150.851 89.0695 150.902 89.447 150.949C84.535 154.869 77.791 156.497 71.1774 154.751C64.7812 153.063 59.939 148.595 57.668 143.065C61.1302 144.365 64.9782 145.615 69.1549 146.774C73.4815 150.568 79.5104 152.462 85.7115 151.411C86.5994 151.261 87.4652 151.054 88.3004 150.797L88.3029 150.798Z" fill="#D1420B"/>
<path d="M88.3017 150.797C87.4665 151.055 86.6014 151.261 85.7129 151.411C79.5118 152.461 73.4829 150.568 69.1562 146.774C69.802 146.953 70.4574 147.131 71.1203 147.306C77.247 148.923 83.0598 150.078 88.3017 150.797Z" fill="#E35D1E"/>
<path d="M60.1683 124.271C63.0222 120.513 67.1766 117.871 71.8211 116.799C65.3416 120.784 61.6302 128.272 63.04 136.039C63.1347 136.56 63.2517 137.074 63.3877 137.577C60.2535 136.21 57.8623 134.783 56.3984 133.451C56.516 132.532 56.7042 131.611 56.9635 130.692C57.2038 129.842 57.5 129.021 57.8457 128.229C58.4661 126.803 59.2498 125.479 60.1683 124.271Z" fill="#D1420B"/>
<path d="M275.185 170.39C275.185 170.39 278.836 178.173 278.491 184.442C278.491 184.442 277.183 182.306 275.185 180.722C275.185 180.722 279.043 186.095 280.282 190.916C280.282 190.916 278.422 188.505 276.563 187.748C276.563 187.748 279.594 196.289 287.101 200.353C287.101 200.353 275.942 202.42 266.368 189.263C266.368 189.263 266.299 192.087 267.194 193.671C267.194 193.671 260.1 188.229 258.102 179.344L275.185 170.39Z" fill="#F9D82B"/>
<path d="M273.984 171.572C273.984 171.572 276.63 176.135 276.17 179.74C276.17 179.74 274.559 178.129 272.297 177.017C272.297 177.017 276.119 182.088 277.359 186.91C277.359 186.91 275.422 184.638 273.562 183.881C273.562 183.881 274.444 190.438 279.583 196.958C279.583 196.958 271.415 193.238 265.318 184.764C265.318 184.764 264.206 185.953 264.781 188.675C264.781 188.675 261.87 187.36 259.873 178.474L273.984 171.572Z" fill="#EFA729"/>
<path d="M288.524 145.143C290.179 147.779 291.139 150.819 291.619 153.981C287.9 140.257 279.16 139.075 273.297 146.201C273.096 145.459 272.894 144.726 272.688 144.002C273.436 142.941 280.882 132.959 288.524 145.143Z" fill="#2C6FD1"/>
<path d="M275.605 155.986C274.904 152.554 274.13 149.297 273.295 146.201C279.158 139.075 287.898 140.258 291.617 153.981C293.095 163.673 290.072 174.54 288.748 178.644C287.9 177.968 286.705 177.79 285.659 178.287C285.371 178.425 285.112 178.603 284.894 178.815L284.893 178.813C283.858 172.728 281.112 159.658 277.49 166.73C276.939 162.973 276.308 159.394 275.605 155.986Z" fill="#4884DF"/>
<path d="M272.686 144.002C272.893 144.727 273.095 145.459 273.295 146.201C274.13 149.297 274.904 152.554 275.606 155.986C272.196 159.441 268.22 162.101 264.292 164.129C264.217 163.978 264.142 163.832 264.065 163.684C259.142 154.024 254.575 147.222 253.281 147.837L250.966 142.971C256.873 140.161 259.384 133.092 256.572 127.183C253.76 121.273 246.692 118.762 240.785 121.573L237.725 115.143C242.411 112.978 247.108 109.186 250.659 102.679C258.724 111.062 266.978 124.014 272.686 144.002Z" fill="#DFECF2"/>
<path d="M288.749 178.645C289.085 178.913 289.367 179.258 289.564 179.674C290.26 181.136 289.639 182.883 288.177 183.579C286.716 184.274 284.969 183.653 284.273 182.192C283.715 181.019 284.004 179.663 284.896 178.815C285.114 178.603 285.372 178.425 285.66 178.288C286.706 177.789 287.901 177.968 288.749 178.645Z" fill="#2C6FD1"/>
<path d="M247.349 99.4694C248.445 100.456 249.551 101.526 250.662 102.68C247.111 109.187 242.415 112.979 237.729 115.144L235.715 110.911C239.948 108.952 244.194 105.482 247.346 99.4706L247.349 99.4694Z" fill="#F3DD28"/>
<path d="M247.347 99.4685L247.344 99.4698C244.192 105.481 239.946 108.952 235.713 110.91L224.558 87.4627C224.558 87.4627 235.306 88.6244 247.347 99.4685Z" fill="#4884DF"/>
<path d="M277.492 166.731C277.576 167.303 277.661 167.88 277.741 168.46C275.429 171.873 272.636 174.273 269.785 175.955C268.78 173.572 267.639 171.026 266.388 168.397C265.688 166.926 264.986 165.501 264.293 164.129C268.22 162.099 272.197 159.44 275.607 155.985C276.309 159.394 276.94 162.973 277.492 166.731Z" fill="#F9D82B"/>
<path d="M251.046 125.682C250.478 125.235 249.856 124.866 249.194 124.583C248.212 124.158 247.152 123.924 246.075 123.898C245.298 123.878 244.512 123.968 243.738 124.175C243.246 124.304 242.756 124.481 242.278 124.709C238.1 126.696 236.322 131.694 238.31 135.873C238.538 136.352 238.808 136.801 239.11 137.216C239.583 137.864 240.139 138.431 240.757 138.905C241.61 139.565 242.581 140.049 243.607 140.336C244.3 140.531 245.016 140.638 245.742 140.651C246.335 140.661 246.936 140.606 247.529 140.488C247.967 140.4 248.401 140.276 248.829 140.112C249.045 140.03 249.262 139.939 249.475 139.837C253.651 137.851 255.428 132.853 253.44 128.675C253.337 128.458 253.225 128.247 253.107 128.043C252.876 127.649 252.618 127.28 252.335 126.937C251.949 126.467 251.516 126.047 251.046 125.682ZM240.787 121.573C246.695 118.763 253.763 121.274 256.575 127.184C259.386 133.093 256.875 140.161 250.968 142.972C245.059 145.784 237.99 143.273 235.179 137.363C232.367 131.454 234.878 124.385 240.787 121.573Z" fill="#002244"/>
<path d="M253.108 128.041C253.226 128.246 253.338 128.456 253.441 128.673C255.429 132.852 253.652 137.849 249.475 139.836C249.263 139.937 249.046 140.029 248.83 140.111C250.136 136.436 251.804 131.724 253.108 128.041Z" fill="#88939A"/>
<path d="M252.336 126.936C252.619 127.278 252.877 127.648 253.108 128.042C251.803 131.725 250.136 136.436 248.831 140.111C248.402 140.274 247.969 140.398 247.531 140.487C248.805 136.912 250.777 131.344 252.336 126.936Z" fill="#ABB4B9"/>
<path d="M251.046 125.682C251.516 126.047 251.95 126.467 252.337 126.935C250.777 131.344 248.805 136.911 247.531 140.486C246.938 140.604 246.337 140.659 245.744 140.648C247.323 136.209 249.592 129.79 251.046 125.682Z" fill="#88939A"/>
<path d="M249.195 124.584C249.856 124.866 250.479 125.235 251.047 125.682C249.593 129.791 247.323 136.209 245.743 140.65C245.017 140.638 244.302 140.53 243.609 140.335C244.95 136.582 247.439 129.548 249.195 124.584Z" fill="#ABB4B9"/>
<path d="M246.075 123.898C247.153 123.924 248.213 124.157 249.194 124.584C247.439 129.547 244.95 136.582 243.609 140.335C242.581 140.048 241.611 139.564 240.758 138.903C242.227 134.78 244.506 128.337 246.075 123.898Z" fill="#88939A"/>
<path d="M264.293 164.13C264.986 165.501 265.688 166.927 266.388 168.399C267.639 171.028 268.779 173.574 269.785 175.956C272.038 181.302 273.606 185.83 274.181 188.613C273.724 188.593 273.258 188.684 272.816 188.894C272.374 189.103 272.01 189.409 271.737 189.777C269.931 187.564 267.389 183.458 264.646 178.296C263.443 176.037 262.203 173.573 260.968 170.978C260.254 169.475 259.576 168.001 258.937 166.567C258.882 166.444 258.828 166.323 258.775 166.203C258.775 166.203 247.762 136.185 264.066 163.685C264.142 163.833 264.217 163.979 264.293 164.13Z" fill="#4884DF"/>
<path d="M253.282 147.838C254.576 147.222 259.142 154.024 264.066 163.685C247.761 136.184 258.775 166.202 258.775 166.202C254.386 156.287 251.988 148.454 253.282 147.838Z" fill="#2C6FD1"/>
<path d="M274.182 188.612C275.236 188.649 276.235 189.261 276.721 190.28C277.416 191.741 276.795 193.489 275.334 194.184C273.873 194.879 272.125 194.258 271.43 192.797C270.944 191.778 271.101 190.617 271.738 189.775C272.011 189.408 272.375 189.103 272.817 188.892C273.258 188.682 273.724 188.593 274.182 188.612Z" fill="#2C6FD1"/>
<path d="M243.738 124.176C244.512 123.969 245.298 123.879 246.075 123.898C244.505 128.337 242.227 134.78 240.758 138.905C240.14 138.431 239.584 137.865 239.111 137.217C240.269 133.969 242.158 128.646 243.738 124.176Z" fill="#ABB4B9"/>
<path d="M242.277 124.708C242.755 124.481 243.245 124.303 243.737 124.175C242.157 128.646 240.268 133.969 239.111 137.216C238.808 136.801 238.539 136.352 238.311 135.872C236.322 131.694 238.1 126.697 242.277 124.708Z" fill="#88939A"/>
<path d="M250.968 142.972L253.283 147.837C251.989 148.453 254.387 156.287 258.776 166.202C258.828 166.323 258.883 166.444 258.938 166.566C251.638 169.463 245.631 170.286 245.523 170.299C243.314 167.602 241.284 164.958 239.416 162.368C238.967 161.75 238.529 161.133 238.1 160.52C226.22 143.531 221.356 128.995 219.916 117.463C222.388 117.868 230.039 118.699 237.729 115.143L240.789 121.573C234.879 124.385 232.368 131.453 235.18 137.363C237.99 143.272 245.058 145.784 250.968 142.972Z" fill="#DFECF2"/>
<path d="M235.714 110.91L237.728 115.144C230.038 118.7 222.387 117.869 219.916 117.463C219.716 115.874 219.584 114.341 219.504 112.869C220.871 113.137 228.276 114.356 235.714 110.91Z" fill="#F9D82B"/>
<path d="M224.558 87.4626L235.713 110.91C228.275 114.355 220.869 113.137 219.503 112.869C218.643 96.5903 224.558 87.4626 224.558 87.4626Z" fill="#4884DF"/>
<path d="M258.938 166.567C259.576 168 260.255 169.475 260.969 170.977C262.204 173.572 263.444 176.037 264.647 178.296C258.799 180.258 253.856 179.826 253.856 179.826C253.478 179.42 253.104 179.015 252.733 178.609C250.143 175.789 247.745 173.018 245.523 170.3C245.631 170.286 251.637 169.464 258.938 166.567Z" fill="#F9D82B"/>
<path d="M254.732 194.828C254.743 193.742 255.358 192.704 256.404 192.205C256.692 192.068 256.995 191.982 257.296 191.945C258.516 191.789 259.751 192.42 260.308 193.592C261.003 195.053 260.382 196.801 258.921 197.496C257.46 198.192 255.712 197.571 255.017 196.109C254.819 195.695 254.729 195.258 254.732 194.828Z" fill="#2C6FD1"/>
<path d="M245.521 170.299C247.742 173.017 250.141 175.788 252.731 178.608C244.718 176.802 253.203 187.276 257.295 191.945L257.297 191.947C256.995 191.985 256.693 192.07 256.404 192.207C255.359 192.704 254.743 193.745 254.733 194.83C250.712 193.267 240.374 188.757 233.786 181.497C225.454 169.91 230.113 162.373 239.41 162.371L239.415 162.369C241.282 164.958 243.313 167.602 245.521 170.299Z" fill="#4884DF"/>
<path d="M239.415 162.368L239.41 162.371C230.114 162.372 225.455 169.91 233.787 181.496C231.636 179.129 229.882 176.467 228.882 173.52C223.995 159.163 238.097 160.521 238.097 160.521L238.099 160.52C238.529 161.132 238.967 161.75 239.415 162.368Z" fill="#2C6FD1"/>
<path d="M225.907 129.057C225.871 129.074 225.834 129.088 225.795 129.1C225.376 129.227 224.933 128.99 224.806 128.571C224.273 126.814 223.801 125.041 223.402 123.306C223.303 122.879 223.57 122.452 223.998 122.355C224.425 122.257 224.85 122.524 224.949 122.951C225.339 124.652 225.802 126.388 226.325 128.111C226.439 128.491 226.255 128.891 225.907 129.057Z" fill="#93A8B2"/>
<path d="M238.965 156.156C238.612 156.324 238.181 156.21 237.961 155.874C232.594 147.673 228.488 139.479 225.758 131.518C225.616 131.103 225.836 130.65 226.251 130.51C226.666 130.369 227.117 130.589 227.258 131.003C229.946 138.84 233.993 146.915 239.289 155.005C239.529 155.371 239.426 155.863 239.059 156.103C239.028 156.124 238.997 156.141 238.965 156.156Z" fill="#93A8B2"/>
<path d="M322.776 20.3581L310.578 45.4412L302.62 45.1845L314.431 20.0881L322.776 20.3581Z" fill="#9B197A"/>
<path d="M322.775 20.3582L314.431 20.0882L301.823 14.9795L307.827 14.7053L322.775 20.3582Z" fill="#CC3EA1"/>
<path d="M314.432 20.0882L302.621 45.1845L297.844 45.0308L309.262 19.922L314.432 20.0882Z" fill="#EFA729"/>
<path d="M314.431 20.0882L309.261 19.922L297.183 15.1914L287.479 15.6334L282.345 13.6926L292.113 13.2049L291.651 10.8562L291.388 9.52359L289.977 2.3703L293.249 4.48305L296.223 2.33624L296.712 10.5031L296.858 12.9665L298.185 11.0606L305.881 0L306.972 4.72232L311.097 4.36674L303.494 13.0678L301.823 14.9795L314.431 20.0882Z" fill="#F9D82B"/>
<path d="M309.261 19.922L297.843 45.0308L288.081 44.7151L297.85 19.5548L309.261 19.922Z" fill="#9B197A"/>
<path d="M309.26 19.9219L297.849 19.5547L287.479 15.6333L297.182 15.1913L309.26 19.9219Z" fill="#CC3EA1"/>
<path d="M307.827 14.7053L301.823 14.9794L303.494 13.0677L307.827 14.7053Z" fill="#EFA729"/>
<path d="M297.85 19.5547L288.081 44.715L277.935 40.8783L287.48 15.6333L297.85 19.5547Z" fill="#B33185"/>
<path d="M298.184 11.0607L296.857 12.9665L296.711 10.5032L298.184 11.0607Z" fill="#CC3EA1"/>
<path d="M291.651 10.8563L292.113 13.205L282.653 9.49878L288.333 9.5129L288.335 9.51374L291.651 10.8563Z" fill="#EFA729"/>
<path d="M292.114 13.2049L282.345 13.6925L271.17 9.46704L282.654 9.49861L292.114 13.2049Z" fill="#CC3EA1"/>
<path d="M291.387 9.52364L291.651 10.8563L288.335 9.51367L291.387 9.52364Z" fill="#CC3EA1"/>
<path d="M287.479 15.6334L277.934 40.8793L273.533 39.2152C273.406 38.6045 282.345 13.6926 282.345 13.6926L287.479 15.6334Z" fill="#EFA729"/>
<path d="M273.533 39.2142L264 35.6102L271.17 9.46704L282.345 13.6925C282.345 13.6925 273.406 38.6044 273.533 39.2142Z" fill="#B33185"/>
</g>
<defs>
<radialGradient id="paint0_radial_5061_17679" cx="0" cy="0" r="1" gradientUnits="userSpaceOnUse" gradientTransform="translate(201.83 517.455) rotate(-3.47984) scale(346.003)">
<stop offset="0.3189" stop-color="white"/>
<stop offset="0.9735" stop-color="white" stop-opacity="0"/>
</radialGradient>
<linearGradient id="paint1_linear_5061_17679" x1="53.8484" y1="262.402" x2="62.6874" y2="275.766" gradientUnits="userSpaceOnUse">
<stop stop-color="#BABABA"/>
<stop offset="1" stop-color="#EDEDED"/>
</linearGradient>
<linearGradient id="paint2_linear_5061_17679" x1="332.391" y1="251.646" x2="327.107" y2="262.234" gradientUnits="userSpaceOnUse">
<stop stop-color="#BABABA"/>
<stop offset="1" stop-color="#EDEDED"/>
</linearGradient>
<linearGradient id="paint3_linear_5061_17679" x1="200.333" y1="263.956" x2="200.97" y2="274.438" gradientUnits="userSpaceOnUse">
<stop stop-color="#BABABA"/>
<stop offset="1" stop-color="#EDEDED"/>
</linearGradient>
<clipPath id="clip0_5061_17679">
<rect width="493" height="330" fill="white"/>
</clipPath>
</defs>
</svg>
